M48
; DRILL file {KiCad (6.0.0)} date Sat Jan 28 16:32:58 2023
; FORMAT={-:-/ absolute / inch / decimal}
; #@! TF.CreationDate,2023-01-28T16:32:58+01:00
; #@! TF.GenerationSoftware,Kicad,Pcbnew,(6.0.0)
; #@! TF.FileFunction,Plated,1,2,PTH
FMAT,2
INCH
; #@! TA.AperFunction,Plated,PTH,ViaDrill
T1C0.0118
; #@! TA.AperFunction,Plated,PTH,ComponentDrill
T2C0.0256
; #@! TA.AperFunction,Plated,PTH,ComponentDrill
T3C0.0394
; #@! TA.AperFunction,Plated,PTH,ComponentDrill
T4C0.0433
%
G90
G05
T1
X0.236Y1.715
X0.246Y1.41
X0.246Y0.37
X0.281Y0.235
X0.296Y1.625
X0.306Y1.725
X0.352Y0.534
X0.371Y1.41
X0.376Y0.83
X0.4294Y0.9603
X0.43Y1.466
X0.44Y1.602
X0.461Y1.466
X0.462Y1.56
X0.501Y1.315
X0.514Y0.637
X0.5232Y0.96
X0.524Y1.46
X0.536Y0.396
X0.537Y0.569
X0.549Y1.51
X0.596Y1.51
X0.596Y1.46
X0.603Y1.633
X0.6193Y0.9897
X0.681Y0.364
X0.687Y0.877
X0.709Y0.569
X0.711Y1.045
X0.717Y0.948
X0.737Y1.087
X0.741Y1.008
T2
X0.4091Y0.475
X0.4591Y0.475
X0.476Y1.75
X0.5091Y0.475
X0.526Y1.75
X0.576Y1.75
X0.626Y1.75
T3
X0.101Y2.0
X0.101Y1.9
X0.101Y1.8
X0.101Y1.7
X0.101Y1.6
X0.101Y1.5
X0.101Y1.4
X0.101Y1.3
X0.101Y1.2
X0.101Y1.1
X0.101Y1.0
X0.101Y0.9
X0.101Y0.8
X0.101Y0.7
X0.101Y0.6
X0.101Y0.5
X0.101Y0.4
X0.101Y0.3
X0.101Y0.2
X0.101Y0.1
X0.327Y0.469
X0.327Y0.369
X0.327Y0.269
X0.327Y0.169
X0.327Y0.069
X0.801Y2.0
X0.801Y1.9
X0.801Y1.8
X0.801Y1.7
X0.801Y1.6
X0.801Y1.5
X0.801Y1.4
X0.801Y1.3
X0.801Y1.2
X0.801Y1.1
X0.801Y1.0
X0.801Y0.9
X0.801Y0.8
X0.801Y0.7
X0.801Y0.6
X0.801Y0.5
X0.801Y0.4
X0.801Y0.3
X0.801Y0.2
X0.801Y0.1
T4
X0.401Y1.95
X0.501Y1.95
T0
M30
