%TF.GenerationSoftware,KiCad,Pcbnew,(6.0.0)*%
%TF.CreationDate,2023-01-28T16:33:02+01:00*%
%TF.ProjectId,MH106Enhanced,4d483130-3645-46e6-9861-6e6365642e6b,1*%
%TF.SameCoordinates,PX5255c88PY54c81a0*%
%TF.FileFunction,Legend,Bot*%
%TF.FilePolarity,Positive*%
%FSLAX46Y46*%
G04 Gerber Fmt 4.6, Leading zero omitted, Abs format (unit mm)*
G04 Created by KiCad (PCBNEW (6.0.0)) date 2023-01-28 16:33:02*
%MOMM*%
%LPD*%
G01*
G04 APERTURE LIST*
%ADD10C,0.152400*%
%ADD11C,0.150000*%
%ADD12C,0.010000*%
%ADD13C,0.120000*%
%ADD14C,0.127000*%
%ADD15C,0.200000*%
G04 APERTURE END LIST*
D10*
X4617780Y31019048D02*
X5332066Y31019048D01*
X5474923Y31066667D01*
X5570161Y31161905D01*
X5617780Y31304762D01*
X5617780Y31400000D01*
X5617780Y30066667D02*
X5617780Y30542858D01*
X4617780Y30542858D01*
X5522542Y29161905D02*
X5570161Y29209524D01*
X5617780Y29352381D01*
X5617780Y29447620D01*
X5570161Y29590477D01*
X5474923Y29685715D01*
X5379685Y29733334D01*
X5189209Y29780953D01*
X5046352Y29780953D01*
X4855876Y29733334D01*
X4760638Y29685715D01*
X4665400Y29590477D01*
X4617780Y29447620D01*
X4617780Y29352381D01*
X4665400Y29209524D01*
X4713019Y29161905D01*
X4617780Y28447620D02*
X5332066Y28447620D01*
X5474923Y28495239D01*
X5570161Y28590477D01*
X5617780Y28733334D01*
X5617780Y28828572D01*
X5617780Y27495239D02*
X5617780Y27971429D01*
X4617780Y27971429D01*
X5522542Y26590477D02*
X5570161Y26638096D01*
X5617780Y26780953D01*
X5617780Y26876191D01*
X5570161Y27019048D01*
X5474923Y27114286D01*
X5379685Y27161905D01*
X5189209Y27209524D01*
X5046352Y27209524D01*
X4855876Y27161905D01*
X4760638Y27114286D01*
X4665400Y27019048D01*
X4617780Y26876191D01*
X4617780Y26780953D01*
X4665400Y26638096D01*
X4713019Y26590477D01*
X4617780Y25876191D02*
X5332066Y25876191D01*
X5474923Y25923810D01*
X5570161Y26019048D01*
X5617780Y26161905D01*
X5617780Y26257143D01*
X5617780Y24923810D02*
X5617780Y25400000D01*
X4617780Y25400000D01*
X5522542Y24019048D02*
X5570161Y24066667D01*
X5617780Y24209524D01*
X5617780Y24304762D01*
X5570161Y24447620D01*
X5474923Y24542858D01*
X5379685Y24590477D01*
X5189209Y24638096D01*
X5046352Y24638096D01*
X4855876Y24590477D01*
X4760638Y24542858D01*
X4665400Y24447620D01*
X4617780Y24304762D01*
X4617780Y24209524D01*
X4665400Y24066667D01*
X4713019Y24019048D01*
X4617780Y23304762D02*
X5332066Y23304762D01*
X5474923Y23352381D01*
X5570161Y23447620D01*
X5617780Y23590477D01*
X5617780Y23685715D01*
X5617780Y22352381D02*
X5617780Y22828572D01*
X4617780Y22828572D01*
X5522542Y21447620D02*
X5570161Y21495239D01*
X5617780Y21638096D01*
X5617780Y21733334D01*
X5570161Y21876191D01*
X5474923Y21971429D01*
X5379685Y22019048D01*
X5189209Y22066667D01*
X5046352Y22066667D01*
X4855876Y22019048D01*
X4760638Y21971429D01*
X4665400Y21876191D01*
X4617780Y21733334D01*
X4617780Y21638096D01*
X4665400Y21495239D01*
X4713019Y21447620D01*
D11*
%TO.C,C9*%
X18032066Y12042858D02*
X18079685Y11995239D01*
X18222542Y11947620D01*
X18317780Y11947620D01*
X18460638Y11995239D01*
X18555876Y12090477D01*
X18603495Y12185715D01*
X18651114Y12376191D01*
X18651114Y12519048D01*
X18603495Y12709524D01*
X18555876Y12804762D01*
X18460638Y12900000D01*
X18317780Y12947620D01*
X18222542Y12947620D01*
X18079685Y12900000D01*
X18032066Y12852381D01*
X17555876Y11947620D02*
X17365400Y11947620D01*
X17270161Y11995239D01*
X17222542Y12042858D01*
X17127304Y12185715D01*
X17079685Y12376191D01*
X17079685Y12757143D01*
X17127304Y12852381D01*
X17174923Y12900000D01*
X17270161Y12947620D01*
X17460638Y12947620D01*
X17555876Y12900000D01*
X17603495Y12852381D01*
X17651114Y12757143D01*
X17651114Y12519048D01*
X17603495Y12423810D01*
X17555876Y12376191D01*
X17460638Y12328572D01*
X17270161Y12328572D01*
X17174923Y12376191D01*
X17127304Y12423810D01*
X17079685Y12519048D01*
%TO.C,C6*%
X6522542Y51566667D02*
X6570161Y51614286D01*
X6617780Y51757143D01*
X6617780Y51852381D01*
X6570161Y51995239D01*
X6474923Y52090477D01*
X6379685Y52138096D01*
X6189209Y52185715D01*
X6046352Y52185715D01*
X5855876Y52138096D01*
X5760638Y52090477D01*
X5665400Y51995239D01*
X5617780Y51852381D01*
X5617780Y51757143D01*
X5665400Y51614286D01*
X5713019Y51566667D01*
X5617780Y50709524D02*
X5617780Y50900000D01*
X5665400Y50995239D01*
X5713019Y51042858D01*
X5855876Y51138096D01*
X6046352Y51185715D01*
X6427304Y51185715D01*
X6522542Y51138096D01*
X6570161Y51090477D01*
X6617780Y50995239D01*
X6617780Y50804762D01*
X6570161Y50709524D01*
X6522542Y50661905D01*
X6427304Y50614286D01*
X6189209Y50614286D01*
X6093971Y50661905D01*
X6046352Y50709524D01*
X5998733Y50804762D01*
X5998733Y50995239D01*
X6046352Y51090477D01*
X6093971Y51138096D01*
X6189209Y51185715D01*
%TO.C,U4*%
X17511780Y30987905D02*
X18321304Y30987905D01*
X18416542Y30940286D01*
X18464161Y30892667D01*
X18511780Y30797429D01*
X18511780Y30606953D01*
X18464161Y30511715D01*
X18416542Y30464096D01*
X18321304Y30416477D01*
X17511780Y30416477D01*
X17845114Y29511715D02*
X18511780Y29511715D01*
X17464161Y29749810D02*
X18178447Y29987905D01*
X18178447Y29368858D01*
%TO.C,C10*%
X12808257Y23542858D02*
X12855876Y23495239D01*
X12998733Y23447620D01*
X13093971Y23447620D01*
X13236828Y23495239D01*
X13332066Y23590477D01*
X13379685Y23685715D01*
X13427304Y23876191D01*
X13427304Y24019048D01*
X13379685Y24209524D01*
X13332066Y24304762D01*
X13236828Y24400000D01*
X13093971Y24447620D01*
X12998733Y24447620D01*
X12855876Y24400000D01*
X12808257Y24352381D01*
X11855876Y23447620D02*
X12427304Y23447620D01*
X12141590Y23447620D02*
X12141590Y24447620D01*
X12236828Y24304762D01*
X12332066Y24209524D01*
X12427304Y24161905D01*
X11236828Y24447620D02*
X11141590Y24447620D01*
X11046352Y24400000D01*
X10998733Y24352381D01*
X10951114Y24257143D01*
X10903495Y24066667D01*
X10903495Y23828572D01*
X10951114Y23638096D01*
X10998733Y23542858D01*
X11046352Y23495239D01*
X11141590Y23447620D01*
X11236828Y23447620D01*
X11332066Y23495239D01*
X11379685Y23542858D01*
X11427304Y23638096D01*
X11474923Y23828572D01*
X11474923Y24066667D01*
X11427304Y24257143D01*
X11379685Y24352381D01*
X11332066Y24400000D01*
X11236828Y24447620D01*
%TO.C,C11*%
X12808257Y36042858D02*
X12855876Y35995239D01*
X12998733Y35947620D01*
X13093971Y35947620D01*
X13236828Y35995239D01*
X13332066Y36090477D01*
X13379685Y36185715D01*
X13427304Y36376191D01*
X13427304Y36519048D01*
X13379685Y36709524D01*
X13332066Y36804762D01*
X13236828Y36900000D01*
X13093971Y36947620D01*
X12998733Y36947620D01*
X12855876Y36900000D01*
X12808257Y36852381D01*
X11855876Y35947620D02*
X12427304Y35947620D01*
X12141590Y35947620D02*
X12141590Y36947620D01*
X12236828Y36804762D01*
X12332066Y36709524D01*
X12427304Y36661905D01*
X10903495Y35947620D02*
X11474923Y35947620D01*
X11189209Y35947620D02*
X11189209Y36947620D01*
X11284447Y36804762D01*
X11379685Y36709524D01*
X11474923Y36661905D01*
%TO.C,C5*%
X8022542Y51566667D02*
X8070161Y51614286D01*
X8117780Y51757143D01*
X8117780Y51852381D01*
X8070161Y51995239D01*
X7974923Y52090477D01*
X7879685Y52138096D01*
X7689209Y52185715D01*
X7546352Y52185715D01*
X7355876Y52138096D01*
X7260638Y52090477D01*
X7165400Y51995239D01*
X7117780Y51852381D01*
X7117780Y51757143D01*
X7165400Y51614286D01*
X7213019Y51566667D01*
X7117780Y50661905D02*
X7117780Y51138096D01*
X7593971Y51185715D01*
X7546352Y51138096D01*
X7498733Y51042858D01*
X7498733Y50804762D01*
X7546352Y50709524D01*
X7593971Y50661905D01*
X7689209Y50614286D01*
X7927304Y50614286D01*
X8022542Y50661905D01*
X8070161Y50709524D01*
X8117780Y50804762D01*
X8117780Y51042858D01*
X8070161Y51138096D01*
X8022542Y51185715D01*
%TO.C,Q2*%
X6213019Y1995239D02*
X6165400Y2090477D01*
X6070161Y2185715D01*
X5927304Y2328572D01*
X5879685Y2423810D01*
X5879685Y2519048D01*
X6117780Y2471429D02*
X6070161Y2566667D01*
X5974923Y2661905D01*
X5784447Y2709524D01*
X5451114Y2709524D01*
X5260638Y2661905D01*
X5165400Y2566667D01*
X5117780Y2471429D01*
X5117780Y2280953D01*
X5165400Y2185715D01*
X5260638Y2090477D01*
X5451114Y2042858D01*
X5784447Y2042858D01*
X5974923Y2090477D01*
X6070161Y2185715D01*
X6117780Y2280953D01*
X6117780Y2471429D01*
X5213019Y1661905D02*
X5165400Y1614286D01*
X5117780Y1519048D01*
X5117780Y1280953D01*
X5165400Y1185715D01*
X5213019Y1138096D01*
X5308257Y1090477D01*
X5403495Y1090477D01*
X5546352Y1138096D01*
X6117780Y1709524D01*
X6117780Y1090477D01*
%TO.C,Q1*%
X6213019Y16995239D02*
X6165400Y17090477D01*
X6070161Y17185715D01*
X5927304Y17328572D01*
X5879685Y17423810D01*
X5879685Y17519048D01*
X6117780Y17471429D02*
X6070161Y17566667D01*
X5974923Y17661905D01*
X5784447Y17709524D01*
X5451114Y17709524D01*
X5260638Y17661905D01*
X5165400Y17566667D01*
X5117780Y17471429D01*
X5117780Y17280953D01*
X5165400Y17185715D01*
X5260638Y17090477D01*
X5451114Y17042858D01*
X5784447Y17042858D01*
X5974923Y17090477D01*
X6070161Y17185715D01*
X6117780Y17280953D01*
X6117780Y17471429D01*
X6117780Y16090477D02*
X6117780Y16661905D01*
X6117780Y16376191D02*
X5117780Y16376191D01*
X5260638Y16471429D01*
X5355876Y16566667D01*
X5403495Y16661905D01*
%TO.C,U3*%
X17511780Y18922905D02*
X18321304Y18922905D01*
X18416542Y18875286D01*
X18464161Y18827667D01*
X18511780Y18732429D01*
X18511780Y18541953D01*
X18464161Y18446715D01*
X18416542Y18399096D01*
X18321304Y18351477D01*
X17511780Y18351477D01*
X17511780Y17970524D02*
X17511780Y17351477D01*
X17892733Y17684810D01*
X17892733Y17541953D01*
X17940352Y17446715D01*
X17987971Y17399096D01*
X18083209Y17351477D01*
X18321304Y17351477D01*
X18416542Y17399096D01*
X18464161Y17446715D01*
X18511780Y17541953D01*
X18511780Y17827667D01*
X18464161Y17922905D01*
X18416542Y17970524D01*
%TO.C,U2*%
X17384780Y6857905D02*
X18194304Y6857905D01*
X18289542Y6810286D01*
X18337161Y6762667D01*
X18384780Y6667429D01*
X18384780Y6476953D01*
X18337161Y6381715D01*
X18289542Y6334096D01*
X18194304Y6286477D01*
X17384780Y6286477D01*
X17480019Y5857905D02*
X17432400Y5810286D01*
X17384780Y5715048D01*
X17384780Y5476953D01*
X17432400Y5381715D01*
X17480019Y5334096D01*
X17575257Y5286477D01*
X17670495Y5286477D01*
X17813352Y5334096D01*
X18384780Y5905524D01*
X18384780Y5286477D01*
%TO.C,U5*%
X4867780Y37661905D02*
X5677304Y37661905D01*
X5772542Y37614286D01*
X5820161Y37566667D01*
X5867780Y37471429D01*
X5867780Y37280953D01*
X5820161Y37185715D01*
X5772542Y37138096D01*
X5677304Y37090477D01*
X4867780Y37090477D01*
X4867780Y36138096D02*
X4867780Y36614286D01*
X5343971Y36661905D01*
X5296352Y36614286D01*
X5248733Y36519048D01*
X5248733Y36280953D01*
X5296352Y36185715D01*
X5343971Y36138096D01*
X5439209Y36090477D01*
X5677304Y36090477D01*
X5772542Y36138096D01*
X5820161Y36185715D01*
X5867780Y36280953D01*
X5867780Y36519048D01*
X5820161Y36614286D01*
X5772542Y36661905D01*
D12*
%TO.C,REF\u002A\u002A*%
X17324159Y39180816D02*
X17297647Y39167718D01*
X17297647Y39167718D02*
X17264953Y39144894D01*
X17264953Y39144894D02*
X17241125Y39120004D01*
X17241125Y39120004D02*
X17224806Y39088751D01*
X17224806Y39088751D02*
X17214640Y39046834D01*
X17214640Y39046834D02*
X17209272Y38989956D01*
X17209272Y38989956D02*
X17207344Y38913816D01*
X17207344Y38913816D02*
X17207231Y38881083D01*
X17207231Y38881083D02*
X17207561Y38809344D01*
X17207561Y38809344D02*
X17208927Y38758073D01*
X17208927Y38758073D02*
X17211900Y38722596D01*
X17211900Y38722596D02*
X17217049Y38698237D01*
X17217049Y38698237D02*
X17224943Y38680320D01*
X17224943Y38680320D02*
X17233157Y38668098D01*
X17233157Y38668098D02*
X17285587Y38616095D01*
X17285587Y38616095D02*
X17347330Y38584816D01*
X17347330Y38584816D02*
X17413936Y38575408D01*
X17413936Y38575408D02*
X17480958Y38589020D01*
X17480958Y38589020D02*
X17502192Y38598646D01*
X17502192Y38598646D02*
X17553024Y38625141D01*
X17553024Y38625141D02*
X17553024Y38209948D01*
X17553024Y38209948D02*
X17515925Y38229132D01*
X17515925Y38229132D02*
X17467043Y38243975D01*
X17467043Y38243975D02*
X17406961Y38247778D01*
X17406961Y38247778D02*
X17346964Y38240757D01*
X17346964Y38240757D02*
X17301656Y38224987D01*
X17301656Y38224987D02*
X17264075Y38194953D01*
X17264075Y38194953D02*
X17231964Y38151976D01*
X17231964Y38151976D02*
X17229550Y38147564D01*
X17229550Y38147564D02*
X17219367Y38126779D01*
X17219367Y38126779D02*
X17211930Y38105830D01*
X17211930Y38105830D02*
X17206811Y38080452D01*
X17206811Y38080452D02*
X17203581Y38046382D01*
X17203581Y38046382D02*
X17201813Y37999359D01*
X17201813Y37999359D02*
X17201077Y37935118D01*
X17201077Y37935118D02*
X17200944Y37862824D01*
X17200944Y37862824D02*
X17200944Y37632178D01*
X17200944Y37632178D02*
X17339261Y37632178D01*
X17339261Y37632178D02*
X17339261Y38057467D01*
X17339261Y38057467D02*
X17377949Y38090021D01*
X17377949Y38090021D02*
X17418138Y38116060D01*
X17418138Y38116060D02*
X17456197Y38120795D01*
X17456197Y38120795D02*
X17494466Y38108611D01*
X17494466Y38108611D02*
X17514862Y38096680D01*
X17514862Y38096680D02*
X17530042Y38079687D01*
X17530042Y38079687D02*
X17540838Y38054005D01*
X17540838Y38054005D02*
X17548083Y38016009D01*
X17548083Y38016009D02*
X17552608Y37962074D01*
X17552608Y37962074D02*
X17555244Y37888575D01*
X17555244Y37888575D02*
X17556172Y37839653D01*
X17556172Y37839653D02*
X17559311Y37638465D01*
X17559311Y37638465D02*
X17625326Y37634664D01*
X17625326Y37634664D02*
X17691340Y37630864D01*
X17691340Y37630864D02*
X17691340Y38879350D01*
X17691340Y38879350D02*
X17553024Y38879350D01*
X17553024Y38879350D02*
X17549497Y38809746D01*
X17549497Y38809746D02*
X17537615Y38761431D01*
X17537615Y38761431D02*
X17515420Y38731369D01*
X17515420Y38731369D02*
X17480959Y38716529D01*
X17480959Y38716529D02*
X17446142Y38713564D01*
X17446142Y38713564D02*
X17406729Y38716972D01*
X17406729Y38716972D02*
X17380571Y38730383D01*
X17380571Y38730383D02*
X17364214Y38748104D01*
X17364214Y38748104D02*
X17351337Y38767165D01*
X17351337Y38767165D02*
X17343672Y38788399D01*
X17343672Y38788399D02*
X17340261Y38818151D01*
X17340261Y38818151D02*
X17340149Y38862764D01*
X17340149Y38862764D02*
X17341297Y38900120D01*
X17341297Y38900120D02*
X17343932Y38956396D01*
X17343932Y38956396D02*
X17347856Y38993342D01*
X17347856Y38993342D02*
X17354463Y39016777D01*
X17354463Y39016777D02*
X17365149Y39032520D01*
X17365149Y39032520D02*
X17375233Y39041620D01*
X17375233Y39041620D02*
X17417370Y39061463D01*
X17417370Y39061463D02*
X17467240Y39064668D01*
X17467240Y39064668D02*
X17495876Y39057832D01*
X17495876Y39057832D02*
X17524228Y39033536D01*
X17524228Y39033536D02*
X17543009Y38986272D01*
X17543009Y38986272D02*
X17552112Y38916376D01*
X17552112Y38916376D02*
X17553024Y38879350D01*
X17553024Y38879350D02*
X17691340Y38879350D01*
X17691340Y38879350D02*
X17691340Y39191386D01*
X17691340Y39191386D02*
X17622182Y39191386D01*
X17622182Y39191386D02*
X17580660Y39189744D01*
X17580660Y39189744D02*
X17559238Y39183913D01*
X17559238Y39183913D02*
X17553026Y39172539D01*
X17553026Y39172539D02*
X17553024Y39172202D01*
X17553024Y39172202D02*
X17550142Y39161062D01*
X17550142Y39161062D02*
X17537430Y39162327D01*
X17537430Y39162327D02*
X17512157Y39174567D01*
X17512157Y39174567D02*
X17453269Y39193293D01*
X17453269Y39193293D02*
X17387015Y39195261D01*
X17387015Y39195261D02*
X17324159Y39180816D01*
X17324159Y39180816D02*
X17324159Y39180816D01*
G36*
X17625326Y37634664D02*
G01*
X17559311Y37638465D01*
X17556172Y37839653D01*
X17555244Y37888575D01*
X17552608Y37962074D01*
X17548083Y38016009D01*
X17540838Y38054005D01*
X17530042Y38079687D01*
X17514862Y38096680D01*
X17494466Y38108611D01*
X17456197Y38120795D01*
X17418138Y38116060D01*
X17377949Y38090021D01*
X17339261Y38057467D01*
X17339261Y37632178D01*
X17200944Y37632178D01*
X17200944Y37862824D01*
X17201077Y37935118D01*
X17201813Y37999359D01*
X17203581Y38046382D01*
X17206811Y38080452D01*
X17211930Y38105830D01*
X17219367Y38126779D01*
X17229550Y38147564D01*
X17231964Y38151976D01*
X17264075Y38194953D01*
X17301656Y38224987D01*
X17346964Y38240757D01*
X17406961Y38247778D01*
X17467043Y38243975D01*
X17515925Y38229132D01*
X17553024Y38209948D01*
X17553024Y38625141D01*
X17502192Y38598646D01*
X17480958Y38589020D01*
X17413936Y38575408D01*
X17347330Y38584816D01*
X17285587Y38616095D01*
X17233157Y38668098D01*
X17224943Y38680320D01*
X17217049Y38698237D01*
X17211900Y38722596D01*
X17208927Y38758073D01*
X17207561Y38809344D01*
X17207315Y38862764D01*
X17340149Y38862764D01*
X17340261Y38818151D01*
X17343672Y38788399D01*
X17351337Y38767165D01*
X17364214Y38748104D01*
X17380571Y38730383D01*
X17406729Y38716972D01*
X17446142Y38713564D01*
X17480959Y38716529D01*
X17515420Y38731369D01*
X17537615Y38761431D01*
X17549497Y38809746D01*
X17553024Y38879350D01*
X17552112Y38916376D01*
X17543009Y38986272D01*
X17524228Y39033536D01*
X17495876Y39057832D01*
X17467240Y39064668D01*
X17417370Y39061463D01*
X17375233Y39041620D01*
X17365149Y39032520D01*
X17354463Y39016777D01*
X17347856Y38993342D01*
X17343932Y38956396D01*
X17341297Y38900120D01*
X17340149Y38862764D01*
X17207315Y38862764D01*
X17207231Y38881083D01*
X17207344Y38913816D01*
X17209272Y38989956D01*
X17214640Y39046834D01*
X17224806Y39088751D01*
X17241125Y39120004D01*
X17264953Y39144894D01*
X17297647Y39167718D01*
X17324159Y39180816D01*
X17387015Y39195261D01*
X17453269Y39193293D01*
X17512157Y39174567D01*
X17537430Y39162327D01*
X17550142Y39161062D01*
X17553024Y39172202D01*
X17553026Y39172539D01*
X17559238Y39183913D01*
X17580660Y39189744D01*
X17622182Y39191386D01*
X17691340Y39191386D01*
X17691340Y37630864D01*
X17625326Y37634664D01*
G37*
X17625326Y37634664D02*
X17559311Y37638465D01*
X17556172Y37839653D01*
X17555244Y37888575D01*
X17552608Y37962074D01*
X17548083Y38016009D01*
X17540838Y38054005D01*
X17530042Y38079687D01*
X17514862Y38096680D01*
X17494466Y38108611D01*
X17456197Y38120795D01*
X17418138Y38116060D01*
X17377949Y38090021D01*
X17339261Y38057467D01*
X17339261Y37632178D01*
X17200944Y37632178D01*
X17200944Y37862824D01*
X17201077Y37935118D01*
X17201813Y37999359D01*
X17203581Y38046382D01*
X17206811Y38080452D01*
X17211930Y38105830D01*
X17219367Y38126779D01*
X17229550Y38147564D01*
X17231964Y38151976D01*
X17264075Y38194953D01*
X17301656Y38224987D01*
X17346964Y38240757D01*
X17406961Y38247778D01*
X17467043Y38243975D01*
X17515925Y38229132D01*
X17553024Y38209948D01*
X17553024Y38625141D01*
X17502192Y38598646D01*
X17480958Y38589020D01*
X17413936Y38575408D01*
X17347330Y38584816D01*
X17285587Y38616095D01*
X17233157Y38668098D01*
X17224943Y38680320D01*
X17217049Y38698237D01*
X17211900Y38722596D01*
X17208927Y38758073D01*
X17207561Y38809344D01*
X17207315Y38862764D01*
X17340149Y38862764D01*
X17340261Y38818151D01*
X17343672Y38788399D01*
X17351337Y38767165D01*
X17364214Y38748104D01*
X17380571Y38730383D01*
X17406729Y38716972D01*
X17446142Y38713564D01*
X17480959Y38716529D01*
X17515420Y38731369D01*
X17537615Y38761431D01*
X17549497Y38809746D01*
X17553024Y38879350D01*
X17552112Y38916376D01*
X17543009Y38986272D01*
X17524228Y39033536D01*
X17495876Y39057832D01*
X17467240Y39064668D01*
X17417370Y39061463D01*
X17375233Y39041620D01*
X17365149Y39032520D01*
X17354463Y39016777D01*
X17347856Y38993342D01*
X17343932Y38956396D01*
X17341297Y38900120D01*
X17340149Y38862764D01*
X17207315Y38862764D01*
X17207231Y38881083D01*
X17207344Y38913816D01*
X17209272Y38989956D01*
X17214640Y39046834D01*
X17224806Y39088751D01*
X17241125Y39120004D01*
X17264953Y39144894D01*
X17297647Y39167718D01*
X17324159Y39180816D01*
X17387015Y39195261D01*
X17453269Y39193293D01*
X17512157Y39174567D01*
X17537430Y39162327D01*
X17550142Y39161062D01*
X17553024Y39172202D01*
X17553026Y39172539D01*
X17559238Y39183913D01*
X17580660Y39189744D01*
X17622182Y39191386D01*
X17691340Y39191386D01*
X17691340Y37630864D01*
X17625326Y37634664D01*
X16799610Y38243445D02*
X16740455Y38227661D01*
X16740455Y38227661D02*
X16695423Y38199052D01*
X16695423Y38199052D02*
X16663646Y38161581D01*
X16663646Y38161581D02*
X16653766Y38145589D01*
X16653766Y38145589D02*
X16646473Y38128837D01*
X16646473Y38128837D02*
X16641374Y38107408D01*
X16641374Y38107408D02*
X16638079Y38077384D01*
X16638079Y38077384D02*
X16636197Y38034846D01*
X16636197Y38034846D02*
X16635337Y37975878D01*
X16635337Y37975878D02*
X16635107Y37896560D01*
X16635107Y37896560D02*
X16635103Y37875516D01*
X16635103Y37875516D02*
X16635103Y37632178D01*
X16635103Y37632178D02*
X16695459Y37632178D01*
X16695459Y37632178D02*
X16733957Y37634874D01*
X16733957Y37634874D02*
X16762423Y37641705D01*
X16762423Y37641705D02*
X16769555Y37645917D01*
X16769555Y37645917D02*
X16789052Y37653187D01*
X16789052Y37653187D02*
X16808966Y37645917D01*
X16808966Y37645917D02*
X16841753Y37636840D01*
X16841753Y37636840D02*
X16889378Y37633187D01*
X16889378Y37633187D02*
X16942164Y37634772D01*
X16942164Y37634772D02*
X16990436Y37641411D01*
X16990436Y37641411D02*
X17018618Y37649928D01*
X17018618Y37649928D02*
X17073153Y37684937D01*
X17073153Y37684937D02*
X17107235Y37733521D01*
X17107235Y37733521D02*
X17122557Y37798118D01*
X17122557Y37798118D02*
X17122699Y37799777D01*
X17122699Y37799777D02*
X17121355Y37828434D01*
X17121355Y37828434D02*
X16999756Y37828434D01*
X16999756Y37828434D02*
X16989126Y37795839D01*
X16989126Y37795839D02*
X16971810Y37777495D01*
X16971810Y37777495D02*
X16937052Y37763621D01*
X16937052Y37763621D02*
X16891173Y37758083D01*
X16891173Y37758083D02*
X16844388Y37760809D01*
X16844388Y37760809D02*
X16806914Y37771726D01*
X16806914Y37771726D02*
X16796415Y37778731D01*
X16796415Y37778731D02*
X16778068Y37811096D01*
X16778068Y37811096D02*
X16773420Y37847889D01*
X16773420Y37847889D02*
X16773420Y37896237D01*
X16773420Y37896237D02*
X16842982Y37896237D01*
X16842982Y37896237D02*
X16909067Y37891150D01*
X16909067Y37891150D02*
X16959164Y37876737D01*
X16959164Y37876737D02*
X16990329Y37854271D01*
X16990329Y37854271D02*
X16999756Y37828434D01*
X16999756Y37828434D02*
X17121355Y37828434D01*
X17121355Y37828434D02*
X17119387Y37870353D01*
X17119387Y37870353D02*
X17096110Y37926155D01*
X17096110Y37926155D02*
X17052348Y37968353D01*
X17052348Y37968353D02*
X17046299Y37972192D01*
X17046299Y37972192D02*
X17020307Y37984691D01*
X17020307Y37984691D02*
X16988135Y37992260D01*
X16988135Y37992260D02*
X16943160Y37995939D01*
X16943160Y37995939D02*
X16889731Y37996784D01*
X16889731Y37996784D02*
X16773420Y37996831D01*
X16773420Y37996831D02*
X16773420Y38045589D01*
X16773420Y38045589D02*
X16778353Y38083419D01*
X16778353Y38083419D02*
X16790943Y38108764D01*
X16790943Y38108764D02*
X16792417Y38110113D01*
X16792417Y38110113D02*
X16820434Y38121200D01*
X16820434Y38121200D02*
X16862726Y38125497D01*
X16862726Y38125497D02*
X16909464Y38123385D01*
X16909464Y38123385D02*
X16950818Y38115244D01*
X16950818Y38115244D02*
X16975357Y38103035D01*
X16975357Y38103035D02*
X16988653Y38093254D01*
X16988653Y38093254D02*
X17002694Y38091387D01*
X17002694Y38091387D02*
X17022071Y38099400D01*
X17022071Y38099400D02*
X17051376Y38119261D01*
X17051376Y38119261D02*
X17095203Y38152937D01*
X17095203Y38152937D02*
X17099225Y38156091D01*
X17099225Y38156091D02*
X17097164Y38167764D01*
X17097164Y38167764D02*
X17079968Y38187178D01*
X17079968Y38187178D02*
X17053833Y38208752D01*
X17053833Y38208752D02*
X17024952Y38226904D01*
X17024952Y38226904D02*
X17015878Y38231191D01*
X17015878Y38231191D02*
X16982780Y38239744D01*
X16982780Y38239744D02*
X16934280Y38245845D01*
X16934280Y38245845D02*
X16880095Y38248292D01*
X16880095Y38248292D02*
X16877561Y38248297D01*
X16877561Y38248297D02*
X16799610Y38243445D01*
X16799610Y38243445D02*
X16799610Y38243445D01*
G36*
X17122557Y37798118D02*
G01*
X17107235Y37733521D01*
X17073153Y37684937D01*
X17018618Y37649928D01*
X16990436Y37641411D01*
X16942164Y37634772D01*
X16889378Y37633187D01*
X16841753Y37636840D01*
X16808966Y37645917D01*
X16789052Y37653187D01*
X16769555Y37645917D01*
X16762423Y37641705D01*
X16733957Y37634874D01*
X16695459Y37632178D01*
X16635103Y37632178D01*
X16635103Y37847889D01*
X16773420Y37847889D01*
X16778068Y37811096D01*
X16796415Y37778731D01*
X16806914Y37771726D01*
X16844388Y37760809D01*
X16891173Y37758083D01*
X16937052Y37763621D01*
X16971810Y37777495D01*
X16989126Y37795839D01*
X16999756Y37828434D01*
X16990329Y37854271D01*
X16959164Y37876737D01*
X16909067Y37891150D01*
X16842982Y37896237D01*
X16773420Y37896237D01*
X16773420Y37847889D01*
X16635103Y37847889D01*
X16635103Y37875516D01*
X16635107Y37896560D01*
X16635337Y37975878D01*
X16636197Y38034846D01*
X16638079Y38077384D01*
X16641374Y38107408D01*
X16646473Y38128837D01*
X16653766Y38145589D01*
X16663646Y38161581D01*
X16695423Y38199052D01*
X16740455Y38227661D01*
X16799610Y38243445D01*
X16877561Y38248297D01*
X16880095Y38248292D01*
X16934280Y38245845D01*
X16982780Y38239744D01*
X17015878Y38231191D01*
X17024952Y38226904D01*
X17053833Y38208752D01*
X17079968Y38187178D01*
X17097164Y38167764D01*
X17099225Y38156091D01*
X17095203Y38152937D01*
X17051376Y38119261D01*
X17022071Y38099400D01*
X17002694Y38091387D01*
X16988653Y38093254D01*
X16975357Y38103035D01*
X16950818Y38115244D01*
X16909464Y38123385D01*
X16862726Y38125497D01*
X16820434Y38121200D01*
X16792417Y38110113D01*
X16790943Y38108764D01*
X16778353Y38083419D01*
X16773420Y38045589D01*
X16773420Y37996831D01*
X16889731Y37996784D01*
X16943160Y37995939D01*
X16988135Y37992260D01*
X17020307Y37984691D01*
X17046299Y37972192D01*
X17052348Y37968353D01*
X17096110Y37926155D01*
X17119387Y37870353D01*
X17121355Y37828434D01*
X17122699Y37799777D01*
X17122557Y37798118D01*
G37*
X17122557Y37798118D02*
X17107235Y37733521D01*
X17073153Y37684937D01*
X17018618Y37649928D01*
X16990436Y37641411D01*
X16942164Y37634772D01*
X16889378Y37633187D01*
X16841753Y37636840D01*
X16808966Y37645917D01*
X16789052Y37653187D01*
X16769555Y37645917D01*
X16762423Y37641705D01*
X16733957Y37634874D01*
X16695459Y37632178D01*
X16635103Y37632178D01*
X16635103Y37847889D01*
X16773420Y37847889D01*
X16778068Y37811096D01*
X16796415Y37778731D01*
X16806914Y37771726D01*
X16844388Y37760809D01*
X16891173Y37758083D01*
X16937052Y37763621D01*
X16971810Y37777495D01*
X16989126Y37795839D01*
X16999756Y37828434D01*
X16990329Y37854271D01*
X16959164Y37876737D01*
X16909067Y37891150D01*
X16842982Y37896237D01*
X16773420Y37896237D01*
X16773420Y37847889D01*
X16635103Y37847889D01*
X16635103Y37875516D01*
X16635107Y37896560D01*
X16635337Y37975878D01*
X16636197Y38034846D01*
X16638079Y38077384D01*
X16641374Y38107408D01*
X16646473Y38128837D01*
X16653766Y38145589D01*
X16663646Y38161581D01*
X16695423Y38199052D01*
X16740455Y38227661D01*
X16799610Y38243445D01*
X16877561Y38248297D01*
X16880095Y38248292D01*
X16934280Y38245845D01*
X16982780Y38239744D01*
X17015878Y38231191D01*
X17024952Y38226904D01*
X17053833Y38208752D01*
X17079968Y38187178D01*
X17097164Y38167764D01*
X17099225Y38156091D01*
X17095203Y38152937D01*
X17051376Y38119261D01*
X17022071Y38099400D01*
X17002694Y38091387D01*
X16988653Y38093254D01*
X16975357Y38103035D01*
X16950818Y38115244D01*
X16909464Y38123385D01*
X16862726Y38125497D01*
X16820434Y38121200D01*
X16792417Y38110113D01*
X16790943Y38108764D01*
X16778353Y38083419D01*
X16773420Y38045589D01*
X16773420Y37996831D01*
X16889731Y37996784D01*
X16943160Y37995939D01*
X16988135Y37992260D01*
X17020307Y37984691D01*
X17046299Y37972192D01*
X17052348Y37968353D01*
X17096110Y37926155D01*
X17119387Y37870353D01*
X17121355Y37828434D01*
X17122699Y37799777D01*
X17122557Y37798118D01*
X16408756Y38246980D02*
X16389939Y38241340D01*
X16389939Y38241340D02*
X16383873Y38228947D01*
X16383873Y38228947D02*
X16383618Y38223353D01*
X16383618Y38223353D02*
X16382529Y38207770D01*
X16382529Y38207770D02*
X16375032Y38205324D01*
X16375032Y38205324D02*
X16354781Y38216007D01*
X16354781Y38216007D02*
X16342751Y38223306D01*
X16342751Y38223306D02*
X16304800Y38238937D01*
X16304800Y38238937D02*
X16259472Y38246666D01*
X16259472Y38246666D02*
X16211944Y38247260D01*
X16211944Y38247260D02*
X16167395Y38241487D01*
X16167395Y38241487D02*
X16131002Y38230116D01*
X16131002Y38230116D02*
X16107943Y38213912D01*
X16107943Y38213912D02*
X16103396Y38193645D01*
X16103396Y38193645D02*
X16105691Y38188157D01*
X16105691Y38188157D02*
X16122420Y38165374D01*
X16122420Y38165374D02*
X16148363Y38137353D01*
X16148363Y38137353D02*
X16153055Y38132823D01*
X16153055Y38132823D02*
X16177783Y38111995D01*
X16177783Y38111995D02*
X16199118Y38105265D01*
X16199118Y38105265D02*
X16228955Y38109962D01*
X16228955Y38109962D02*
X16240908Y38113083D01*
X16240908Y38113083D02*
X16278105Y38120579D01*
X16278105Y38120579D02*
X16304259Y38117208D01*
X16304259Y38117208D02*
X16326346Y38105319D01*
X16326346Y38105319D02*
X16346578Y38089365D01*
X16346578Y38089365D02*
X16361479Y38069300D01*
X16361479Y38069300D02*
X16371834Y38041298D01*
X16371834Y38041298D02*
X16378429Y38001533D01*
X16378429Y38001533D02*
X16382049Y37946177D01*
X16382049Y37946177D02*
X16383478Y37871406D01*
X16383478Y37871406D02*
X16383618Y37826260D01*
X16383618Y37826260D02*
X16383618Y37632178D01*
X16383618Y37632178D02*
X16509360Y37632178D01*
X16509360Y37632178D02*
X16509360Y38248317D01*
X16509360Y38248317D02*
X16446489Y38248317D01*
X16446489Y38248317D02*
X16408756Y38246980D01*
X16408756Y38246980D02*
X16408756Y38246980D01*
G36*
X16509360Y37632178D02*
G01*
X16383618Y37632178D01*
X16383618Y37826260D01*
X16383478Y37871406D01*
X16382049Y37946177D01*
X16378429Y38001533D01*
X16371834Y38041298D01*
X16361479Y38069300D01*
X16346578Y38089365D01*
X16326346Y38105319D01*
X16304259Y38117208D01*
X16278105Y38120579D01*
X16240908Y38113083D01*
X16228955Y38109962D01*
X16199118Y38105265D01*
X16177783Y38111995D01*
X16153055Y38132823D01*
X16148363Y38137353D01*
X16122420Y38165374D01*
X16105691Y38188157D01*
X16103396Y38193645D01*
X16107943Y38213912D01*
X16131002Y38230116D01*
X16167395Y38241487D01*
X16211944Y38247260D01*
X16259472Y38246666D01*
X16304800Y38238937D01*
X16342751Y38223306D01*
X16354781Y38216007D01*
X16375032Y38205324D01*
X16382529Y38207770D01*
X16383618Y38223353D01*
X16383873Y38228947D01*
X16389939Y38241340D01*
X16408756Y38246980D01*
X16446489Y38248317D01*
X16509360Y38248317D01*
X16509360Y37632178D01*
G37*
X16509360Y37632178D02*
X16383618Y37632178D01*
X16383618Y37826260D01*
X16383478Y37871406D01*
X16382049Y37946177D01*
X16378429Y38001533D01*
X16371834Y38041298D01*
X16361479Y38069300D01*
X16346578Y38089365D01*
X16326346Y38105319D01*
X16304259Y38117208D01*
X16278105Y38120579D01*
X16240908Y38113083D01*
X16228955Y38109962D01*
X16199118Y38105265D01*
X16177783Y38111995D01*
X16153055Y38132823D01*
X16148363Y38137353D01*
X16122420Y38165374D01*
X16105691Y38188157D01*
X16103396Y38193645D01*
X16107943Y38213912D01*
X16131002Y38230116D01*
X16167395Y38241487D01*
X16211944Y38247260D01*
X16259472Y38246666D01*
X16304800Y38238937D01*
X16342751Y38223306D01*
X16354781Y38216007D01*
X16375032Y38205324D01*
X16382529Y38207770D01*
X16383618Y38223353D01*
X16383873Y38228947D01*
X16389939Y38241340D01*
X16408756Y38246980D01*
X16446489Y38248317D01*
X16509360Y38248317D01*
X16509360Y37632178D01*
X15616588Y37632178D02*
X15685746Y37632178D01*
X15685746Y37632178D02*
X15725888Y37633355D01*
X15725888Y37633355D02*
X15746794Y37638228D01*
X15746794Y37638228D02*
X15754322Y37648814D01*
X15754322Y37648814D02*
X15754905Y37655971D01*
X15754905Y37655971D02*
X15756174Y37670324D01*
X15756174Y37670324D02*
X15764179Y37673077D01*
X15764179Y37673077D02*
X15785215Y37664229D01*
X15785215Y37664229D02*
X15801573Y37655971D01*
X15801573Y37655971D02*
X15864377Y37636403D01*
X15864377Y37636403D02*
X15932648Y37635271D01*
X15932648Y37635271D02*
X15988152Y37649865D01*
X15988152Y37649865D02*
X16039838Y37685123D01*
X16039838Y37685123D02*
X16079238Y37737165D01*
X16079238Y37737165D02*
X16100813Y37798550D01*
X16100813Y37798550D02*
X16101362Y37801982D01*
X16101362Y37801982D02*
X16104567Y37839429D01*
X16104567Y37839429D02*
X16106161Y37893187D01*
X16106161Y37893187D02*
X16106033Y37933845D01*
X16106033Y37933845D02*
X15968679Y37933845D01*
X15968679Y37933845D02*
X15965497Y37879806D01*
X15965497Y37879806D02*
X15958259Y37835265D01*
X15958259Y37835265D02*
X15948460Y37810112D01*
X15948460Y37810112D02*
X15911389Y37775740D01*
X15911389Y37775740D02*
X15867374Y37763418D01*
X15867374Y37763418D02*
X15821984Y37773382D01*
X15821984Y37773382D02*
X15783197Y37803105D01*
X15783197Y37803105D02*
X15768508Y37823095D01*
X15768508Y37823095D02*
X15759919Y37846950D01*
X15759919Y37846950D02*
X15755896Y37881770D01*
X15755896Y37881770D02*
X15754905Y37934070D01*
X15754905Y37934070D02*
X15756678Y37985861D01*
X15756678Y37985861D02*
X15761363Y38031366D01*
X15761363Y38031366D02*
X15768003Y38061819D01*
X15768003Y38061819D02*
X15769110Y38064548D01*
X15769110Y38064548D02*
X15795891Y38097000D01*
X15795891Y38097000D02*
X15834979Y38114817D01*
X15834979Y38114817D02*
X15878715Y38117694D01*
X15878715Y38117694D02*
X15919438Y38105326D01*
X15919438Y38105326D02*
X15949487Y38077407D01*
X15949487Y38077407D02*
X15952604Y38071852D01*
X15952604Y38071852D02*
X15962361Y38037978D01*
X15962361Y38037978D02*
X15967677Y37989272D01*
X15967677Y37989272D02*
X15968679Y37933845D01*
X15968679Y37933845D02*
X16106033Y37933845D01*
X16106033Y37933845D02*
X16105968Y37954460D01*
X16105968Y37954460D02*
X16105064Y37987437D01*
X16105064Y37987437D02*
X16098914Y38069019D01*
X16098914Y38069019D02*
X16086133Y38130270D01*
X16086133Y38130270D02*
X16064871Y38175551D01*
X16064871Y38175551D02*
X16033278Y38209221D01*
X16033278Y38209221D02*
X16002607Y38228986D01*
X16002607Y38228986D02*
X15959754Y38242880D01*
X15959754Y38242880D02*
X15906456Y38247646D01*
X15906456Y38247646D02*
X15851880Y38243764D01*
X15851880Y38243764D02*
X15805192Y38231718D01*
X15805192Y38231718D02*
X15780524Y38217307D01*
X15780524Y38217307D02*
X15754905Y38194122D01*
X15754905Y38194122D02*
X15754905Y38487227D01*
X15754905Y38487227D02*
X15616588Y38487227D01*
X15616588Y38487227D02*
X15616588Y37632178D01*
X15616588Y37632178D02*
X15616588Y37632178D01*
G36*
X16104567Y37839429D02*
G01*
X16101362Y37801982D01*
X16100813Y37798550D01*
X16079238Y37737165D01*
X16039838Y37685123D01*
X15988152Y37649865D01*
X15932648Y37635271D01*
X15864377Y37636403D01*
X15801573Y37655971D01*
X15785215Y37664229D01*
X15764179Y37673077D01*
X15756174Y37670324D01*
X15754905Y37655971D01*
X15754322Y37648814D01*
X15746794Y37638228D01*
X15725888Y37633355D01*
X15685746Y37632178D01*
X15616588Y37632178D01*
X15616588Y37934070D01*
X15754905Y37934070D01*
X15755896Y37881770D01*
X15759919Y37846950D01*
X15768508Y37823095D01*
X15783197Y37803105D01*
X15821984Y37773382D01*
X15867374Y37763418D01*
X15911389Y37775740D01*
X15948460Y37810112D01*
X15958259Y37835265D01*
X15965497Y37879806D01*
X15968679Y37933845D01*
X15967677Y37989272D01*
X15962361Y38037978D01*
X15952604Y38071852D01*
X15949487Y38077407D01*
X15919438Y38105326D01*
X15878715Y38117694D01*
X15834979Y38114817D01*
X15795891Y38097000D01*
X15769110Y38064548D01*
X15768003Y38061819D01*
X15761363Y38031366D01*
X15756678Y37985861D01*
X15754905Y37934070D01*
X15616588Y37934070D01*
X15616588Y38487227D01*
X15754905Y38487227D01*
X15754905Y38194122D01*
X15780524Y38217307D01*
X15805192Y38231718D01*
X15851880Y38243764D01*
X15906456Y38247646D01*
X15959754Y38242880D01*
X16002607Y38228986D01*
X16033278Y38209221D01*
X16064871Y38175551D01*
X16086133Y38130270D01*
X16098914Y38069019D01*
X16105064Y37987437D01*
X16105968Y37954460D01*
X16106033Y37933845D01*
X16106161Y37893187D01*
X16104567Y37839429D01*
G37*
X16104567Y37839429D02*
X16101362Y37801982D01*
X16100813Y37798550D01*
X16079238Y37737165D01*
X16039838Y37685123D01*
X15988152Y37649865D01*
X15932648Y37635271D01*
X15864377Y37636403D01*
X15801573Y37655971D01*
X15785215Y37664229D01*
X15764179Y37673077D01*
X15756174Y37670324D01*
X15754905Y37655971D01*
X15754322Y37648814D01*
X15746794Y37638228D01*
X15725888Y37633355D01*
X15685746Y37632178D01*
X15616588Y37632178D01*
X15616588Y37934070D01*
X15754905Y37934070D01*
X15755896Y37881770D01*
X15759919Y37846950D01*
X15768508Y37823095D01*
X15783197Y37803105D01*
X15821984Y37773382D01*
X15867374Y37763418D01*
X15911389Y37775740D01*
X15948460Y37810112D01*
X15958259Y37835265D01*
X15965497Y37879806D01*
X15968679Y37933845D01*
X15967677Y37989272D01*
X15962361Y38037978D01*
X15952604Y38071852D01*
X15949487Y38077407D01*
X15919438Y38105326D01*
X15878715Y38117694D01*
X15834979Y38114817D01*
X15795891Y38097000D01*
X15769110Y38064548D01*
X15768003Y38061819D01*
X15761363Y38031366D01*
X15756678Y37985861D01*
X15754905Y37934070D01*
X15616588Y37934070D01*
X15616588Y38487227D01*
X15754905Y38487227D01*
X15754905Y38194122D01*
X15780524Y38217307D01*
X15805192Y38231718D01*
X15851880Y38243764D01*
X15906456Y38247646D01*
X15959754Y38242880D01*
X16002607Y38228986D01*
X16033278Y38209221D01*
X16064871Y38175551D01*
X16086133Y38130270D01*
X16098914Y38069019D01*
X16105064Y37987437D01*
X16105968Y37954460D01*
X16106033Y37933845D01*
X16106161Y37893187D01*
X16104567Y37839429D01*
X15133876Y38245763D02*
X15084145Y38242029D01*
X15084145Y38242029D02*
X14954109Y37852227D01*
X14954109Y37852227D02*
X14933722Y37921386D01*
X14933722Y37921386D02*
X14921454Y37964126D01*
X14921454Y37964126D02*
X14905315Y38021885D01*
X14905315Y38021885D02*
X14887888Y38085375D01*
X14887888Y38085375D02*
X14878674Y38119430D01*
X14878674Y38119430D02*
X14844012Y38248317D01*
X14844012Y38248317D02*
X14701009Y38248317D01*
X14701009Y38248317D02*
X14743754Y38113143D01*
X14743754Y38113143D02*
X14764804Y38046658D01*
X14764804Y38046658D02*
X14790233Y37966461D01*
X14790233Y37966461D02*
X14816790Y37882807D01*
X14816790Y37882807D02*
X14840498Y37808218D01*
X14840498Y37808218D02*
X14894498Y37638465D01*
X14894498Y37638465D02*
X14952802Y37634672D01*
X14952802Y37634672D02*
X15011105Y37630878D01*
X15011105Y37630878D02*
X15042721Y37735266D01*
X15042721Y37735266D02*
X15062218Y37800111D01*
X15062218Y37800111D02*
X15083496Y37871600D01*
X15083496Y37871600D02*
X15102092Y37934737D01*
X15102092Y37934737D02*
X15102826Y37937250D01*
X15102826Y37937250D02*
X15116716Y37980031D01*
X15116716Y37980031D02*
X15128971Y38009221D01*
X15128971Y38009221D02*
X15137554Y38020259D01*
X15137554Y38020259D02*
X15139318Y38018982D01*
X15139318Y38018982D02*
X15145509Y38001870D01*
X15145509Y38001870D02*
X15157272Y37965213D01*
X15157272Y37965213D02*
X15173175Y37913622D01*
X15173175Y37913622D02*
X15191786Y37851706D01*
X15191786Y37851706D02*
X15201857Y37817648D01*
X15201857Y37817648D02*
X15256393Y37632178D01*
X15256393Y37632178D02*
X15372136Y37632178D01*
X15372136Y37632178D02*
X15464663Y37924529D01*
X15464663Y37924529D02*
X15490656Y38006538D01*
X15490656Y38006538D02*
X15514334Y38081013D01*
X15514334Y38081013D02*
X15534580Y38144456D01*
X15534580Y38144456D02*
X15550274Y38193368D01*
X15550274Y38193368D02*
X15560298Y38224251D01*
X15560298Y38224251D02*
X15563345Y38233274D01*
X15563345Y38233274D02*
X15560933Y38242513D01*
X15560933Y38242513D02*
X15541992Y38246559D01*
X15541992Y38246559D02*
X15502577Y38246154D01*
X15502577Y38246154D02*
X15496407Y38245848D01*
X15496407Y38245848D02*
X15423314Y38242029D01*
X15423314Y38242029D02*
X15375443Y38065990D01*
X15375443Y38065990D02*
X15357847Y38001789D01*
X15357847Y38001789D02*
X15342123Y37945351D01*
X15342123Y37945351D02*
X15329654Y37901578D01*
X15329654Y37901578D02*
X15321826Y37875370D01*
X15321826Y37875370D02*
X15320380Y37871097D01*
X15320380Y37871097D02*
X15314386Y37876010D01*
X15314386Y37876010D02*
X15302299Y37901468D01*
X15302299Y37901468D02*
X15285507Y37944003D01*
X15285507Y37944003D02*
X15265397Y38000150D01*
X15265397Y38000150D02*
X15248397Y38050870D01*
X15248397Y38050870D02*
X15183606Y38249496D01*
X15183606Y38249496D02*
X15133876Y38245763D01*
X15133876Y38245763D02*
X15133876Y38245763D01*
G36*
X15248397Y38050870D02*
G01*
X15265397Y38000150D01*
X15285507Y37944003D01*
X15302299Y37901468D01*
X15314386Y37876010D01*
X15320380Y37871097D01*
X15321826Y37875370D01*
X15329654Y37901578D01*
X15342123Y37945351D01*
X15357847Y38001789D01*
X15375443Y38065990D01*
X15423314Y38242029D01*
X15496407Y38245848D01*
X15502577Y38246154D01*
X15541992Y38246559D01*
X15560933Y38242513D01*
X15563345Y38233274D01*
X15560298Y38224251D01*
X15550274Y38193368D01*
X15534580Y38144456D01*
X15514334Y38081013D01*
X15490656Y38006538D01*
X15464663Y37924529D01*
X15372136Y37632178D01*
X15256393Y37632178D01*
X15201857Y37817648D01*
X15191786Y37851706D01*
X15173175Y37913622D01*
X15157272Y37965213D01*
X15145509Y38001870D01*
X15139318Y38018982D01*
X15137554Y38020259D01*
X15128971Y38009221D01*
X15116716Y37980031D01*
X15102826Y37937250D01*
X15102092Y37934737D01*
X15083496Y37871600D01*
X15062218Y37800111D01*
X15042721Y37735266D01*
X15011105Y37630878D01*
X14952802Y37634672D01*
X14894498Y37638465D01*
X14840498Y37808218D01*
X14816790Y37882807D01*
X14790233Y37966461D01*
X14764804Y38046658D01*
X14743754Y38113143D01*
X14701009Y38248317D01*
X14844012Y38248317D01*
X14878674Y38119430D01*
X14887888Y38085375D01*
X14905315Y38021885D01*
X14921454Y37964126D01*
X14933722Y37921386D01*
X14954109Y37852227D01*
X15084145Y38242029D01*
X15133876Y38245763D01*
X15183606Y38249496D01*
X15248397Y38050870D01*
G37*
X15248397Y38050870D02*
X15265397Y38000150D01*
X15285507Y37944003D01*
X15302299Y37901468D01*
X15314386Y37876010D01*
X15320380Y37871097D01*
X15321826Y37875370D01*
X15329654Y37901578D01*
X15342123Y37945351D01*
X15357847Y38001789D01*
X15375443Y38065990D01*
X15423314Y38242029D01*
X15496407Y38245848D01*
X15502577Y38246154D01*
X15541992Y38246559D01*
X15560933Y38242513D01*
X15563345Y38233274D01*
X15560298Y38224251D01*
X15550274Y38193368D01*
X15534580Y38144456D01*
X15514334Y38081013D01*
X15490656Y38006538D01*
X15464663Y37924529D01*
X15372136Y37632178D01*
X15256393Y37632178D01*
X15201857Y37817648D01*
X15191786Y37851706D01*
X15173175Y37913622D01*
X15157272Y37965213D01*
X15145509Y38001870D01*
X15139318Y38018982D01*
X15137554Y38020259D01*
X15128971Y38009221D01*
X15116716Y37980031D01*
X15102826Y37937250D01*
X15102092Y37934737D01*
X15083496Y37871600D01*
X15062218Y37800111D01*
X15042721Y37735266D01*
X15011105Y37630878D01*
X14952802Y37634672D01*
X14894498Y37638465D01*
X14840498Y37808218D01*
X14816790Y37882807D01*
X14790233Y37966461D01*
X14764804Y38046658D01*
X14743754Y38113143D01*
X14701009Y38248317D01*
X14844012Y38248317D01*
X14878674Y38119430D01*
X14887888Y38085375D01*
X14905315Y38021885D01*
X14921454Y37964126D01*
X14933722Y37921386D01*
X14954109Y37852227D01*
X15084145Y38242029D01*
X15133876Y38245763D01*
X15183606Y38249496D01*
X15248397Y38050870D01*
X14376989Y38244583D02*
X14323989Y38231710D01*
X14323989Y38231710D02*
X14308669Y38224890D01*
X14308669Y38224890D02*
X14278972Y38207026D01*
X14278972Y38207026D02*
X14256180Y38186907D01*
X14256180Y38186907D02*
X14239317Y38161038D01*
X14239317Y38161038D02*
X14227402Y38125927D01*
X14227402Y38125927D02*
X14219458Y38078080D01*
X14219458Y38078080D02*
X14214506Y38014004D01*
X14214506Y38014004D02*
X14211569Y37930206D01*
X14211569Y37930206D02*
X14210453Y37874232D01*
X14210453Y37874232D02*
X14206348Y37632178D01*
X14206348Y37632178D02*
X14276468Y37632178D01*
X14276468Y37632178D02*
X14319007Y37633962D01*
X14319007Y37633962D02*
X14340924Y37640058D01*
X14340924Y37640058D02*
X14346588Y37650294D01*
X14346588Y37650294D02*
X14349579Y37661363D01*
X14349579Y37661363D02*
X14362949Y37659246D01*
X14362949Y37659246D02*
X14381167Y37650371D01*
X14381167Y37650371D02*
X14426776Y37636767D01*
X14426776Y37636767D02*
X14485393Y37633101D01*
X14485393Y37633101D02*
X14547046Y37639097D01*
X14547046Y37639097D02*
X14601762Y37654479D01*
X14601762Y37654479D02*
X14606670Y37656614D01*
X14606670Y37656614D02*
X14656677Y37691745D01*
X14656677Y37691745D02*
X14689644Y37740581D01*
X14689644Y37740581D02*
X14704813Y37797667D01*
X14704813Y37797667D02*
X14703654Y37818176D01*
X14703654Y37818176D02*
X14579892Y37818176D01*
X14579892Y37818176D02*
X14568987Y37790575D01*
X14568987Y37790575D02*
X14536655Y37770796D01*
X14536655Y37770796D02*
X14484490Y37760181D01*
X14484490Y37760181D02*
X14456613Y37758772D01*
X14456613Y37758772D02*
X14410153Y37762380D01*
X14410153Y37762380D02*
X14379271Y37776403D01*
X14379271Y37776403D02*
X14371736Y37783069D01*
X14371736Y37783069D02*
X14351324Y37819334D01*
X14351324Y37819334D02*
X14346588Y37852227D01*
X14346588Y37852227D02*
X14346588Y37896237D01*
X14346588Y37896237D02*
X14407887Y37896237D01*
X14407887Y37896237D02*
X14479144Y37892605D01*
X14479144Y37892605D02*
X14529124Y37881182D01*
X14529124Y37881182D02*
X14560704Y37861176D01*
X14560704Y37861176D02*
X14567774Y37852257D01*
X14567774Y37852257D02*
X14579892Y37818176D01*
X14579892Y37818176D02*
X14703654Y37818176D01*
X14703654Y37818176D02*
X14701429Y37857544D01*
X14701429Y37857544D02*
X14678737Y37914756D01*
X14678737Y37914756D02*
X14647776Y37953420D01*
X14647776Y37953420D02*
X14629024Y37970136D01*
X14629024Y37970136D02*
X14610667Y37981122D01*
X14610667Y37981122D02*
X14586781Y37987820D01*
X14586781Y37987820D02*
X14551443Y37991674D01*
X14551443Y37991674D02*
X14498731Y37994127D01*
X14498731Y37994127D02*
X14477823Y37994832D01*
X14477823Y37994832D02*
X14346588Y37999121D01*
X14346588Y37999121D02*
X14346780Y38038842D01*
X14346780Y38038842D02*
X14351863Y38080595D01*
X14351863Y38080595D02*
X14370238Y38105842D01*
X14370238Y38105842D02*
X14407361Y38121970D01*
X14407361Y38121970D02*
X14408357Y38122258D01*
X14408357Y38122258D02*
X14460990Y38128600D01*
X14460990Y38128600D02*
X14512494Y38120316D01*
X14512494Y38120316D02*
X14550770Y38100173D01*
X14550770Y38100173D02*
X14566128Y38090227D01*
X14566128Y38090227D02*
X14582670Y38091603D01*
X14582670Y38091603D02*
X14608125Y38106013D01*
X14608125Y38106013D02*
X14623072Y38116183D01*
X14623072Y38116183D02*
X14652309Y38137912D01*
X14652309Y38137912D02*
X14670420Y38154200D01*
X14670420Y38154200D02*
X14673326Y38158863D01*
X14673326Y38158863D02*
X14661360Y38182995D01*
X14661360Y38182995D02*
X14626004Y38211815D01*
X14626004Y38211815D02*
X14610647Y38221539D01*
X14610647Y38221539D02*
X14566499Y38238286D01*
X14566499Y38238286D02*
X14507002Y38247773D01*
X14507002Y38247773D02*
X14440913Y38249905D01*
X14440913Y38249905D02*
X14376989Y38244583D01*
X14376989Y38244583D02*
X14376989Y38244583D01*
G36*
X14689644Y37740581D02*
G01*
X14656677Y37691745D01*
X14606670Y37656614D01*
X14601762Y37654479D01*
X14547046Y37639097D01*
X14485393Y37633101D01*
X14426776Y37636767D01*
X14381167Y37650371D01*
X14362949Y37659246D01*
X14349579Y37661363D01*
X14346588Y37650294D01*
X14340924Y37640058D01*
X14319007Y37633962D01*
X14276468Y37632178D01*
X14206348Y37632178D01*
X14210080Y37852227D01*
X14346588Y37852227D01*
X14351324Y37819334D01*
X14371736Y37783069D01*
X14379271Y37776403D01*
X14410153Y37762380D01*
X14456613Y37758772D01*
X14484490Y37760181D01*
X14536655Y37770796D01*
X14568987Y37790575D01*
X14579892Y37818176D01*
X14567774Y37852257D01*
X14560704Y37861176D01*
X14529124Y37881182D01*
X14479144Y37892605D01*
X14407887Y37896237D01*
X14346588Y37896237D01*
X14346588Y37852227D01*
X14210080Y37852227D01*
X14210453Y37874232D01*
X14211569Y37930206D01*
X14214506Y38014004D01*
X14219458Y38078080D01*
X14227402Y38125927D01*
X14239317Y38161038D01*
X14256180Y38186907D01*
X14278972Y38207026D01*
X14308669Y38224890D01*
X14323989Y38231710D01*
X14376989Y38244583D01*
X14440913Y38249905D01*
X14507002Y38247773D01*
X14566499Y38238286D01*
X14610647Y38221539D01*
X14626004Y38211815D01*
X14661360Y38182995D01*
X14673326Y38158863D01*
X14670420Y38154200D01*
X14652309Y38137912D01*
X14623072Y38116183D01*
X14608125Y38106013D01*
X14582670Y38091603D01*
X14566128Y38090227D01*
X14550770Y38100173D01*
X14512494Y38120316D01*
X14460990Y38128600D01*
X14408357Y38122258D01*
X14407361Y38121970D01*
X14370238Y38105842D01*
X14351863Y38080595D01*
X14346780Y38038842D01*
X14346588Y37999121D01*
X14477823Y37994832D01*
X14498731Y37994127D01*
X14551443Y37991674D01*
X14586781Y37987820D01*
X14610667Y37981122D01*
X14629024Y37970136D01*
X14647776Y37953420D01*
X14678737Y37914756D01*
X14701429Y37857544D01*
X14703654Y37818176D01*
X14704813Y37797667D01*
X14689644Y37740581D01*
G37*
X14689644Y37740581D02*
X14656677Y37691745D01*
X14606670Y37656614D01*
X14601762Y37654479D01*
X14547046Y37639097D01*
X14485393Y37633101D01*
X14426776Y37636767D01*
X14381167Y37650371D01*
X14362949Y37659246D01*
X14349579Y37661363D01*
X14346588Y37650294D01*
X14340924Y37640058D01*
X14319007Y37633962D01*
X14276468Y37632178D01*
X14206348Y37632178D01*
X14210080Y37852227D01*
X14346588Y37852227D01*
X14351324Y37819334D01*
X14371736Y37783069D01*
X14379271Y37776403D01*
X14410153Y37762380D01*
X14456613Y37758772D01*
X14484490Y37760181D01*
X14536655Y37770796D01*
X14568987Y37790575D01*
X14579892Y37818176D01*
X14567774Y37852257D01*
X14560704Y37861176D01*
X14529124Y37881182D01*
X14479144Y37892605D01*
X14407887Y37896237D01*
X14346588Y37896237D01*
X14346588Y37852227D01*
X14210080Y37852227D01*
X14210453Y37874232D01*
X14211569Y37930206D01*
X14214506Y38014004D01*
X14219458Y38078080D01*
X14227402Y38125927D01*
X14239317Y38161038D01*
X14256180Y38186907D01*
X14278972Y38207026D01*
X14308669Y38224890D01*
X14323989Y38231710D01*
X14376989Y38244583D01*
X14440913Y38249905D01*
X14507002Y38247773D01*
X14566499Y38238286D01*
X14610647Y38221539D01*
X14626004Y38211815D01*
X14661360Y38182995D01*
X14673326Y38158863D01*
X14670420Y38154200D01*
X14652309Y38137912D01*
X14623072Y38116183D01*
X14608125Y38106013D01*
X14582670Y38091603D01*
X14566128Y38090227D01*
X14550770Y38100173D01*
X14512494Y38120316D01*
X14460990Y38128600D01*
X14408357Y38122258D01*
X14407361Y38121970D01*
X14370238Y38105842D01*
X14351863Y38080595D01*
X14346780Y38038842D01*
X14346588Y37999121D01*
X14477823Y37994832D01*
X14498731Y37994127D01*
X14551443Y37991674D01*
X14586781Y37987820D01*
X14610667Y37981122D01*
X14629024Y37970136D01*
X14647776Y37953420D01*
X14678737Y37914756D01*
X14701429Y37857544D01*
X14703654Y37818176D01*
X14704813Y37797667D01*
X14689644Y37740581D01*
X13780145Y38248514D02*
X13731805Y38238985D01*
X13731805Y38238985D02*
X13704286Y38224875D01*
X13704286Y38224875D02*
X13675336Y38201432D01*
X13675336Y38201432D02*
X13716524Y38149429D01*
X13716524Y38149429D02*
X13741918Y38117936D01*
X13741918Y38117936D02*
X13759162Y38102572D01*
X13759162Y38102572D02*
X13776298Y38100224D01*
X13776298Y38100224D02*
X13801373Y38107783D01*
X13801373Y38107783D02*
X13813143Y38112059D01*
X13813143Y38112059D02*
X13861130Y38118369D01*
X13861130Y38118369D02*
X13905076Y38104844D01*
X13905076Y38104844D02*
X13937340Y38074290D01*
X13937340Y38074290D02*
X13942581Y38064548D01*
X13942581Y38064548D02*
X13948288Y38038742D01*
X13948288Y38038742D02*
X13952694Y37991183D01*
X13952694Y37991183D02*
X13955589Y37925242D01*
X13955589Y37925242D02*
X13956769Y37844290D01*
X13956769Y37844290D02*
X13956786Y37832774D01*
X13956786Y37832774D02*
X13956786Y37632178D01*
X13956786Y37632178D02*
X14095103Y37632178D01*
X14095103Y37632178D02*
X14095103Y38248317D01*
X14095103Y38248317D02*
X14025944Y38248317D01*
X14025944Y38248317D02*
X13986067Y38247275D01*
X13986067Y38247275D02*
X13965293Y38242642D01*
X13965293Y38242642D02*
X13957611Y38232151D01*
X13957611Y38232151D02*
X13956786Y38222255D01*
X13956786Y38222255D02*
X13956786Y38196194D01*
X13956786Y38196194D02*
X13923655Y38222255D01*
X13923655Y38222255D02*
X13885665Y38240035D01*
X13885665Y38240035D02*
X13834630Y38248826D01*
X13834630Y38248826D02*
X13780145Y38248514D01*
X13780145Y38248514D02*
X13780145Y38248514D01*
G36*
X13885665Y38240035D02*
G01*
X13923655Y38222255D01*
X13956786Y38196194D01*
X13956786Y38222255D01*
X13957611Y38232151D01*
X13965293Y38242642D01*
X13986067Y38247275D01*
X14025944Y38248317D01*
X14095103Y38248317D01*
X14095103Y37632178D01*
X13956786Y37632178D01*
X13956786Y37832774D01*
X13956769Y37844290D01*
X13955589Y37925242D01*
X13952694Y37991183D01*
X13948288Y38038742D01*
X13942581Y38064548D01*
X13937340Y38074290D01*
X13905076Y38104844D01*
X13861130Y38118369D01*
X13813143Y38112059D01*
X13801373Y38107783D01*
X13776298Y38100224D01*
X13759162Y38102572D01*
X13741918Y38117936D01*
X13716524Y38149429D01*
X13675336Y38201432D01*
X13704286Y38224875D01*
X13731805Y38238985D01*
X13780145Y38248514D01*
X13834630Y38248826D01*
X13885665Y38240035D01*
G37*
X13885665Y38240035D02*
X13923655Y38222255D01*
X13956786Y38196194D01*
X13956786Y38222255D01*
X13957611Y38232151D01*
X13965293Y38242642D01*
X13986067Y38247275D01*
X14025944Y38248317D01*
X14095103Y38248317D01*
X14095103Y37632178D01*
X13956786Y37632178D01*
X13956786Y37832774D01*
X13956769Y37844290D01*
X13955589Y37925242D01*
X13952694Y37991183D01*
X13948288Y38038742D01*
X13942581Y38064548D01*
X13937340Y38074290D01*
X13905076Y38104844D01*
X13861130Y38118369D01*
X13813143Y38112059D01*
X13801373Y38107783D01*
X13776298Y38100224D01*
X13759162Y38102572D01*
X13741918Y38117936D01*
X13716524Y38149429D01*
X13675336Y38201432D01*
X13704286Y38224875D01*
X13731805Y38238985D01*
X13780145Y38248514D01*
X13834630Y38248826D01*
X13885665Y38240035D01*
X13382819Y38245030D02*
X13322715Y38229403D01*
X13322715Y38229403D02*
X13272379Y38197152D01*
X13272379Y38197152D02*
X13248007Y38173060D01*
X13248007Y38173060D02*
X13208055Y38116105D01*
X13208055Y38116105D02*
X13185158Y38050035D01*
X13185158Y38050035D02*
X13177292Y37968818D01*
X13177292Y37968818D02*
X13177252Y37962252D01*
X13177252Y37962252D02*
X13177182Y37896237D01*
X13177182Y37896237D02*
X13557136Y37896237D01*
X13557136Y37896237D02*
X13549037Y37861658D01*
X13549037Y37861658D02*
X13534413Y37830341D01*
X13534413Y37830341D02*
X13508819Y37797709D01*
X13508819Y37797709D02*
X13503465Y37792500D01*
X13503465Y37792500D02*
X13457457Y37764306D01*
X13457457Y37764306D02*
X13404990Y37759525D01*
X13404990Y37759525D02*
X13344597Y37778074D01*
X13344597Y37778074D02*
X13334360Y37783069D01*
X13334360Y37783069D02*
X13302961Y37798255D01*
X13302961Y37798255D02*
X13281930Y37806906D01*
X13281930Y37806906D02*
X13278261Y37807707D01*
X13278261Y37807707D02*
X13265452Y37799937D01*
X13265452Y37799937D02*
X13241022Y37780928D01*
X13241022Y37780928D02*
X13228621Y37770540D01*
X13228621Y37770540D02*
X13202924Y37746679D01*
X13202924Y37746679D02*
X13194485Y37730923D01*
X13194485Y37730923D02*
X13200342Y37716429D01*
X13200342Y37716429D02*
X13203472Y37712466D01*
X13203472Y37712466D02*
X13224675Y37695121D01*
X13224675Y37695121D02*
X13259662Y37674041D01*
X13259662Y37674041D02*
X13284063Y37661735D01*
X13284063Y37661735D02*
X13353328Y37640054D01*
X13353328Y37640054D02*
X13430012Y37633029D01*
X13430012Y37633029D02*
X13502635Y37641353D01*
X13502635Y37641353D02*
X13522974Y37647314D01*
X13522974Y37647314D02*
X13585924Y37681048D01*
X13585924Y37681048D02*
X13632585Y37732955D01*
X13632585Y37732955D02*
X13663227Y37803541D01*
X13663227Y37803541D02*
X13678118Y37893308D01*
X13678118Y37893308D02*
X13679753Y37940247D01*
X13679753Y37940247D02*
X13674979Y38008587D01*
X13674979Y38008587D02*
X13554410Y38008587D01*
X13554410Y38008587D02*
X13542748Y38003535D01*
X13542748Y38003535D02*
X13511402Y37999571D01*
X13511402Y37999571D02*
X13465829Y37997232D01*
X13465829Y37997232D02*
X13434954Y37996831D01*
X13434954Y37996831D02*
X13379419Y37997217D01*
X13379419Y37997217D02*
X13344367Y37999025D01*
X13344367Y37999025D02*
X13325138Y38003227D01*
X13325138Y38003227D02*
X13317070Y38010797D01*
X13317070Y38010797D02*
X13315499Y38021782D01*
X13315499Y38021782D02*
X13326279Y38055619D01*
X13326279Y38055619D02*
X13353420Y38089060D01*
X13353420Y38089060D02*
X13389123Y38114728D01*
X13389123Y38114728D02*
X13424840Y38125228D01*
X13424840Y38125228D02*
X13473352Y38115914D01*
X13473352Y38115914D02*
X13515347Y38088987D01*
X13515347Y38088987D02*
X13544464Y38050173D01*
X13544464Y38050173D02*
X13554410Y38008587D01*
X13554410Y38008587D02*
X13674979Y38008587D01*
X13674979Y38008587D02*
X13672801Y38039764D01*
X13672801Y38039764D02*
X13651345Y38119051D01*
X13651345Y38119051D02*
X13614930Y38178737D01*
X13614930Y38178737D02*
X13563103Y38219451D01*
X13563103Y38219451D02*
X13495410Y38241821D01*
X13495410Y38241821D02*
X13458738Y38246129D01*
X13458738Y38246129D02*
X13382819Y38245030D01*
X13382819Y38245030D02*
X13382819Y38245030D01*
G36*
X13678118Y37893308D02*
G01*
X13663227Y37803541D01*
X13632585Y37732955D01*
X13585924Y37681048D01*
X13522974Y37647314D01*
X13502635Y37641353D01*
X13430012Y37633029D01*
X13353328Y37640054D01*
X13284063Y37661735D01*
X13259662Y37674041D01*
X13224675Y37695121D01*
X13203472Y37712466D01*
X13200342Y37716429D01*
X13194485Y37730923D01*
X13202924Y37746679D01*
X13228621Y37770540D01*
X13241022Y37780928D01*
X13265452Y37799937D01*
X13278261Y37807707D01*
X13281930Y37806906D01*
X13302961Y37798255D01*
X13334360Y37783069D01*
X13344597Y37778074D01*
X13404990Y37759525D01*
X13457457Y37764306D01*
X13503465Y37792500D01*
X13508819Y37797709D01*
X13534413Y37830341D01*
X13549037Y37861658D01*
X13557136Y37896237D01*
X13177182Y37896237D01*
X13177252Y37962252D01*
X13177292Y37968818D01*
X13182422Y38021782D01*
X13315499Y38021782D01*
X13317070Y38010797D01*
X13325138Y38003227D01*
X13344367Y37999025D01*
X13379419Y37997217D01*
X13434954Y37996831D01*
X13465829Y37997232D01*
X13511402Y37999571D01*
X13542748Y38003535D01*
X13554410Y38008587D01*
X13544464Y38050173D01*
X13515347Y38088987D01*
X13473352Y38115914D01*
X13424840Y38125228D01*
X13389123Y38114728D01*
X13353420Y38089060D01*
X13326279Y38055619D01*
X13315499Y38021782D01*
X13182422Y38021782D01*
X13185158Y38050035D01*
X13208055Y38116105D01*
X13248007Y38173060D01*
X13272379Y38197152D01*
X13322715Y38229403D01*
X13382819Y38245030D01*
X13458738Y38246129D01*
X13495410Y38241821D01*
X13563103Y38219451D01*
X13614930Y38178737D01*
X13651345Y38119051D01*
X13672801Y38039764D01*
X13674979Y38008587D01*
X13679753Y37940247D01*
X13678118Y37893308D01*
G37*
X13678118Y37893308D02*
X13663227Y37803541D01*
X13632585Y37732955D01*
X13585924Y37681048D01*
X13522974Y37647314D01*
X13502635Y37641353D01*
X13430012Y37633029D01*
X13353328Y37640054D01*
X13284063Y37661735D01*
X13259662Y37674041D01*
X13224675Y37695121D01*
X13203472Y37712466D01*
X13200342Y37716429D01*
X13194485Y37730923D01*
X13202924Y37746679D01*
X13228621Y37770540D01*
X13241022Y37780928D01*
X13265452Y37799937D01*
X13278261Y37807707D01*
X13281930Y37806906D01*
X13302961Y37798255D01*
X13334360Y37783069D01*
X13344597Y37778074D01*
X13404990Y37759525D01*
X13457457Y37764306D01*
X13503465Y37792500D01*
X13508819Y37797709D01*
X13534413Y37830341D01*
X13549037Y37861658D01*
X13557136Y37896237D01*
X13177182Y37896237D01*
X13177252Y37962252D01*
X13177292Y37968818D01*
X13182422Y38021782D01*
X13315499Y38021782D01*
X13317070Y38010797D01*
X13325138Y38003227D01*
X13344367Y37999025D01*
X13379419Y37997217D01*
X13434954Y37996831D01*
X13465829Y37997232D01*
X13511402Y37999571D01*
X13542748Y38003535D01*
X13554410Y38008587D01*
X13544464Y38050173D01*
X13515347Y38088987D01*
X13473352Y38115914D01*
X13424840Y38125228D01*
X13389123Y38114728D01*
X13353420Y38089060D01*
X13326279Y38055619D01*
X13315499Y38021782D01*
X13182422Y38021782D01*
X13185158Y38050035D01*
X13208055Y38116105D01*
X13248007Y38173060D01*
X13272379Y38197152D01*
X13322715Y38229403D01*
X13382819Y38245030D01*
X13458738Y38246129D01*
X13495410Y38241821D01*
X13563103Y38219451D01*
X13614930Y38178737D01*
X13651345Y38119051D01*
X13672801Y38039764D01*
X13674979Y38008587D01*
X13679753Y37940247D01*
X13678118Y37893308D01*
X17953661Y39184852D02*
X17887879Y39155769D01*
X17887879Y39155769D02*
X17837940Y39107207D01*
X17837940Y39107207D02*
X17803774Y39039092D01*
X17803774Y39039092D02*
X17785307Y38951349D01*
X17785307Y38951349D02*
X17783983Y38937649D01*
X17783983Y38937649D02*
X17782946Y38841061D01*
X17782946Y38841061D02*
X17796393Y38756398D01*
X17796393Y38756398D02*
X17823508Y38687779D01*
X17823508Y38687779D02*
X17838027Y38665706D01*
X17838027Y38665706D02*
X17888601Y38618989D01*
X17888601Y38618989D02*
X17953009Y38588732D01*
X17953009Y38588732D02*
X18025066Y38576176D01*
X18025066Y38576176D02*
X18098585Y38582561D01*
X18098585Y38582561D02*
X18154472Y38602228D01*
X18154472Y38602228D02*
X18202532Y38635371D01*
X18202532Y38635371D02*
X18241812Y38678825D01*
X18241812Y38678825D02*
X18242492Y38679842D01*
X18242492Y38679842D02*
X18258444Y38706662D01*
X18258444Y38706662D02*
X18268810Y38733632D01*
X18268810Y38733632D02*
X18275088Y38767668D01*
X18275088Y38767668D02*
X18278773Y38815690D01*
X18278773Y38815690D02*
X18280397Y38855069D01*
X18280397Y38855069D02*
X18281072Y38890781D01*
X18281072Y38890781D02*
X18155355Y38890781D01*
X18155355Y38890781D02*
X18154126Y38855230D01*
X18154126Y38855230D02*
X18149666Y38807906D01*
X18149666Y38807906D02*
X18141797Y38777535D01*
X18141797Y38777535D02*
X18127607Y38755928D01*
X18127607Y38755928D02*
X18114317Y38743306D01*
X18114317Y38743306D02*
X18067202Y38716878D01*
X18067202Y38716878D02*
X18017905Y38713347D01*
X18017905Y38713347D02*
X17971993Y38732361D01*
X17971993Y38732361D02*
X17949038Y38753669D01*
X17949038Y38753669D02*
X17932496Y38775141D01*
X17932496Y38775141D02*
X17922821Y38795687D01*
X17922821Y38795687D02*
X17918574Y38822426D01*
X17918574Y38822426D02*
X17918320Y38862477D01*
X17918320Y38862477D02*
X17919628Y38899362D01*
X17919628Y38899362D02*
X17922443Y38952053D01*
X17922443Y38952053D02*
X17926905Y38986228D01*
X17926905Y38986228D02*
X17934948Y39008520D01*
X17934948Y39008520D02*
X17948503Y39025558D01*
X17948503Y39025558D02*
X17959245Y39035297D01*
X17959245Y39035297D02*
X18004177Y39060877D01*
X18004177Y39060877D02*
X18052649Y39062153D01*
X18052649Y39062153D02*
X18093294Y39047001D01*
X18093294Y39047001D02*
X18127967Y39015358D01*
X18127967Y39015358D02*
X18148624Y38963380D01*
X18148624Y38963380D02*
X18155355Y38890781D01*
X18155355Y38890781D02*
X18281072Y38890781D01*
X18281072Y38890781D02*
X18281879Y38933379D01*
X18281879Y38933379D02*
X18279348Y38991944D01*
X18279348Y38991944D02*
X18271762Y39035993D01*
X18271762Y39035993D02*
X18258081Y39070752D01*
X18258081Y39070752D02*
X18237265Y39101449D01*
X18237265Y39101449D02*
X18229547Y39110564D01*
X18229547Y39110564D02*
X18181289Y39155979D01*
X18181289Y39155979D02*
X18129528Y39182507D01*
X18129528Y39182507D02*
X18066228Y39193621D01*
X18066228Y39193621D02*
X18035361Y39194529D01*
X18035361Y39194529D02*
X17953661Y39184852D01*
X17953661Y39184852D02*
X17953661Y39184852D01*
G36*
X18278773Y38815690D02*
G01*
X18275088Y38767668D01*
X18268810Y38733632D01*
X18258444Y38706662D01*
X18242492Y38679842D01*
X18241812Y38678825D01*
X18202532Y38635371D01*
X18154472Y38602228D01*
X18098585Y38582561D01*
X18025066Y38576176D01*
X17953009Y38588732D01*
X17888601Y38618989D01*
X17838027Y38665706D01*
X17823508Y38687779D01*
X17796393Y38756398D01*
X17782946Y38841061D01*
X17783176Y38862477D01*
X17918320Y38862477D01*
X17918574Y38822426D01*
X17922821Y38795687D01*
X17932496Y38775141D01*
X17949038Y38753669D01*
X17971993Y38732361D01*
X18017905Y38713347D01*
X18067202Y38716878D01*
X18114317Y38743306D01*
X18127607Y38755928D01*
X18141797Y38777535D01*
X18149666Y38807906D01*
X18154126Y38855230D01*
X18155355Y38890781D01*
X18148624Y38963380D01*
X18127967Y39015358D01*
X18093294Y39047001D01*
X18052649Y39062153D01*
X18004177Y39060877D01*
X17959245Y39035297D01*
X17948503Y39025558D01*
X17934948Y39008520D01*
X17926905Y38986228D01*
X17922443Y38952053D01*
X17919628Y38899362D01*
X17918320Y38862477D01*
X17783176Y38862477D01*
X17783983Y38937649D01*
X17785307Y38951349D01*
X17803774Y39039092D01*
X17837940Y39107207D01*
X17887879Y39155769D01*
X17953661Y39184852D01*
X18035361Y39194529D01*
X18066228Y39193621D01*
X18129528Y39182507D01*
X18181289Y39155979D01*
X18229547Y39110564D01*
X18237265Y39101449D01*
X18258081Y39070752D01*
X18271762Y39035993D01*
X18279348Y38991944D01*
X18281879Y38933379D01*
X18281072Y38890781D01*
X18280397Y38855069D01*
X18278773Y38815690D01*
G37*
X18278773Y38815690D02*
X18275088Y38767668D01*
X18268810Y38733632D01*
X18258444Y38706662D01*
X18242492Y38679842D01*
X18241812Y38678825D01*
X18202532Y38635371D01*
X18154472Y38602228D01*
X18098585Y38582561D01*
X18025066Y38576176D01*
X17953009Y38588732D01*
X17888601Y38618989D01*
X17838027Y38665706D01*
X17823508Y38687779D01*
X17796393Y38756398D01*
X17782946Y38841061D01*
X17783176Y38862477D01*
X17918320Y38862477D01*
X17918574Y38822426D01*
X17922821Y38795687D01*
X17932496Y38775141D01*
X17949038Y38753669D01*
X17971993Y38732361D01*
X18017905Y38713347D01*
X18067202Y38716878D01*
X18114317Y38743306D01*
X18127607Y38755928D01*
X18141797Y38777535D01*
X18149666Y38807906D01*
X18154126Y38855230D01*
X18155355Y38890781D01*
X18148624Y38963380D01*
X18127967Y39015358D01*
X18093294Y39047001D01*
X18052649Y39062153D01*
X18004177Y39060877D01*
X17959245Y39035297D01*
X17948503Y39025558D01*
X17934948Y39008520D01*
X17926905Y38986228D01*
X17922443Y38952053D01*
X17919628Y38899362D01*
X17918320Y38862477D01*
X17783176Y38862477D01*
X17783983Y38937649D01*
X17785307Y38951349D01*
X17803774Y39039092D01*
X17837940Y39107207D01*
X17887879Y39155769D01*
X17953661Y39184852D01*
X18035361Y39194529D01*
X18066228Y39193621D01*
X18129528Y39182507D01*
X18181289Y39155979D01*
X18229547Y39110564D01*
X18237265Y39101449D01*
X18258081Y39070752D01*
X18271762Y39035993D01*
X18279348Y38991944D01*
X18281879Y38933379D01*
X18281072Y38890781D01*
X18280397Y38855069D01*
X18278773Y38815690D01*
X16772099Y39177386D02*
X16759568Y39171486D01*
X16759568Y39171486D02*
X16716199Y39139717D01*
X16716199Y39139717D02*
X16675190Y39093354D01*
X16675190Y39093354D02*
X16644568Y39042304D01*
X16644568Y39042304D02*
X16635859Y39018834D01*
X16635859Y39018834D02*
X16627912Y38976909D01*
X16627912Y38976909D02*
X16623174Y38926243D01*
X16623174Y38926243D02*
X16622599Y38905321D01*
X16622599Y38905321D02*
X16622529Y38839307D01*
X16622529Y38839307D02*
X17002483Y38839307D01*
X17002483Y38839307D02*
X16994383Y38804727D01*
X16994383Y38804727D02*
X16974504Y38763830D01*
X16974504Y38763830D02*
X16939747Y38728486D01*
X16939747Y38728486D02*
X16898398Y38705718D01*
X16898398Y38705718D02*
X16872049Y38700990D01*
X16872049Y38700990D02*
X16836316Y38706727D01*
X16836316Y38706727D02*
X16793682Y38721118D01*
X16793682Y38721118D02*
X16779199Y38727738D01*
X16779199Y38727738D02*
X16725640Y38754487D01*
X16725640Y38754487D02*
X16679933Y38719624D01*
X16679933Y38719624D02*
X16653558Y38696045D01*
X16653558Y38696045D02*
X16639524Y38676583D01*
X16639524Y38676583D02*
X16638814Y38670871D01*
X16638814Y38670871D02*
X16651351Y38657027D01*
X16651351Y38657027D02*
X16678828Y38635988D01*
X16678828Y38635988D02*
X16703766Y38619575D01*
X16703766Y38619575D02*
X16771064Y38590070D01*
X16771064Y38590070D02*
X16846510Y38576716D01*
X16846510Y38576716D02*
X16921288Y38580188D01*
X16921288Y38580188D02*
X16980895Y38598337D01*
X16980895Y38598337D02*
X17042341Y38637216D01*
X17042341Y38637216D02*
X17086008Y38688405D01*
X17086008Y38688405D02*
X17113326Y38754633D01*
X17113326Y38754633D02*
X17125722Y38838629D01*
X17125722Y38838629D02*
X17126821Y38877064D01*
X17126821Y38877064D02*
X17122422Y38965139D01*
X17122422Y38965139D02*
X17121882Y38967701D01*
X17121882Y38967701D02*
X16995982Y38967701D01*
X16995982Y38967701D02*
X16992515Y38959442D01*
X16992515Y38959442D02*
X16978263Y38954887D01*
X16978263Y38954887D02*
X16948870Y38952935D01*
X16948870Y38952935D02*
X16899975Y38952483D01*
X16899975Y38952483D02*
X16881148Y38952475D01*
X16881148Y38952475D02*
X16823867Y38953157D01*
X16823867Y38953157D02*
X16787541Y38955636D01*
X16787541Y38955636D02*
X16768004Y38960557D01*
X16768004Y38960557D02*
X16761090Y38968566D01*
X16761090Y38968566D02*
X16760845Y38971138D01*
X16760845Y38971138D02*
X16768736Y38991577D01*
X16768736Y38991577D02*
X16788485Y39020211D01*
X16788485Y39020211D02*
X16796975Y39030237D01*
X16796975Y39030237D02*
X16828494Y39058592D01*
X16828494Y39058592D02*
X16861349Y39069741D01*
X16861349Y39069741D02*
X16879051Y39070673D01*
X16879051Y39070673D02*
X16926939Y39059019D01*
X16926939Y39059019D02*
X16967099Y39027715D01*
X16967099Y39027715D02*
X16992573Y38982248D01*
X16992573Y38982248D02*
X16993025Y38980767D01*
X16993025Y38980767D02*
X16995982Y38967701D01*
X16995982Y38967701D02*
X17121882Y38967701D01*
X17121882Y38967701D02*
X17107792Y39034490D01*
X17107792Y39034490D02*
X17081438Y39089975D01*
X17081438Y39089975D02*
X17049207Y39129361D01*
X17049207Y39129361D02*
X16989617Y39172069D01*
X16989617Y39172069D02*
X16919568Y39194891D01*
X16919568Y39194891D02*
X16845061Y39196954D01*
X16845061Y39196954D02*
X16772099Y39177386D01*
X16772099Y39177386D02*
X16772099Y39177386D01*
G36*
X17126821Y38877064D02*
G01*
X17125722Y38838629D01*
X17113326Y38754633D01*
X17086008Y38688405D01*
X17042341Y38637216D01*
X16980895Y38598337D01*
X16921288Y38580188D01*
X16846510Y38576716D01*
X16771064Y38590070D01*
X16703766Y38619575D01*
X16678828Y38635988D01*
X16651351Y38657027D01*
X16638814Y38670871D01*
X16639524Y38676583D01*
X16653558Y38696045D01*
X16679933Y38719624D01*
X16725640Y38754487D01*
X16779199Y38727738D01*
X16793682Y38721118D01*
X16836316Y38706727D01*
X16872049Y38700990D01*
X16898398Y38705718D01*
X16939747Y38728486D01*
X16974504Y38763830D01*
X16994383Y38804727D01*
X17002483Y38839307D01*
X16622529Y38839307D01*
X16622599Y38905321D01*
X16623174Y38926243D01*
X16627372Y38971138D01*
X16760845Y38971138D01*
X16761090Y38968566D01*
X16768004Y38960557D01*
X16787541Y38955636D01*
X16823867Y38953157D01*
X16881148Y38952475D01*
X16899975Y38952483D01*
X16948870Y38952935D01*
X16978263Y38954887D01*
X16992515Y38959442D01*
X16995982Y38967701D01*
X16993025Y38980767D01*
X16992573Y38982248D01*
X16967099Y39027715D01*
X16926939Y39059019D01*
X16879051Y39070673D01*
X16861349Y39069741D01*
X16828494Y39058592D01*
X16796975Y39030237D01*
X16788485Y39020211D01*
X16768736Y38991577D01*
X16760845Y38971138D01*
X16627372Y38971138D01*
X16627912Y38976909D01*
X16635859Y39018834D01*
X16644568Y39042304D01*
X16675190Y39093354D01*
X16716199Y39139717D01*
X16759568Y39171486D01*
X16772099Y39177386D01*
X16845061Y39196954D01*
X16919568Y39194891D01*
X16989617Y39172069D01*
X17049207Y39129361D01*
X17081438Y39089975D01*
X17107792Y39034490D01*
X17121882Y38967701D01*
X17122422Y38965139D01*
X17126821Y38877064D01*
G37*
X17126821Y38877064D02*
X17125722Y38838629D01*
X17113326Y38754633D01*
X17086008Y38688405D01*
X17042341Y38637216D01*
X16980895Y38598337D01*
X16921288Y38580188D01*
X16846510Y38576716D01*
X16771064Y38590070D01*
X16703766Y38619575D01*
X16678828Y38635988D01*
X16651351Y38657027D01*
X16638814Y38670871D01*
X16639524Y38676583D01*
X16653558Y38696045D01*
X16679933Y38719624D01*
X16725640Y38754487D01*
X16779199Y38727738D01*
X16793682Y38721118D01*
X16836316Y38706727D01*
X16872049Y38700990D01*
X16898398Y38705718D01*
X16939747Y38728486D01*
X16974504Y38763830D01*
X16994383Y38804727D01*
X17002483Y38839307D01*
X16622529Y38839307D01*
X16622599Y38905321D01*
X16623174Y38926243D01*
X16627372Y38971138D01*
X16760845Y38971138D01*
X16761090Y38968566D01*
X16768004Y38960557D01*
X16787541Y38955636D01*
X16823867Y38953157D01*
X16881148Y38952475D01*
X16899975Y38952483D01*
X16948870Y38952935D01*
X16978263Y38954887D01*
X16992515Y38959442D01*
X16995982Y38967701D01*
X16993025Y38980767D01*
X16992573Y38982248D01*
X16967099Y39027715D01*
X16926939Y39059019D01*
X16879051Y39070673D01*
X16861349Y39069741D01*
X16828494Y39058592D01*
X16796975Y39030237D01*
X16788485Y39020211D01*
X16768736Y38991577D01*
X16760845Y38971138D01*
X16627372Y38971138D01*
X16627912Y38976909D01*
X16635859Y39018834D01*
X16644568Y39042304D01*
X16675190Y39093354D01*
X16716199Y39139717D01*
X16759568Y39171486D01*
X16772099Y39177386D01*
X16845061Y39196954D01*
X16919568Y39194891D01*
X16989617Y39172069D01*
X17049207Y39129361D01*
X17081438Y39089975D01*
X17107792Y39034490D01*
X17121882Y38967701D01*
X17122422Y38965139D01*
X17126821Y38877064D01*
X15401383Y39193548D02*
X15353766Y39184518D01*
X15353766Y39184518D02*
X15304366Y39165630D01*
X15304366Y39165630D02*
X15299088Y39163223D01*
X15299088Y39163223D02*
X15261626Y39143524D01*
X15261626Y39143524D02*
X15235683Y39125219D01*
X15235683Y39125219D02*
X15227297Y39113492D01*
X15227297Y39113492D02*
X15235283Y39094368D01*
X15235283Y39094368D02*
X15254680Y39066150D01*
X15254680Y39066150D02*
X15263290Y39055616D01*
X15263290Y39055616D02*
X15298772Y39014153D01*
X15298772Y39014153D02*
X15344515Y39041142D01*
X15344515Y39041142D02*
X15388050Y39059122D01*
X15388050Y39059122D02*
X15438350Y39068733D01*
X15438350Y39068733D02*
X15486588Y39069340D01*
X15486588Y39069340D02*
X15523933Y39060309D01*
X15523933Y39060309D02*
X15532895Y39054673D01*
X15532895Y39054673D02*
X15549963Y39028829D01*
X15549963Y39028829D02*
X15552037Y38999059D01*
X15552037Y38999059D02*
X15539266Y38975803D01*
X15539266Y38975803D02*
X15531712Y38971292D01*
X15531712Y38971292D02*
X15509075Y38965691D01*
X15509075Y38965691D02*
X15469285Y38959108D01*
X15469285Y38959108D02*
X15420234Y38952817D01*
X15420234Y38952817D02*
X15411185Y38951830D01*
X15411185Y38951830D02*
X15332404Y38938202D01*
X15332404Y38938202D02*
X15275264Y38915054D01*
X15275264Y38915054D02*
X15237370Y38880248D01*
X15237370Y38880248D02*
X15216321Y38831646D01*
X15216321Y38831646D02*
X15209765Y38772282D01*
X15209765Y38772282D02*
X15218823Y38704802D01*
X15218823Y38704802D02*
X15248236Y38651812D01*
X15248236Y38651812D02*
X15298122Y38613217D01*
X15298122Y38613217D02*
X15368600Y38588919D01*
X15368600Y38588919D02*
X15446835Y38579333D01*
X15446835Y38579333D02*
X15510634Y38579448D01*
X15510634Y38579448D02*
X15562384Y38588155D01*
X15562384Y38588155D02*
X15597727Y38600175D01*
X15597727Y38600175D02*
X15642383Y38621120D01*
X15642383Y38621120D02*
X15683653Y38645426D01*
X15683653Y38645426D02*
X15698321Y38656124D01*
X15698321Y38656124D02*
X15736043Y38686916D01*
X15736043Y38686916D02*
X15690548Y38732951D01*
X15690548Y38732951D02*
X15645053Y38778987D01*
X15645053Y38778987D02*
X15593328Y38744757D01*
X15593328Y38744757D02*
X15541448Y38719048D01*
X15541448Y38719048D02*
X15486049Y38705601D01*
X15486049Y38705601D02*
X15432795Y38704182D01*
X15432795Y38704182D02*
X15387351Y38714557D01*
X15387351Y38714557D02*
X15355384Y38736493D01*
X15355384Y38736493D02*
X15345062Y38755002D01*
X15345062Y38755002D02*
X15346611Y38784686D01*
X15346611Y38784686D02*
X15372260Y38807385D01*
X15372260Y38807385D02*
X15421940Y38823060D01*
X15421940Y38823060D02*
X15476369Y38830305D01*
X15476369Y38830305D02*
X15560136Y38844127D01*
X15560136Y38844127D02*
X15622367Y38870204D01*
X15622367Y38870204D02*
X15663893Y38909301D01*
X15663893Y38909301D02*
X15685547Y38962180D01*
X15685547Y38962180D02*
X15688547Y39024874D01*
X15688547Y39024874D02*
X15673729Y39090358D01*
X15673729Y39090358D02*
X15639946Y39139856D01*
X15639946Y39139856D02*
X15586895Y39173592D01*
X15586895Y39173592D02*
X15514274Y39191793D01*
X15514274Y39191793D02*
X15460472Y39195361D01*
X15460472Y39195361D02*
X15401383Y39193548D01*
X15401383Y39193548D02*
X15401383Y39193548D01*
G36*
X15514274Y39191793D02*
G01*
X15586895Y39173592D01*
X15639946Y39139856D01*
X15673729Y39090358D01*
X15688547Y39024874D01*
X15685547Y38962180D01*
X15663893Y38909301D01*
X15622367Y38870204D01*
X15560136Y38844127D01*
X15476369Y38830305D01*
X15421940Y38823060D01*
X15372260Y38807385D01*
X15346611Y38784686D01*
X15345062Y38755002D01*
X15355384Y38736493D01*
X15387351Y38714557D01*
X15432795Y38704182D01*
X15486049Y38705601D01*
X15541448Y38719048D01*
X15593328Y38744757D01*
X15645053Y38778987D01*
X15690548Y38732951D01*
X15736043Y38686916D01*
X15698321Y38656124D01*
X15683653Y38645426D01*
X15642383Y38621120D01*
X15597727Y38600175D01*
X15562384Y38588155D01*
X15510634Y38579448D01*
X15446835Y38579333D01*
X15368600Y38588919D01*
X15298122Y38613217D01*
X15248236Y38651812D01*
X15218823Y38704802D01*
X15209765Y38772282D01*
X15216321Y38831646D01*
X15237370Y38880248D01*
X15275264Y38915054D01*
X15332404Y38938202D01*
X15411185Y38951830D01*
X15420234Y38952817D01*
X15469285Y38959108D01*
X15509075Y38965691D01*
X15531712Y38971292D01*
X15539266Y38975803D01*
X15552037Y38999059D01*
X15549963Y39028829D01*
X15532895Y39054673D01*
X15523933Y39060309D01*
X15486588Y39069340D01*
X15438350Y39068733D01*
X15388050Y39059122D01*
X15344515Y39041142D01*
X15298772Y39014153D01*
X15263290Y39055616D01*
X15254680Y39066150D01*
X15235283Y39094368D01*
X15227297Y39113492D01*
X15235683Y39125219D01*
X15261626Y39143524D01*
X15299088Y39163223D01*
X15304366Y39165630D01*
X15353766Y39184518D01*
X15401383Y39193548D01*
X15460472Y39195361D01*
X15514274Y39191793D01*
G37*
X15514274Y39191793D02*
X15586895Y39173592D01*
X15639946Y39139856D01*
X15673729Y39090358D01*
X15688547Y39024874D01*
X15685547Y38962180D01*
X15663893Y38909301D01*
X15622367Y38870204D01*
X15560136Y38844127D01*
X15476369Y38830305D01*
X15421940Y38823060D01*
X15372260Y38807385D01*
X15346611Y38784686D01*
X15345062Y38755002D01*
X15355384Y38736493D01*
X15387351Y38714557D01*
X15432795Y38704182D01*
X15486049Y38705601D01*
X15541448Y38719048D01*
X15593328Y38744757D01*
X15645053Y38778987D01*
X15690548Y38732951D01*
X15736043Y38686916D01*
X15698321Y38656124D01*
X15683653Y38645426D01*
X15642383Y38621120D01*
X15597727Y38600175D01*
X15562384Y38588155D01*
X15510634Y38579448D01*
X15446835Y38579333D01*
X15368600Y38588919D01*
X15298122Y38613217D01*
X15248236Y38651812D01*
X15218823Y38704802D01*
X15209765Y38772282D01*
X15216321Y38831646D01*
X15237370Y38880248D01*
X15275264Y38915054D01*
X15332404Y38938202D01*
X15411185Y38951830D01*
X15420234Y38952817D01*
X15469285Y38959108D01*
X15509075Y38965691D01*
X15531712Y38971292D01*
X15539266Y38975803D01*
X15552037Y38999059D01*
X15549963Y39028829D01*
X15532895Y39054673D01*
X15523933Y39060309D01*
X15486588Y39069340D01*
X15438350Y39068733D01*
X15388050Y39059122D01*
X15344515Y39041142D01*
X15298772Y39014153D01*
X15263290Y39055616D01*
X15254680Y39066150D01*
X15235283Y39094368D01*
X15227297Y39113492D01*
X15235683Y39125219D01*
X15261626Y39143524D01*
X15299088Y39163223D01*
X15304366Y39165630D01*
X15353766Y39184518D01*
X15401383Y39193548D01*
X15460472Y39195361D01*
X15514274Y39191793D01*
X14804638Y39183945D02*
X14741037Y39149308D01*
X14741037Y39149308D02*
X14691277Y39094628D01*
X14691277Y39094628D02*
X14667832Y39050158D01*
X14667832Y39050158D02*
X14657766Y39010879D01*
X14657766Y39010879D02*
X14651244Y38954884D01*
X14651244Y38954884D02*
X14648449Y38890379D01*
X14648449Y38890379D02*
X14649564Y38825571D01*
X14649564Y38825571D02*
X14654774Y38768666D01*
X14654774Y38768666D02*
X14660859Y38738273D01*
X14660859Y38738273D02*
X14681386Y38696694D01*
X14681386Y38696694D02*
X14716937Y38652532D01*
X14716937Y38652532D02*
X14759781Y38613913D01*
X14759781Y38613913D02*
X14802189Y38588966D01*
X14802189Y38588966D02*
X14803223Y38588570D01*
X14803223Y38588570D02*
X14855847Y38577669D01*
X14855847Y38577669D02*
X14918212Y38577399D01*
X14918212Y38577399D02*
X14977476Y38587324D01*
X14977476Y38587324D02*
X15000360Y38595278D01*
X15000360Y38595278D02*
X15059298Y38628700D01*
X15059298Y38628700D02*
X15101510Y38672489D01*
X15101510Y38672489D02*
X15129244Y38730462D01*
X15129244Y38730462D02*
X15144749Y38806435D01*
X15144749Y38806435D02*
X15148257Y38846229D01*
X15148257Y38846229D02*
X15147810Y38896234D01*
X15147810Y38896234D02*
X15013024Y38896234D01*
X15013024Y38896234D02*
X15008483Y38823268D01*
X15008483Y38823268D02*
X14995414Y38767666D01*
X14995414Y38767666D02*
X14974644Y38732139D01*
X14974644Y38732139D02*
X14959848Y38721980D01*
X14959848Y38721980D02*
X14921936Y38714896D01*
X14921936Y38714896D02*
X14876873Y38716993D01*
X14876873Y38716993D02*
X14837913Y38727188D01*
X14837913Y38727188D02*
X14827696Y38732796D01*
X14827696Y38732796D02*
X14800741Y38765462D01*
X14800741Y38765462D02*
X14782949Y38815455D01*
X14782949Y38815455D02*
X14775376Y38876295D01*
X14775376Y38876295D02*
X14779075Y38941503D01*
X14779075Y38941503D02*
X14787343Y38980747D01*
X14787343Y38980747D02*
X14811080Y39026195D01*
X14811080Y39026195D02*
X14848551Y39054604D01*
X14848551Y39054604D02*
X14893680Y39064427D01*
X14893680Y39064427D02*
X14940389Y39054113D01*
X14940389Y39054113D02*
X14976268Y39028888D01*
X14976268Y39028888D02*
X14995123Y39008075D01*
X14995123Y39008075D02*
X15006128Y38987561D01*
X15006128Y38987561D02*
X15011374Y38959797D01*
X15011374Y38959797D02*
X15012951Y38917238D01*
X15012951Y38917238D02*
X15013024Y38896234D01*
X15013024Y38896234D02*
X15147810Y38896234D01*
X15147810Y38896234D02*
X15147306Y38952420D01*
X15147306Y38952420D02*
X15130012Y39039499D01*
X15130012Y39039499D02*
X15096371Y39107470D01*
X15096371Y39107470D02*
X15046382Y39156336D01*
X15046382Y39156336D02*
X14980044Y39186101D01*
X14980044Y39186101D02*
X14965799Y39189552D01*
X14965799Y39189552D02*
X14880190Y39197655D01*
X14880190Y39197655D02*
X14804638Y39183945D01*
X14804638Y39183945D02*
X14804638Y39183945D01*
G36*
X15144749Y38806435D02*
G01*
X15129244Y38730462D01*
X15101510Y38672489D01*
X15059298Y38628700D01*
X15000360Y38595278D01*
X14977476Y38587324D01*
X14918212Y38577399D01*
X14855847Y38577669D01*
X14803223Y38588570D01*
X14802189Y38588966D01*
X14759781Y38613913D01*
X14716937Y38652532D01*
X14681386Y38696694D01*
X14660859Y38738273D01*
X14654774Y38768666D01*
X14649564Y38825571D01*
X14648691Y38876295D01*
X14775376Y38876295D01*
X14782949Y38815455D01*
X14800741Y38765462D01*
X14827696Y38732796D01*
X14837913Y38727188D01*
X14876873Y38716993D01*
X14921936Y38714896D01*
X14959848Y38721980D01*
X14974644Y38732139D01*
X14995414Y38767666D01*
X15008483Y38823268D01*
X15013024Y38896234D01*
X15012951Y38917238D01*
X15011374Y38959797D01*
X15006128Y38987561D01*
X14995123Y39008075D01*
X14976268Y39028888D01*
X14940389Y39054113D01*
X14893680Y39064427D01*
X14848551Y39054604D01*
X14811080Y39026195D01*
X14787343Y38980747D01*
X14779075Y38941503D01*
X14775376Y38876295D01*
X14648691Y38876295D01*
X14648449Y38890379D01*
X14651244Y38954884D01*
X14657766Y39010879D01*
X14667832Y39050158D01*
X14691277Y39094628D01*
X14741037Y39149308D01*
X14804638Y39183945D01*
X14880190Y39197655D01*
X14965799Y39189552D01*
X14980044Y39186101D01*
X15046382Y39156336D01*
X15096371Y39107470D01*
X15130012Y39039499D01*
X15147306Y38952420D01*
X15147810Y38896234D01*
X15148257Y38846229D01*
X15144749Y38806435D01*
G37*
X15144749Y38806435D02*
X15129244Y38730462D01*
X15101510Y38672489D01*
X15059298Y38628700D01*
X15000360Y38595278D01*
X14977476Y38587324D01*
X14918212Y38577399D01*
X14855847Y38577669D01*
X14803223Y38588570D01*
X14802189Y38588966D01*
X14759781Y38613913D01*
X14716937Y38652532D01*
X14681386Y38696694D01*
X14660859Y38738273D01*
X14654774Y38768666D01*
X14649564Y38825571D01*
X14648691Y38876295D01*
X14775376Y38876295D01*
X14782949Y38815455D01*
X14800741Y38765462D01*
X14827696Y38732796D01*
X14837913Y38727188D01*
X14876873Y38716993D01*
X14921936Y38714896D01*
X14959848Y38721980D01*
X14974644Y38732139D01*
X14995414Y38767666D01*
X15008483Y38823268D01*
X15013024Y38896234D01*
X15012951Y38917238D01*
X15011374Y38959797D01*
X15006128Y38987561D01*
X14995123Y39008075D01*
X14976268Y39028888D01*
X14940389Y39054113D01*
X14893680Y39064427D01*
X14848551Y39054604D01*
X14811080Y39026195D01*
X14787343Y38980747D01*
X14779075Y38941503D01*
X14775376Y38876295D01*
X14648691Y38876295D01*
X14648449Y38890379D01*
X14651244Y38954884D01*
X14657766Y39010879D01*
X14667832Y39050158D01*
X14691277Y39094628D01*
X14741037Y39149308D01*
X14804638Y39183945D01*
X14880190Y39197655D01*
X14965799Y39189552D01*
X14980044Y39186101D01*
X15046382Y39156336D01*
X15096371Y39107470D01*
X15130012Y39039499D01*
X15147306Y38952420D01*
X15147810Y38896234D01*
X15148257Y38846229D01*
X15144749Y38806435D01*
X14422033Y38995658D02*
X14420845Y38903437D01*
X14420845Y38903437D02*
X14416503Y38833390D01*
X14416503Y38833390D02*
X14407842Y38782619D01*
X14407842Y38782619D02*
X14393696Y38748228D01*
X14393696Y38748228D02*
X14372900Y38727321D01*
X14372900Y38727321D02*
X14344290Y38717000D01*
X14344290Y38717000D02*
X14308865Y38714364D01*
X14308865Y38714364D02*
X14271764Y38717318D01*
X14271764Y38717318D02*
X14243582Y38728111D01*
X14243582Y38728111D02*
X14223157Y38749640D01*
X14223157Y38749640D02*
X14209321Y38784801D01*
X14209321Y38784801D02*
X14200909Y38836490D01*
X14200909Y38836490D02*
X14196757Y38907606D01*
X14196757Y38907606D02*
X14195697Y38995658D01*
X14195697Y38995658D02*
X14195697Y39191386D01*
X14195697Y39191386D02*
X14057380Y39191386D01*
X14057380Y39191386D02*
X14057380Y38587821D01*
X14057380Y38587821D02*
X14126538Y38587821D01*
X14126538Y38587821D02*
X14168230Y38589511D01*
X14168230Y38589511D02*
X14189699Y38595444D01*
X14189699Y38595444D02*
X14195697Y38606707D01*
X14195697Y38606707D02*
X14199309Y38616739D01*
X14199309Y38616739D02*
X14213686Y38614617D01*
X14213686Y38614617D02*
X14242664Y38600420D01*
X14242664Y38600420D02*
X14309081Y38578520D01*
X14309081Y38578520D02*
X14379525Y38580072D01*
X14379525Y38580072D02*
X14447023Y38603853D01*
X14447023Y38603853D02*
X14479167Y38622638D01*
X14479167Y38622638D02*
X14503685Y38642978D01*
X14503685Y38642978D02*
X14521596Y38668427D01*
X14521596Y38668427D02*
X14533921Y38702542D01*
X14533921Y38702542D02*
X14541677Y38748879D01*
X14541677Y38748879D02*
X14545884Y38810993D01*
X14545884Y38810993D02*
X14547560Y38892439D01*
X14547560Y38892439D02*
X14547776Y38955422D01*
X14547776Y38955422D02*
X14547776Y39191386D01*
X14547776Y39191386D02*
X14422033Y39191386D01*
X14422033Y39191386D02*
X14422033Y38995658D01*
X14422033Y38995658D02*
X14422033Y38995658D01*
G36*
X14195697Y38995658D02*
G01*
X14196757Y38907606D01*
X14200909Y38836490D01*
X14209321Y38784801D01*
X14223157Y38749640D01*
X14243582Y38728111D01*
X14271764Y38717318D01*
X14308865Y38714364D01*
X14344290Y38717000D01*
X14372900Y38727321D01*
X14393696Y38748228D01*
X14407842Y38782619D01*
X14416503Y38833390D01*
X14420845Y38903437D01*
X14422033Y38995658D01*
X14422033Y39191386D01*
X14547776Y39191386D01*
X14547776Y38955422D01*
X14547560Y38892439D01*
X14545884Y38810993D01*
X14541677Y38748879D01*
X14533921Y38702542D01*
X14521596Y38668427D01*
X14503685Y38642978D01*
X14479167Y38622638D01*
X14447023Y38603853D01*
X14379525Y38580072D01*
X14309081Y38578520D01*
X14242664Y38600420D01*
X14213686Y38614617D01*
X14199309Y38616739D01*
X14195697Y38606707D01*
X14189699Y38595444D01*
X14168230Y38589511D01*
X14126538Y38587821D01*
X14057380Y38587821D01*
X14057380Y39191386D01*
X14195697Y39191386D01*
X14195697Y38995658D01*
G37*
X14195697Y38995658D02*
X14196757Y38907606D01*
X14200909Y38836490D01*
X14209321Y38784801D01*
X14223157Y38749640D01*
X14243582Y38728111D01*
X14271764Y38717318D01*
X14308865Y38714364D01*
X14344290Y38717000D01*
X14372900Y38727321D01*
X14393696Y38748228D01*
X14407842Y38782619D01*
X14416503Y38833390D01*
X14420845Y38903437D01*
X14422033Y38995658D01*
X14422033Y39191386D01*
X14547776Y39191386D01*
X14547776Y38955422D01*
X14547560Y38892439D01*
X14545884Y38810993D01*
X14541677Y38748879D01*
X14533921Y38702542D01*
X14521596Y38668427D01*
X14503685Y38642978D01*
X14479167Y38622638D01*
X14447023Y38603853D01*
X14379525Y38580072D01*
X14309081Y38578520D01*
X14242664Y38600420D01*
X14213686Y38614617D01*
X14199309Y38616739D01*
X14195697Y38606707D01*
X14189699Y38595444D01*
X14168230Y38589511D01*
X14126538Y38587821D01*
X14057380Y38587821D01*
X14057380Y39191386D01*
X14195697Y39191386D01*
X14195697Y38995658D01*
X13198174Y39186120D02*
X13125320Y39155170D01*
X13125320Y39155170D02*
X13102373Y39140105D01*
X13102373Y39140105D02*
X13073046Y39116952D01*
X13073046Y39116952D02*
X13054636Y39098747D01*
X13054636Y39098747D02*
X13051439Y39092817D01*
X13051439Y39092817D02*
X13060465Y39079660D01*
X13060465Y39079660D02*
X13083563Y39057333D01*
X13083563Y39057333D02*
X13102056Y39041750D01*
X13102056Y39041750D02*
X13152672Y39001074D01*
X13152672Y39001074D02*
X13192640Y39034705D01*
X13192640Y39034705D02*
X13223526Y39056416D01*
X13223526Y39056416D02*
X13253641Y39063910D01*
X13253641Y39063910D02*
X13288108Y39062080D01*
X13288108Y39062080D02*
X13342839Y39048472D01*
X13342839Y39048472D02*
X13380514Y39020228D01*
X13380514Y39020228D02*
X13403409Y38974567D01*
X13403409Y38974567D02*
X13413803Y38908711D01*
X13413803Y38908711D02*
X13413805Y38908669D01*
X13413805Y38908669D02*
X13412906Y38835061D01*
X13412906Y38835061D02*
X13398937Y38781054D01*
X13398937Y38781054D02*
X13371072Y38744284D01*
X13371072Y38744284D02*
X13352075Y38731832D01*
X13352075Y38731832D02*
X13301624Y38716327D01*
X13301624Y38716327D02*
X13247737Y38716317D01*
X13247737Y38716317D02*
X13200854Y38731362D01*
X13200854Y38731362D02*
X13189756Y38738713D01*
X13189756Y38738713D02*
X13161924Y38757489D01*
X13161924Y38757489D02*
X13140164Y38760566D01*
X13140164Y38760566D02*
X13116696Y38746591D01*
X13116696Y38746591D02*
X13090751Y38721490D01*
X13090751Y38721490D02*
X13049684Y38679120D01*
X13049684Y38679120D02*
X13095279Y38641536D01*
X13095279Y38641536D02*
X13165726Y38599118D01*
X13165726Y38599118D02*
X13245167Y38578215D01*
X13245167Y38578215D02*
X13328185Y38579728D01*
X13328185Y38579728D02*
X13382706Y38593589D01*
X13382706Y38593589D02*
X13446430Y38627865D01*
X13446430Y38627865D02*
X13497395Y38681788D01*
X13497395Y38681788D02*
X13520549Y38719851D01*
X13520549Y38719851D02*
X13539301Y38774464D01*
X13539301Y38774464D02*
X13548685Y38843631D01*
X13548685Y38843631D02*
X13548757Y38918593D01*
X13548757Y38918593D02*
X13539576Y38990591D01*
X13539576Y38990591D02*
X13521201Y39050863D01*
X13521201Y39050863D02*
X13518307Y39057042D01*
X13518307Y39057042D02*
X13475448Y39117649D01*
X13475448Y39117649D02*
X13417421Y39161776D01*
X13417421Y39161776D02*
X13348809Y39188507D01*
X13348809Y39188507D02*
X13274199Y39196927D01*
X13274199Y39196927D02*
X13198174Y39186120D01*
X13198174Y39186120D02*
X13198174Y39186120D01*
G36*
X13348809Y39188507D02*
G01*
X13417421Y39161776D01*
X13475448Y39117649D01*
X13518307Y39057042D01*
X13521201Y39050863D01*
X13539576Y38990591D01*
X13548757Y38918593D01*
X13548685Y38843631D01*
X13539301Y38774464D01*
X13520549Y38719851D01*
X13497395Y38681788D01*
X13446430Y38627865D01*
X13382706Y38593589D01*
X13328185Y38579728D01*
X13245167Y38578215D01*
X13165726Y38599118D01*
X13095279Y38641536D01*
X13049684Y38679120D01*
X13090751Y38721490D01*
X13116696Y38746591D01*
X13140164Y38760566D01*
X13161924Y38757489D01*
X13189756Y38738713D01*
X13200854Y38731362D01*
X13247737Y38716317D01*
X13301624Y38716327D01*
X13352075Y38731832D01*
X13371072Y38744284D01*
X13398937Y38781054D01*
X13412906Y38835061D01*
X13413805Y38908669D01*
X13413803Y38908711D01*
X13403409Y38974567D01*
X13380514Y39020228D01*
X13342839Y39048472D01*
X13288108Y39062080D01*
X13253641Y39063910D01*
X13223526Y39056416D01*
X13192640Y39034705D01*
X13152672Y39001074D01*
X13102056Y39041750D01*
X13083563Y39057333D01*
X13060465Y39079660D01*
X13051439Y39092817D01*
X13054636Y39098747D01*
X13073046Y39116952D01*
X13102373Y39140105D01*
X13125320Y39155170D01*
X13198174Y39186120D01*
X13274199Y39196927D01*
X13348809Y39188507D01*
G37*
X13348809Y39188507D02*
X13417421Y39161776D01*
X13475448Y39117649D01*
X13518307Y39057042D01*
X13521201Y39050863D01*
X13539576Y38990591D01*
X13548757Y38918593D01*
X13548685Y38843631D01*
X13539301Y38774464D01*
X13520549Y38719851D01*
X13497395Y38681788D01*
X13446430Y38627865D01*
X13382706Y38593589D01*
X13328185Y38579728D01*
X13245167Y38578215D01*
X13165726Y38599118D01*
X13095279Y38641536D01*
X13049684Y38679120D01*
X13090751Y38721490D01*
X13116696Y38746591D01*
X13140164Y38760566D01*
X13161924Y38757489D01*
X13189756Y38738713D01*
X13200854Y38731362D01*
X13247737Y38716317D01*
X13301624Y38716327D01*
X13352075Y38731832D01*
X13371072Y38744284D01*
X13398937Y38781054D01*
X13412906Y38835061D01*
X13413805Y38908669D01*
X13413803Y38908711D01*
X13403409Y38974567D01*
X13380514Y39020228D01*
X13342839Y39048472D01*
X13288108Y39062080D01*
X13253641Y39063910D01*
X13223526Y39056416D01*
X13192640Y39034705D01*
X13152672Y39001074D01*
X13102056Y39041750D01*
X13083563Y39057333D01*
X13060465Y39079660D01*
X13051439Y39092817D01*
X13054636Y39098747D01*
X13073046Y39116952D01*
X13102373Y39140105D01*
X13125320Y39155170D01*
X13198174Y39186120D01*
X13274199Y39196927D01*
X13348809Y39188507D01*
X12737502Y39193543D02*
X12705304Y39185721D01*
X12705304Y39185721D02*
X12643575Y39157079D01*
X12643575Y39157079D02*
X12590790Y39113333D01*
X12590790Y39113333D02*
X12554259Y39060883D01*
X12554259Y39060883D02*
X12549240Y39049107D01*
X12549240Y39049107D02*
X12542355Y39018260D01*
X12542355Y39018260D02*
X12537536Y38972629D01*
X12537536Y38972629D02*
X12535895Y38926508D01*
X12535895Y38926508D02*
X12535895Y38839307D01*
X12535895Y38839307D02*
X12718222Y38839307D01*
X12718222Y38839307D02*
X12793421Y38839022D01*
X12793421Y38839022D02*
X12846397Y38837296D01*
X12846397Y38837296D02*
X12880075Y38832819D01*
X12880075Y38832819D02*
X12897380Y38824280D01*
X12897380Y38824280D02*
X12901237Y38810370D01*
X12901237Y38810370D02*
X12894571Y38789778D01*
X12894571Y38789778D02*
X12882630Y38765685D01*
X12882630Y38765685D02*
X12849320Y38725475D01*
X12849320Y38725475D02*
X12803032Y38705442D01*
X12803032Y38705442D02*
X12746456Y38706095D01*
X12746456Y38706095D02*
X12682369Y38727899D01*
X12682369Y38727899D02*
X12626983Y38754807D01*
X12626983Y38754807D02*
X12581025Y38718468D01*
X12581025Y38718468D02*
X12535067Y38682128D01*
X12535067Y38682128D02*
X12578304Y38642181D01*
X12578304Y38642181D02*
X12636026Y38604437D01*
X12636026Y38604437D02*
X12707014Y38581680D01*
X12707014Y38581680D02*
X12783371Y38575312D01*
X12783371Y38575312D02*
X12857201Y38586732D01*
X12857201Y38586732D02*
X12869113Y38590607D01*
X12869113Y38590607D02*
X12934001Y38624494D01*
X12934001Y38624494D02*
X12982270Y38675014D01*
X12982270Y38675014D02*
X13014935Y38743675D01*
X13014935Y38743675D02*
X13033015Y38831986D01*
X13033015Y38831986D02*
X13033225Y38833879D01*
X13033225Y38833879D02*
X13034844Y38930122D01*
X13034844Y38930122D02*
X13028300Y38964458D01*
X13028300Y38964458D02*
X12900548Y38964458D01*
X12900548Y38964458D02*
X12888816Y38959178D01*
X12888816Y38959178D02*
X12856962Y38955133D01*
X12856962Y38955133D02*
X12810003Y38952824D01*
X12810003Y38952824D02*
X12780246Y38952475D01*
X12780246Y38952475D02*
X12724752Y38952694D01*
X12724752Y38952694D02*
X12690054Y38954084D01*
X12690054Y38954084D02*
X12671799Y38957749D01*
X12671799Y38957749D02*
X12665634Y38964790D01*
X12665634Y38964790D02*
X12667205Y38976310D01*
X12667205Y38976310D02*
X12668522Y38980767D01*
X12668522Y38980767D02*
X12691018Y39022645D01*
X12691018Y39022645D02*
X12726397Y39056396D01*
X12726397Y39056396D02*
X12757620Y39071227D01*
X12757620Y39071227D02*
X12799099Y39070332D01*
X12799099Y39070332D02*
X12841131Y39051836D01*
X12841131Y39051836D02*
X12876388Y39021214D01*
X12876388Y39021214D02*
X12897546Y38983938D01*
X12897546Y38983938D02*
X12900548Y38964458D01*
X12900548Y38964458D02*
X13028300Y38964458D01*
X13028300Y38964458D02*
X13018710Y39014771D01*
X13018710Y39014771D02*
X12986702Y39085809D01*
X12986702Y39085809D02*
X12940699Y39141221D01*
X12940699Y39141221D02*
X12882579Y39178991D01*
X12882579Y39178991D02*
X12814220Y39197104D01*
X12814220Y39197104D02*
X12737502Y39193543D01*
X12737502Y39193543D02*
X12737502Y39193543D01*
G36*
X13033225Y38833879D02*
G01*
X13033015Y38831986D01*
X13014935Y38743675D01*
X12982270Y38675014D01*
X12934001Y38624494D01*
X12869113Y38590607D01*
X12857201Y38586732D01*
X12783371Y38575312D01*
X12707014Y38581680D01*
X12636026Y38604437D01*
X12578304Y38642181D01*
X12535067Y38682128D01*
X12581025Y38718468D01*
X12626983Y38754807D01*
X12682369Y38727899D01*
X12746456Y38706095D01*
X12803032Y38705442D01*
X12849320Y38725475D01*
X12882630Y38765685D01*
X12894571Y38789778D01*
X12901237Y38810370D01*
X12897380Y38824280D01*
X12880075Y38832819D01*
X12846397Y38837296D01*
X12793421Y38839022D01*
X12718222Y38839307D01*
X12535895Y38839307D01*
X12535895Y38926508D01*
X12537257Y38964790D01*
X12665634Y38964790D01*
X12671799Y38957749D01*
X12690054Y38954084D01*
X12724752Y38952694D01*
X12780246Y38952475D01*
X12810003Y38952824D01*
X12856962Y38955133D01*
X12888816Y38959178D01*
X12900548Y38964458D01*
X12897546Y38983938D01*
X12876388Y39021214D01*
X12841131Y39051836D01*
X12799099Y39070332D01*
X12757620Y39071227D01*
X12726397Y39056396D01*
X12691018Y39022645D01*
X12668522Y38980767D01*
X12667205Y38976310D01*
X12665634Y38964790D01*
X12537257Y38964790D01*
X12537536Y38972629D01*
X12542355Y39018260D01*
X12549240Y39049107D01*
X12554259Y39060883D01*
X12590790Y39113333D01*
X12643575Y39157079D01*
X12705304Y39185721D01*
X12737502Y39193543D01*
X12814220Y39197104D01*
X12882579Y39178991D01*
X12940699Y39141221D01*
X12986702Y39085809D01*
X13018710Y39014771D01*
X13028300Y38964458D01*
X13034844Y38930122D01*
X13033225Y38833879D01*
G37*
X13033225Y38833879D02*
X13033015Y38831986D01*
X13014935Y38743675D01*
X12982270Y38675014D01*
X12934001Y38624494D01*
X12869113Y38590607D01*
X12857201Y38586732D01*
X12783371Y38575312D01*
X12707014Y38581680D01*
X12636026Y38604437D01*
X12578304Y38642181D01*
X12535067Y38682128D01*
X12581025Y38718468D01*
X12626983Y38754807D01*
X12682369Y38727899D01*
X12746456Y38706095D01*
X12803032Y38705442D01*
X12849320Y38725475D01*
X12882630Y38765685D01*
X12894571Y38789778D01*
X12901237Y38810370D01*
X12897380Y38824280D01*
X12880075Y38832819D01*
X12846397Y38837296D01*
X12793421Y38839022D01*
X12718222Y38839307D01*
X12535895Y38839307D01*
X12535895Y38926508D01*
X12537257Y38964790D01*
X12665634Y38964790D01*
X12671799Y38957749D01*
X12690054Y38954084D01*
X12724752Y38952694D01*
X12780246Y38952475D01*
X12810003Y38952824D01*
X12856962Y38955133D01*
X12888816Y38959178D01*
X12900548Y38964458D01*
X12897546Y38983938D01*
X12876388Y39021214D01*
X12841131Y39051836D01*
X12799099Y39070332D01*
X12757620Y39071227D01*
X12726397Y39056396D01*
X12691018Y39022645D01*
X12668522Y38980767D01*
X12667205Y38976310D01*
X12665634Y38964790D01*
X12537257Y38964790D01*
X12537536Y38972629D01*
X12542355Y39018260D01*
X12549240Y39049107D01*
X12554259Y39060883D01*
X12590790Y39113333D01*
X12643575Y39157079D01*
X12705304Y39185721D01*
X12737502Y39193543D01*
X12814220Y39197104D01*
X12882579Y39178991D01*
X12940699Y39141221D01*
X12986702Y39085809D01*
X13018710Y39014771D01*
X13028300Y38964458D01*
X13034844Y38930122D01*
X13033225Y38833879D01*
X16169412Y39180998D02*
X16138117Y39166050D01*
X16138117Y39166050D02*
X16107809Y39144459D01*
X16107809Y39144459D02*
X16084718Y39119609D01*
X16084718Y39119609D02*
X16067900Y39087913D01*
X16067900Y39087913D02*
X16056406Y39045786D01*
X16056406Y39045786D02*
X16049291Y38989642D01*
X16049291Y38989642D02*
X16045607Y38915894D01*
X16045607Y38915894D02*
X16044408Y38820956D01*
X16044408Y38820956D02*
X16044389Y38811015D01*
X16044389Y38811015D02*
X16044113Y38587821D01*
X16044113Y38587821D02*
X16182430Y38587821D01*
X16182430Y38587821D02*
X16182430Y38793582D01*
X16182430Y38793582D02*
X16182528Y38869811D01*
X16182528Y38869811D02*
X16183209Y38925061D01*
X16183209Y38925061D02*
X16185051Y38963499D01*
X16185051Y38963499D02*
X16188633Y38989294D01*
X16188633Y38989294D02*
X16194532Y39006616D01*
X16194532Y39006616D02*
X16203327Y39019632D01*
X16203327Y39019632D02*
X16215580Y39032493D01*
X16215580Y39032493D02*
X16258447Y39060127D01*
X16258447Y39060127D02*
X16305243Y39065255D01*
X16305243Y39065255D02*
X16349824Y39047783D01*
X16349824Y39047783D02*
X16365328Y39034779D01*
X16365328Y39034779D02*
X16376710Y39022553D01*
X16376710Y39022553D02*
X16384881Y39009460D01*
X16384881Y39009460D02*
X16390374Y38991385D01*
X16390374Y38991385D02*
X16393720Y38964213D01*
X16393720Y38964213D02*
X16395451Y38923830D01*
X16395451Y38923830D02*
X16396097Y38866121D01*
X16396097Y38866121D02*
X16396192Y38795868D01*
X16396192Y38795868D02*
X16396192Y38587821D01*
X16396192Y38587821D02*
X16534509Y38587821D01*
X16534509Y38587821D02*
X16534509Y39191386D01*
X16534509Y39191386D02*
X16465350Y39191386D01*
X16465350Y39191386D02*
X16423828Y39189744D01*
X16423828Y39189744D02*
X16402406Y39183913D01*
X16402406Y39183913D02*
X16396195Y39172539D01*
X16396195Y39172539D02*
X16396192Y39172202D01*
X16396192Y39172202D02*
X16393310Y39161062D01*
X16393310Y39161062D02*
X16380599Y39162326D01*
X16380599Y39162326D02*
X16355326Y39174566D01*
X16355326Y39174566D02*
X16298005Y39192576D01*
X16298005Y39192576D02*
X16232437Y39194579D01*
X16232437Y39194579D02*
X16169412Y39180998D01*
X16169412Y39180998D02*
X16169412Y39180998D01*
G36*
X16298005Y39192576D02*
G01*
X16355326Y39174566D01*
X16380599Y39162326D01*
X16393310Y39161062D01*
X16396192Y39172202D01*
X16396195Y39172539D01*
X16402406Y39183913D01*
X16423828Y39189744D01*
X16465350Y39191386D01*
X16534509Y39191386D01*
X16534509Y38587821D01*
X16396192Y38587821D01*
X16396192Y38795868D01*
X16396097Y38866121D01*
X16395451Y38923830D01*
X16393720Y38964213D01*
X16390374Y38991385D01*
X16384881Y39009460D01*
X16376710Y39022553D01*
X16365328Y39034779D01*
X16349824Y39047783D01*
X16305243Y39065255D01*
X16258447Y39060127D01*
X16215580Y39032493D01*
X16203327Y39019632D01*
X16194532Y39006616D01*
X16188633Y38989294D01*
X16185051Y38963499D01*
X16183209Y38925061D01*
X16182528Y38869811D01*
X16182430Y38793582D01*
X16182430Y38587821D01*
X16044113Y38587821D01*
X16044389Y38811015D01*
X16044408Y38820956D01*
X16045607Y38915894D01*
X16049291Y38989642D01*
X16056406Y39045786D01*
X16067900Y39087913D01*
X16084718Y39119609D01*
X16107809Y39144459D01*
X16138117Y39166050D01*
X16169412Y39180998D01*
X16232437Y39194579D01*
X16298005Y39192576D01*
G37*
X16298005Y39192576D02*
X16355326Y39174566D01*
X16380599Y39162326D01*
X16393310Y39161062D01*
X16396192Y39172202D01*
X16396195Y39172539D01*
X16402406Y39183913D01*
X16423828Y39189744D01*
X16465350Y39191386D01*
X16534509Y39191386D01*
X16534509Y38587821D01*
X16396192Y38587821D01*
X16396192Y38795868D01*
X16396097Y38866121D01*
X16395451Y38923830D01*
X16393720Y38964213D01*
X16390374Y38991385D01*
X16384881Y39009460D01*
X16376710Y39022553D01*
X16365328Y39034779D01*
X16349824Y39047783D01*
X16305243Y39065255D01*
X16258447Y39060127D01*
X16215580Y39032493D01*
X16203327Y39019632D01*
X16194532Y39006616D01*
X16188633Y38989294D01*
X16185051Y38963499D01*
X16183209Y38925061D01*
X16182528Y38869811D01*
X16182430Y38793582D01*
X16182430Y38587821D01*
X16044113Y38587821D01*
X16044389Y38811015D01*
X16044408Y38820956D01*
X16045607Y38915894D01*
X16049291Y38989642D01*
X16056406Y39045786D01*
X16067900Y39087913D01*
X16084718Y39119609D01*
X16107809Y39144459D01*
X16138117Y39166050D01*
X16169412Y39180998D01*
X16232437Y39194579D01*
X16298005Y39192576D01*
X13615940Y39191970D02*
X13572689Y39178755D01*
X13572689Y39178755D02*
X13544842Y39162059D01*
X13544842Y39162059D02*
X13535771Y39148855D01*
X13535771Y39148855D02*
X13538268Y39133203D01*
X13538268Y39133203D02*
X13554469Y39108615D01*
X13554469Y39108615D02*
X13568168Y39091200D01*
X13568168Y39091200D02*
X13596408Y39059717D01*
X13596408Y39059717D02*
X13617625Y39046471D01*
X13617625Y39046471D02*
X13635712Y39047336D01*
X13635712Y39047336D02*
X13689365Y39060990D01*
X13689365Y39060990D02*
X13728770Y39060370D01*
X13728770Y39060370D02*
X13760768Y39044896D01*
X13760768Y39044896D02*
X13771510Y39035839D01*
X13771510Y39035839D02*
X13805895Y39003973D01*
X13805895Y39003973D02*
X13805895Y38587821D01*
X13805895Y38587821D02*
X13944212Y38587821D01*
X13944212Y38587821D02*
X13944212Y39191386D01*
X13944212Y39191386D02*
X13875053Y39191386D01*
X13875053Y39191386D02*
X13833531Y39189744D01*
X13833531Y39189744D02*
X13812109Y39183913D01*
X13812109Y39183913D02*
X13805898Y39172539D01*
X13805898Y39172539D02*
X13805895Y39172202D01*
X13805895Y39172202D02*
X13802961Y39160287D01*
X13802961Y39160287D02*
X13789696Y39161841D01*
X13789696Y39161841D02*
X13771316Y39170437D01*
X13771316Y39170437D02*
X13733354Y39186432D01*
X13733354Y39186432D02*
X13702528Y39196055D01*
X13702528Y39196055D02*
X13662864Y39198522D01*
X13662864Y39198522D02*
X13615940Y39191970D01*
X13615940Y39191970D02*
X13615940Y39191970D01*
G36*
X13702528Y39196055D02*
G01*
X13733354Y39186432D01*
X13771316Y39170437D01*
X13789696Y39161841D01*
X13802961Y39160287D01*
X13805895Y39172202D01*
X13805898Y39172539D01*
X13812109Y39183913D01*
X13833531Y39189744D01*
X13875053Y39191386D01*
X13944212Y39191386D01*
X13944212Y38587821D01*
X13805895Y38587821D01*
X13805895Y39003973D01*
X13771510Y39035839D01*
X13760768Y39044896D01*
X13728770Y39060370D01*
X13689365Y39060990D01*
X13635712Y39047336D01*
X13617625Y39046471D01*
X13596408Y39059717D01*
X13568168Y39091200D01*
X13554469Y39108615D01*
X13538268Y39133203D01*
X13535771Y39148855D01*
X13544842Y39162059D01*
X13572689Y39178755D01*
X13615940Y39191970D01*
X13662864Y39198522D01*
X13702528Y39196055D01*
G37*
X13702528Y39196055D02*
X13733354Y39186432D01*
X13771316Y39170437D01*
X13789696Y39161841D01*
X13802961Y39160287D01*
X13805895Y39172202D01*
X13805898Y39172539D01*
X13812109Y39183913D01*
X13833531Y39189744D01*
X13875053Y39191386D01*
X13944212Y39191386D01*
X13944212Y38587821D01*
X13805895Y38587821D01*
X13805895Y39003973D01*
X13771510Y39035839D01*
X13760768Y39044896D01*
X13728770Y39060370D01*
X13689365Y39060990D01*
X13635712Y39047336D01*
X13617625Y39046471D01*
X13596408Y39059717D01*
X13568168Y39091200D01*
X13554469Y39108615D01*
X13538268Y39133203D01*
X13535771Y39148855D01*
X13544842Y39162059D01*
X13572689Y39178755D01*
X13615940Y39191970D01*
X13662864Y39198522D01*
X13702528Y39196055D01*
X15038436Y43359982D02*
X14981588Y43058430D01*
X14981588Y43058430D02*
X14562062Y42885488D01*
X14562062Y42885488D02*
X14310416Y43056605D01*
X14310416Y43056605D02*
X14239942Y43104250D01*
X14239942Y43104250D02*
X14176237Y43146790D01*
X14176237Y43146790D02*
X14122274Y43182285D01*
X14122274Y43182285D02*
X14081027Y43208790D01*
X14081027Y43208790D02*
X14055466Y43224364D01*
X14055466Y43224364D02*
X14048505Y43227722D01*
X14048505Y43227722D02*
X14035965Y43219086D01*
X14035965Y43219086D02*
X14009169Y43195208D01*
X14009169Y43195208D02*
X13971120Y43159141D01*
X13971120Y43159141D02*
X13924821Y43113933D01*
X13924821Y43113933D02*
X13873277Y43062636D01*
X13873277Y43062636D02*
X13819491Y43008299D01*
X13819491Y43008299D02*
X13766465Y42953972D01*
X13766465Y42953972D02*
X13717205Y42902705D01*
X13717205Y42902705D02*
X13674713Y42857549D01*
X13674713Y42857549D02*
X13641993Y42821554D01*
X13641993Y42821554D02*
X13622049Y42797770D01*
X13622049Y42797770D02*
X13617281Y42789810D01*
X13617281Y42789810D02*
X13624143Y42775135D01*
X13624143Y42775135D02*
X13643380Y42742986D01*
X13643380Y42742986D02*
X13672970Y42696508D01*
X13672970Y42696508D02*
X13710890Y42638844D01*
X13710890Y42638844D02*
X13755118Y42573140D01*
X13755118Y42573140D02*
X13780746Y42535664D01*
X13780746Y42535664D02*
X13827459Y42467232D01*
X13827459Y42467232D02*
X13868968Y42405480D01*
X13868968Y42405480D02*
X13903260Y42353481D01*
X13903260Y42353481D02*
X13928320Y42314308D01*
X13928320Y42314308D02*
X13942136Y42291035D01*
X13942136Y42291035D02*
X13944212Y42286145D01*
X13944212Y42286145D02*
X13939505Y42272245D01*
X13939505Y42272245D02*
X13926677Y42239850D01*
X13926677Y42239850D02*
X13907662Y42193515D01*
X13907662Y42193515D02*
X13884397Y42137794D01*
X13884397Y42137794D02*
X13858816Y42077242D01*
X13858816Y42077242D02*
X13832855Y42016414D01*
X13832855Y42016414D02*
X13808450Y41959864D01*
X13808450Y41959864D02*
X13787537Y41912148D01*
X13787537Y41912148D02*
X13772051Y41877819D01*
X13772051Y41877819D02*
X13763928Y41861432D01*
X13763928Y41861432D02*
X13763448Y41860788D01*
X13763448Y41860788D02*
X13750693Y41857659D01*
X13750693Y41857659D02*
X13716723Y41850679D01*
X13716723Y41850679D02*
X13665060Y41840533D01*
X13665060Y41840533D02*
X13599224Y41827908D01*
X13599224Y41827908D02*
X13522736Y41813491D01*
X13522736Y41813491D02*
X13478110Y41805177D01*
X13478110Y41805177D02*
X13396379Y41789616D01*
X13396379Y41789616D02*
X13322557Y41774808D01*
X13322557Y41774808D02*
X13260379Y41761564D01*
X13260379Y41761564D02*
X13213578Y41750695D01*
X13213578Y41750695D02*
X13185891Y41743011D01*
X13185891Y41743011D02*
X13180326Y41740573D01*
X13180326Y41740573D02*
X13174874Y41724070D01*
X13174874Y41724070D02*
X13170476Y41686800D01*
X13170476Y41686800D02*
X13167128Y41633120D01*
X13167128Y41633120D02*
X13164826Y41567388D01*
X13164826Y41567388D02*
X13163568Y41493963D01*
X13163568Y41493963D02*
X13163352Y41417204D01*
X13163352Y41417204D02*
X13164173Y41341468D01*
X13164173Y41341468D02*
X13166029Y41271114D01*
X13166029Y41271114D02*
X13168918Y41210500D01*
X13168918Y41210500D02*
X13172835Y41163984D01*
X13172835Y41163984D02*
X13177778Y41135925D01*
X13177778Y41135925D02*
X13180743Y41130084D01*
X13180743Y41130084D02*
X13198466Y41123083D01*
X13198466Y41123083D02*
X13236019Y41113073D01*
X13236019Y41113073D02*
X13288436Y41101231D01*
X13288436Y41101231D02*
X13350748Y41088733D01*
X13350748Y41088733D02*
X13372500Y41084690D01*
X13372500Y41084690D02*
X13477376Y41065480D01*
X13477376Y41065480D02*
X13560220Y41050009D01*
X13560220Y41050009D02*
X13623770Y41037663D01*
X13623770Y41037663D02*
X13670763Y41027827D01*
X13670763Y41027827D02*
X13703937Y41019886D01*
X13703937Y41019886D02*
X13726029Y41013224D01*
X13726029Y41013224D02*
X13739776Y41007227D01*
X13739776Y41007227D02*
X13747916Y41001281D01*
X13747916Y41001281D02*
X13749055Y41000106D01*
X13749055Y41000106D02*
X13760423Y40981174D01*
X13760423Y40981174D02*
X13777765Y40944331D01*
X13777765Y40944331D02*
X13799350Y40894087D01*
X13799350Y40894087D02*
X13823446Y40834954D01*
X13823446Y40834954D02*
X13848321Y40771444D01*
X13848321Y40771444D02*
X13872243Y40708068D01*
X13872243Y40708068D02*
X13893481Y40649338D01*
X13893481Y40649338D02*
X13910303Y40599765D01*
X13910303Y40599765D02*
X13920978Y40563861D01*
X13920978Y40563861D02*
X13923773Y40546138D01*
X13923773Y40546138D02*
X13923540Y40545517D01*
X13923540Y40545517D02*
X13914069Y40531030D01*
X13914069Y40531030D02*
X13892582Y40499156D01*
X13892582Y40499156D02*
X13861337Y40453211D01*
X13861337Y40453211D02*
X13822593Y40396515D01*
X13822593Y40396515D02*
X13778607Y40332383D01*
X13778607Y40332383D02*
X13766081Y40314158D01*
X13766081Y40314158D02*
X13721416Y40248086D01*
X13721416Y40248086D02*
X13682112Y40187800D01*
X13682112Y40187800D02*
X13650312Y40136765D01*
X13650312Y40136765D02*
X13628155Y40098440D01*
X13628155Y40098440D02*
X13617783Y40076289D01*
X13617783Y40076289D02*
X13617281Y40073568D01*
X13617281Y40073568D02*
X13625995Y40059264D01*
X13625995Y40059264D02*
X13650075Y40030928D01*
X13650075Y40030928D02*
X13686424Y39991604D01*
X13686424Y39991604D02*
X13731947Y39944339D01*
X13731947Y39944339D02*
X13783548Y39892177D01*
X13783548Y39892177D02*
X13838133Y39838165D01*
X13838133Y39838165D02*
X13892606Y39785347D01*
X13892606Y39785347D02*
X13943871Y39736769D01*
X13943871Y39736769D02*
X13988833Y39695477D01*
X13988833Y39695477D02*
X14024396Y39664515D01*
X14024396Y39664515D02*
X14047465Y39646930D01*
X14047465Y39646930D02*
X14053846Y39644059D01*
X14053846Y39644059D02*
X14068701Y39650822D01*
X14068701Y39650822D02*
X14099114Y39669061D01*
X14099114Y39669061D02*
X14140132Y39695703D01*
X14140132Y39695703D02*
X14171691Y39717148D01*
X14171691Y39717148D02*
X14228875Y39756497D01*
X14228875Y39756497D02*
X14296594Y39802829D01*
X14296594Y39802829D02*
X14364520Y39849087D01*
X14364520Y39849087D02*
X14401039Y39873845D01*
X14401039Y39873845D02*
X14524648Y39957453D01*
X14524648Y39957453D02*
X14628409Y39901350D01*
X14628409Y39901350D02*
X14675680Y39876772D01*
X14675680Y39876772D02*
X14715877Y39857669D01*
X14715877Y39857669D02*
X14743074Y39846773D01*
X14743074Y39846773D02*
X14749998Y39845257D01*
X14749998Y39845257D02*
X14758323Y39856451D01*
X14758323Y39856451D02*
X14774746Y39888083D01*
X14774746Y39888083D02*
X14798043Y39937235D01*
X14798043Y39937235D02*
X14826986Y40000990D01*
X14826986Y40000990D02*
X14860350Y40076429D01*
X14860350Y40076429D02*
X14896909Y40160636D01*
X14896909Y40160636D02*
X14935436Y40250692D01*
X14935436Y40250692D02*
X14974706Y40343679D01*
X14974706Y40343679D02*
X15013492Y40436680D01*
X15013492Y40436680D02*
X15050570Y40526777D01*
X15050570Y40526777D02*
X15084711Y40611052D01*
X15084711Y40611052D02*
X15114692Y40686587D01*
X15114692Y40686587D02*
X15139284Y40750466D01*
X15139284Y40750466D02*
X15157264Y40799769D01*
X15157264Y40799769D02*
X15167403Y40831579D01*
X15167403Y40831579D02*
X15169034Y40842504D01*
X15169034Y40842504D02*
X15156109Y40856439D01*
X15156109Y40856439D02*
X15127811Y40879060D01*
X15127811Y40879060D02*
X15090054Y40905667D01*
X15090054Y40905667D02*
X15086885Y40907772D01*
X15086885Y40907772D02*
X14989300Y40985886D01*
X14989300Y40985886D02*
X14910614Y41077018D01*
X14910614Y41077018D02*
X14851509Y41178255D01*
X14851509Y41178255D02*
X14812668Y41286682D01*
X14812668Y41286682D02*
X14794772Y41399386D01*
X14794772Y41399386D02*
X14798503Y41513452D01*
X14798503Y41513452D02*
X14824543Y41625966D01*
X14824543Y41625966D02*
X14873575Y41734015D01*
X14873575Y41734015D02*
X14888000Y41757655D01*
X14888000Y41757655D02*
X14963031Y41853113D01*
X14963031Y41853113D02*
X15051670Y41929768D01*
X15051670Y41929768D02*
X15150851Y41987220D01*
X15150851Y41987220D02*
X15257505Y42025071D01*
X15257505Y42025071D02*
X15368564Y42042922D01*
X15368564Y42042922D02*
X15480961Y42040375D01*
X15480961Y42040375D02*
X15591627Y42017030D01*
X15591627Y42017030D02*
X15697494Y41972490D01*
X15697494Y41972490D02*
X15795495Y41906355D01*
X15795495Y41906355D02*
X15825810Y41879513D01*
X15825810Y41879513D02*
X15902962Y41795488D01*
X15902962Y41795488D02*
X15959182Y41707034D01*
X15959182Y41707034D02*
X15997747Y41607885D01*
X15997747Y41607885D02*
X16019226Y41509697D01*
X16019226Y41509697D02*
X16024528Y41399303D01*
X16024528Y41399303D02*
X16006848Y41288360D01*
X16006848Y41288360D02*
X15967981Y41180619D01*
X15967981Y41180619D02*
X15909723Y41079831D01*
X15909723Y41079831D02*
X15833869Y40989744D01*
X15833869Y40989744D02*
X15742217Y40914108D01*
X15742217Y40914108D02*
X15730172Y40906136D01*
X15730172Y40906136D02*
X15692011Y40880026D01*
X15692011Y40880026D02*
X15663001Y40857405D01*
X15663001Y40857405D02*
X15649132Y40842961D01*
X15649132Y40842961D02*
X15648931Y40842504D01*
X15648931Y40842504D02*
X15651908Y40826879D01*
X15651908Y40826879D02*
X15663711Y40791418D01*
X15663711Y40791418D02*
X15683114Y40739038D01*
X15683114Y40739038D02*
X15708888Y40672655D01*
X15708888Y40672655D02*
X15739809Y40595186D01*
X15739809Y40595186D02*
X15774649Y40509550D01*
X15774649Y40509550D02*
X15812183Y40418663D01*
X15812183Y40418663D02*
X15851183Y40325441D01*
X15851183Y40325441D02*
X15890423Y40232803D01*
X15890423Y40232803D02*
X15928676Y40143665D01*
X15928676Y40143665D02*
X15964717Y40060945D01*
X15964717Y40060945D02*
X15997317Y39987559D01*
X15997317Y39987559D02*
X16025252Y39926425D01*
X16025252Y39926425D02*
X16047295Y39880459D01*
X16047295Y39880459D02*
X16062218Y39852579D01*
X16062218Y39852579D02*
X16068228Y39845257D01*
X16068228Y39845257D02*
X16086591Y39850959D01*
X16086591Y39850959D02*
X16120952Y39866251D01*
X16120952Y39866251D02*
X16165384Y39888401D01*
X16165384Y39888401D02*
X16189817Y39901350D01*
X16189817Y39901350D02*
X16293578Y39957453D01*
X16293578Y39957453D02*
X16417187Y39873845D01*
X16417187Y39873845D02*
X16480286Y39831013D01*
X16480286Y39831013D02*
X16549370Y39783878D01*
X16549370Y39783878D02*
X16614107Y39739497D01*
X16614107Y39739497D02*
X16646534Y39717148D01*
X16646534Y39717148D02*
X16692141Y39686523D01*
X16692141Y39686523D02*
X16730760Y39662253D01*
X16730760Y39662253D02*
X16757352Y39647413D01*
X16757352Y39647413D02*
X16765990Y39644276D01*
X16765990Y39644276D02*
X16778561Y39652739D01*
X16778561Y39652739D02*
X16806384Y39676364D01*
X16806384Y39676364D02*
X16846761Y39712698D01*
X16846761Y39712698D02*
X16896995Y39759289D01*
X16896995Y39759289D02*
X16954388Y39813683D01*
X16954388Y39813683D02*
X16990686Y39848608D01*
X16990686Y39848608D02*
X17054190Y39911004D01*
X17054190Y39911004D02*
X17109073Y39966812D01*
X17109073Y39966812D02*
X17153114Y40013646D01*
X17153114Y40013646D02*
X17184095Y40049118D01*
X17184095Y40049118D02*
X17199798Y40070839D01*
X17199798Y40070839D02*
X17201305Y40075248D01*
X17201305Y40075248D02*
X17194314Y40092015D01*
X17194314Y40092015D02*
X17174994Y40125918D01*
X17174994Y40125918D02*
X17145491Y40173524D01*
X17145491Y40173524D02*
X17107945Y40231401D01*
X17107945Y40231401D02*
X17064500Y40296116D01*
X17064500Y40296116D02*
X17052145Y40314158D01*
X17052145Y40314158D02*
X17007127Y40379733D01*
X17007127Y40379733D02*
X16966740Y40438772D01*
X16966740Y40438772D02*
X16933240Y40487958D01*
X16933240Y40487958D02*
X16908886Y40523972D01*
X16908886Y40523972D02*
X16895936Y40543498D01*
X16895936Y40543498D02*
X16894685Y40545517D01*
X16894685Y40545517D02*
X16896556Y40561078D01*
X16896556Y40561078D02*
X16906487Y40595291D01*
X16906487Y40595291D02*
X16922747Y40643645D01*
X16922747Y40643645D02*
X16943605Y40701629D01*
X16943605Y40701629D02*
X16967327Y40764730D01*
X16967327Y40764730D02*
X16992184Y40828437D01*
X16992184Y40828437D02*
X17016442Y40888239D01*
X17016442Y40888239D02*
X17038371Y40939624D01*
X17038371Y40939624D02*
X17056238Y40978081D01*
X17056238Y40978081D02*
X17068313Y40999098D01*
X17068313Y40999098D02*
X17069171Y41000106D01*
X17069171Y41000106D02*
X17076554Y41006112D01*
X17076554Y41006112D02*
X17089025Y41012052D01*
X17089025Y41012052D02*
X17109320Y41018540D01*
X17109320Y41018540D02*
X17140178Y41026191D01*
X17140178Y41026191D02*
X17184334Y41035620D01*
X17184334Y41035620D02*
X17244526Y41047441D01*
X17244526Y41047441D02*
X17323493Y41062271D01*
X17323493Y41062271D02*
X17423970Y41080723D01*
X17423970Y41080723D02*
X17445725Y41084690D01*
X17445725Y41084690D02*
X17510202Y41097147D01*
X17510202Y41097147D02*
X17566411Y41109334D01*
X17566411Y41109334D02*
X17609387Y41120074D01*
X17609387Y41120074D02*
X17634160Y41128191D01*
X17634160Y41128191D02*
X17637482Y41130084D01*
X17637482Y41130084D02*
X17642956Y41146862D01*
X17642956Y41146862D02*
X17647406Y41184355D01*
X17647406Y41184355D02*
X17650828Y41238206D01*
X17650828Y41238206D02*
X17653219Y41304056D01*
X17653219Y41304056D02*
X17654577Y41377547D01*
X17654577Y41377547D02*
X17654899Y41454320D01*
X17654899Y41454320D02*
X17654181Y41530017D01*
X17654181Y41530017D02*
X17652421Y41600280D01*
X17652421Y41600280D02*
X17649616Y41660750D01*
X17649616Y41660750D02*
X17645762Y41707070D01*
X17645762Y41707070D02*
X17640857Y41734881D01*
X17640857Y41734881D02*
X17637900Y41740573D01*
X17637900Y41740573D02*
X17621437Y41746314D01*
X17621437Y41746314D02*
X17583951Y41755655D01*
X17583951Y41755655D02*
X17529175Y41767785D01*
X17529175Y41767785D02*
X17460845Y41781893D01*
X17460845Y41781893D02*
X17382694Y41797170D01*
X17382694Y41797170D02*
X17340116Y41805177D01*
X17340116Y41805177D02*
X17259329Y41820279D01*
X17259329Y41820279D02*
X17187287Y41833960D01*
X17187287Y41833960D02*
X17127511Y41845533D01*
X17127511Y41845533D02*
X17083521Y41854313D01*
X17083521Y41854313D02*
X17058839Y41859613D01*
X17058839Y41859613D02*
X17054777Y41860788D01*
X17054777Y41860788D02*
X17047911Y41874035D01*
X17047911Y41874035D02*
X17033398Y41905943D01*
X17033398Y41905943D02*
X17013171Y41951953D01*
X17013171Y41951953D02*
X16989166Y42007508D01*
X16989166Y42007508D02*
X16963318Y42068047D01*
X16963318Y42068047D02*
X16937560Y42129014D01*
X16937560Y42129014D02*
X16913827Y42185849D01*
X16913827Y42185849D02*
X16894054Y42233994D01*
X16894054Y42233994D02*
X16880176Y42268890D01*
X16880176Y42268890D02*
X16874126Y42285979D01*
X16874126Y42285979D02*
X16874014Y42286726D01*
X16874014Y42286726D02*
X16880872Y42300207D01*
X16880872Y42300207D02*
X16900098Y42331230D01*
X16900098Y42331230D02*
X16929672Y42376711D01*
X16929672Y42376711D02*
X16967573Y42433568D01*
X16967573Y42433568D02*
X17011780Y42498717D01*
X17011780Y42498717D02*
X17037479Y42536138D01*
X17037479Y42536138D02*
X17084307Y42604753D01*
X17084307Y42604753D02*
X17125899Y42667048D01*
X17125899Y42667048D02*
X17160225Y42719871D01*
X17160225Y42719871D02*
X17185257Y42760073D01*
X17185257Y42760073D02*
X17198965Y42784500D01*
X17198965Y42784500D02*
X17200944Y42789976D01*
X17200944Y42789976D02*
X17192434Y42802722D01*
X17192434Y42802722D02*
X17168907Y42829937D01*
X17168907Y42829937D02*
X17133368Y42868572D01*
X17133368Y42868572D02*
X17088823Y42915577D01*
X17088823Y42915577D02*
X17038277Y42967905D01*
X17038277Y42967905D02*
X16984736Y43022505D01*
X16984736Y43022505D02*
X16931205Y43076330D01*
X16931205Y43076330D02*
X16880689Y43126330D01*
X16880689Y43126330D02*
X16836194Y43169457D01*
X16836194Y43169457D02*
X16800725Y43202661D01*
X16800725Y43202661D02*
X16777287Y43222894D01*
X16777287Y43222894D02*
X16769446Y43227722D01*
X16769446Y43227722D02*
X16756680Y43220933D01*
X16756680Y43220933D02*
X16726144Y43201858D01*
X16726144Y43201858D02*
X16680810Y43172439D01*
X16680810Y43172439D02*
X16623644Y43134619D01*
X16623644Y43134619D02*
X16557616Y43090339D01*
X16557616Y43090339D02*
X16507810Y43056605D01*
X16507810Y43056605D02*
X16256164Y42885488D01*
X16256164Y42885488D02*
X16046401Y42971959D01*
X16046401Y42971959D02*
X15836637Y43058430D01*
X15836637Y43058430D02*
X15779789Y43359982D01*
X15779789Y43359982D02*
X15722940Y43661534D01*
X15722940Y43661534D02*
X15095285Y43661534D01*
X15095285Y43661534D02*
X15038436Y43359982D01*
X15038436Y43359982D02*
X15038436Y43359982D01*
G36*
X15779789Y43359982D02*
G01*
X15836637Y43058430D01*
X16046401Y42971959D01*
X16256164Y42885488D01*
X16507810Y43056605D01*
X16557616Y43090339D01*
X16623644Y43134619D01*
X16680810Y43172439D01*
X16726144Y43201858D01*
X16756680Y43220933D01*
X16769446Y43227722D01*
X16777287Y43222894D01*
X16800725Y43202661D01*
X16836194Y43169457D01*
X16880689Y43126330D01*
X16931205Y43076330D01*
X16984736Y43022505D01*
X17038277Y42967905D01*
X17088823Y42915577D01*
X17133368Y42868572D01*
X17168907Y42829937D01*
X17192434Y42802722D01*
X17200944Y42789976D01*
X17198965Y42784500D01*
X17185257Y42760073D01*
X17160225Y42719871D01*
X17125899Y42667048D01*
X17084307Y42604753D01*
X17037479Y42536138D01*
X17011780Y42498717D01*
X16967573Y42433568D01*
X16929672Y42376711D01*
X16900098Y42331230D01*
X16880872Y42300207D01*
X16874014Y42286726D01*
X16874126Y42285979D01*
X16880176Y42268890D01*
X16894054Y42233994D01*
X16913827Y42185849D01*
X16937560Y42129014D01*
X16963318Y42068047D01*
X16989166Y42007508D01*
X17013171Y41951953D01*
X17033398Y41905943D01*
X17047911Y41874035D01*
X17054777Y41860788D01*
X17058839Y41859613D01*
X17083521Y41854313D01*
X17127511Y41845533D01*
X17187287Y41833960D01*
X17259329Y41820279D01*
X17340116Y41805177D01*
X17382694Y41797170D01*
X17460845Y41781893D01*
X17529175Y41767785D01*
X17583951Y41755655D01*
X17621437Y41746314D01*
X17637900Y41740573D01*
X17640857Y41734881D01*
X17645762Y41707070D01*
X17649616Y41660750D01*
X17652421Y41600280D01*
X17654181Y41530017D01*
X17654899Y41454320D01*
X17654577Y41377547D01*
X17653219Y41304056D01*
X17650828Y41238206D01*
X17647406Y41184355D01*
X17642956Y41146862D01*
X17637482Y41130084D01*
X17634160Y41128191D01*
X17609387Y41120074D01*
X17566411Y41109334D01*
X17510202Y41097147D01*
X17445725Y41084690D01*
X17423970Y41080723D01*
X17323493Y41062271D01*
X17244526Y41047441D01*
X17184334Y41035620D01*
X17140178Y41026191D01*
X17109320Y41018540D01*
X17089025Y41012052D01*
X17076554Y41006112D01*
X17069171Y41000106D01*
X17068313Y40999098D01*
X17056238Y40978081D01*
X17038371Y40939624D01*
X17016442Y40888239D01*
X16992184Y40828437D01*
X16967327Y40764730D01*
X16943605Y40701629D01*
X16922747Y40643645D01*
X16906487Y40595291D01*
X16896556Y40561078D01*
X16894685Y40545517D01*
X16895936Y40543498D01*
X16908886Y40523972D01*
X16933240Y40487958D01*
X16966740Y40438772D01*
X17007127Y40379733D01*
X17052145Y40314158D01*
X17064500Y40296116D01*
X17107945Y40231401D01*
X17145491Y40173524D01*
X17174994Y40125918D01*
X17194314Y40092015D01*
X17201305Y40075248D01*
X17199798Y40070839D01*
X17184095Y40049118D01*
X17153114Y40013646D01*
X17109073Y39966812D01*
X17054190Y39911004D01*
X16990686Y39848608D01*
X16954388Y39813683D01*
X16896995Y39759289D01*
X16846761Y39712698D01*
X16806384Y39676364D01*
X16778561Y39652739D01*
X16765990Y39644276D01*
X16757352Y39647413D01*
X16730760Y39662253D01*
X16692141Y39686523D01*
X16646534Y39717148D01*
X16614107Y39739497D01*
X16549370Y39783878D01*
X16480286Y39831013D01*
X16417187Y39873845D01*
X16293578Y39957453D01*
X16189817Y39901350D01*
X16165384Y39888401D01*
X16120952Y39866251D01*
X16086591Y39850959D01*
X16068228Y39845257D01*
X16062218Y39852579D01*
X16047295Y39880459D01*
X16025252Y39926425D01*
X15997317Y39987559D01*
X15964717Y40060945D01*
X15928676Y40143665D01*
X15890423Y40232803D01*
X15851183Y40325441D01*
X15812183Y40418663D01*
X15774649Y40509550D01*
X15739809Y40595186D01*
X15708888Y40672655D01*
X15683114Y40739038D01*
X15663711Y40791418D01*
X15651908Y40826879D01*
X15648931Y40842504D01*
X15649132Y40842961D01*
X15663001Y40857405D01*
X15692011Y40880026D01*
X15730172Y40906136D01*
X15742217Y40914108D01*
X15833869Y40989744D01*
X15909723Y41079831D01*
X15967981Y41180619D01*
X16006848Y41288360D01*
X16024528Y41399303D01*
X16019226Y41509697D01*
X15997747Y41607885D01*
X15959182Y41707034D01*
X15902962Y41795488D01*
X15825810Y41879513D01*
X15795495Y41906355D01*
X15697494Y41972490D01*
X15591627Y42017030D01*
X15480961Y42040375D01*
X15368564Y42042922D01*
X15257505Y42025071D01*
X15150851Y41987220D01*
X15051670Y41929768D01*
X14963031Y41853113D01*
X14888000Y41757655D01*
X14873575Y41734015D01*
X14824543Y41625966D01*
X14798503Y41513452D01*
X14794772Y41399386D01*
X14812668Y41286682D01*
X14851509Y41178255D01*
X14910614Y41077018D01*
X14989300Y40985886D01*
X15086885Y40907772D01*
X15090054Y40905667D01*
X15127811Y40879060D01*
X15156109Y40856439D01*
X15169034Y40842504D01*
X15167403Y40831579D01*
X15157264Y40799769D01*
X15139284Y40750466D01*
X15114692Y40686587D01*
X15084711Y40611052D01*
X15050570Y40526777D01*
X15013492Y40436680D01*
X14974706Y40343679D01*
X14935436Y40250692D01*
X14896909Y40160636D01*
X14860350Y40076429D01*
X14826986Y40000990D01*
X14798043Y39937235D01*
X14774746Y39888083D01*
X14758323Y39856451D01*
X14749998Y39845257D01*
X14743074Y39846773D01*
X14715877Y39857669D01*
X14675680Y39876772D01*
X14628409Y39901350D01*
X14524648Y39957453D01*
X14401039Y39873845D01*
X14364520Y39849087D01*
X14296594Y39802829D01*
X14228875Y39756497D01*
X14171691Y39717148D01*
X14140132Y39695703D01*
X14099114Y39669061D01*
X14068701Y39650822D01*
X14053846Y39644059D01*
X14047465Y39646930D01*
X14024396Y39664515D01*
X13988833Y39695477D01*
X13943871Y39736769D01*
X13892606Y39785347D01*
X13838133Y39838165D01*
X13783548Y39892177D01*
X13731947Y39944339D01*
X13686424Y39991604D01*
X13650075Y40030928D01*
X13625995Y40059264D01*
X13617281Y40073568D01*
X13617783Y40076289D01*
X13628155Y40098440D01*
X13650312Y40136765D01*
X13682112Y40187800D01*
X13721416Y40248086D01*
X13766081Y40314158D01*
X13778607Y40332383D01*
X13822593Y40396515D01*
X13861337Y40453211D01*
X13892582Y40499156D01*
X13914069Y40531030D01*
X13923540Y40545517D01*
X13923773Y40546138D01*
X13920978Y40563861D01*
X13910303Y40599765D01*
X13893481Y40649338D01*
X13872243Y40708068D01*
X13848321Y40771444D01*
X13823446Y40834954D01*
X13799350Y40894087D01*
X13777765Y40944331D01*
X13760423Y40981174D01*
X13749055Y41000106D01*
X13747916Y41001281D01*
X13739776Y41007227D01*
X13726029Y41013224D01*
X13703937Y41019886D01*
X13670763Y41027827D01*
X13623770Y41037663D01*
X13560220Y41050009D01*
X13477376Y41065480D01*
X13372500Y41084690D01*
X13350748Y41088733D01*
X13288436Y41101231D01*
X13236019Y41113073D01*
X13198466Y41123083D01*
X13180743Y41130084D01*
X13177778Y41135925D01*
X13172835Y41163984D01*
X13168918Y41210500D01*
X13166029Y41271114D01*
X13164173Y41341468D01*
X13163352Y41417204D01*
X13163568Y41493963D01*
X13164826Y41567388D01*
X13167128Y41633120D01*
X13170476Y41686800D01*
X13174874Y41724070D01*
X13180326Y41740573D01*
X13185891Y41743011D01*
X13213578Y41750695D01*
X13260379Y41761564D01*
X13322557Y41774808D01*
X13396379Y41789616D01*
X13478110Y41805177D01*
X13522736Y41813491D01*
X13599224Y41827908D01*
X13665060Y41840533D01*
X13716723Y41850679D01*
X13750693Y41857659D01*
X13763448Y41860788D01*
X13763928Y41861432D01*
X13772051Y41877819D01*
X13787537Y41912148D01*
X13808450Y41959864D01*
X13832855Y42016414D01*
X13858816Y42077242D01*
X13884397Y42137794D01*
X13907662Y42193515D01*
X13926677Y42239850D01*
X13939505Y42272245D01*
X13944212Y42286145D01*
X13942136Y42291035D01*
X13928320Y42314308D01*
X13903260Y42353481D01*
X13868968Y42405480D01*
X13827459Y42467232D01*
X13780746Y42535664D01*
X13755118Y42573140D01*
X13710890Y42638844D01*
X13672970Y42696508D01*
X13643380Y42742986D01*
X13624143Y42775135D01*
X13617281Y42789810D01*
X13622049Y42797770D01*
X13641993Y42821554D01*
X13674713Y42857549D01*
X13717205Y42902705D01*
X13766465Y42953972D01*
X13819491Y43008299D01*
X13873277Y43062636D01*
X13924821Y43113933D01*
X13971120Y43159141D01*
X14009169Y43195208D01*
X14035965Y43219086D01*
X14048505Y43227722D01*
X14055466Y43224364D01*
X14081027Y43208790D01*
X14122274Y43182285D01*
X14176237Y43146790D01*
X14239942Y43104250D01*
X14310416Y43056605D01*
X14562062Y42885488D01*
X14981588Y43058430D01*
X15038436Y43359982D01*
X15095285Y43661534D01*
X15722940Y43661534D01*
X15779789Y43359982D01*
G37*
X15779789Y43359982D02*
X15836637Y43058430D01*
X16046401Y42971959D01*
X16256164Y42885488D01*
X16507810Y43056605D01*
X16557616Y43090339D01*
X16623644Y43134619D01*
X16680810Y43172439D01*
X16726144Y43201858D01*
X16756680Y43220933D01*
X16769446Y43227722D01*
X16777287Y43222894D01*
X16800725Y43202661D01*
X16836194Y43169457D01*
X16880689Y43126330D01*
X16931205Y43076330D01*
X16984736Y43022505D01*
X17038277Y42967905D01*
X17088823Y42915577D01*
X17133368Y42868572D01*
X17168907Y42829937D01*
X17192434Y42802722D01*
X17200944Y42789976D01*
X17198965Y42784500D01*
X17185257Y42760073D01*
X17160225Y42719871D01*
X17125899Y42667048D01*
X17084307Y42604753D01*
X17037479Y42536138D01*
X17011780Y42498717D01*
X16967573Y42433568D01*
X16929672Y42376711D01*
X16900098Y42331230D01*
X16880872Y42300207D01*
X16874014Y42286726D01*
X16874126Y42285979D01*
X16880176Y42268890D01*
X16894054Y42233994D01*
X16913827Y42185849D01*
X16937560Y42129014D01*
X16963318Y42068047D01*
X16989166Y42007508D01*
X17013171Y41951953D01*
X17033398Y41905943D01*
X17047911Y41874035D01*
X17054777Y41860788D01*
X17058839Y41859613D01*
X17083521Y41854313D01*
X17127511Y41845533D01*
X17187287Y41833960D01*
X17259329Y41820279D01*
X17340116Y41805177D01*
X17382694Y41797170D01*
X17460845Y41781893D01*
X17529175Y41767785D01*
X17583951Y41755655D01*
X17621437Y41746314D01*
X17637900Y41740573D01*
X17640857Y41734881D01*
X17645762Y41707070D01*
X17649616Y41660750D01*
X17652421Y41600280D01*
X17654181Y41530017D01*
X17654899Y41454320D01*
X17654577Y41377547D01*
X17653219Y41304056D01*
X17650828Y41238206D01*
X17647406Y41184355D01*
X17642956Y41146862D01*
X17637482Y41130084D01*
X17634160Y41128191D01*
X17609387Y41120074D01*
X17566411Y41109334D01*
X17510202Y41097147D01*
X17445725Y41084690D01*
X17423970Y41080723D01*
X17323493Y41062271D01*
X17244526Y41047441D01*
X17184334Y41035620D01*
X17140178Y41026191D01*
X17109320Y41018540D01*
X17089025Y41012052D01*
X17076554Y41006112D01*
X17069171Y41000106D01*
X17068313Y40999098D01*
X17056238Y40978081D01*
X17038371Y40939624D01*
X17016442Y40888239D01*
X16992184Y40828437D01*
X16967327Y40764730D01*
X16943605Y40701629D01*
X16922747Y40643645D01*
X16906487Y40595291D01*
X16896556Y40561078D01*
X16894685Y40545517D01*
X16895936Y40543498D01*
X16908886Y40523972D01*
X16933240Y40487958D01*
X16966740Y40438772D01*
X17007127Y40379733D01*
X17052145Y40314158D01*
X17064500Y40296116D01*
X17107945Y40231401D01*
X17145491Y40173524D01*
X17174994Y40125918D01*
X17194314Y40092015D01*
X17201305Y40075248D01*
X17199798Y40070839D01*
X17184095Y40049118D01*
X17153114Y40013646D01*
X17109073Y39966812D01*
X17054190Y39911004D01*
X16990686Y39848608D01*
X16954388Y39813683D01*
X16896995Y39759289D01*
X16846761Y39712698D01*
X16806384Y39676364D01*
X16778561Y39652739D01*
X16765990Y39644276D01*
X16757352Y39647413D01*
X16730760Y39662253D01*
X16692141Y39686523D01*
X16646534Y39717148D01*
X16614107Y39739497D01*
X16549370Y39783878D01*
X16480286Y39831013D01*
X16417187Y39873845D01*
X16293578Y39957453D01*
X16189817Y39901350D01*
X16165384Y39888401D01*
X16120952Y39866251D01*
X16086591Y39850959D01*
X16068228Y39845257D01*
X16062218Y39852579D01*
X16047295Y39880459D01*
X16025252Y39926425D01*
X15997317Y39987559D01*
X15964717Y40060945D01*
X15928676Y40143665D01*
X15890423Y40232803D01*
X15851183Y40325441D01*
X15812183Y40418663D01*
X15774649Y40509550D01*
X15739809Y40595186D01*
X15708888Y40672655D01*
X15683114Y40739038D01*
X15663711Y40791418D01*
X15651908Y40826879D01*
X15648931Y40842504D01*
X15649132Y40842961D01*
X15663001Y40857405D01*
X15692011Y40880026D01*
X15730172Y40906136D01*
X15742217Y40914108D01*
X15833869Y40989744D01*
X15909723Y41079831D01*
X15967981Y41180619D01*
X16006848Y41288360D01*
X16024528Y41399303D01*
X16019226Y41509697D01*
X15997747Y41607885D01*
X15959182Y41707034D01*
X15902962Y41795488D01*
X15825810Y41879513D01*
X15795495Y41906355D01*
X15697494Y41972490D01*
X15591627Y42017030D01*
X15480961Y42040375D01*
X15368564Y42042922D01*
X15257505Y42025071D01*
X15150851Y41987220D01*
X15051670Y41929768D01*
X14963031Y41853113D01*
X14888000Y41757655D01*
X14873575Y41734015D01*
X14824543Y41625966D01*
X14798503Y41513452D01*
X14794772Y41399386D01*
X14812668Y41286682D01*
X14851509Y41178255D01*
X14910614Y41077018D01*
X14989300Y40985886D01*
X15086885Y40907772D01*
X15090054Y40905667D01*
X15127811Y40879060D01*
X15156109Y40856439D01*
X15169034Y40842504D01*
X15167403Y40831579D01*
X15157264Y40799769D01*
X15139284Y40750466D01*
X15114692Y40686587D01*
X15084711Y40611052D01*
X15050570Y40526777D01*
X15013492Y40436680D01*
X14974706Y40343679D01*
X14935436Y40250692D01*
X14896909Y40160636D01*
X14860350Y40076429D01*
X14826986Y40000990D01*
X14798043Y39937235D01*
X14774746Y39888083D01*
X14758323Y39856451D01*
X14749998Y39845257D01*
X14743074Y39846773D01*
X14715877Y39857669D01*
X14675680Y39876772D01*
X14628409Y39901350D01*
X14524648Y39957453D01*
X14401039Y39873845D01*
X14364520Y39849087D01*
X14296594Y39802829D01*
X14228875Y39756497D01*
X14171691Y39717148D01*
X14140132Y39695703D01*
X14099114Y39669061D01*
X14068701Y39650822D01*
X14053846Y39644059D01*
X14047465Y39646930D01*
X14024396Y39664515D01*
X13988833Y39695477D01*
X13943871Y39736769D01*
X13892606Y39785347D01*
X13838133Y39838165D01*
X13783548Y39892177D01*
X13731947Y39944339D01*
X13686424Y39991604D01*
X13650075Y40030928D01*
X13625995Y40059264D01*
X13617281Y40073568D01*
X13617783Y40076289D01*
X13628155Y40098440D01*
X13650312Y40136765D01*
X13682112Y40187800D01*
X13721416Y40248086D01*
X13766081Y40314158D01*
X13778607Y40332383D01*
X13822593Y40396515D01*
X13861337Y40453211D01*
X13892582Y40499156D01*
X13914069Y40531030D01*
X13923540Y40545517D01*
X13923773Y40546138D01*
X13920978Y40563861D01*
X13910303Y40599765D01*
X13893481Y40649338D01*
X13872243Y40708068D01*
X13848321Y40771444D01*
X13823446Y40834954D01*
X13799350Y40894087D01*
X13777765Y40944331D01*
X13760423Y40981174D01*
X13749055Y41000106D01*
X13747916Y41001281D01*
X13739776Y41007227D01*
X13726029Y41013224D01*
X13703937Y41019886D01*
X13670763Y41027827D01*
X13623770Y41037663D01*
X13560220Y41050009D01*
X13477376Y41065480D01*
X13372500Y41084690D01*
X13350748Y41088733D01*
X13288436Y41101231D01*
X13236019Y41113073D01*
X13198466Y41123083D01*
X13180743Y41130084D01*
X13177778Y41135925D01*
X13172835Y41163984D01*
X13168918Y41210500D01*
X13166029Y41271114D01*
X13164173Y41341468D01*
X13163352Y41417204D01*
X13163568Y41493963D01*
X13164826Y41567388D01*
X13167128Y41633120D01*
X13170476Y41686800D01*
X13174874Y41724070D01*
X13180326Y41740573D01*
X13185891Y41743011D01*
X13213578Y41750695D01*
X13260379Y41761564D01*
X13322557Y41774808D01*
X13396379Y41789616D01*
X13478110Y41805177D01*
X13522736Y41813491D01*
X13599224Y41827908D01*
X13665060Y41840533D01*
X13716723Y41850679D01*
X13750693Y41857659D01*
X13763448Y41860788D01*
X13763928Y41861432D01*
X13772051Y41877819D01*
X13787537Y41912148D01*
X13808450Y41959864D01*
X13832855Y42016414D01*
X13858816Y42077242D01*
X13884397Y42137794D01*
X13907662Y42193515D01*
X13926677Y42239850D01*
X13939505Y42272245D01*
X13944212Y42286145D01*
X13942136Y42291035D01*
X13928320Y42314308D01*
X13903260Y42353481D01*
X13868968Y42405480D01*
X13827459Y42467232D01*
X13780746Y42535664D01*
X13755118Y42573140D01*
X13710890Y42638844D01*
X13672970Y42696508D01*
X13643380Y42742986D01*
X13624143Y42775135D01*
X13617281Y42789810D01*
X13622049Y42797770D01*
X13641993Y42821554D01*
X13674713Y42857549D01*
X13717205Y42902705D01*
X13766465Y42953972D01*
X13819491Y43008299D01*
X13873277Y43062636D01*
X13924821Y43113933D01*
X13971120Y43159141D01*
X14009169Y43195208D01*
X14035965Y43219086D01*
X14048505Y43227722D01*
X14055466Y43224364D01*
X14081027Y43208790D01*
X14122274Y43182285D01*
X14176237Y43146790D01*
X14239942Y43104250D01*
X14310416Y43056605D01*
X14562062Y42885488D01*
X14981588Y43058430D01*
X15038436Y43359982D01*
X15095285Y43661534D01*
X15722940Y43661534D01*
X15779789Y43359982D01*
D13*
%TO.C,C9*%
X15538667Y11555000D02*
X15246133Y11555000D01*
X15538667Y12575000D02*
X15246133Y12575000D01*
%TO.C,C6*%
X6377400Y48494733D02*
X6377400Y48787267D01*
X5357400Y48494733D02*
X5357400Y48787267D01*
D14*
%TO.C,U4*%
X15259400Y25161000D02*
X11359400Y25161000D01*
X15259400Y35291000D02*
X11359400Y35291000D01*
D15*
X17554400Y35171000D02*
G75*
G03*
X17554400Y35171000I-100000J0D01*
G01*
D13*
%TO.C,C10*%
X15614867Y23620000D02*
X15322333Y23620000D01*
X15614867Y24640000D02*
X15322333Y24640000D01*
%TO.C,J2*%
X19015400Y1210000D02*
X20345400Y1210000D01*
X19015400Y2540000D02*
X19015400Y1210000D01*
X21675400Y3810000D02*
X21675400Y52130000D01*
X19015400Y3810000D02*
X19015400Y52130000D01*
X19015400Y52130000D02*
X21675400Y52130000D01*
X19015400Y3810000D02*
X21675400Y3810000D01*
%TO.C,J1*%
X3895400Y49530000D02*
X3895400Y1210000D01*
X3895400Y52130000D02*
X2565400Y52130000D01*
X3895400Y50800000D02*
X3895400Y52130000D01*
X3895400Y1210000D02*
X1235400Y1210000D01*
X3895400Y49530000D02*
X1235400Y49530000D01*
X1235400Y49530000D02*
X1235400Y1210000D01*
%TO.C,C11*%
X15538667Y36578000D02*
X15246133Y36578000D01*
X15538667Y35558000D02*
X15246133Y35558000D01*
%TO.C,C5*%
X8155400Y48494733D02*
X8155400Y48787267D01*
X7135400Y48494733D02*
X7135400Y48787267D01*
%TO.C,Q2*%
X5113400Y7300000D02*
X4063400Y7300000D01*
X4063400Y7300000D02*
X4063400Y5450000D01*
X7123400Y7280000D02*
X7123400Y4850000D01*
X7113400Y7300000D02*
X6113400Y7300000D01*
%TO.C,Q1*%
X4063400Y13523000D02*
X4063400Y11673000D01*
X5113400Y13523000D02*
X4063400Y13523000D01*
X7113400Y13523000D02*
X6113400Y13523000D01*
X7123400Y13503000D02*
X7123400Y11073000D01*
D14*
%TO.C,U3*%
X15259400Y23226000D02*
X11359400Y23226000D01*
X15259400Y13096000D02*
X11359400Y13096000D01*
D15*
X17554400Y23106000D02*
G75*
G03*
X17554400Y23106000I-100000J0D01*
G01*
D14*
%TO.C,U2*%
X15259400Y11161000D02*
X11359400Y11161000D01*
X15259400Y1031000D02*
X11359400Y1031000D01*
D15*
X17554400Y11041000D02*
G75*
G03*
X17554400Y11041000I-100000J0D01*
G01*
D13*
%TO.C,U5*%
X11182400Y44268000D02*
X11182400Y40508000D01*
X11182400Y40508000D02*
X9922400Y40508000D01*
X4362400Y46518000D02*
X4362400Y40508000D01*
X4362400Y40508000D02*
X5622400Y40508000D01*
%TD*%
M02*
