%TF.GenerationSoftware,KiCad,Pcbnew,(6.0.0)*%
%TF.CreationDate,2023-01-28T16:33:02+01:00*%
%TF.ProjectId,MH106Enhanced,4d483130-3645-46e6-9861-6e6365642e6b,1*%
%TF.SameCoordinates,PX5255c88PY54c81a0*%
%TF.FileFunction,Copper,L1,Top*%
%TF.FilePolarity,Positive*%
%FSLAX46Y46*%
G04 Gerber Fmt 4.6, Leading zero omitted, Abs format (unit mm)*
G04 Created by KiCad (PCBNEW (6.0.0)) date 2023-01-28 16:33:02*
%MOMM*%
%LPD*%
G01*
G04 APERTURE LIST*
G04 Aperture macros list*
%AMRoundRect*
0 Rectangle with rounded corners*
0 $1 Rounding radius*
0 $2 $3 $4 $5 $6 $7 $8 $9 X,Y pos of 4 corners*
0 Add a 4 corners polygon primitive as box body*
4,1,4,$2,$3,$4,$5,$6,$7,$8,$9,$2,$3,0*
0 Add four circle primitives for the rounded corners*
1,1,$1+$1,$2,$3*
1,1,$1+$1,$4,$5*
1,1,$1+$1,$6,$7*
1,1,$1+$1,$8,$9*
0 Add four rect primitives between the rounded corners*
20,1,$1+$1,$2,$3,$4,$5,0*
20,1,$1+$1,$4,$5,$6,$7,0*
20,1,$1+$1,$6,$7,$8,$9,0*
20,1,$1+$1,$8,$9,$2,$3,0*%
%AMFreePoly0*
4,1,22,0.500000,-0.750000,0.000000,-0.750000,0.000000,-0.745033,-0.079941,-0.743568,-0.215256,-0.701293,-0.333266,-0.622738,-0.424486,-0.514219,-0.481581,-0.384460,-0.499164,-0.250000,-0.500000,-0.250000,-0.500000,0.250000,-0.499164,0.250000,-0.499963,0.256109,-0.478152,0.396186,-0.417904,0.524511,-0.324060,0.630769,-0.204165,0.706417,-0.067858,0.745374,0.000000,0.744959,0.000000,0.750000,
0.500000,0.750000,0.500000,-0.750000,0.500000,-0.750000,$1*%
%AMFreePoly1*
4,1,20,0.000000,0.744959,0.073905,0.744508,0.209726,0.703889,0.328688,0.626782,0.421226,0.519385,0.479903,0.390333,0.500000,0.250000,0.500000,-0.250000,0.499851,-0.262216,0.476331,-0.402017,0.414519,-0.529596,0.319384,-0.634700,0.198574,-0.708877,0.061801,-0.746166,0.000000,-0.745033,0.000000,-0.750000,-0.500000,-0.750000,-0.500000,0.750000,0.000000,0.750000,0.000000,0.744959,
0.000000,0.744959,$1*%
G04 Aperture macros list end*
%TA.AperFunction,ComponentPad*%
%ADD10R,1.700000X1.700000*%
%TD*%
%TA.AperFunction,ComponentPad*%
%ADD11O,1.700000X1.700000*%
%TD*%
%TA.AperFunction,SMDPad,CuDef*%
%ADD12RoundRect,0.237500X0.300000X0.237500X-0.300000X0.237500X-0.300000X-0.237500X0.300000X-0.237500X0*%
%TD*%
%TA.AperFunction,SMDPad,CuDef*%
%ADD13RoundRect,0.237500X0.237500X-0.250000X0.237500X0.250000X-0.237500X0.250000X-0.237500X-0.250000X0*%
%TD*%
%TA.AperFunction,SMDPad,CuDef*%
%ADD14FreePoly0,270.000000*%
%TD*%
%TA.AperFunction,SMDPad,CuDef*%
%ADD15FreePoly1,270.000000*%
%TD*%
%TA.AperFunction,SMDPad,CuDef*%
%ADD16R,0.800000X0.500000*%
%TD*%
%TA.AperFunction,SMDPad,CuDef*%
%ADD17R,0.800000X0.400000*%
%TD*%
%TA.AperFunction,ComponentPad*%
%ADD18C,2.200000*%
%TD*%
%TA.AperFunction,ComponentPad*%
%ADD19R,2.200000X2.200000*%
%TD*%
%TA.AperFunction,SMDPad,CuDef*%
%ADD20RoundRect,0.237500X-0.300000X-0.237500X0.300000X-0.237500X0.300000X0.237500X-0.300000X0.237500X0*%
%TD*%
%TA.AperFunction,ComponentPad*%
%ADD21R,1.000000X1.000000*%
%TD*%
%TA.AperFunction,ComponentPad*%
%ADD22O,1.000000X1.000000*%
%TD*%
%TA.AperFunction,SMDPad,CuDef*%
%ADD23R,1.700000X0.650000*%
%TD*%
%TA.AperFunction,SMDPad,CuDef*%
%ADD24RoundRect,0.237500X0.237500X-0.300000X0.237500X0.300000X-0.237500X0.300000X-0.237500X-0.300000X0*%
%TD*%
%TA.AperFunction,SMDPad,CuDef*%
%ADD25RoundRect,0.006000X-0.414000X-0.094000X0.414000X-0.094000X0.414000X0.094000X-0.414000X0.094000X0*%
%TD*%
%TA.AperFunction,SMDPad,CuDef*%
%ADD26RoundRect,0.020000X-0.080000X-0.400000X0.080000X-0.400000X0.080000X0.400000X-0.080000X0.400000X0*%
%TD*%
%TA.AperFunction,SMDPad,CuDef*%
%ADD27R,3.100000X3.100000*%
%TD*%
%TA.AperFunction,SMDPad,CuDef*%
%ADD28FreePoly1,90.000000*%
%TD*%
%TA.AperFunction,SMDPad,CuDef*%
%ADD29FreePoly0,90.000000*%
%TD*%
%TA.AperFunction,SMDPad,CuDef*%
%ADD30RoundRect,0.237500X0.250000X0.237500X-0.250000X0.237500X-0.250000X-0.237500X0.250000X-0.237500X0*%
%TD*%
%TA.AperFunction,SMDPad,CuDef*%
%ADD31R,0.650000X0.850000*%
%TD*%
%TA.AperFunction,SMDPad,CuDef*%
%ADD32RoundRect,0.237500X-0.250000X-0.237500X0.250000X-0.237500X0.250000X0.237500X-0.250000X0.237500X0*%
%TD*%
%TA.AperFunction,ViaPad*%
%ADD33C,0.600000*%
%TD*%
%TA.AperFunction,Conductor*%
%ADD34C,0.200000*%
%TD*%
%TA.AperFunction,Conductor*%
%ADD35C,0.150000*%
%TD*%
%TA.AperFunction,Conductor*%
%ADD36C,0.600000*%
%TD*%
%TA.AperFunction,Conductor*%
%ADD37C,0.152400*%
%TD*%
%TA.AperFunction,Conductor*%
%ADD38C,0.400000*%
%TD*%
G04 APERTURE END LIST*
D10*
%TO.P,J6,1,Pin_1*%
%TO.N,+3V3*%
X8305800Y11912600D03*
D11*
%TO.P,J6,2,Pin_2*%
%TO.N,SDA*%
X8305800Y9372600D03*
%TO.P,J6,3,Pin_3*%
%TO.N,SCL*%
X8305800Y6832600D03*
%TO.P,J6,4,Pin_4*%
%TO.N,GND*%
X8305800Y4292600D03*
%TO.P,J6,5,Pin_5*%
X8305800Y1752600D03*
%TD*%
D12*
%TO.P,C13,1*%
%TO.N,+3V3*%
X16998100Y12420600D03*
%TO.P,C13,2*%
%TO.N,GND*%
X15273100Y12420600D03*
%TD*%
%TO.P,C14,1*%
%TO.N,+3V3*%
X16998100Y14452600D03*
%TO.P,C14,2*%
%TO.N,GND*%
X15273100Y14452600D03*
%TD*%
%TO.P,C8,1*%
%TO.N,+3V3*%
X13815400Y20955000D03*
%TO.P,C8,2*%
%TO.N,GND*%
X12090400Y20955000D03*
%TD*%
D13*
%TO.P,R6,1*%
%TO.N,SCL*%
X13635200Y7215500D03*
%TO.P,R6,2*%
%TO.N,+3V3*%
X13635200Y9040500D03*
%TD*%
D14*
%TO.P,JP2,1,A*%
%TO.N,GND*%
X7465400Y48163000D03*
D15*
%TO.P,JP2,2,B*%
%TO.N,/~{USB_BOOT}*%
X7465400Y46863000D03*
%TD*%
D16*
%TO.P,RN1,8,R1.2*%
%TO.N,~{GR}*%
X7137400Y39300000D03*
D17*
%TO.P,RN1,7,R2.2*%
X7137400Y38500000D03*
%TO.P,RN1,6,R3.2*%
%TO.N,EOSC*%
X7137400Y37700000D03*
D16*
%TO.P,RN1,5,R4.2*%
X7137400Y36900000D03*
%TO.P,RN1,4,R4.1*%
%TO.N,Net-(J1-Pad3)*%
X5337400Y36900000D03*
D17*
%TO.P,RN1,3,R3.1*%
%TO.N,GND*%
X5337400Y37700000D03*
%TO.P,RN1,2,R2.1*%
X5337400Y38500000D03*
D16*
%TO.P,RN1,1,R1.1*%
%TO.N,Net-(J1-Pad2)*%
X5337400Y39300000D03*
%TD*%
D13*
%TO.P,R2,1*%
%TO.N,D+*%
X13360400Y32512000D03*
%TO.P,R2,2*%
%TO.N,Net-(J4-Pad2)*%
X13360400Y34337000D03*
%TD*%
D16*
%TO.P,RN3,1,R1.1*%
%TO.N,Net-(J1-Pad6)*%
X5337400Y30410000D03*
D17*
%TO.P,RN3,2,R2.1*%
%TO.N,GND*%
X5337400Y29610000D03*
%TO.P,RN3,3,R3.1*%
X5337400Y28810000D03*
D16*
%TO.P,RN3,4,R4.1*%
%TO.N,Net-(J1-Pad13)*%
X5337400Y28010000D03*
%TO.P,RN3,5,R4.2*%
%TO.N,MC 0*%
X7137400Y28010000D03*
D17*
%TO.P,RN3,6,R3.2*%
X7137400Y28810000D03*
%TO.P,RN3,7,R2.2*%
%TO.N,~{DO}{slash}RY*%
X7137400Y29610000D03*
D16*
%TO.P,RN3,8,R1.2*%
X7137400Y30410000D03*
%TD*%
D18*
%TO.P,J3,1,Pin_1*%
%TO.N,5V*%
X12725400Y49530000D03*
D19*
%TO.P,J3,2,Pin_2*%
%TO.N,GND*%
X10185400Y49530000D03*
%TD*%
D13*
%TO.P,R5,1*%
%TO.N,SDA*%
X11125200Y7215500D03*
%TO.P,R5,2*%
%TO.N,+3V3*%
X11125200Y9040500D03*
%TD*%
D20*
%TO.P,C1,1*%
%TO.N,+3V3*%
X11000400Y42672000D03*
%TO.P,C1,2*%
%TO.N,GND*%
X12725400Y42672000D03*
%TD*%
D16*
%TO.P,RN2,1,R1.1*%
%TO.N,Net-(J1-Pad4)*%
X5337400Y34855000D03*
D17*
%TO.P,RN2,2,R2.1*%
%TO.N,GND*%
X5337400Y34055000D03*
%TO.P,RN2,3,R3.1*%
X5337400Y33255000D03*
D16*
%TO.P,RN2,4,R4.1*%
%TO.N,Net-(J1-Pad5)*%
X5337400Y32455000D03*
%TO.P,RN2,5,R4.2*%
%TO.N,~{LST}{slash}LSP*%
X7137400Y32455000D03*
D17*
%TO.P,RN2,6,R3.2*%
X7137400Y33255000D03*
%TO.P,RN2,7,R2.2*%
%TO.N,Z*%
X7137400Y34055000D03*
D16*
%TO.P,RN2,8,R1.2*%
X7137400Y34855000D03*
%TD*%
D21*
%TO.P,J5,1,Pin_1*%
%TO.N,Net-(J5-Pad1)*%
X10390400Y12065000D03*
D22*
%TO.P,J5,2,Pin_2*%
%TO.N,GND*%
X11660400Y12065000D03*
%TO.P,J5,3,Pin_3*%
%TO.N,Net-(J5-Pad3)*%
X12930400Y12065000D03*
%TD*%
D23*
%TO.P,U6,1,~{CS}*%
%TO.N,QSPI_CSN*%
X9423400Y40894000D03*
%TO.P,U6,2,DO(IO1)*%
%TO.N,QSPI_SD1*%
X9423400Y39624000D03*
%TO.P,U6,3,IO2*%
%TO.N,QSPI_SD2*%
X9423400Y38354000D03*
%TO.P,U6,4,GND*%
%TO.N,GND*%
X9423400Y37084000D03*
%TO.P,U6,5,DI(IO0)*%
%TO.N,QSPI_SD0*%
X16723400Y37084000D03*
%TO.P,U6,6,CLK*%
%TO.N,QSPI_SCLK*%
X16723400Y38354000D03*
%TO.P,U6,7,IO3*%
%TO.N,QSPI_SD3*%
X16723400Y39624000D03*
%TO.P,U6,8,VCC*%
%TO.N,+3V3*%
X16723400Y40894000D03*
%TD*%
D12*
%TO.P,C4,1*%
%TO.N,+1V1*%
X18440400Y34798000D03*
%TO.P,C4,2*%
%TO.N,GND*%
X16715400Y34798000D03*
%TD*%
D16*
%TO.P,RN4,1,R1.1*%
%TO.N,Net-(J1-Pad14)*%
X5337400Y25965000D03*
D17*
%TO.P,RN4,2,R2.1*%
%TO.N,GND*%
X5337400Y25165000D03*
%TO.P,RN4,3,R3.1*%
X5337400Y24365000D03*
D16*
%TO.P,RN4,4,R4.1*%
%TO.N,Net-(J1-Pad15)*%
X5337400Y23565000D03*
%TO.P,RN4,5,R4.2*%
%TO.N,SST{slash}SSP*%
X7137400Y23565000D03*
D17*
%TO.P,RN4,6,R3.2*%
X7137400Y24365000D03*
%TO.P,RN4,7,R2.2*%
%TO.N,MC 1*%
X7137400Y25165000D03*
D16*
%TO.P,RN4,8,R1.2*%
X7137400Y25965000D03*
%TD*%
D24*
%TO.P,C7,1*%
%TO.N,+3V3*%
X18592800Y31521400D03*
%TO.P,C7,2*%
%TO.N,GND*%
X18592800Y33246400D03*
%TD*%
D12*
%TO.P,C15,1*%
%TO.N,+3V3*%
X16998100Y16611600D03*
%TO.P,C15,2*%
%TO.N,GND*%
X15273100Y16611600D03*
%TD*%
D25*
%TO.P,U1,1,IOVDD*%
%TO.N,+3V3*%
X10052400Y29270000D03*
%TO.P,U1,2,GPIO0*%
%TO.N,unconnected-(U1-Pad2)*%
X10052400Y28870000D03*
%TO.P,U1,3,GPIO1*%
%TO.N,unconnected-(U1-Pad3)*%
X10052400Y28470000D03*
%TO.P,U1,4,GPIO2*%
%TO.N,~{GR}*%
X10052400Y28070000D03*
%TO.P,U1,5,GPIO3*%
%TO.N,EOSC*%
X10052400Y27670000D03*
%TO.P,U1,6,GPIO4*%
%TO.N,Z*%
X10052400Y27270000D03*
%TO.P,U1,7,GPIO5*%
%TO.N,~{LST}{slash}LSP*%
X10052400Y26870000D03*
%TO.P,U1,8,GPIO6*%
%TO.N,~{DO}{slash}RY*%
X10052400Y26470000D03*
%TO.P,U1,9,GPIO7*%
%TO.N,MC 0*%
X10052400Y26070000D03*
%TO.P,U1,10,IOVDD*%
%TO.N,+3V3*%
X10052400Y25670000D03*
%TO.P,U1,11,GPIO8*%
%TO.N,MC 1*%
X10052400Y25270000D03*
%TO.P,U1,12,GPIO9*%
%TO.N,SST{slash}SSP*%
X10052400Y24870000D03*
%TO.P,U1,13,GPIO10*%
%TO.N,NUL{slash}LAP{slash}LAP*%
X10052400Y24470000D03*
%TO.P,U1,14,GPIO11*%
%TO.N,CHOD.FO{slash}~{NAST}*%
X10052400Y24070000D03*
D26*
%TO.P,U1,15,GPIO12*%
%TO.N,PHASE*%
X10887400Y23235000D03*
%TO.P,U1,16,GPIO13*%
%TO.N,STROBE in*%
X11287400Y23235000D03*
%TO.P,U1,17,GPIO14*%
%TO.N,STROBE out*%
X11687400Y23235000D03*
%TO.P,U1,18,GPIO15*%
%TO.N,Shift_SRCK*%
X12087400Y23235000D03*
%TO.P,U1,19,TESTEN*%
%TO.N,GND*%
X12487400Y23235000D03*
%TO.P,U1,20,XIN*%
%TO.N,XIN*%
X12887400Y23235000D03*
%TO.P,U1,21,XOUT*%
%TO.N,unconnected-(U1-Pad21)*%
X13287400Y23235000D03*
%TO.P,U1,22,IOVDD*%
%TO.N,+3V3*%
X13687400Y23235000D03*
%TO.P,U1,23,DVDD*%
%TO.N,+1V1*%
X14087400Y23235000D03*
%TO.P,U1,24,SWCLK*%
%TO.N,Net-(J5-Pad1)*%
X14487400Y23235000D03*
%TO.P,U1,25,SWD*%
%TO.N,Net-(J5-Pad3)*%
X14887400Y23235000D03*
%TO.P,U1,26,RUN*%
%TO.N,Net-(JP1-Pad2)*%
X15287400Y23235000D03*
%TO.P,U1,27,GPIO16*%
%TO.N,Shift_RCK*%
X15687400Y23235000D03*
%TO.P,U1,28,GPIO17*%
%TO.N,Shift_Data*%
X16087400Y23235000D03*
D25*
%TO.P,U1,29,GPIO18*%
%TO.N,~{CAL} out*%
X16922400Y24070000D03*
%TO.P,U1,30,GPIO19*%
%TO.N,unconnected-(U1-Pad30)*%
X16922400Y24470000D03*
%TO.P,U1,31,GPIO20*%
%TO.N,SDA*%
X16922400Y24870000D03*
%TO.P,U1,32,GPIO21*%
%TO.N,SCL*%
X16922400Y25270000D03*
%TO.P,U1,33,IOVDD*%
%TO.N,+3V3*%
X16922400Y25670000D03*
%TO.P,U1,34,GPIO22*%
%TO.N,unconnected-(U1-Pad34)*%
X16922400Y26070000D03*
%TO.P,U1,35,GPIO23*%
%TO.N,unconnected-(U1-Pad35)*%
X16922400Y26470000D03*
%TO.P,U1,36,GPIO24*%
%TO.N,unconnected-(U1-Pad36)*%
X16922400Y26870000D03*
%TO.P,U1,37,GPIO25*%
%TO.N,unconnected-(U1-Pad37)*%
X16922400Y27270000D03*
%TO.P,U1,38,GPIO26/ADC0*%
%TO.N,unconnected-(U1-Pad38)*%
X16922400Y27670000D03*
%TO.P,U1,39,GPIO27/ADC1*%
%TO.N,unconnected-(U1-Pad39)*%
X16922400Y28070000D03*
%TO.P,U1,40,GPIO28/ADC2*%
%TO.N,unconnected-(U1-Pad40)*%
X16922400Y28470000D03*
%TO.P,U1,41,GPIO29/ADC3*%
%TO.N,unconnected-(U1-Pad41)*%
X16922400Y28870000D03*
%TO.P,U1,42,IOVDD*%
%TO.N,+3V3*%
X16922400Y29270000D03*
D26*
%TO.P,U1,43,ADC_AVDD*%
X16087400Y30105000D03*
%TO.P,U1,44,VREG_VIN*%
X15687400Y30105000D03*
%TO.P,U1,45,VREG_VOUT*%
%TO.N,+1V1*%
X15287400Y30105000D03*
%TO.P,U1,46,USB_DM*%
%TO.N,D-*%
X14887400Y30105000D03*
%TO.P,U1,47,USB_DP*%
%TO.N,D+*%
X14487400Y30105000D03*
%TO.P,U1,48,USB_VDD*%
%TO.N,+3V3*%
X14087400Y30105000D03*
%TO.P,U1,49,IOVDD*%
X13687400Y30105000D03*
%TO.P,U1,50,DVDD*%
%TO.N,+1V1*%
X13287400Y30105000D03*
%TO.P,U1,51,QSPI_SD3*%
%TO.N,QSPI_SD3*%
X12887400Y30105000D03*
%TO.P,U1,52,QSPI_SCLK*%
%TO.N,QSPI_SCLK*%
X12487400Y30105000D03*
%TO.P,U1,53,QSPI_SD0*%
%TO.N,QSPI_SD0*%
X12087400Y30105000D03*
%TO.P,U1,54,QSPI_SD2*%
%TO.N,QSPI_SD2*%
X11687400Y30105000D03*
%TO.P,U1,55,QSPI_SD1*%
%TO.N,QSPI_SD1*%
X11287400Y30105000D03*
%TO.P,U1,56,QSPI_CSN*%
%TO.N,QSPI_CSN*%
X10887400Y30105000D03*
D27*
%TO.P,U1,57,GND*%
%TO.N,GND*%
X13487400Y26670000D03*
%TD*%
D13*
%TO.P,R1,1*%
%TO.N,D-*%
X14630400Y32488500D03*
%TO.P,R1,2*%
%TO.N,Net-(J4-Pad3)*%
X14630400Y34313500D03*
%TD*%
D24*
%TO.P,C3,1*%
%TO.N,+1V1*%
X16078200Y31521400D03*
%TO.P,C3,2*%
%TO.N,GND*%
X16078200Y33246400D03*
%TD*%
D28*
%TO.P,JP1,2,B*%
%TO.N,Net-(JP1-Pad2)*%
X16078200Y21234400D03*
D29*
%TO.P,JP1,1,A*%
%TO.N,GND*%
X16078200Y19934400D03*
%TD*%
D30*
%TO.P,R3,1*%
%TO.N,QSPI_CSN*%
X9296400Y45085000D03*
%TO.P,R3,2*%
%TO.N,/~{USB_BOOT}*%
X7471400Y45085000D03*
%TD*%
D31*
%TO.P,U7,1,Standby*%
%TO.N,+3V3*%
X13613400Y19584000D03*
%TO.P,U7,2,GND*%
%TO.N,GND*%
X11963400Y19584000D03*
%TO.P,U7,3,Out*%
%TO.N,XIN*%
X11963400Y18034000D03*
%TO.P,U7,4,VDD*%
%TO.N,+3V3*%
X13613400Y18034000D03*
%TD*%
D16*
%TO.P,RN6,1,R1.1*%
%TO.N,Net-(J1-Pad18)*%
X5337400Y17075000D03*
D17*
%TO.P,RN6,2,R2.1*%
%TO.N,GND*%
X5337400Y16275000D03*
%TO.P,RN6,3,R3.1*%
X5337400Y15475000D03*
D16*
%TO.P,RN6,4,R4.1*%
%TO.N,STROBE*%
X5337400Y14675000D03*
%TO.P,RN6,5,R4.2*%
%TO.N,STROBE in*%
X7137400Y14675000D03*
D17*
%TO.P,RN6,6,R3.2*%
X7137400Y15475000D03*
%TO.P,RN6,7,R2.2*%
%TO.N,PHASE*%
X7137400Y16275000D03*
D16*
%TO.P,RN6,8,R1.2*%
X7137400Y17075000D03*
%TD*%
D12*
%TO.P,C12,1*%
%TO.N,+3V3*%
X16966100Y10642600D03*
%TO.P,C12,2*%
%TO.N,GND*%
X15241100Y10642600D03*
%TD*%
D32*
%TO.P,R4,1*%
%TO.N,+3V3*%
X7471400Y42672000D03*
%TO.P,R4,2*%
%TO.N,QSPI_CSN*%
X9296400Y42672000D03*
%TD*%
D21*
%TO.P,J4,1,Pin_1*%
%TO.N,GND*%
X12090400Y44450000D03*
D22*
%TO.P,J4,2,Pin_2*%
%TO.N,Net-(J4-Pad2)*%
X13360400Y44450000D03*
%TO.P,J4,3,Pin_3*%
%TO.N,Net-(J4-Pad3)*%
X14630400Y44450000D03*
%TO.P,J4,4,Pin_4*%
%TO.N,5V*%
X15900400Y44450000D03*
%TD*%
D16*
%TO.P,RN5,1,R1.1*%
%TO.N,Net-(J1-Pad16)*%
X5337400Y21520000D03*
D17*
%TO.P,RN5,2,R2.1*%
%TO.N,GND*%
X5337400Y20720000D03*
%TO.P,RN5,3,R3.1*%
X5337400Y19920000D03*
D16*
%TO.P,RN5,4,R4.1*%
%TO.N,Net-(J1-Pad17)*%
X5337400Y19120000D03*
%TO.P,RN5,5,R4.2*%
%TO.N,CHOD.FO{slash}~{NAST}*%
X7137400Y19120000D03*
D17*
%TO.P,RN5,6,R3.2*%
X7137400Y19920000D03*
%TO.P,RN5,7,R2.2*%
%TO.N,NUL{slash}LAP{slash}LAP*%
X7137400Y20720000D03*
D16*
%TO.P,RN5,8,R1.2*%
X7137400Y21520000D03*
%TD*%
D24*
%TO.P,C2,1*%
%TO.N,+1V1*%
X17373600Y31521400D03*
%TO.P,C2,2*%
%TO.N,GND*%
X17373600Y33246400D03*
%TD*%
D10*
%TO.P,J2,1,Pin_1*%
%TO.N,BCD A{slash}AS 0*%
X20345400Y2540000D03*
D11*
%TO.P,J2,2,Pin_2*%
%TO.N,BCD B{slash}AS 1*%
X20345400Y5080000D03*
%TO.P,J2,3,Pin_3*%
%TO.N,BCD C{slash}AS 2*%
X20345400Y7620000D03*
%TO.P,J2,4,Pin_4*%
%TO.N,BCD D{slash}AS 3*%
X20345400Y10160000D03*
%TO.P,J2,5,Pin_5*%
%TO.N,SEG G{slash}NE{slash}AS 4*%
X20345400Y12700000D03*
%TO.P,J2,6,Pin_6*%
%TO.N,SEG A{slash}SO{slash}AS 5*%
X20345400Y15240000D03*
%TO.P,J2,7,Pin_7*%
%TO.N,SEG F{slash}PA{slash}AS 6*%
X20345400Y17780000D03*
%TO.P,J2,8,Pin_8*%
%TO.N,SEG E{slash}CT{slash}AS 7*%
X20345400Y20320000D03*
%TO.P,J2,9,Pin_9*%
%TO.N,SEG B{slash}ST{slash}AS 8*%
X20345400Y22860000D03*
%TO.P,J2,10,Pin_10*%
%TO.N,SEG C{slash}UT{slash}AS 9*%
X20345400Y25400000D03*
%TO.P,J2,11,Pin_11*%
%TO.N,SEG D{slash}PO{slash}AS 10*%
X20345400Y27940000D03*
%TO.P,J2,12,Pin_12*%
%TO.N,~{DMX 1}*%
X20345400Y30480000D03*
%TO.P,J2,13,Pin_13*%
%TO.N,~{DMX 2}*%
X20345400Y33020000D03*
%TO.P,J2,14,Pin_14*%
%TO.N,~{DMX 3}*%
X20345400Y35560000D03*
%TO.P,J2,15,Pin_15*%
%TO.N,~{DMX 4}*%
X20345400Y38100000D03*
%TO.P,J2,16,Pin_16*%
%TO.N,~{DMX 5}*%
X20345400Y40640000D03*
%TO.P,J2,17,Pin_17*%
%TO.N,~{DMX 6}*%
X20345400Y43180000D03*
%TO.P,J2,18,Pin_18*%
%TO.N,~{DMX 7}*%
X20345400Y45720000D03*
%TO.P,J2,19,Pin_19*%
%TO.N,~{DMX 8}*%
X20345400Y48260000D03*
%TO.P,J2,20,Pin_20*%
%TO.N,ICC 2*%
X20345400Y50800000D03*
%TD*%
D10*
%TO.P,J1,1,Pin_1*%
%TO.N,ICC1*%
X2565400Y50800000D03*
D11*
%TO.P,J1,2,Pin_2*%
%TO.N,Net-(J1-Pad2)*%
X2565400Y48260000D03*
%TO.P,J1,3,Pin_3*%
%TO.N,Net-(J1-Pad3)*%
X2565400Y45720000D03*
%TO.P,J1,4,Pin_4*%
%TO.N,Net-(J1-Pad4)*%
X2565400Y43180000D03*
%TO.P,J1,5,Pin_5*%
%TO.N,Net-(J1-Pad5)*%
X2565400Y40640000D03*
%TO.P,J1,6,Pin_6*%
%TO.N,Net-(J1-Pad6)*%
X2565400Y38100000D03*
%TO.P,J1,7,Pin_7*%
%TO.N,~{LSL}*%
X2565400Y35560000D03*
%TO.P,J1,8,Pin_8*%
%TO.N,~{LSS}*%
X2565400Y33020000D03*
%TO.P,J1,9,Pin_9*%
%TO.N,~{LML}*%
X2565400Y30480000D03*
%TO.P,J1,10,Pin_10*%
%TO.N,~{LMS}*%
X2565400Y27940000D03*
%TO.P,J1,11,Pin_11*%
%TO.N,~{ALARM}*%
X2565400Y25400000D03*
%TO.P,J1,12,Pin_12*%
%TO.N,~{CAL}*%
X2565400Y22860000D03*
%TO.P,J1,13,Pin_13*%
%TO.N,Net-(J1-Pad13)*%
X2565400Y20320000D03*
%TO.P,J1,14,Pin_14*%
%TO.N,Net-(J1-Pad14)*%
X2565400Y17780000D03*
%TO.P,J1,15,Pin_15*%
%TO.N,Net-(J1-Pad15)*%
X2565400Y15240000D03*
%TO.P,J1,16,Pin_16*%
%TO.N,Net-(J1-Pad16)*%
X2565400Y12700000D03*
%TO.P,J1,17,Pin_17*%
%TO.N,Net-(J1-Pad17)*%
X2565400Y10160000D03*
%TO.P,J1,18,Pin_18*%
%TO.N,Net-(J1-Pad18)*%
X2565400Y7620000D03*
%TO.P,J1,19,Pin_19*%
%TO.N,STROBE*%
X2565400Y5080000D03*
%TO.P,J1,20,Pin_20*%
%TO.N,GND*%
X2565400Y2540000D03*
%TD*%
D33*
%TO.N,Shift_RCK*%
X17449800Y22275800D03*
%TO.N,+3V3*%
X18008600Y14452600D03*
%TO.N,GND*%
X13055600Y16179800D03*
X13639800Y14452600D03*
X10907889Y24390900D03*
%TO.N,Shift_SRCK*%
X8940800Y13563600D03*
%TO.N,GND*%
X15729612Y25139081D03*
%TO.N,Shift_RCK*%
X13614400Y10058400D03*
%TO.N,Shift_Data*%
X17297400Y9245600D03*
%TO.N,GND*%
X9423400Y35814000D03*
X6248400Y35814000D03*
X6248400Y9398000D03*
X5994400Y43561000D03*
%TO.N,+1V1*%
X18821400Y25603200D03*
X18211800Y24079200D03*
%TO.N,Shift_SRCK*%
X9550400Y21082000D03*
%TO.N,+3V3*%
X7518400Y41275000D03*
X12725400Y33401000D03*
X15316200Y41478200D03*
X18059400Y26543000D03*
X7772400Y43815000D03*
X18719800Y27609800D03*
%TO.N,QSPI_CSN*%
X11176000Y40690800D03*
X10922000Y37236400D03*
%TO.N,QSPI_SCLK*%
X13944600Y38354000D03*
X15138400Y38354000D03*
%TO.N,QSPI_SD0*%
X13309600Y37084000D03*
X15138400Y37084000D03*
%TO.N,QSPI_SD1*%
X11734800Y39624000D03*
X11709400Y37236400D03*
%TO.N,~{CAL} out*%
X13290420Y24383989D03*
%TO.N,STROBE out*%
X7137400Y5969000D03*
%TD*%
D34*
%TO.N,/~{USB_BOOT}*%
X7471400Y45085000D02*
X7471400Y46816000D01*
%TO.N,Shift_RCK*%
X15802810Y9941080D02*
X13731720Y9941080D01*
X16103600Y10241870D02*
X15802810Y9941080D01*
X16103600Y17037730D02*
X16103600Y10241870D01*
X16586200Y18592800D02*
X16586200Y17520330D01*
X17449800Y19456400D02*
X16586200Y18592800D01*
X17449800Y22275800D02*
X17449800Y19456400D01*
X15687400Y22463400D02*
X15687400Y23235000D01*
X15875000Y22275800D02*
X15687400Y22463400D01*
X17449800Y22275800D02*
X15875000Y22275800D01*
X13731720Y9941080D02*
X13614400Y10058400D01*
X16586200Y17520330D02*
X16103600Y17037730D01*
%TO.N,Shift_Data*%
X18542000Y10490200D02*
X17297400Y9245600D01*
X17659000Y23235000D02*
X18542000Y22352000D01*
X16087400Y23235000D02*
X17659000Y23235000D01*
X18542000Y22352000D02*
X18542000Y10490200D01*
D35*
%TO.N,+1V1*%
X19293889Y29961889D02*
X19278600Y29946600D01*
X19293889Y33490907D02*
X19293889Y29961889D01*
X19329400Y33526418D02*
X19293889Y33490907D01*
X19329400Y33909000D02*
X19329400Y33526418D01*
D34*
X19268889Y27193689D02*
X18694400Y26619200D01*
X19268889Y29913071D02*
X19268889Y27193689D01*
X18440400Y34798000D02*
X19329400Y33909000D01*
%TO.N,+3V3*%
X15646400Y28956000D02*
X16027400Y28575000D01*
X16027400Y28575000D02*
X16027400Y25654000D01*
D35*
%TO.N,GND*%
X10907889Y24390900D02*
X11222300Y24390900D01*
X11753166Y24111089D02*
X12408289Y24111089D01*
X11473355Y24390900D02*
X11753166Y24111089D01*
X11222300Y24390900D02*
X11473355Y24390900D01*
X10010751Y23746765D02*
X10578165Y23746765D01*
X8069329Y21805342D02*
X10010751Y23746765D01*
X8069329Y20468520D02*
X8069329Y21805342D01*
X8099320Y19041334D02*
X8099320Y20438528D01*
X10578165Y23746765D02*
X11222300Y24390900D01*
X7472986Y18415000D02*
X8099320Y19041334D01*
X8099320Y20438528D02*
X8069329Y20468520D01*
X6248400Y18415000D02*
X7472986Y18415000D01*
D34*
%TO.N,+3V3*%
X16998100Y14452600D02*
X18008600Y14452600D01*
D35*
%TO.N,GND*%
X11430000Y17145000D02*
X11252200Y17322800D01*
X12090400Y17145000D02*
X11430000Y17145000D01*
X11252200Y17322800D02*
X11252200Y18872800D01*
X13055600Y16179800D02*
X12090400Y17145000D01*
X11252200Y18872800D02*
X11963400Y19584000D01*
X15273100Y14452600D02*
X13639800Y14452600D01*
D34*
%TO.N,Net-(J5-Pad1)*%
X10185400Y12420600D02*
X10185400Y12065000D01*
X13795880Y16031080D02*
X10185400Y12420600D01*
X13795880Y16796472D02*
X13795880Y16031080D01*
X14249400Y17249993D02*
X13795880Y16796472D01*
X14630400Y21590000D02*
X14630400Y20193000D01*
X14249400Y19812000D02*
X14249400Y17249993D01*
X14487400Y23235000D02*
X14487400Y21733000D01*
X14487400Y21733000D02*
X14630400Y21590000D01*
X14630400Y20193000D02*
X14249400Y19812000D01*
%TO.N,Net-(J5-Pad3)*%
X12725400Y14452600D02*
X12725400Y12065000D01*
X14122400Y15849600D02*
X12725400Y14452600D01*
X14575920Y19676750D02*
X14575920Y17114743D01*
X14956920Y20057750D02*
X14575920Y19676750D01*
X14956920Y21725250D02*
X14956920Y20057750D01*
X14887400Y21794770D02*
X14956920Y21725250D01*
X14122400Y16661223D02*
X14122400Y15849600D01*
X14887400Y23235000D02*
X14887400Y21794770D01*
X14575920Y17114743D02*
X14122400Y16661223D01*
%TO.N,CHOD.FO{slash}~{NAST}*%
X7767809Y20061409D02*
X7626400Y19920000D01*
X8225920Y22424520D02*
X7767809Y21966409D01*
X8225920Y23567520D02*
X8225920Y22424520D01*
X8728400Y24070000D02*
X8225920Y23567520D01*
X7767809Y21966409D02*
X7767809Y20061409D01*
X7626400Y19920000D02*
X7137400Y19920000D01*
X10052400Y24070000D02*
X8728400Y24070000D01*
D36*
%TO.N,GND*%
X6248400Y18415000D02*
X6248400Y20447000D01*
X6248400Y15875000D02*
X6248400Y18415000D01*
D34*
%TO.N,PHASE*%
X9931400Y23241000D02*
X10881400Y23241000D01*
X8370849Y21680449D02*
X9931400Y23241000D01*
X10881400Y23241000D02*
X10887400Y23235000D01*
X8370849Y20593413D02*
X8370849Y21680449D01*
X8440160Y20524102D02*
X8370849Y20593413D01*
X8440160Y18955760D02*
X8440160Y20524102D01*
X7137400Y17653000D02*
X8440160Y18955760D01*
X7137400Y17075000D02*
X7137400Y17653000D01*
%TO.N,STROBE in*%
X11287400Y22806369D02*
X11287400Y23235000D01*
X11069511Y22588480D02*
X11287400Y22806369D01*
X8697369Y21545199D02*
X9740650Y22588480D01*
X9740650Y22588480D02*
X11069511Y22588480D01*
X8697369Y20728662D02*
X8697369Y21545199D01*
X8766680Y16488280D02*
X8766680Y20659350D01*
X7753400Y15475000D02*
X8766680Y16488280D01*
X8766680Y20659350D02*
X8697369Y20728662D01*
X7137400Y15475000D02*
X7753400Y15475000D01*
%TO.N,STROBE out*%
X6883400Y6223000D02*
X7137400Y5969000D01*
X6883400Y13208000D02*
X6883400Y6223000D01*
X9093200Y20794600D02*
X9093200Y15417800D01*
X9093200Y15417800D02*
X6883400Y13208000D01*
X9023889Y21409949D02*
X9023889Y20863911D01*
X9838940Y22225000D02*
X9023889Y21409949D01*
X11328400Y22225000D02*
X9838940Y22225000D01*
X9023889Y20863911D02*
X9093200Y20794600D01*
X11687400Y23235000D02*
X11687400Y22584000D01*
X11687400Y22584000D02*
X11328400Y22225000D01*
%TO.N,Shift_SRCK*%
X8940800Y13766800D02*
X8940800Y13563600D01*
X9550400Y14376400D02*
X8940800Y13766800D01*
X9550400Y21082000D02*
X9550400Y14376400D01*
%TO.N,GND*%
X15577119Y25139081D02*
X15036800Y25679400D01*
X15729612Y25139081D02*
X15577119Y25139081D01*
%TO.N,+3V3*%
X15511523Y24612570D02*
X15263900Y24860193D01*
X16256123Y24920992D02*
X15947701Y24612570D01*
X16256123Y25425277D02*
X16256123Y24920992D01*
X15947701Y24612570D02*
X15511523Y24612570D01*
X15263900Y24860193D02*
X15263900Y24893489D01*
X16027400Y25654000D02*
X16256123Y25425277D01*
X15263900Y24893489D02*
X13869889Y24893489D01*
D35*
%TO.N,~{CAL} out*%
X16503858Y24070000D02*
X16922400Y24070000D01*
X14109462Y24279520D02*
X16294338Y24279520D01*
X16294338Y24279520D02*
X16503858Y24070000D01*
X14061542Y24231600D02*
X14109462Y24279520D01*
X13442809Y24231600D02*
X14061542Y24231600D01*
X13290420Y24383989D02*
X13442809Y24231600D01*
D34*
%TO.N,GND*%
X15273100Y16669000D02*
X16129000Y17524900D01*
X15273100Y16611600D02*
X15273100Y16669000D01*
%TO.N,+3V3*%
X13635200Y9040500D02*
X15364000Y9040500D01*
X15364000Y9040500D02*
X16966100Y10642600D01*
%TO.N,GND*%
X11455400Y11582400D02*
X11455400Y12065000D01*
X12395200Y10642600D02*
X11455400Y11582400D01*
X15241100Y10642600D02*
X12395200Y10642600D01*
%TO.N,+3V3*%
X11125200Y9093200D02*
X8305800Y11912600D01*
X11125200Y9040500D02*
X11125200Y9093200D01*
X13635200Y9040500D02*
X11125200Y9040500D01*
X16998100Y10674600D02*
X16998100Y16611600D01*
X16966100Y10642600D02*
X16998100Y10674600D01*
%TO.N,SDA*%
X9677400Y8001000D02*
X11099800Y8001000D01*
X8305800Y9372600D02*
X9677400Y8001000D01*
%TO.N,~{GR}*%
X8751960Y30615250D02*
X8751960Y34834440D01*
X8751960Y34834440D02*
X7848600Y35737800D01*
X9278000Y30089210D02*
X8751960Y30615250D01*
X7848600Y35737800D02*
X7848600Y37996289D01*
X7137400Y39300000D02*
X7137400Y38500000D01*
X10052400Y28070000D02*
X9293400Y28070000D01*
X7848600Y37996289D02*
X7344889Y38500000D01*
X9293400Y28070000D02*
X9278000Y28085400D01*
X7344889Y38500000D02*
X7137400Y38500000D01*
X9278000Y28085400D02*
X9278000Y30089210D01*
%TO.N,EOSC*%
X8951480Y27776920D02*
X8951480Y29953960D01*
X10052400Y27670000D02*
X9058400Y27670000D01*
X8425440Y34652960D02*
X7137400Y35941000D01*
X9058400Y27670000D02*
X8951480Y27776920D01*
X8951480Y29953960D02*
X8425440Y30480000D01*
X8425440Y30480000D02*
X8425440Y34652960D01*
X7137400Y37700000D02*
X7137400Y36900000D01*
X7137400Y35941000D02*
X7137400Y36900000D01*
%TO.N,Z*%
X8823400Y27270000D02*
X8624960Y27468440D01*
X10052400Y27270000D02*
X8823400Y27270000D01*
X8098920Y32947480D02*
X7899400Y33147000D01*
X8624960Y29699960D02*
X8098920Y30226000D01*
X8098920Y30226000D02*
X8098920Y32947480D01*
X8624960Y27468440D02*
X8624960Y29699960D01*
X7753400Y34055000D02*
X7137400Y34055000D01*
X7137400Y34855000D02*
X7137400Y34055000D01*
X7899400Y33909000D02*
X7753400Y34055000D01*
X7899400Y33147000D02*
X7899400Y33909000D01*
%TO.N,~{LST}{slash}LSP*%
X8298440Y27113730D02*
X8298440Y29445960D01*
X8542170Y26870000D02*
X8298440Y27113730D01*
X10052400Y26870000D02*
X8542170Y26870000D01*
X7772400Y32512000D02*
X7194400Y32512000D01*
X7137400Y33255000D02*
X7137400Y32455000D01*
X7194400Y32512000D02*
X7137400Y32455000D01*
X7772400Y29972000D02*
X7772400Y32512000D01*
X8298440Y29445960D02*
X7772400Y29972000D01*
%TO.N,~{DO}{slash}RY*%
X7137400Y30410000D02*
X7137400Y29610000D01*
X8480400Y26470000D02*
X7971920Y26978480D01*
X7518400Y29591000D02*
X7971920Y29137480D01*
X7971920Y26978480D02*
X7971920Y29137480D01*
X10052400Y26470000D02*
X8480400Y26470000D01*
%TO.N,MC 0*%
X7448400Y28010000D02*
X7137400Y28010000D01*
X7137400Y28810000D02*
X7137400Y28010000D01*
X7645400Y26543000D02*
X7645400Y27813000D01*
X7645400Y27813000D02*
X7448400Y28010000D01*
X10052400Y26070000D02*
X8118400Y26070000D01*
X8118400Y26070000D02*
X7645400Y26543000D01*
%TO.N,MC 1*%
X7137400Y25965000D02*
X7137400Y25165000D01*
X7242400Y25270000D02*
X7137400Y25165000D01*
X10052400Y25270000D02*
X7242400Y25270000D01*
%TO.N,SST{slash}SSP*%
X7880400Y24365000D02*
X7137400Y24365000D01*
X8385400Y24870000D02*
X7880400Y24365000D01*
X7137400Y24365000D02*
X7137400Y23565000D01*
X10052400Y24870000D02*
X8385400Y24870000D01*
%TO.N,NUL{slash}LAP{slash}LAP*%
X7137400Y21520000D02*
X7137400Y20720000D01*
X8447170Y24470000D02*
X7899400Y23922230D01*
X7899400Y23922230D02*
X7899400Y22860000D01*
X7899400Y22860000D02*
X7137400Y22098000D01*
X7137400Y22098000D02*
X7137400Y21520000D01*
X10052400Y24470000D02*
X8447170Y24470000D01*
%TO.N,CHOD.FO{slash}~{NAST}*%
X7137400Y19920000D02*
X7137400Y19120000D01*
%TO.N,PHASE*%
X7137400Y17075000D02*
X7137400Y16275000D01*
%TO.N,STROBE*%
X5337400Y5566000D02*
X5337400Y14675000D01*
X4851400Y5080000D02*
X5337400Y5566000D01*
X2565400Y5080000D02*
X4851400Y5080000D01*
%TO.N,GND*%
X17424400Y44958000D02*
X17424400Y43688000D01*
X12090400Y43307000D02*
X12090400Y44450000D01*
X12090400Y20320000D02*
X11963400Y20193000D01*
X17424400Y43688000D02*
X17678400Y43434000D01*
X16715400Y34798000D02*
X17416920Y35499520D01*
D36*
X5105400Y2540000D02*
X6248400Y3683000D01*
D34*
X6226400Y33677000D02*
X6248400Y33655000D01*
X11963400Y20193000D02*
X11963400Y19584000D01*
D36*
X6248400Y9398000D02*
X6248400Y15875000D01*
X6248400Y20447000D02*
X6248400Y24638000D01*
X6248400Y35814000D02*
X6248400Y38100000D01*
D34*
X6226400Y15897000D02*
X6248400Y15875000D01*
X5337400Y33677000D02*
X6226400Y33677000D01*
D36*
X5740400Y43307000D02*
X5994400Y43561000D01*
D34*
X18440400Y43434000D02*
X19075400Y42799000D01*
X5337400Y24365000D02*
X5337400Y24787000D01*
X5337400Y37700000D02*
X5337400Y38122000D01*
X12725400Y42672000D02*
X12090400Y43307000D01*
X16715400Y33348000D02*
X16588400Y33221000D01*
X15241100Y16579600D02*
X15273100Y16611600D01*
X12471400Y45593000D02*
X16789400Y45593000D01*
X15241100Y10642600D02*
X15241100Y16579600D01*
X5337400Y20342000D02*
X6143400Y20342000D01*
D36*
X5740400Y40767000D02*
X5740400Y43307000D01*
D34*
X5337400Y15897000D02*
X5337400Y15475000D01*
X16154400Y33221000D02*
X16588400Y33221000D01*
X12487400Y21352000D02*
X12090400Y20955000D01*
X17416920Y35499520D02*
X17416920Y35552520D01*
X12487400Y23235000D02*
X12487400Y25670000D01*
X5337400Y24787000D02*
X5337400Y25165000D01*
X17533360Y35668960D02*
X18422360Y35668960D01*
X5337400Y29232000D02*
X5337400Y28810000D01*
X16129000Y19883600D02*
X16129000Y17524900D01*
X18422360Y35668960D02*
X19075400Y36322000D01*
X6226400Y38122000D02*
X6248400Y38100000D01*
D36*
X6248400Y24638000D02*
X6248400Y29210000D01*
D34*
X17416920Y35552520D02*
X17533360Y35668960D01*
X16789400Y45593000D02*
X17424400Y44958000D01*
X5337400Y15897000D02*
X6226400Y15897000D01*
X12090400Y44450000D02*
X12090400Y45212000D01*
X8885400Y49530000D02*
X10185400Y49530000D01*
X6143400Y20342000D02*
X6248400Y20447000D01*
X9423400Y37084000D02*
X9423400Y35814000D01*
X6099400Y24787000D02*
X6248400Y24638000D01*
D36*
X6248400Y3683000D02*
X6248400Y9398000D01*
D34*
X16588400Y33221000D02*
X18618200Y33221000D01*
X12487400Y25670000D02*
X13487400Y26670000D01*
X12090400Y20955000D02*
X12090400Y20320000D01*
X5337400Y20720000D02*
X5337400Y20342000D01*
D36*
X6248400Y38100000D02*
X6248400Y40259000D01*
D34*
X19075400Y42799000D02*
X19075400Y36322000D01*
X5337400Y33677000D02*
X5337400Y33255000D01*
X5337400Y38122000D02*
X6226400Y38122000D01*
X17678400Y43434000D02*
X18440400Y43434000D01*
X5337400Y24787000D02*
X6099400Y24787000D01*
X12487400Y23235000D02*
X12487400Y21352000D01*
D36*
X6248400Y33655000D02*
X6248400Y35814000D01*
D34*
X6226400Y29232000D02*
X6248400Y29210000D01*
X5337400Y20342000D02*
X5337400Y19920000D01*
X5337400Y16275000D02*
X5337400Y15897000D01*
D36*
X6248400Y40259000D02*
X5740400Y40767000D01*
D34*
X7518400Y48163000D02*
X8885400Y49530000D01*
X16715400Y34798000D02*
X16715400Y33348000D01*
D36*
X6248400Y29210000D02*
X6248400Y33655000D01*
D34*
X5337400Y34055000D02*
X5337400Y33677000D01*
D36*
X2565400Y2540000D02*
X5105400Y2540000D01*
D34*
X12090400Y45212000D02*
X12471400Y45593000D01*
X5337400Y29610000D02*
X5337400Y29232000D01*
X5337400Y38122000D02*
X5337400Y38500000D01*
X5337400Y29232000D02*
X6226400Y29232000D01*
%TO.N,+1V1*%
X17399000Y30759400D02*
X17399000Y31498200D01*
X13614400Y29337000D02*
X13287400Y29664000D01*
X13287400Y29664000D02*
X13287400Y30105000D01*
X15138400Y29337000D02*
X13614400Y29337000D01*
D35*
X14224000Y24003000D02*
X16179800Y24003000D01*
D34*
X16156600Y31498200D02*
X16154400Y31496000D01*
D35*
X18821400Y26492200D02*
X18694400Y26619200D01*
X14087400Y23235000D02*
X14087400Y23866400D01*
X16179800Y24003000D02*
X16586200Y23596600D01*
X17678400Y27635200D02*
X17678400Y30480000D01*
X17729200Y23596600D02*
X18211800Y24079200D01*
D34*
X15287400Y30105000D02*
X15287400Y30756000D01*
D35*
X16586200Y23596600D02*
X17729200Y23596600D01*
D34*
X15287400Y29486000D02*
X15138400Y29337000D01*
D35*
X18821400Y25603200D02*
X18821400Y26492200D01*
D34*
X17399000Y31498200D02*
X16156600Y31498200D01*
D35*
X18694400Y26619200D02*
X17678400Y27635200D01*
D34*
X15287400Y30105000D02*
X15287400Y29486000D01*
X17678400Y30480000D02*
X17399000Y30759400D01*
D35*
X14087400Y23866400D02*
X14224000Y24003000D01*
D34*
X15287400Y30756000D02*
X16027400Y31496000D01*
%TO.N,Shift_SRCK*%
X9550400Y21082000D02*
X10185400Y21717000D01*
X11709400Y21717000D02*
X12087400Y22095000D01*
X10185400Y21717000D02*
X11709400Y21717000D01*
X12087400Y22095000D02*
X12087400Y23235000D01*
%TO.N,Net-(J4-Pad2)*%
X17424400Y42164000D02*
X18059400Y41529000D01*
X13360400Y43307000D02*
X14503400Y42164000D01*
X14757400Y36322000D02*
X13360400Y34925000D01*
X17805400Y36322000D02*
X14757400Y36322000D01*
X14503400Y42164000D02*
X17424400Y42164000D01*
X13360400Y44450000D02*
X13360400Y43307000D01*
X13360400Y34925000D02*
X13360400Y34337000D01*
X18059400Y36576000D02*
X17805400Y36322000D01*
X18059400Y41529000D02*
X18059400Y36576000D01*
D37*
%TO.N,D-*%
X14893800Y31138970D02*
X14893800Y30111400D01*
X14630400Y32488500D02*
X14210351Y32068451D01*
X14893800Y30111400D02*
X14887400Y30105000D01*
X14210351Y31822419D02*
X14893800Y31138970D01*
X14210351Y32068451D02*
X14210351Y31822419D01*
%TO.N,D+*%
X14487400Y30970630D02*
X14487400Y30105000D01*
X13360400Y32512000D02*
X13803949Y32068451D01*
X13803949Y31654081D02*
X14487400Y30970630D01*
X13803949Y32068451D02*
X13803949Y31654081D01*
D34*
%TO.N,Net-(J1-Pad6)*%
X4089400Y32258000D02*
X5337400Y31010000D01*
X2565400Y37465000D02*
X4089400Y35941000D01*
X4089400Y35941000D02*
X4089400Y32258000D01*
X2565400Y38100000D02*
X2565400Y37465000D01*
X5337400Y31010000D02*
X5337400Y30410000D01*
%TO.N,Net-(J1-Pad14)*%
X3641911Y18856511D02*
X3641911Y20934742D01*
X4034920Y21782312D02*
X4034920Y25218520D01*
X3641911Y20934742D02*
X3962400Y21255231D01*
X4781400Y25965000D02*
X5337400Y25965000D01*
X3962400Y21709791D02*
X4034920Y21782312D01*
X3962400Y21255231D02*
X3962400Y21709791D01*
X4034920Y25218520D02*
X4781400Y25965000D01*
X2565400Y17780000D02*
X3641911Y18856511D01*
%TO.N,Net-(J1-Pad15)*%
X5337400Y23565000D02*
X5337400Y22623022D01*
X4470400Y21756022D02*
X4470400Y21264770D01*
X3490840Y16165440D02*
X2565400Y15240000D01*
X4470400Y21264770D02*
X4089400Y20883770D01*
X4089400Y20883770D02*
X4089400Y17814540D01*
X4089400Y17814540D02*
X3490840Y17215980D01*
X3490840Y17215980D02*
X3490840Y16165440D01*
X5337400Y22623022D02*
X4470400Y21756022D01*
%TO.N,Net-(J1-Pad2)*%
X4978400Y40259000D02*
X5337400Y39900000D01*
X4978400Y45847000D02*
X4978400Y40259000D01*
X2565400Y48260000D02*
X4978400Y45847000D01*
X5337400Y39900000D02*
X5337400Y39300000D01*
%TO.N,Net-(J1-Pad3)*%
X2565400Y45720000D02*
X4343400Y45720000D01*
X4343400Y45720000D02*
X4597400Y45466000D01*
X4597400Y45466000D02*
X4597400Y37084000D01*
X4781400Y36900000D02*
X5337400Y36900000D01*
X4597400Y37084000D02*
X4781400Y36900000D01*
%TO.N,Net-(J1-Pad4)*%
X3327400Y43180000D02*
X4216400Y42291000D01*
X4216400Y42291000D02*
X4216400Y36957000D01*
X2565400Y43180000D02*
X3327400Y43180000D01*
X5337400Y35836000D02*
X5337400Y34855000D01*
X4216400Y36957000D02*
X5337400Y35836000D01*
%TO.N,Net-(J1-Pad5)*%
X3762880Y36830000D02*
X3762880Y39442520D01*
X4597400Y32766000D02*
X4597400Y35995480D01*
X3762880Y39442520D02*
X2565400Y40640000D01*
X5337400Y32455000D02*
X4908400Y32455000D01*
X4908400Y32455000D02*
X4597400Y32766000D01*
X4597400Y35995480D02*
X3762880Y36830000D01*
%TO.N,Net-(J1-Pad13)*%
X2565400Y20320000D02*
X3635880Y21390480D01*
X3635880Y21845041D02*
X3708400Y21917561D01*
X3708400Y26381000D02*
X5337400Y28010000D01*
X3708400Y21917561D02*
X3708400Y26381000D01*
X3635880Y21390480D02*
X3635880Y21845041D01*
%TO.N,Net-(J1-Pad16)*%
X4415920Y20748520D02*
X5187400Y21520000D01*
X4415920Y17679290D02*
X4415920Y20748520D01*
X2565400Y12700000D02*
X3817360Y13951960D01*
X3817360Y17080730D02*
X4415920Y17679290D01*
X5187400Y21520000D02*
X5337400Y21520000D01*
X3817360Y13951960D02*
X3817360Y17080730D01*
%TO.N,Net-(J1-Pad17)*%
X5337400Y18139000D02*
X5337400Y19120000D01*
X3835400Y10160000D02*
X4143880Y10468480D01*
X2565400Y10160000D02*
X3835400Y10160000D01*
X4143880Y10468480D02*
X4143880Y16945480D01*
X4143880Y16945480D02*
X5337400Y18139000D01*
%TO.N,Net-(J1-Pad18)*%
X3962400Y7620000D02*
X2565400Y7620000D01*
X4781400Y17075000D02*
X4470400Y16764000D01*
X4470400Y16764000D02*
X4470400Y8128000D01*
X5337400Y17075000D02*
X4781400Y17075000D01*
X4470400Y8128000D02*
X3962400Y7620000D01*
%TO.N,Net-(J4-Pad3)*%
X15138400Y42799000D02*
X18186400Y42799000D01*
X18694400Y42291000D02*
X18694400Y36449000D01*
X14630400Y44450000D02*
X14630400Y43307000D01*
X18694400Y36449000D02*
X18240880Y35995480D01*
X14630400Y43307000D02*
X15138400Y42799000D01*
X16312380Y35995480D02*
X14630400Y34313500D01*
X18186400Y42799000D02*
X18694400Y42291000D01*
X18240880Y35995480D02*
X16312380Y35995480D01*
%TO.N,+3V3*%
X15331920Y32930703D02*
X15331920Y32699480D01*
X15706400Y29270000D02*
X15687400Y29251000D01*
D38*
X7471400Y41322000D02*
X7518400Y41275000D01*
D34*
X11201400Y28956000D02*
X11201400Y25908000D01*
D35*
X13687400Y21083000D02*
X13815400Y20955000D01*
D34*
X8407400Y45720000D02*
X8407400Y44069000D01*
X10947400Y41529000D02*
X10947400Y42619000D01*
X15646400Y32385000D02*
X18313400Y32385000D01*
X10693400Y45847000D02*
X10439400Y46101000D01*
X18618200Y32080200D02*
X18618200Y31496000D01*
X15646400Y28956000D02*
X11201400Y28956000D01*
X13613400Y20753000D02*
X13815400Y20955000D01*
X15687400Y29251000D02*
X15687400Y30105000D01*
X16922400Y29270000D02*
X15706400Y29270000D01*
X12471400Y32131000D02*
X12471400Y33147000D01*
X15331920Y32699480D02*
X15646400Y32385000D01*
X11201400Y29210000D02*
X10112400Y29210000D01*
X18618200Y27711400D02*
X18719800Y27609800D01*
D35*
X13687400Y23235000D02*
X13687400Y21083000D01*
D34*
X15687400Y30105000D02*
X16087400Y30105000D01*
X15646400Y29210000D02*
X15646400Y28956000D01*
X10947400Y25654000D02*
X10068400Y25654000D01*
X11201400Y29210000D02*
X11201400Y28956000D01*
X13687400Y30105000D02*
X14087400Y30105000D01*
X10693400Y42979000D02*
X10693400Y45847000D01*
D35*
X13557111Y23882489D02*
X12947511Y23882489D01*
D34*
X8153400Y43815000D02*
X7772400Y43815000D01*
D35*
X12788920Y24041080D02*
X12788920Y24701520D01*
D34*
X15325880Y32936743D02*
X15331920Y32930703D01*
X13233400Y31623000D02*
X12979400Y31623000D01*
X15138400Y33401000D02*
X15325880Y33213520D01*
X16723400Y40894000D02*
X15900400Y40894000D01*
D35*
X13687400Y23752200D02*
X13557111Y23882489D01*
D34*
X17567400Y25670000D02*
X18059400Y26162000D01*
D35*
X12947511Y23882489D02*
X12788920Y24041080D01*
D34*
X8407400Y44069000D02*
X8153400Y43815000D01*
D35*
X13687400Y23235000D02*
X13687400Y23752200D01*
D34*
X18059400Y26162000D02*
X18059400Y26543000D01*
X11000400Y42672000D02*
X10693400Y42979000D01*
X16922400Y25670000D02*
X17567400Y25670000D01*
X11201400Y25908000D02*
X10947400Y25654000D01*
X14087400Y30105000D02*
X14087400Y30769000D01*
X15325880Y33213520D02*
X15325880Y32936743D01*
X12471400Y33147000D02*
X12725400Y33401000D01*
D38*
X7471400Y42672000D02*
X7471400Y41322000D01*
X7772400Y43815000D02*
X7772400Y42973000D01*
D35*
X13861911Y24885511D02*
X13869889Y24893489D01*
D34*
X15646400Y29210000D02*
X15687400Y29251000D01*
X16027400Y25654000D02*
X16906400Y25654000D01*
X15265400Y41529000D02*
X10947400Y41529000D01*
X15900400Y40894000D02*
X15265400Y41529000D01*
X16906400Y25654000D02*
X16922400Y25670000D01*
X18313400Y32385000D02*
X18618200Y32080200D01*
X10112400Y29210000D02*
X10052400Y29270000D01*
X18618200Y31496000D02*
X18618200Y27711400D01*
X13613400Y18034000D02*
X13613400Y20753000D01*
X10439400Y46101000D02*
X8788400Y46101000D01*
X10068400Y25654000D02*
X10052400Y25670000D01*
D38*
X7772400Y42973000D02*
X7471400Y42672000D01*
D34*
X8788400Y46101000D02*
X8407400Y45720000D01*
X10947400Y42619000D02*
X11000400Y42672000D01*
X12979400Y31623000D02*
X12471400Y32131000D01*
D35*
X12972911Y24885511D02*
X13861911Y24885511D01*
D34*
X12725400Y33401000D02*
X15138400Y33401000D01*
X14087400Y30769000D02*
X13233400Y31623000D01*
D35*
X12788920Y24701520D02*
X12972911Y24885511D01*
%TO.N,QSPI_CSN*%
X10787280Y37101680D02*
X10787280Y30205120D01*
D34*
X9296400Y42672000D02*
X9296400Y41021000D01*
D35*
X10922000Y37236400D02*
X10787280Y37101680D01*
X10787280Y30205120D02*
X10887400Y30105000D01*
X11176000Y40690800D02*
X10972800Y40894000D01*
D34*
X9296400Y41021000D02*
X9423400Y40894000D01*
X9296400Y45085000D02*
X9296400Y42672000D01*
D35*
X10972800Y40894000D02*
X9423400Y40894000D01*
%TO.N,QSPI_SD3*%
X14503400Y37058600D02*
X14503400Y38989000D01*
X12169880Y34725080D02*
X14503400Y37058600D01*
X12887400Y30105000D02*
X12887400Y31288586D01*
X12169880Y32006106D02*
X12169880Y34725080D01*
X15138400Y39624000D02*
X16723400Y39624000D01*
X12887400Y31288586D02*
X12169880Y32006106D01*
X14503400Y38989000D02*
X15138400Y39624000D01*
%TO.N,QSPI_SCLK*%
X12487400Y30105000D02*
X12487400Y31297528D01*
X11893360Y34839618D02*
X13944600Y36890858D01*
X11893360Y31891568D02*
X11893360Y34839618D01*
X16723400Y38354000D02*
X15138400Y38354000D01*
X12487400Y31297528D02*
X11893360Y31891568D01*
X13944600Y36890858D02*
X13944600Y38354000D01*
%TO.N,QSPI_SD0*%
X12087400Y31306470D02*
X11616840Y31777030D01*
X16723400Y37084000D02*
X15138400Y37084000D01*
X11616840Y35391240D02*
X13309600Y37084000D01*
X11616840Y31777030D02*
X11616840Y35391240D01*
X12087400Y30105000D02*
X12087400Y31306470D01*
%TO.N,QSPI_SD2*%
X11340320Y36156120D02*
X12420600Y37236400D01*
X11687400Y31315412D02*
X11340320Y31662492D01*
X11303000Y38354000D02*
X9423400Y38354000D01*
X11687400Y30105000D02*
X11687400Y31315412D01*
X12420600Y37236400D02*
X11303000Y38354000D01*
X11340320Y31662492D02*
X11340320Y36156120D01*
%TO.N,QSPI_SD1*%
X11287400Y31324354D02*
X11063800Y31547954D01*
X11063800Y36474400D02*
X11074400Y36474400D01*
X11063800Y31547954D02*
X11063800Y36474400D01*
X11074400Y36474400D02*
X11709400Y37109400D01*
X11734800Y39624000D02*
X9423400Y39624000D01*
X11287400Y30105000D02*
X11287400Y31324354D01*
X11709400Y37109400D02*
X11709400Y37236400D01*
D34*
%TO.N,STROBE in*%
X7137400Y14675000D02*
X7137400Y15475000D01*
%TO.N,Net-(JP1-Pad2)*%
X15287400Y22025200D02*
X16129000Y21183600D01*
X15287400Y23235000D02*
X15287400Y22025200D01*
%TO.N,XIN*%
X12887400Y23235000D02*
X12887400Y18958000D01*
X12887400Y18958000D02*
X11963400Y18034000D01*
%TO.N,SDA*%
X11125200Y7975600D02*
X11099800Y8001000D01*
X18364200Y8001000D02*
X18875880Y8512680D01*
X11099800Y8001000D02*
X18364200Y8001000D01*
X11125200Y7215500D02*
X11125200Y7975600D01*
X18875880Y24202520D02*
X18208400Y24870000D01*
X18208400Y24870000D02*
X16922400Y24870000D01*
X18875880Y8512680D02*
X18875880Y24202520D01*
%TO.N,SCL*%
X8737600Y6400800D02*
X8407400Y6731000D01*
X18410000Y25270000D02*
X19202400Y24477600D01*
X16922400Y25270000D02*
X18410000Y25270000D01*
X13438500Y7215500D02*
X12623800Y6400800D01*
X19202400Y8204200D02*
X18213700Y7215500D01*
X19202400Y24477600D02*
X19202400Y8204200D01*
X18213700Y7215500D02*
X13635200Y7215500D01*
X13635200Y7215500D02*
X13438500Y7215500D01*
X12623800Y6400800D02*
X8737600Y6400800D01*
%TD*%
%TA.AperFunction,Conductor*%
%TO.N,GND*%
G36*
X9250792Y52811998D02*
G01*
X9297285Y52758342D01*
X9307389Y52688068D01*
X9293507Y52646072D01*
X9207816Y52487590D01*
X9207814Y52487585D01*
X9204886Y52482170D01*
X9143502Y52283871D01*
X9142858Y52277746D01*
X9142858Y52277745D01*
X9124573Y52103767D01*
X9121804Y52077425D01*
X9140618Y51870697D01*
X9142356Y51864791D01*
X9142357Y51864787D01*
X9156826Y51815627D01*
X9199227Y51671560D01*
X9295399Y51487600D01*
X9410603Y51344316D01*
X9411700Y51342951D01*
X9438796Y51277329D01*
X9426113Y51207474D01*
X9377677Y51155566D01*
X9313503Y51137999D01*
X9040731Y51137999D01*
X9033910Y51137629D01*
X8983048Y51132105D01*
X8967796Y51128479D01*
X8847346Y51083324D01*
X8831751Y51074786D01*
X8729676Y50998285D01*
X8717115Y50985724D01*
X8640614Y50883649D01*
X8632076Y50868054D01*
X8586922Y50747606D01*
X8583295Y50732351D01*
X8577769Y50681486D01*
X8577400Y50674672D01*
X8577400Y49802115D01*
X8581875Y49786876D01*
X8583265Y49785671D01*
X8590948Y49784000D01*
X10313400Y49784000D01*
X10381521Y49763998D01*
X10428014Y49710342D01*
X10439400Y49658000D01*
X10439400Y47940116D01*
X10443875Y47924877D01*
X10445265Y47923672D01*
X10452948Y47922001D01*
X11330069Y47922001D01*
X11336890Y47922371D01*
X11387752Y47927895D01*
X11403004Y47931521D01*
X11523454Y47976676D01*
X11539049Y47985214D01*
X11641124Y48061715D01*
X11653685Y48074276D01*
X11700925Y48137308D01*
X11757784Y48179823D01*
X11828603Y48184849D01*
X11867586Y48169175D01*
X11988668Y48094975D01*
X11988678Y48094970D01*
X11992898Y48092384D01*
X11997468Y48090491D01*
X11997472Y48090489D01*
X12222236Y47997389D01*
X12226809Y47995495D01*
X12311432Y47975179D01*
X12468184Y47937546D01*
X12468190Y47937545D01*
X12472997Y47936391D01*
X12725400Y47916526D01*
X12977803Y47936391D01*
X12982610Y47937545D01*
X12982616Y47937546D01*
X13139368Y47975179D01*
X13223991Y47995495D01*
X13228564Y47997389D01*
X13453328Y48090489D01*
X13453332Y48090491D01*
X13457902Y48092384D01*
X13673776Y48224672D01*
X13866298Y48389102D01*
X14030728Y48581624D01*
X14163016Y48797498D01*
X14205230Y48899410D01*
X14258011Y49026836D01*
X14258012Y49026838D01*
X14259905Y49031409D01*
X14281558Y49121599D01*
X14317854Y49272784D01*
X14317855Y49272790D01*
X14319009Y49277597D01*
X14338874Y49530000D01*
X14319009Y49782403D01*
X14309321Y49822760D01*
X14268927Y49991010D01*
X14259905Y50028591D01*
X14258011Y50033164D01*
X14164911Y50257928D01*
X14164909Y50257932D01*
X14163016Y50262502D01*
X14030728Y50478376D01*
X13866298Y50670898D01*
X13673776Y50835328D01*
X13457902Y50967616D01*
X13453332Y50969509D01*
X13453328Y50969511D01*
X13383860Y50998285D01*
X13381336Y50999330D01*
X13326056Y51043878D01*
X13303635Y51111241D01*
X13321193Y51180033D01*
X13349919Y51213382D01*
X13470089Y51311390D01*
X13470092Y51311393D01*
X13474864Y51315285D01*
X13497752Y51342951D01*
X13603255Y51470482D01*
X13607183Y51475230D01*
X13611276Y51482799D01*
X13702984Y51652410D01*
X13702986Y51652415D01*
X13705914Y51657830D01*
X13767298Y51856129D01*
X13768829Y51870697D01*
X13788352Y52056446D01*
X13788352Y52056448D01*
X13788996Y52062575D01*
X13770182Y52269303D01*
X13767698Y52277745D01*
X13713312Y52462531D01*
X13711573Y52468440D01*
X13617897Y52647626D01*
X13604063Y52717260D01*
X13630073Y52783321D01*
X13687669Y52824833D01*
X13729559Y52832000D01*
X22251400Y52832000D01*
X22319521Y52811998D01*
X22366014Y52758342D01*
X22377400Y52706000D01*
X22377400Y634000D01*
X22357398Y565879D01*
X22303742Y519386D01*
X22251400Y508000D01*
X9285756Y508000D01*
X9217635Y528002D01*
X9171142Y581658D01*
X9161038Y651932D01*
X9190532Y716512D01*
X9196816Y723250D01*
X9339852Y865788D01*
X9346530Y873635D01*
X9470803Y1046580D01*
X9476113Y1055417D01*
X9570470Y1246333D01*
X9574269Y1255928D01*
X9636177Y1459690D01*
X9638355Y1469763D01*
X9639786Y1480638D01*
X9637575Y1494822D01*
X9624417Y1498600D01*
X6989025Y1498600D01*
X6975494Y1494627D01*
X6974057Y1484634D01*
X7004365Y1350154D01*
X7007445Y1340325D01*
X7087570Y1142997D01*
X7092213Y1133806D01*
X7203494Y952212D01*
X7209577Y943901D01*
X7349013Y782933D01*
X7356380Y775717D01*
X7410310Y730944D01*
X7449945Y672041D01*
X7451443Y601061D01*
X7414328Y540538D01*
X7350384Y509689D01*
X7329825Y508000D01*
X659400Y508000D01*
X591279Y528002D01*
X544786Y581658D01*
X533400Y634000D01*
X533400Y2272034D01*
X1233657Y2272034D01*
X1263965Y2137554D01*
X1267045Y2127725D01*
X1347170Y1930397D01*
X1351813Y1921206D01*
X1463094Y1739612D01*
X1469177Y1731301D01*
X1608613Y1570333D01*
X1615980Y1563117D01*
X1779834Y1427084D01*
X1788281Y1421169D01*
X1972156Y1313721D01*
X1981442Y1309271D01*
X2180401Y1233297D01*
X2190299Y1230421D01*
X2293650Y1209394D01*
X2307699Y1210590D01*
X2311400Y1220935D01*
X2311400Y1221483D01*
X2819400Y1221483D01*
X2823464Y1207641D01*
X2836878Y1205607D01*
X2843584Y1206466D01*
X2853662Y1208608D01*
X3057655Y1269809D01*
X3067242Y1273567D01*
X3258495Y1367261D01*
X3267345Y1372536D01*
X3440728Y1496208D01*
X3448600Y1502861D01*
X3599452Y1653188D01*
X3606130Y1661035D01*
X3730403Y1833980D01*
X3735713Y1842817D01*
X3822500Y2018417D01*
X6970189Y2018417D01*
X6971712Y2009993D01*
X6984092Y2006600D01*
X8033685Y2006600D01*
X8048924Y2011075D01*
X8050129Y2012465D01*
X8051800Y2020148D01*
X8051800Y2024715D01*
X8559800Y2024715D01*
X8564275Y2009476D01*
X8565665Y2008271D01*
X8573348Y2006600D01*
X9624144Y2006600D01*
X9637675Y2010573D01*
X9638980Y2019653D01*
X9597014Y2186725D01*
X9593694Y2196476D01*
X9508772Y2391786D01*
X9503905Y2400861D01*
X9388226Y2579674D01*
X9381936Y2587843D01*
X9238606Y2745360D01*
X9231073Y2752385D01*
X9063939Y2884378D01*
X9055352Y2890083D01*
X9017916Y2910749D01*
X8967946Y2961181D01*
X8953174Y3030624D01*
X8978290Y3097029D01*
X9005642Y3123636D01*
X9181127Y3248808D01*
X9189000Y3255461D01*
X9339852Y3405788D01*
X9346530Y3413635D01*
X9470803Y3586580D01*
X9476113Y3595417D01*
X9570470Y3786333D01*
X9574269Y3795928D01*
X9636177Y3999690D01*
X9638355Y4009763D01*
X9639786Y4020638D01*
X9637575Y4034822D01*
X9624417Y4038600D01*
X8577915Y4038600D01*
X8562676Y4034125D01*
X8561471Y4032735D01*
X8559800Y4025052D01*
X8559800Y2024715D01*
X8051800Y2024715D01*
X8051800Y4020485D01*
X8047325Y4035724D01*
X8045935Y4036929D01*
X8038252Y4038600D01*
X6989025Y4038600D01*
X6975494Y4034627D01*
X6974057Y4024634D01*
X7004365Y3890154D01*
X7007445Y3880325D01*
X7087570Y3682997D01*
X7092213Y3673806D01*
X7203494Y3492212D01*
X7209577Y3483901D01*
X7349013Y3322933D01*
X7356380Y3315717D01*
X7520234Y3179684D01*
X7528681Y3173769D01*
X7598279Y3133099D01*
X7647003Y3081460D01*
X7660074Y3011677D01*
X7633343Y2945906D01*
X7592887Y2912547D01*
X7584262Y2908058D01*
X7575538Y2902564D01*
X7405233Y2774695D01*
X7397526Y2767852D01*
X7250390Y2613883D01*
X7243904Y2605873D01*
X7123898Y2429951D01*
X7118800Y2420977D01*
X7029138Y2227817D01*
X7025575Y2218130D01*
X6970189Y2018417D01*
X3822500Y2018417D01*
X3830070Y2033733D01*
X3833869Y2043328D01*
X3895777Y2247090D01*
X3897955Y2257163D01*
X3899386Y2268038D01*
X3897175Y2282222D01*
X3884017Y2286000D01*
X2837515Y2286000D01*
X2822276Y2281525D01*
X2821071Y2280135D01*
X2819400Y2272452D01*
X2819400Y1221483D01*
X2311400Y1221483D01*
X2311400Y2267885D01*
X2306925Y2283124D01*
X2305535Y2284329D01*
X2297852Y2286000D01*
X1248625Y2286000D01*
X1235094Y2282027D01*
X1233657Y2272034D01*
X533400Y2272034D01*
X533400Y5113305D01*
X1202651Y5113305D01*
X1202948Y5108152D01*
X1202948Y5108149D01*
X1210651Y4974559D01*
X1215510Y4890285D01*
X1216647Y4885239D01*
X1216648Y4885233D01*
X1236519Y4797061D01*
X1264622Y4672361D01*
X1314075Y4550573D01*
X1346183Y4471500D01*
X1348666Y4465384D01*
X1465387Y4274912D01*
X1611650Y4106062D01*
X1783526Y3963368D01*
X1844596Y3927682D01*
X1857355Y3920226D01*
X1906079Y3868588D01*
X1919150Y3798805D01*
X1892419Y3733033D01*
X1851962Y3699673D01*
X1843857Y3695454D01*
X1835138Y3689964D01*
X1664833Y3562095D01*
X1657126Y3555252D01*
X1509990Y3401283D01*
X1503504Y3393273D01*
X1383498Y3217351D01*
X1378400Y3208377D01*
X1288738Y3015217D01*
X1285175Y3005530D01*
X1229789Y2805817D01*
X1231312Y2797393D01*
X1243692Y2794000D01*
X3883744Y2794000D01*
X3897275Y2797973D01*
X3898580Y2807053D01*
X3856614Y2974125D01*
X3853294Y2983876D01*
X3768372Y3179186D01*
X3763505Y3188261D01*
X3647826Y3367074D01*
X3641536Y3375243D01*
X3498206Y3532760D01*
X3490673Y3539785D01*
X3323539Y3671778D01*
X3314956Y3677480D01*
X3278002Y3697880D01*
X3228031Y3748313D01*
X3213259Y3817755D01*
X3238375Y3884161D01*
X3265727Y3910768D01*
X3289440Y3927682D01*
X3445260Y4038827D01*
X3603496Y4196511D01*
X3662994Y4279311D01*
X3730835Y4373723D01*
X3733853Y4377923D01*
X3745419Y4401325D01*
X3793532Y4453533D01*
X3858377Y4471500D01*
X4803264Y4471500D01*
X4819707Y4470422D01*
X4851400Y4466250D01*
X4859589Y4467328D01*
X4891274Y4471499D01*
X4891284Y4471500D01*
X4891285Y4471500D01*
X4990857Y4484609D01*
X5002064Y4486084D01*
X5002066Y4486085D01*
X5010251Y4487162D01*
X5158276Y4548476D01*
X5171232Y4558417D01*
X5253472Y4621523D01*
X5253475Y4621526D01*
X5278834Y4640985D01*
X5285387Y4646013D01*
X5290417Y4652568D01*
X5304852Y4671379D01*
X5315719Y4683770D01*
X5733634Y5101685D01*
X5746025Y5112552D01*
X5764837Y5126987D01*
X5771387Y5132013D01*
X5795874Y5163925D01*
X5795878Y5163929D01*
X5868924Y5259124D01*
X5930238Y5407149D01*
X5938185Y5467512D01*
X5938851Y5472575D01*
X5938851Y5472576D01*
X5945900Y5526115D01*
X5945900Y5526120D01*
X5950072Y5557811D01*
X5951150Y5566000D01*
X5946978Y5597693D01*
X5945900Y5614136D01*
X5945900Y13882725D01*
X5965902Y13950846D01*
X5996335Y13983551D01*
X6093481Y14056358D01*
X6100661Y14061739D01*
X6136576Y14109660D01*
X6193433Y14152173D01*
X6264251Y14157199D01*
X6326545Y14123139D01*
X6338217Y14109670D01*
X6374139Y14061739D01*
X6490695Y13974385D01*
X6499103Y13971233D01*
X6524588Y13961679D01*
X6581352Y13919037D01*
X6606052Y13852476D01*
X6590844Y13783127D01*
X6569453Y13754602D01*
X6487166Y13672315D01*
X6474775Y13661448D01*
X6449413Y13641987D01*
X6424926Y13610075D01*
X6424923Y13610072D01*
X6424917Y13610064D01*
X6368823Y13536961D01*
X6351876Y13514876D01*
X6298785Y13386702D01*
X6290562Y13366850D01*
X6274900Y13247885D01*
X6274900Y13247880D01*
X6269650Y13208000D01*
X6270728Y13199812D01*
X6273822Y13176310D01*
X6274900Y13159864D01*
X6274900Y6271136D01*
X6273822Y6254693D01*
X6269650Y6223000D01*
X6274900Y6183120D01*
X6274900Y6183115D01*
X6280828Y6138087D01*
X6290562Y6064149D01*
X6316265Y6002094D01*
X6325253Y5966179D01*
X6341563Y5799840D01*
X6398818Y5627727D01*
X6402465Y5621705D01*
X6402466Y5621703D01*
X6488870Y5479033D01*
X6492780Y5472576D01*
X6497669Y5467513D01*
X6497670Y5467512D01*
X6563329Y5399521D01*
X6618782Y5342098D01*
X6624678Y5338240D01*
X6755594Y5252571D01*
X6770559Y5242778D01*
X6777163Y5240322D01*
X6777165Y5240321D01*
X6933958Y5182010D01*
X6933960Y5182010D01*
X6940568Y5179552D01*
X6995843Y5172177D01*
X7037042Y5166679D01*
X7101919Y5137843D01*
X7140907Y5078509D01*
X7141627Y5007516D01*
X7126230Y4974559D01*
X7126446Y4974436D01*
X7124907Y4971726D01*
X7124464Y4970779D01*
X7123892Y4969941D01*
X7118800Y4960977D01*
X7029138Y4767817D01*
X7025575Y4758130D01*
X6970189Y4558417D01*
X6971712Y4549993D01*
X6984092Y4546600D01*
X9624144Y4546600D01*
X9637675Y4550573D01*
X9638980Y4559653D01*
X9597014Y4726725D01*
X9593694Y4736476D01*
X9508772Y4931786D01*
X9503905Y4940861D01*
X9388226Y5119674D01*
X9381936Y5127843D01*
X9238606Y5285360D01*
X9231070Y5292387D01*
X9063939Y5424378D01*
X9055356Y5430080D01*
X9018402Y5450480D01*
X8968431Y5500913D01*
X8953659Y5570355D01*
X8978775Y5636761D01*
X9006127Y5663368D01*
X9154049Y5768879D01*
X9227217Y5792300D01*
X12575664Y5792300D01*
X12592107Y5791222D01*
X12623800Y5787050D01*
X12631989Y5788128D01*
X12663674Y5792299D01*
X12663684Y5792300D01*
X12663685Y5792300D01*
X12763257Y5805409D01*
X12774464Y5806884D01*
X12774466Y5806885D01*
X12782651Y5807962D01*
X12930676Y5869276D01*
X13025872Y5942323D01*
X13025875Y5942326D01*
X13057787Y5966813D01*
X13068182Y5980360D01*
X13077252Y5992179D01*
X13088119Y6004570D01*
X13266144Y6182595D01*
X13328456Y6216621D01*
X13355239Y6219500D01*
X13922272Y6219500D01*
X13925518Y6219837D01*
X13925522Y6219837D01*
X14019435Y6229581D01*
X14019439Y6229582D01*
X14026293Y6230293D01*
X14032829Y6232474D01*
X14032831Y6232474D01*
X14184359Y6283028D01*
X14191307Y6285346D01*
X14339231Y6376884D01*
X14411325Y6449104D01*
X14456958Y6494816D01*
X14456962Y6494821D01*
X14462129Y6499997D01*
X14466244Y6506673D01*
X14491175Y6547117D01*
X14543947Y6594610D01*
X14598434Y6607000D01*
X18165564Y6607000D01*
X18182007Y6605922D01*
X18213700Y6601750D01*
X18221889Y6602828D01*
X18253574Y6606999D01*
X18253584Y6607000D01*
X18253585Y6607000D01*
X18353157Y6620109D01*
X18364364Y6621584D01*
X18364366Y6621585D01*
X18372551Y6622662D01*
X18520576Y6683976D01*
X18589041Y6736511D01*
X18615772Y6757023D01*
X18615775Y6757026D01*
X18641134Y6776485D01*
X18647687Y6781513D01*
X18667149Y6806876D01*
X18678016Y6819266D01*
X18917918Y7059168D01*
X18980230Y7093194D01*
X19051045Y7088129D01*
X19107881Y7045582D01*
X19123757Y7017473D01*
X19126720Y7010175D01*
X19126722Y7010171D01*
X19128666Y7005384D01*
X19245387Y6814912D01*
X19391650Y6646062D01*
X19563526Y6503368D01*
X19569295Y6499997D01*
X19636845Y6460524D01*
X19685569Y6408886D01*
X19698640Y6339103D01*
X19671909Y6273331D01*
X19631455Y6239973D01*
X19619007Y6233493D01*
X19614874Y6230390D01*
X19614871Y6230388D01*
X19444500Y6102470D01*
X19440365Y6099365D01*
X19286029Y5937862D01*
X19160143Y5753320D01*
X19144403Y5719410D01*
X19071998Y5563426D01*
X19066088Y5550695D01*
X19006389Y5335430D01*
X18982651Y5113305D01*
X18982948Y5108152D01*
X18982948Y5108149D01*
X18990651Y4974559D01*
X18995510Y4890285D01*
X18996647Y4885239D01*
X18996648Y4885233D01*
X19016519Y4797061D01*
X19044622Y4672361D01*
X19094075Y4550573D01*
X19126183Y4471500D01*
X19128666Y4465384D01*
X19245387Y4274912D01*
X19391650Y4106062D01*
X19395630Y4102758D01*
X19400381Y4098813D01*
X19440016Y4039910D01*
X19441513Y3968929D01*
X19404397Y3908407D01*
X19364124Y3883888D01*
X19248695Y3840615D01*
X19132139Y3753261D01*
X19044785Y3636705D01*
X18993655Y3500316D01*
X18986900Y3438134D01*
X18986900Y1641866D01*
X18993655Y1579684D01*
X19044785Y1443295D01*
X19132139Y1326739D01*
X19248695Y1239385D01*
X19385084Y1188255D01*
X19447266Y1181500D01*
X21243534Y1181500D01*
X21305716Y1188255D01*
X21442105Y1239385D01*
X21558661Y1326739D01*
X21646015Y1443295D01*
X21697145Y1579684D01*
X21703900Y1641866D01*
X21703900Y3438134D01*
X21697145Y3500316D01*
X21646015Y3636705D01*
X21558661Y3753261D01*
X21442105Y3840615D01*
X21415305Y3850662D01*
X21323603Y3885040D01*
X21266839Y3927682D01*
X21242139Y3994244D01*
X21257347Y4063592D01*
X21278893Y4092273D01*
X21379835Y4192863D01*
X21383496Y4196511D01*
X21442994Y4279311D01*
X21510835Y4373723D01*
X21513853Y4377923D01*
X21558040Y4467328D01*
X21610536Y4573547D01*
X21610537Y4573549D01*
X21612830Y4578189D01*
X21657959Y4726725D01*
X21676265Y4786977D01*
X21676265Y4786979D01*
X21677770Y4791931D01*
X21706929Y5013410D01*
X21708556Y5080000D01*
X21690252Y5302639D01*
X21635831Y5519298D01*
X21546754Y5724160D01*
X21490496Y5811122D01*
X21428222Y5907383D01*
X21428220Y5907386D01*
X21425414Y5911723D01*
X21275070Y6076949D01*
X21271019Y6080148D01*
X21271015Y6080152D01*
X21103814Y6212200D01*
X21103810Y6212202D01*
X21099759Y6215402D01*
X21058453Y6238204D01*
X21008484Y6288636D01*
X20993712Y6358079D01*
X21018828Y6424484D01*
X21046180Y6451091D01*
X21114744Y6499997D01*
X21225260Y6578827D01*
X21269249Y6622662D01*
X21379835Y6732863D01*
X21383496Y6736511D01*
X21398238Y6757026D01*
X21510835Y6913723D01*
X21513853Y6917923D01*
X21558040Y7007328D01*
X21610536Y7113547D01*
X21610537Y7113549D01*
X21612830Y7118189D01*
X21652442Y7248568D01*
X21676265Y7326977D01*
X21676265Y7326979D01*
X21677770Y7331931D01*
X21706929Y7553410D01*
X21708556Y7620000D01*
X21690252Y7842639D01*
X21635831Y8059298D01*
X21546754Y8264160D01*
X21449313Y8414781D01*
X21428222Y8447383D01*
X21428220Y8447386D01*
X21425414Y8451723D01*
X21275070Y8616949D01*
X21271019Y8620148D01*
X21271015Y8620152D01*
X21103814Y8752200D01*
X21103810Y8752202D01*
X21099759Y8755402D01*
X21058453Y8778204D01*
X21008484Y8828636D01*
X20993712Y8898079D01*
X21018828Y8964484D01*
X21046180Y8991091D01*
X21090003Y9022350D01*
X21225260Y9118827D01*
X21383496Y9276511D01*
X21426002Y9335664D01*
X21510835Y9453723D01*
X21513853Y9457923D01*
X21522008Y9474422D01*
X21610536Y9653547D01*
X21610537Y9653549D01*
X21612830Y9658189D01*
X21677770Y9871931D01*
X21706929Y10093410D01*
X21708556Y10160000D01*
X21690252Y10382639D01*
X21635831Y10599298D01*
X21546754Y10804160D01*
X21463514Y10932830D01*
X21428222Y10987383D01*
X21428220Y10987386D01*
X21425414Y10991723D01*
X21275070Y11156949D01*
X21271019Y11160148D01*
X21271015Y11160152D01*
X21103814Y11292200D01*
X21103810Y11292202D01*
X21099759Y11295402D01*
X21058453Y11318204D01*
X21008484Y11368636D01*
X20993712Y11438079D01*
X21018828Y11504484D01*
X21046180Y11531091D01*
X21107109Y11574551D01*
X21225260Y11658827D01*
X21383496Y11816511D01*
X21400725Y11840487D01*
X21510835Y11993723D01*
X21513853Y11997923D01*
X21526283Y12023072D01*
X21610536Y12193547D01*
X21610537Y12193549D01*
X21612830Y12198189D01*
X21677770Y12411931D01*
X21706929Y12633410D01*
X21707689Y12664524D01*
X21708474Y12696635D01*
X21708474Y12696639D01*
X21708556Y12700000D01*
X21690252Y12922639D01*
X21635831Y13139298D01*
X21546754Y13344160D01*
X21456839Y13483147D01*
X21428222Y13527383D01*
X21428220Y13527386D01*
X21425414Y13531723D01*
X21275070Y13696949D01*
X21271019Y13700148D01*
X21271015Y13700152D01*
X21103814Y13832200D01*
X21103810Y13832202D01*
X21099759Y13835402D01*
X21058453Y13858204D01*
X21008484Y13908636D01*
X20993712Y13978079D01*
X21018828Y14044484D01*
X21046180Y14071091D01*
X21100249Y14109658D01*
X21225260Y14198827D01*
X21383496Y14356511D01*
X21442994Y14439311D01*
X21510835Y14533723D01*
X21513853Y14537923D01*
X21587333Y14686598D01*
X21610536Y14733547D01*
X21610537Y14733549D01*
X21612830Y14738189D01*
X21677770Y14951931D01*
X21706929Y15173410D01*
X21708556Y15240000D01*
X21690252Y15462639D01*
X21635831Y15679298D01*
X21546754Y15884160D01*
X21482698Y15983175D01*
X21428222Y16067383D01*
X21428220Y16067386D01*
X21425414Y16071723D01*
X21275070Y16236949D01*
X21271019Y16240148D01*
X21271015Y16240152D01*
X21103814Y16372200D01*
X21103810Y16372202D01*
X21099759Y16375402D01*
X21058453Y16398204D01*
X21008484Y16448636D01*
X20993712Y16518079D01*
X21018828Y16584484D01*
X21046180Y16611091D01*
X21109517Y16656269D01*
X21225260Y16738827D01*
X21234802Y16748335D01*
X21379835Y16892863D01*
X21383496Y16896511D01*
X21442994Y16979311D01*
X21510835Y17073723D01*
X21513853Y17077923D01*
X21528004Y17106554D01*
X21610536Y17273547D01*
X21610537Y17273549D01*
X21612830Y17278189D01*
X21665706Y17452225D01*
X21676265Y17486977D01*
X21676265Y17486979D01*
X21677770Y17491931D01*
X21706929Y17713410D01*
X21707981Y17756448D01*
X21708474Y17776635D01*
X21708474Y17776639D01*
X21708556Y17780000D01*
X21690252Y18002639D01*
X21635831Y18219298D01*
X21546754Y18424160D01*
X21488689Y18513915D01*
X21428222Y18607383D01*
X21428220Y18607386D01*
X21425414Y18611723D01*
X21275070Y18776949D01*
X21271019Y18780148D01*
X21271015Y18780152D01*
X21103814Y18912200D01*
X21103810Y18912202D01*
X21099759Y18915402D01*
X21058453Y18938204D01*
X21008484Y18988636D01*
X20993712Y19058079D01*
X21018828Y19124484D01*
X21046180Y19151091D01*
X21090003Y19182350D01*
X21225260Y19278827D01*
X21272122Y19325525D01*
X21334694Y19387879D01*
X21383496Y19436511D01*
X21401529Y19461606D01*
X21510835Y19613723D01*
X21513853Y19617923D01*
X21516740Y19623763D01*
X21610536Y19813547D01*
X21610537Y19813549D01*
X21612830Y19818189D01*
X21654997Y19956977D01*
X21676265Y20026977D01*
X21676265Y20026979D01*
X21677770Y20031931D01*
X21706929Y20253410D01*
X21708556Y20320000D01*
X21690252Y20542639D01*
X21635831Y20759298D01*
X21546754Y20964160D01*
X21488851Y21053665D01*
X21428222Y21147383D01*
X21428220Y21147386D01*
X21425414Y21151723D01*
X21275070Y21316949D01*
X21271019Y21320148D01*
X21271015Y21320152D01*
X21103814Y21452200D01*
X21103810Y21452202D01*
X21099759Y21455402D01*
X21058453Y21478204D01*
X21008484Y21528636D01*
X20993712Y21598079D01*
X21018828Y21664484D01*
X21046180Y21691091D01*
X21090003Y21722350D01*
X21225260Y21818827D01*
X21383496Y21976511D01*
X21442994Y22059311D01*
X21510835Y22153723D01*
X21513853Y22157923D01*
X21562746Y22256850D01*
X21610536Y22353547D01*
X21610537Y22353549D01*
X21612830Y22358189D01*
X21655935Y22500064D01*
X21676265Y22566977D01*
X21676265Y22566979D01*
X21677770Y22571931D01*
X21706929Y22793410D01*
X21707250Y22806533D01*
X21708474Y22856635D01*
X21708474Y22856639D01*
X21708556Y22860000D01*
X21690252Y23082639D01*
X21635831Y23299298D01*
X21546754Y23504160D01*
X21425414Y23691723D01*
X21275070Y23856949D01*
X21271019Y23860148D01*
X21271015Y23860152D01*
X21103814Y23992200D01*
X21103810Y23992202D01*
X21099759Y23995402D01*
X21058453Y24018204D01*
X21008484Y24068636D01*
X20993712Y24138079D01*
X21018828Y24204484D01*
X21046180Y24231091D01*
X21100727Y24269999D01*
X21225260Y24358827D01*
X21383496Y24516511D01*
X21442994Y24599311D01*
X21510835Y24693723D01*
X21513853Y24697923D01*
X21540439Y24751715D01*
X21610536Y24893547D01*
X21610537Y24893549D01*
X21612830Y24898189D01*
X21661043Y25056877D01*
X21676265Y25106977D01*
X21676265Y25106979D01*
X21677770Y25111931D01*
X21706929Y25333410D01*
X21708556Y25400000D01*
X21690252Y25622639D01*
X21635831Y25839298D01*
X21546754Y26044160D01*
X21425414Y26231723D01*
X21275070Y26396949D01*
X21271019Y26400148D01*
X21271015Y26400152D01*
X21103814Y26532200D01*
X21103810Y26532202D01*
X21099759Y26535402D01*
X21058453Y26558204D01*
X21008484Y26608636D01*
X20993712Y26678079D01*
X21018828Y26744484D01*
X21046180Y26771091D01*
X21090003Y26802350D01*
X21225260Y26898827D01*
X21383496Y27056511D01*
X21442994Y27139311D01*
X21510835Y27233723D01*
X21513853Y27237923D01*
X21519141Y27248621D01*
X21610536Y27433547D01*
X21610537Y27433549D01*
X21612830Y27438189D01*
X21677770Y27651931D01*
X21706929Y27873410D01*
X21708556Y27940000D01*
X21690252Y28162639D01*
X21635831Y28379298D01*
X21546754Y28584160D01*
X21464947Y28710615D01*
X21428222Y28767383D01*
X21428220Y28767386D01*
X21425414Y28771723D01*
X21275070Y28936949D01*
X21271019Y28940148D01*
X21271015Y28940152D01*
X21103814Y29072200D01*
X21103810Y29072202D01*
X21099759Y29075402D01*
X21058453Y29098204D01*
X21008484Y29148636D01*
X20993712Y29218079D01*
X21018828Y29284484D01*
X21046180Y29311091D01*
X21112659Y29358510D01*
X21225260Y29438827D01*
X21383496Y29596511D01*
X21402793Y29623365D01*
X21510835Y29773723D01*
X21513853Y29777923D01*
X21523153Y29796739D01*
X21610536Y29973547D01*
X21610537Y29973549D01*
X21612830Y29978189D01*
X21653846Y30113188D01*
X21676265Y30186977D01*
X21676265Y30186979D01*
X21677770Y30191931D01*
X21706929Y30413410D01*
X21708556Y30480000D01*
X21690252Y30702639D01*
X21635831Y30919298D01*
X21546754Y31124160D01*
X21425414Y31311723D01*
X21275070Y31476949D01*
X21271019Y31480148D01*
X21271015Y31480152D01*
X21103814Y31612200D01*
X21103810Y31612202D01*
X21099759Y31615402D01*
X21058453Y31638204D01*
X21008484Y31688636D01*
X20993712Y31758079D01*
X21018828Y31824484D01*
X21046180Y31851091D01*
X21100249Y31889658D01*
X21225260Y31978827D01*
X21383496Y32136511D01*
X21442994Y32219311D01*
X21510835Y32313723D01*
X21513853Y32317923D01*
X21612830Y32518189D01*
X21677770Y32731931D01*
X21706929Y32953410D01*
X21707935Y32994578D01*
X21708474Y33016635D01*
X21708474Y33016639D01*
X21708556Y33020000D01*
X21690252Y33242639D01*
X21635831Y33459298D01*
X21546754Y33664160D01*
X21456886Y33803075D01*
X21428222Y33847383D01*
X21428220Y33847386D01*
X21425414Y33851723D01*
X21275070Y34016949D01*
X21271019Y34020148D01*
X21271015Y34020152D01*
X21103814Y34152200D01*
X21103810Y34152202D01*
X21099759Y34155402D01*
X21058453Y34178204D01*
X21008484Y34228636D01*
X20993712Y34298079D01*
X21018828Y34364484D01*
X21046180Y34391091D01*
X21109772Y34436451D01*
X21225260Y34518827D01*
X21383496Y34676511D01*
X21442994Y34759311D01*
X21510835Y34853723D01*
X21513853Y34857923D01*
X21521960Y34874325D01*
X21610536Y35053547D01*
X21610537Y35053549D01*
X21612830Y35058189D01*
X21677770Y35271931D01*
X21706929Y35493410D01*
X21708556Y35560000D01*
X21690252Y35782639D01*
X21635831Y35999298D01*
X21546754Y36204160D01*
X21434827Y36377173D01*
X21428222Y36387383D01*
X21428220Y36387386D01*
X21425414Y36391723D01*
X21275070Y36556949D01*
X21271019Y36560148D01*
X21271015Y36560152D01*
X21103814Y36692200D01*
X21103810Y36692202D01*
X21099759Y36695402D01*
X21058453Y36718204D01*
X21008484Y36768636D01*
X20993712Y36838079D01*
X21018828Y36904484D01*
X21046180Y36931091D01*
X21090003Y36962350D01*
X21225260Y37058827D01*
X21233703Y37067240D01*
X21379835Y37212863D01*
X21383496Y37216511D01*
X21442994Y37299311D01*
X21510835Y37393723D01*
X21513853Y37397923D01*
X21577773Y37527255D01*
X21610536Y37593547D01*
X21610537Y37593549D01*
X21612830Y37598189D01*
X21677770Y37811931D01*
X21706929Y38033410D01*
X21708556Y38100000D01*
X21690252Y38322639D01*
X21635831Y38539298D01*
X21546754Y38744160D01*
X21462110Y38875000D01*
X21428222Y38927383D01*
X21428220Y38927386D01*
X21425414Y38931723D01*
X21275070Y39096949D01*
X21271019Y39100148D01*
X21271015Y39100152D01*
X21103814Y39232200D01*
X21103810Y39232202D01*
X21099759Y39235402D01*
X21058453Y39258204D01*
X21008484Y39308636D01*
X20993712Y39378079D01*
X21018828Y39444484D01*
X21046180Y39471091D01*
X21090003Y39502350D01*
X21225260Y39598827D01*
X21231699Y39605243D01*
X21379835Y39752863D01*
X21383496Y39756511D01*
X21442994Y39839311D01*
X21510835Y39933723D01*
X21513853Y39937923D01*
X21532451Y39975552D01*
X21610536Y40133547D01*
X21610537Y40133549D01*
X21612830Y40138189D01*
X21664095Y40306922D01*
X21676265Y40346977D01*
X21676265Y40346979D01*
X21677770Y40351931D01*
X21706929Y40573410D01*
X21708556Y40640000D01*
X21690252Y40862639D01*
X21635831Y41079298D01*
X21546754Y41284160D01*
X21425414Y41471723D01*
X21275070Y41636949D01*
X21271019Y41640148D01*
X21271015Y41640152D01*
X21103814Y41772200D01*
X21103810Y41772202D01*
X21099759Y41775402D01*
X21058453Y41798204D01*
X21008484Y41848636D01*
X20993712Y41918079D01*
X21018828Y41984484D01*
X21046180Y42011091D01*
X21090003Y42042350D01*
X21225260Y42138827D01*
X21383496Y42296511D01*
X21442994Y42379311D01*
X21510835Y42473723D01*
X21513853Y42477923D01*
X21612830Y42678189D01*
X21677770Y42891931D01*
X21706929Y43113410D01*
X21707778Y43148149D01*
X21708474Y43176635D01*
X21708474Y43176639D01*
X21708556Y43180000D01*
X21690252Y43402639D01*
X21635831Y43619298D01*
X21546754Y43824160D01*
X21507306Y43885138D01*
X21428222Y44007383D01*
X21428220Y44007386D01*
X21425414Y44011723D01*
X21275070Y44176949D01*
X21271019Y44180148D01*
X21271015Y44180152D01*
X21103814Y44312200D01*
X21103810Y44312202D01*
X21099759Y44315402D01*
X21058453Y44338204D01*
X21008484Y44388636D01*
X20993712Y44458079D01*
X21018828Y44524484D01*
X21046180Y44551091D01*
X21090003Y44582350D01*
X21225260Y44678827D01*
X21383496Y44836511D01*
X21442994Y44919311D01*
X21510835Y45013723D01*
X21513853Y45017923D01*
X21560102Y45111500D01*
X21610536Y45213547D01*
X21610537Y45213549D01*
X21612830Y45218189D01*
X21665176Y45390478D01*
X21676265Y45426977D01*
X21676265Y45426979D01*
X21677770Y45431931D01*
X21706929Y45653410D01*
X21708556Y45720000D01*
X21690252Y45942639D01*
X21635831Y46159298D01*
X21546754Y46364160D01*
X21456886Y46503075D01*
X21428222Y46547383D01*
X21428220Y46547386D01*
X21425414Y46551723D01*
X21275070Y46716949D01*
X21271019Y46720148D01*
X21271015Y46720152D01*
X21103814Y46852200D01*
X21103810Y46852202D01*
X21099759Y46855402D01*
X21058453Y46878204D01*
X21008484Y46928636D01*
X20993712Y46998079D01*
X21018828Y47064484D01*
X21046180Y47091091D01*
X21090003Y47122350D01*
X21225260Y47218827D01*
X21383496Y47376511D01*
X21442994Y47459311D01*
X21510835Y47553723D01*
X21513853Y47557923D01*
X21522991Y47576411D01*
X21610536Y47753547D01*
X21610537Y47753549D01*
X21612830Y47758189D01*
X21662712Y47922369D01*
X21676265Y47966977D01*
X21676265Y47966979D01*
X21677770Y47971931D01*
X21706929Y48193410D01*
X21708556Y48260000D01*
X21690252Y48482639D01*
X21635831Y48699298D01*
X21546754Y48904160D01*
X21425414Y49091723D01*
X21275070Y49256949D01*
X21271019Y49260148D01*
X21271015Y49260152D01*
X21103814Y49392200D01*
X21103810Y49392202D01*
X21099759Y49395402D01*
X21058453Y49418204D01*
X21008484Y49468636D01*
X20993712Y49538079D01*
X21018828Y49604484D01*
X21046180Y49631091D01*
X21090003Y49662350D01*
X21225260Y49758827D01*
X21253749Y49787216D01*
X21368800Y49901866D01*
X21383496Y49916511D01*
X21442994Y49999311D01*
X21510835Y50093723D01*
X21513853Y50097923D01*
X21595193Y50262502D01*
X21610536Y50293547D01*
X21610537Y50293549D01*
X21612830Y50298189D01*
X21677770Y50511931D01*
X21706929Y50733410D01*
X21708556Y50800000D01*
X21690252Y51022639D01*
X21635831Y51239298D01*
X21546754Y51444160D01*
X21425414Y51631723D01*
X21275070Y51796949D01*
X21271019Y51800148D01*
X21271015Y51800152D01*
X21103814Y51932200D01*
X21103810Y51932202D01*
X21099759Y51935402D01*
X20904189Y52043362D01*
X20899320Y52045086D01*
X20899316Y52045088D01*
X20698487Y52116205D01*
X20698483Y52116206D01*
X20693612Y52117931D01*
X20688519Y52118838D01*
X20688516Y52118839D01*
X20478773Y52156200D01*
X20478767Y52156201D01*
X20473684Y52157106D01*
X20399852Y52158008D01*
X20255481Y52159772D01*
X20255479Y52159772D01*
X20250311Y52159835D01*
X20029491Y52126045D01*
X19817156Y52056643D01*
X19619007Y51953493D01*
X19614874Y51950390D01*
X19614871Y51950388D01*
X19497489Y51862255D01*
X19440365Y51819365D01*
X19286029Y51657862D01*
X19160143Y51473320D01*
X19144403Y51439410D01*
X19093906Y51330623D01*
X19066088Y51270695D01*
X19006389Y51055430D01*
X18982651Y50833305D01*
X18982948Y50828152D01*
X18982948Y50828149D01*
X18991830Y50674106D01*
X18995510Y50610285D01*
X18996647Y50605239D01*
X18996648Y50605233D01*
X19016519Y50517061D01*
X19044622Y50392361D01*
X19128666Y50185384D01*
X19131365Y50180980D01*
X19224749Y50028591D01*
X19245387Y49994912D01*
X19391650Y49826062D01*
X19563526Y49683368D01*
X19633995Y49642189D01*
X19636845Y49640524D01*
X19685569Y49588886D01*
X19698640Y49519103D01*
X19671909Y49453331D01*
X19631455Y49419973D01*
X19619007Y49413493D01*
X19614874Y49410390D01*
X19614871Y49410388D01*
X19444500Y49282470D01*
X19440365Y49279365D01*
X19286029Y49117862D01*
X19160143Y48933320D01*
X19066088Y48730695D01*
X19006389Y48515430D01*
X18982651Y48293305D01*
X18982948Y48288152D01*
X18982948Y48288149D01*
X18994086Y48094975D01*
X18995510Y48070285D01*
X18996647Y48065239D01*
X18996648Y48065233D01*
X18997441Y48061715D01*
X19044622Y47852361D01*
X19128666Y47645384D01*
X19245387Y47454912D01*
X19391650Y47286062D01*
X19563526Y47143368D01*
X19633995Y47102189D01*
X19636845Y47100524D01*
X19685569Y47048886D01*
X19698640Y46979103D01*
X19671909Y46913331D01*
X19631455Y46879973D01*
X19619007Y46873493D01*
X19614874Y46870390D01*
X19614871Y46870388D01*
X19444500Y46742470D01*
X19440365Y46739365D01*
X19286029Y46577862D01*
X19283115Y46573590D01*
X19283114Y46573589D01*
X19251507Y46527255D01*
X19160143Y46393320D01*
X19144403Y46359410D01*
X19093186Y46249072D01*
X19066088Y46190695D01*
X19006389Y45975430D01*
X18982651Y45753305D01*
X18982948Y45748152D01*
X18982948Y45748149D01*
X18989589Y45632972D01*
X18995510Y45530285D01*
X18996647Y45525239D01*
X18996648Y45525233D01*
X19015025Y45443691D01*
X19044622Y45312361D01*
X19082861Y45218189D01*
X19126183Y45111500D01*
X19128666Y45105384D01*
X19245387Y44914912D01*
X19391650Y44746062D01*
X19563526Y44603368D01*
X19633995Y44562189D01*
X19636845Y44560524D01*
X19685569Y44508886D01*
X19698640Y44439103D01*
X19671909Y44373331D01*
X19631455Y44339973D01*
X19619007Y44333493D01*
X19614874Y44330390D01*
X19614871Y44330388D01*
X19483307Y44231607D01*
X19440365Y44199365D01*
X19286029Y44037862D01*
X19283115Y44033590D01*
X19283114Y44033589D01*
X19272661Y44018265D01*
X19160143Y43853320D01*
X19066088Y43650695D01*
X19006389Y43435430D01*
X18982651Y43213305D01*
X18982948Y43208152D01*
X18982948Y43208148D01*
X18985023Y43172159D01*
X18968975Y43103000D01*
X18918084Y43053496D01*
X18848508Y43039364D01*
X18782337Y43065091D01*
X18770137Y43075812D01*
X18650715Y43195234D01*
X18639848Y43207625D01*
X18625413Y43226437D01*
X18620387Y43232987D01*
X18588475Y43257474D01*
X18588472Y43257477D01*
X18493276Y43330524D01*
X18345251Y43391838D01*
X18337064Y43392916D01*
X18337063Y43392916D01*
X18325858Y43394391D01*
X18294662Y43398498D01*
X18226285Y43407500D01*
X18226282Y43407500D01*
X18226274Y43407501D01*
X18194589Y43411672D01*
X18186400Y43412750D01*
X18154707Y43408578D01*
X18138264Y43407500D01*
X16570137Y43407500D01*
X16502016Y43427502D01*
X16455523Y43481158D01*
X16445419Y43551432D01*
X16474913Y43616012D01*
X16492564Y43632789D01*
X16594391Y43712345D01*
X16599247Y43716139D01*
X16728478Y43865855D01*
X16826169Y44037821D01*
X16888597Y44225487D01*
X16913385Y44421705D01*
X16913780Y44450000D01*
X16894480Y44646833D01*
X16884821Y44678827D01*
X16849843Y44794678D01*
X16837316Y44836169D01*
X16744466Y45010796D01*
X16662334Y45111500D01*
X16623360Y45159287D01*
X16623357Y45159290D01*
X16619465Y45164062D01*
X16614716Y45167991D01*
X16471825Y45286201D01*
X16471821Y45286203D01*
X16467075Y45290130D01*
X16293101Y45384198D01*
X16104168Y45442682D01*
X16098043Y45443326D01*
X16098042Y45443326D01*
X15913604Y45462711D01*
X15913602Y45462711D01*
X15907475Y45463355D01*
X15844579Y45457631D01*
X15716651Y45445989D01*
X15716648Y45445988D01*
X15710512Y45445430D01*
X15704606Y45443692D01*
X15704602Y45443691D01*
X15647813Y45426977D01*
X15520781Y45389590D01*
X15515323Y45386737D01*
X15515319Y45386735D01*
X15419535Y45336660D01*
X15345510Y45297960D01*
X15340710Y45294100D01*
X15335553Y45290726D01*
X15334169Y45292842D01*
X15278765Y45269973D01*
X15208912Y45282666D01*
X15199298Y45288291D01*
X15197075Y45290130D01*
X15023101Y45384198D01*
X14834168Y45442682D01*
X14828043Y45443326D01*
X14828042Y45443326D01*
X14643604Y45462711D01*
X14643602Y45462711D01*
X14637475Y45463355D01*
X14574579Y45457631D01*
X14446651Y45445989D01*
X14446648Y45445988D01*
X14440512Y45445430D01*
X14434606Y45443692D01*
X14434602Y45443691D01*
X14377813Y45426977D01*
X14250781Y45389590D01*
X14245323Y45386737D01*
X14245319Y45386735D01*
X14149535Y45336660D01*
X14075510Y45297960D01*
X14070710Y45294100D01*
X14065553Y45290726D01*
X14064169Y45292842D01*
X14008765Y45269973D01*
X13938912Y45282666D01*
X13929298Y45288291D01*
X13927075Y45290130D01*
X13753101Y45384198D01*
X13564168Y45442682D01*
X13558043Y45443326D01*
X13558042Y45443326D01*
X13373604Y45462711D01*
X13373602Y45462711D01*
X13367475Y45463355D01*
X13304579Y45457631D01*
X13176651Y45445989D01*
X13176648Y45445988D01*
X13170512Y45445430D01*
X13164606Y45443692D01*
X13164602Y45443691D01*
X12986693Y45391330D01*
X12980781Y45389590D01*
X12975316Y45386733D01*
X12974704Y45386413D01*
X12974350Y45386343D01*
X12969609Y45384427D01*
X12969245Y45385328D01*
X12905068Y45372578D01*
X12853045Y45392538D01*
X12851917Y45390478D01*
X12828454Y45403324D01*
X12708006Y45448478D01*
X12692751Y45452105D01*
X12641886Y45457631D01*
X12635072Y45458000D01*
X12362515Y45458000D01*
X12347276Y45453525D01*
X12346071Y45452135D01*
X12344400Y45444452D01*
X12344400Y44322000D01*
X12324398Y44253879D01*
X12270742Y44207386D01*
X12218400Y44196000D01*
X11962400Y44196000D01*
X11894279Y44216002D01*
X11847786Y44269658D01*
X11836400Y44322000D01*
X11836400Y45439884D01*
X11831925Y45455123D01*
X11830535Y45456328D01*
X11822852Y45457999D01*
X11545731Y45457999D01*
X11538910Y45457629D01*
X11488048Y45452105D01*
X11472795Y45448479D01*
X11472134Y45448231D01*
X11471583Y45448191D01*
X11465107Y45446651D01*
X11464858Y45447698D01*
X11401327Y45443045D01*
X11338956Y45476964D01*
X11304825Y45539218D01*
X11301900Y45566211D01*
X11301900Y45798864D01*
X11302978Y45815310D01*
X11306072Y45838812D01*
X11307150Y45847000D01*
X11301900Y45886878D01*
X11301900Y45886885D01*
X11286238Y46005850D01*
X11238097Y46122072D01*
X11224924Y46153876D01*
X11151877Y46249072D01*
X11151874Y46249075D01*
X11127387Y46280987D01*
X11120832Y46286017D01*
X11102021Y46300452D01*
X11089630Y46311319D01*
X10903715Y46497234D01*
X10892848Y46509625D01*
X10878413Y46528437D01*
X10873387Y46534987D01*
X10841475Y46559474D01*
X10841472Y46559477D01*
X10746276Y46632524D01*
X10598251Y46693838D01*
X10590064Y46694916D01*
X10590063Y46694916D01*
X10578858Y46696391D01*
X10547662Y46700498D01*
X10479285Y46709500D01*
X10479282Y46709500D01*
X10479274Y46709501D01*
X10447589Y46713672D01*
X10439400Y46714750D01*
X10407707Y46710578D01*
X10391264Y46709500D01*
X8855022Y46709500D01*
X8786901Y46729502D01*
X8740408Y46783158D01*
X8729024Y46836270D01*
X8729560Y46923945D01*
X8729560Y46923950D01*
X8729587Y46928417D01*
X8729252Y46930861D01*
X8729129Y46934656D01*
X8729129Y47363000D01*
X8723900Y47436111D01*
X8688133Y47557923D01*
X8685243Y47567765D01*
X8685242Y47567767D01*
X8682704Y47576411D01*
X8638378Y47645384D01*
X8608522Y47691841D01*
X8608520Y47691844D01*
X8603650Y47699421D01*
X8596840Y47705322D01*
X8499955Y47789274D01*
X8499952Y47789276D01*
X8493143Y47795176D01*
X8360134Y47855919D01*
X8215400Y47876729D01*
X7754353Y47876729D01*
X7754353Y47876727D01*
X7751385Y47876318D01*
X7654962Y47877497D01*
X7650677Y47876937D01*
X7643640Y47876729D01*
X7254353Y47876729D01*
X7254353Y47876727D01*
X7251385Y47876318D01*
X7154962Y47877497D01*
X7150677Y47876937D01*
X7143640Y47876729D01*
X6715400Y47876729D01*
X6706424Y47876087D01*
X6649027Y47871982D01*
X6649026Y47871982D01*
X6642289Y47871500D01*
X6562782Y47848155D01*
X6510635Y47832843D01*
X6510633Y47832842D01*
X6501989Y47830304D01*
X6494410Y47825433D01*
X6386559Y47756122D01*
X6386556Y47756120D01*
X6378979Y47751250D01*
X6373078Y47744440D01*
X6289126Y47647555D01*
X6289124Y47647552D01*
X6283224Y47640743D01*
X6222481Y47507734D01*
X6201671Y47363000D01*
X6201671Y46875678D01*
X6201650Y46873370D01*
X6200488Y46809980D01*
X6201041Y46805541D01*
X6215349Y46690678D01*
X6218493Y46665435D01*
X6256166Y46527255D01*
X6257948Y46523138D01*
X6257949Y46523134D01*
X6266630Y46503075D01*
X6314012Y46393580D01*
X6388952Y46271528D01*
X6391815Y46268080D01*
X6391816Y46268078D01*
X6478185Y46164046D01*
X6481992Y46159460D01*
X6588176Y46063346D01*
X6591899Y46060835D01*
X6591900Y46060834D01*
X6652002Y46020295D01*
X6697292Y45965621D01*
X6705834Y45895140D01*
X6670719Y45826819D01*
X6631971Y45788003D01*
X6628131Y45781773D01*
X6628130Y45781772D01*
X6592121Y45723354D01*
X6540691Y45639920D01*
X6485926Y45474809D01*
X6485226Y45467973D01*
X6485225Y45467970D01*
X6482634Y45442682D01*
X6475400Y45372072D01*
X6475400Y44797928D01*
X6475737Y44794682D01*
X6475737Y44794678D01*
X6480782Y44746062D01*
X6486193Y44693907D01*
X6488374Y44687371D01*
X6488374Y44687369D01*
X6516399Y44603368D01*
X6541246Y44528893D01*
X6632784Y44380969D01*
X6637966Y44375796D01*
X6750716Y44263242D01*
X6750721Y44263238D01*
X6755897Y44258071D01*
X6762127Y44254231D01*
X6762128Y44254230D01*
X6791050Y44236402D01*
X6903980Y44166791D01*
X6910930Y44164486D01*
X6916078Y44162085D01*
X6969363Y44115167D01*
X6988824Y44046890D01*
X6985296Y44018265D01*
X6984007Y44012937D01*
X6981597Y44006315D01*
X6958863Y43826360D01*
X6959551Y43819347D01*
X6969989Y43712887D01*
X6956729Y43643140D01*
X6907867Y43591633D01*
X6906357Y43590843D01*
X6902793Y43589654D01*
X6754869Y43498116D01*
X6749696Y43492934D01*
X6637142Y43380184D01*
X6637138Y43380179D01*
X6631971Y43375003D01*
X6628131Y43368773D01*
X6628130Y43368772D01*
X6559527Y43257477D01*
X6540691Y43226920D01*
X6485926Y43061809D01*
X6475400Y42959072D01*
X6475400Y42384928D01*
X6475737Y42381682D01*
X6475737Y42381678D01*
X6485146Y42291000D01*
X6486193Y42280907D01*
X6541246Y42115893D01*
X6632784Y41967969D01*
X6637966Y41962796D01*
X6637970Y41962791D01*
X6725917Y41874998D01*
X6759997Y41812716D01*
X6762900Y41785825D01*
X6762900Y41585526D01*
X6755301Y41542431D01*
X6727597Y41466315D01*
X6704863Y41286360D01*
X6722563Y41105840D01*
X6779818Y40933727D01*
X6783465Y40927705D01*
X6783466Y40927703D01*
X6826667Y40856370D01*
X6873780Y40778576D01*
X6878669Y40773513D01*
X6878670Y40773512D01*
X6901838Y40749521D01*
X6999782Y40648098D01*
X7032129Y40626931D01*
X7121525Y40568432D01*
X7151559Y40548778D01*
X7158163Y40546322D01*
X7158165Y40546321D01*
X7314958Y40488010D01*
X7314960Y40488010D01*
X7321568Y40485552D01*
X7405395Y40474367D01*
X7494380Y40462493D01*
X7494384Y40462493D01*
X7501361Y40461562D01*
X7508372Y40462200D01*
X7508376Y40462200D01*
X7650859Y40475168D01*
X7682000Y40478002D01*
X7688702Y40480180D01*
X7688704Y40480180D01*
X7847809Y40531876D01*
X7847812Y40531877D01*
X7854508Y40534053D01*
X7882488Y40550733D01*
X7951241Y40568432D01*
X8018651Y40546150D01*
X8063313Y40490962D01*
X8069587Y40471649D01*
X8070801Y40466542D01*
X8071655Y40458684D01*
X8074429Y40451285D01*
X8118402Y40333987D01*
X8122785Y40322295D01*
X8126127Y40317836D01*
X8140930Y40250152D01*
X8126333Y40200439D01*
X8122785Y40195705D01*
X8119636Y40187304D01*
X8119634Y40187301D01*
X8099535Y40133686D01*
X8071655Y40059316D01*
X8068489Y40030171D01*
X8067991Y40025586D01*
X8040750Y39960024D01*
X7982387Y39919597D01*
X7911433Y39917141D01*
X7867164Y39938365D01*
X7784105Y40000615D01*
X7647716Y40051745D01*
X7585534Y40058500D01*
X6689266Y40058500D01*
X6627084Y40051745D01*
X6490695Y40000615D01*
X6374139Y39913261D01*
X6338224Y39865340D01*
X6281367Y39822827D01*
X6210549Y39817801D01*
X6148255Y39851861D01*
X6136583Y39865330D01*
X6100661Y39913261D01*
X6026430Y39968894D01*
X5991289Y39995231D01*
X5991288Y39995231D01*
X5984105Y40000615D01*
X5982681Y40001149D01*
X5935186Y40048752D01*
X5929433Y40060794D01*
X5868924Y40206876D01*
X5795878Y40302071D01*
X5795874Y40302075D01*
X5792155Y40306922D01*
X5776416Y40327434D01*
X5776413Y40327437D01*
X5771387Y40333987D01*
X5764832Y40339017D01*
X5746021Y40353452D01*
X5733630Y40364319D01*
X5623805Y40474144D01*
X5589779Y40536456D01*
X5586900Y40563239D01*
X5586900Y45798864D01*
X5587978Y45815310D01*
X5591072Y45838812D01*
X5592150Y45847000D01*
X5586900Y45886878D01*
X5586900Y45886885D01*
X5571238Y46005850D01*
X5509924Y46153875D01*
X5470040Y46205853D01*
X5436877Y46249072D01*
X5436874Y46249075D01*
X5412387Y46280987D01*
X5405832Y46286017D01*
X5387021Y46300452D01*
X5374630Y46311319D01*
X3908379Y47777570D01*
X3874353Y47839882D01*
X3876916Y47903294D01*
X3880937Y47916526D01*
X3897770Y47971931D01*
X3926929Y48193410D01*
X3928556Y48260000D01*
X3918252Y48385331D01*
X8577401Y48385331D01*
X8577771Y48378510D01*
X8583295Y48327648D01*
X8586921Y48312396D01*
X8632076Y48191946D01*
X8640614Y48176351D01*
X8717115Y48074276D01*
X8729676Y48061715D01*
X8831751Y47985214D01*
X8847346Y47976676D01*
X8967794Y47931522D01*
X8983049Y47927895D01*
X9033914Y47922369D01*
X9040728Y47922000D01*
X9913285Y47922000D01*
X9928524Y47926475D01*
X9929729Y47927865D01*
X9931400Y47935548D01*
X9931400Y49257885D01*
X9926925Y49273124D01*
X9925535Y49274329D01*
X9917852Y49276000D01*
X8595516Y49276000D01*
X8580277Y49271525D01*
X8579072Y49270135D01*
X8577401Y49262452D01*
X8577401Y48385331D01*
X3918252Y48385331D01*
X3910252Y48482639D01*
X3855831Y48699298D01*
X3766754Y48904160D01*
X3645414Y49091723D01*
X3641932Y49095550D01*
X3498198Y49253512D01*
X3467146Y49317358D01*
X3475541Y49387857D01*
X3520717Y49442625D01*
X3547161Y49456294D01*
X3653697Y49496233D01*
X3662105Y49499385D01*
X3778661Y49586739D01*
X3866015Y49703295D01*
X3917145Y49839684D01*
X3923900Y49901866D01*
X3923900Y51698134D01*
X3917145Y51760316D01*
X3866015Y51896705D01*
X3778661Y52013261D01*
X3662105Y52100615D01*
X3525716Y52151745D01*
X3463534Y52158500D01*
X1667266Y52158500D01*
X1605084Y52151745D01*
X1468695Y52100615D01*
X1352139Y52013261D01*
X1264785Y51896705D01*
X1213655Y51760316D01*
X1206900Y51698134D01*
X1206900Y49901866D01*
X1213655Y49839684D01*
X1264785Y49703295D01*
X1352139Y49586739D01*
X1468695Y49499385D01*
X1477104Y49496233D01*
X1477105Y49496232D01*
X1585851Y49455465D01*
X1642616Y49412824D01*
X1667316Y49346262D01*
X1652109Y49276913D01*
X1632716Y49250432D01*
X1506029Y49117862D01*
X1380143Y48933320D01*
X1286088Y48730695D01*
X1226389Y48515430D01*
X1202651Y48293305D01*
X1202948Y48288152D01*
X1202948Y48288149D01*
X1214086Y48094975D01*
X1215510Y48070285D01*
X1216647Y48065239D01*
X1216648Y48065233D01*
X1217441Y48061715D01*
X1264622Y47852361D01*
X1348666Y47645384D01*
X1465387Y47454912D01*
X1611650Y47286062D01*
X1783526Y47143368D01*
X1853995Y47102189D01*
X1856845Y47100524D01*
X1905569Y47048886D01*
X1918640Y46979103D01*
X1891909Y46913331D01*
X1851455Y46879973D01*
X1839007Y46873493D01*
X1834874Y46870390D01*
X1834871Y46870388D01*
X1664500Y46742470D01*
X1660365Y46739365D01*
X1506029Y46577862D01*
X1503115Y46573590D01*
X1503114Y46573589D01*
X1471507Y46527255D01*
X1380143Y46393320D01*
X1364403Y46359410D01*
X1313186Y46249072D01*
X1286088Y46190695D01*
X1226389Y45975430D01*
X1202651Y45753305D01*
X1202948Y45748152D01*
X1202948Y45748149D01*
X1209589Y45632972D01*
X1215510Y45530285D01*
X1216647Y45525239D01*
X1216648Y45525233D01*
X1235025Y45443691D01*
X1264622Y45312361D01*
X1302861Y45218189D01*
X1346183Y45111500D01*
X1348666Y45105384D01*
X1465387Y44914912D01*
X1611650Y44746062D01*
X1783526Y44603368D01*
X1853995Y44562189D01*
X1856845Y44560524D01*
X1905569Y44508886D01*
X1918640Y44439103D01*
X1891909Y44373331D01*
X1851455Y44339973D01*
X1839007Y44333493D01*
X1834874Y44330390D01*
X1834871Y44330388D01*
X1703307Y44231607D01*
X1660365Y44199365D01*
X1506029Y44037862D01*
X1503115Y44033590D01*
X1503114Y44033589D01*
X1492661Y44018265D01*
X1380143Y43853320D01*
X1286088Y43650695D01*
X1226389Y43435430D01*
X1202651Y43213305D01*
X1202948Y43208152D01*
X1202948Y43208149D01*
X1208411Y43113410D01*
X1215510Y42990285D01*
X1216647Y42985239D01*
X1216648Y42985233D01*
X1221823Y42962271D01*
X1264622Y42772361D01*
X1348666Y42565384D01*
X1465387Y42374912D01*
X1611650Y42206062D01*
X1783526Y42063368D01*
X1825311Y42038951D01*
X1856845Y42020524D01*
X1905569Y41968886D01*
X1918640Y41899103D01*
X1891909Y41833331D01*
X1851455Y41799973D01*
X1839007Y41793493D01*
X1834874Y41790390D01*
X1834871Y41790388D01*
X1664500Y41662470D01*
X1660365Y41659365D01*
X1656793Y41655627D01*
X1522900Y41515516D01*
X1506029Y41497862D01*
X1380143Y41313320D01*
X1286088Y41110695D01*
X1226389Y40895430D01*
X1202651Y40673305D01*
X1202948Y40668152D01*
X1202948Y40668149D01*
X1213530Y40484620D01*
X1215510Y40450285D01*
X1216647Y40445239D01*
X1216648Y40445233D01*
X1237675Y40351931D01*
X1264622Y40232361D01*
X1326073Y40081024D01*
X1345327Y40033608D01*
X1348666Y40025384D01*
X1365145Y39998493D01*
X1455001Y39851861D01*
X1465387Y39834912D01*
X1611650Y39666062D01*
X1783526Y39523368D01*
X1853995Y39482189D01*
X1856845Y39480524D01*
X1905569Y39428886D01*
X1918640Y39359103D01*
X1891909Y39293331D01*
X1851455Y39259973D01*
X1839007Y39253493D01*
X1834874Y39250390D01*
X1834871Y39250388D01*
X1664500Y39122470D01*
X1660365Y39119365D01*
X1656793Y39115627D01*
X1522900Y38975516D01*
X1506029Y38957862D01*
X1503115Y38953590D01*
X1503114Y38953589D01*
X1440846Y38862307D01*
X1380143Y38773320D01*
X1286088Y38570695D01*
X1226389Y38355430D01*
X1202651Y38133305D01*
X1202948Y38128152D01*
X1202948Y38128149D01*
X1208602Y38030092D01*
X1215510Y37910285D01*
X1216647Y37905239D01*
X1216648Y37905233D01*
X1235304Y37822453D01*
X1264622Y37692361D01*
X1348666Y37485384D01*
X1465387Y37294912D01*
X1611650Y37126062D01*
X1783526Y36983368D01*
X1853995Y36942189D01*
X1856845Y36940524D01*
X1905569Y36888886D01*
X1918640Y36819103D01*
X1891909Y36753331D01*
X1851455Y36719973D01*
X1839007Y36713493D01*
X1834874Y36710390D01*
X1834871Y36710388D01*
X1664500Y36582470D01*
X1660365Y36579365D01*
X1506029Y36417862D01*
X1380143Y36233320D01*
X1286088Y36030695D01*
X1226389Y35815430D01*
X1202651Y35593305D01*
X1202948Y35588152D01*
X1202948Y35588149D01*
X1212624Y35420342D01*
X1215510Y35370285D01*
X1216647Y35365239D01*
X1216648Y35365233D01*
X1237675Y35271931D01*
X1264622Y35152361D01*
X1302861Y35058189D01*
X1336607Y34975083D01*
X1348666Y34945384D01*
X1465387Y34754912D01*
X1611650Y34586062D01*
X1783526Y34443368D01*
X1842727Y34408774D01*
X1856845Y34400524D01*
X1905569Y34348886D01*
X1918640Y34279103D01*
X1891909Y34213331D01*
X1851455Y34179973D01*
X1839007Y34173493D01*
X1834874Y34170390D01*
X1834871Y34170388D01*
X1664500Y34042470D01*
X1660365Y34039365D01*
X1506029Y33877862D01*
X1503115Y33873590D01*
X1503114Y33873589D01*
X1469987Y33825026D01*
X1380143Y33693320D01*
X1356893Y33643231D01*
X1299875Y33520396D01*
X1286088Y33490695D01*
X1226389Y33275430D01*
X1202651Y33053305D01*
X1202948Y33048152D01*
X1202948Y33048149D01*
X1215212Y32835453D01*
X1215510Y32830285D01*
X1216647Y32825239D01*
X1216648Y32825233D01*
X1217834Y32819971D01*
X1264622Y32612361D01*
X1348666Y32405384D01*
X1465387Y32214912D01*
X1611650Y32046062D01*
X1783526Y31903368D01*
X1806988Y31889658D01*
X1856845Y31860524D01*
X1905569Y31808886D01*
X1918640Y31739103D01*
X1891909Y31673331D01*
X1851455Y31639973D01*
X1839007Y31633493D01*
X1834874Y31630390D01*
X1834871Y31630388D01*
X1810647Y31612200D01*
X1660365Y31499365D01*
X1506029Y31337862D01*
X1380143Y31153320D01*
X1364403Y31119410D01*
X1294892Y30969661D01*
X1286088Y30950695D01*
X1226389Y30735430D01*
X1202651Y30513305D01*
X1202948Y30508152D01*
X1202948Y30508149D01*
X1215212Y30295453D01*
X1215510Y30290285D01*
X1216647Y30285239D01*
X1216648Y30285233D01*
X1232858Y30213308D01*
X1264622Y30072361D01*
X1301432Y29981709D01*
X1343341Y29878499D01*
X1348666Y29865384D01*
X1380843Y29812876D01*
X1446194Y29706233D01*
X1465387Y29674912D01*
X1611650Y29506062D01*
X1783526Y29363368D01*
X1791840Y29358510D01*
X1856845Y29320524D01*
X1905569Y29268886D01*
X1918640Y29199103D01*
X1891909Y29133331D01*
X1851455Y29099973D01*
X1839007Y29093493D01*
X1834874Y29090390D01*
X1834871Y29090388D01*
X1664500Y28962470D01*
X1660365Y28959365D01*
X1656793Y28955627D01*
X1533281Y28826379D01*
X1506029Y28797862D01*
X1503115Y28793590D01*
X1503114Y28793589D01*
X1485238Y28767383D01*
X1380143Y28613320D01*
X1286088Y28410695D01*
X1226389Y28195430D01*
X1202651Y27973305D01*
X1202948Y27968152D01*
X1202948Y27968149D01*
X1208411Y27873410D01*
X1215510Y27750285D01*
X1216647Y27745239D01*
X1216648Y27745233D01*
X1232823Y27673463D01*
X1264622Y27532361D01*
X1348666Y27325384D01*
X1351365Y27320980D01*
X1439080Y27177842D01*
X1465387Y27134912D01*
X1611650Y26966062D01*
X1783526Y26823368D01*
X1828379Y26797158D01*
X1856845Y26780524D01*
X1905569Y26728886D01*
X1918640Y26659103D01*
X1891909Y26593331D01*
X1851455Y26559973D01*
X1839007Y26553493D01*
X1834874Y26550390D01*
X1834871Y26550388D01*
X1664500Y26422470D01*
X1660365Y26419365D01*
X1506029Y26257862D01*
X1380143Y26073320D01*
X1286088Y25870695D01*
X1226389Y25655430D01*
X1202651Y25433305D01*
X1202948Y25428152D01*
X1202948Y25428149D01*
X1208411Y25333410D01*
X1215510Y25210285D01*
X1216647Y25205239D01*
X1216648Y25205233D01*
X1229407Y25148621D01*
X1264622Y24992361D01*
X1348666Y24785384D01*
X1351365Y24780980D01*
X1454221Y24613134D01*
X1465387Y24594912D01*
X1611650Y24426062D01*
X1783526Y24283368D01*
X1813907Y24265615D01*
X1856845Y24240524D01*
X1905569Y24188886D01*
X1918640Y24119103D01*
X1891909Y24053331D01*
X1851455Y24019973D01*
X1839007Y24013493D01*
X1834874Y24010390D01*
X1834871Y24010388D01*
X1664500Y23882470D01*
X1660365Y23879365D01*
X1506029Y23717862D01*
X1380143Y23533320D01*
X1286088Y23330695D01*
X1226389Y23115430D01*
X1202651Y22893305D01*
X1202948Y22888152D01*
X1202948Y22888149D01*
X1208411Y22793410D01*
X1215510Y22670285D01*
X1216647Y22665239D01*
X1216648Y22665233D01*
X1224316Y22631210D01*
X1264622Y22452361D01*
X1348666Y22245384D01*
X1367144Y22215231D01*
X1455001Y22071861D01*
X1465387Y22054912D01*
X1611650Y21886062D01*
X1783526Y21743368D01*
X1853995Y21702189D01*
X1856845Y21700524D01*
X1905569Y21648886D01*
X1918640Y21579103D01*
X1891909Y21513331D01*
X1851455Y21479973D01*
X1839007Y21473493D01*
X1834874Y21470390D01*
X1834871Y21470388D01*
X1664500Y21342470D01*
X1660365Y21339365D01*
X1656793Y21335627D01*
X1583111Y21258523D01*
X1506029Y21177862D01*
X1503115Y21173590D01*
X1503114Y21173589D01*
X1433539Y21071595D01*
X1380143Y20993320D01*
X1286088Y20790695D01*
X1226389Y20575430D01*
X1202651Y20353305D01*
X1202948Y20348152D01*
X1202948Y20348149D01*
X1211452Y20200669D01*
X1215510Y20130285D01*
X1216647Y20125239D01*
X1216648Y20125233D01*
X1236519Y20037061D01*
X1264622Y19912361D01*
X1348666Y19705384D01*
X1465387Y19514912D01*
X1611650Y19346062D01*
X1783526Y19203368D01*
X1853995Y19162189D01*
X1856845Y19160524D01*
X1905569Y19108886D01*
X1918640Y19039103D01*
X1891909Y18973331D01*
X1851455Y18939973D01*
X1839007Y18933493D01*
X1834874Y18930390D01*
X1834871Y18930388D01*
X1685817Y18818475D01*
X1660365Y18799365D01*
X1506029Y18637862D01*
X1503115Y18633590D01*
X1503114Y18633589D01*
X1442454Y18544664D01*
X1380143Y18453320D01*
X1364403Y18419410D01*
X1300608Y18281975D01*
X1286088Y18250695D01*
X1226389Y18035430D01*
X1202651Y17813305D01*
X1202948Y17808152D01*
X1202948Y17808149D01*
X1210985Y17668758D01*
X1215510Y17590285D01*
X1216647Y17585239D01*
X1216648Y17585233D01*
X1237675Y17491931D01*
X1264622Y17372361D01*
X1348666Y17165384D01*
X1384287Y17107255D01*
X1451331Y16997850D01*
X1465387Y16974912D01*
X1611650Y16806062D01*
X1783526Y16663368D01*
X1795675Y16656269D01*
X1856845Y16620524D01*
X1905569Y16568886D01*
X1918640Y16499103D01*
X1891909Y16433331D01*
X1851455Y16399973D01*
X1839007Y16393493D01*
X1834874Y16390390D01*
X1834871Y16390388D01*
X1664500Y16262470D01*
X1660365Y16259365D01*
X1506029Y16097862D01*
X1380143Y15913320D01*
X1364403Y15879410D01*
X1292558Y15724633D01*
X1286088Y15710695D01*
X1226389Y15495430D01*
X1202651Y15273305D01*
X1202948Y15268152D01*
X1202948Y15268149D01*
X1215212Y15055453D01*
X1215510Y15050285D01*
X1216647Y15045239D01*
X1216648Y15045233D01*
X1217834Y15039971D01*
X1264622Y14832361D01*
X1348666Y14625384D01*
X1465387Y14434912D01*
X1611650Y14266062D01*
X1783526Y14123368D01*
X1806988Y14109658D01*
X1856845Y14080524D01*
X1905569Y14028886D01*
X1918640Y13959103D01*
X1891909Y13893331D01*
X1851455Y13859973D01*
X1839007Y13853493D01*
X1834874Y13850390D01*
X1834871Y13850388D01*
X1664500Y13722470D01*
X1660365Y13719365D01*
X1656793Y13715627D01*
X1515276Y13567538D01*
X1506029Y13557862D01*
X1503115Y13553590D01*
X1503114Y13553589D01*
X1485238Y13527383D01*
X1380143Y13373320D01*
X1365497Y13341768D01*
X1297997Y13196350D01*
X1286088Y13170695D01*
X1226389Y12955430D01*
X1202651Y12733305D01*
X1202948Y12728152D01*
X1202948Y12728149D01*
X1209580Y12613134D01*
X1215510Y12510285D01*
X1216647Y12505239D01*
X1216648Y12505233D01*
X1230162Y12445269D01*
X1264622Y12292361D01*
X1348666Y12085384D01*
X1465387Y11894912D01*
X1611650Y11726062D01*
X1706329Y11647458D01*
X1778388Y11587634D01*
X1783526Y11583368D01*
X1798615Y11574551D01*
X1856845Y11540524D01*
X1905569Y11488886D01*
X1918640Y11419103D01*
X1891909Y11353331D01*
X1851455Y11319973D01*
X1848232Y11318295D01*
X1839007Y11313493D01*
X1834874Y11310390D01*
X1834871Y11310388D01*
X1664500Y11182470D01*
X1660365Y11179365D01*
X1506029Y11017862D01*
X1380143Y10833320D01*
X1286088Y10630695D01*
X1226389Y10415430D01*
X1202651Y10193305D01*
X1202948Y10188152D01*
X1202948Y10188149D01*
X1208411Y10093410D01*
X1215510Y9970285D01*
X1216647Y9965239D01*
X1216648Y9965233D01*
X1235007Y9883770D01*
X1264622Y9752361D01*
X1301561Y9661390D01*
X1346183Y9551500D01*
X1348666Y9545384D01*
X1351365Y9540980D01*
X1461031Y9362021D01*
X1465387Y9354912D01*
X1611650Y9186062D01*
X1783526Y9043368D01*
X1830542Y9015894D01*
X1856845Y9000524D01*
X1905569Y8948886D01*
X1918640Y8879103D01*
X1891909Y8813331D01*
X1851455Y8779973D01*
X1839007Y8773493D01*
X1834874Y8770390D01*
X1834871Y8770388D01*
X1669741Y8646405D01*
X1660365Y8639365D01*
X1506029Y8477862D01*
X1503115Y8473590D01*
X1503114Y8473589D01*
X1417956Y8348751D01*
X1380143Y8293320D01*
X1286088Y8090695D01*
X1226389Y7875430D01*
X1202651Y7653305D01*
X1202948Y7648152D01*
X1202948Y7648149D01*
X1208411Y7553410D01*
X1215510Y7430285D01*
X1216647Y7425239D01*
X1216648Y7425233D01*
X1225208Y7387250D01*
X1264622Y7212361D01*
X1313010Y7093194D01*
X1346721Y7010175D01*
X1348666Y7005384D01*
X1465387Y6814912D01*
X1611650Y6646062D01*
X1783526Y6503368D01*
X1789295Y6499997D01*
X1856845Y6460524D01*
X1905569Y6408886D01*
X1918640Y6339103D01*
X1891909Y6273331D01*
X1851455Y6239973D01*
X1839007Y6233493D01*
X1834874Y6230390D01*
X1834871Y6230388D01*
X1664500Y6102470D01*
X1660365Y6099365D01*
X1506029Y5937862D01*
X1380143Y5753320D01*
X1364403Y5719410D01*
X1291998Y5563426D01*
X1286088Y5550695D01*
X1226389Y5335430D01*
X1202651Y5113305D01*
X533400Y5113305D01*
X533400Y52706000D01*
X553402Y52774121D01*
X607058Y52820614D01*
X659400Y52832000D01*
X9182671Y52832000D01*
X9250792Y52811998D01*
G37*
%TD.AperFunction*%
%TA.AperFunction,Conductor*%
G36*
X14150654Y14913139D02*
G01*
X14207490Y14870592D01*
X14232301Y14804072D01*
X14231966Y14782239D01*
X14227928Y14742828D01*
X14227600Y14736415D01*
X14227600Y14724715D01*
X14232075Y14709476D01*
X14233465Y14708271D01*
X14241148Y14706600D01*
X15369100Y14706600D01*
X15437221Y14686598D01*
X15483714Y14632942D01*
X15495100Y14580600D01*
X15495100Y10675580D01*
X15475098Y10607459D01*
X15421442Y10560966D01*
X15369100Y10549580D01*
X15113100Y10549580D01*
X15044979Y10569582D01*
X14998486Y10623238D01*
X14987100Y10675580D01*
X14987100Y11589468D01*
X15007102Y11657589D01*
X15017404Y11671351D01*
X15019100Y11679148D01*
X15019100Y12148485D01*
X15014625Y12163724D01*
X15013235Y12164929D01*
X15005552Y12166600D01*
X14245715Y12166600D01*
X14230476Y12162125D01*
X14229271Y12160735D01*
X14227600Y12153052D01*
X14227600Y12136834D01*
X14227937Y12130318D01*
X14237675Y12036468D01*
X14240568Y12023072D01*
X14291088Y11871647D01*
X14297253Y11858485D01*
X14381026Y11723108D01*
X14390060Y11711710D01*
X14465066Y11636834D01*
X14499145Y11574551D01*
X14494142Y11503731D01*
X14465221Y11458643D01*
X14357237Y11350471D01*
X14348225Y11339060D01*
X14264688Y11203537D01*
X14258544Y11190359D01*
X14208285Y11038834D01*
X14205419Y11025468D01*
X14195928Y10932830D01*
X14195600Y10926415D01*
X14195600Y10876372D01*
X14175598Y10808251D01*
X14121942Y10761758D01*
X14051668Y10751654D01*
X14002086Y10769987D01*
X13977020Y10785895D01*
X13977017Y10785897D01*
X13971066Y10789673D01*
X13918171Y10808508D01*
X13806825Y10848157D01*
X13806820Y10848158D01*
X13800190Y10850519D01*
X13793202Y10851352D01*
X13793199Y10851353D01*
X13670098Y10866032D01*
X13620080Y10871996D01*
X13613077Y10871260D01*
X13613076Y10871260D01*
X13446688Y10853772D01*
X13446686Y10853771D01*
X13439688Y10853036D01*
X13267979Y10794582D01*
X13261975Y10790888D01*
X13119495Y10703234D01*
X13119492Y10703232D01*
X13113488Y10699538D01*
X13108453Y10694607D01*
X13108450Y10694605D01*
X13047982Y10635390D01*
X12983893Y10572629D01*
X12885635Y10420162D01*
X12883226Y10413542D01*
X12883224Y10413539D01*
X12870099Y10377478D01*
X12823597Y10249715D01*
X12800863Y10069760D01*
X12818563Y9889240D01*
X12825560Y9868208D01*
X12828082Y9797257D01*
X12807817Y9756281D01*
X12808270Y9756002D01*
X12805281Y9751154D01*
X12805277Y9751146D01*
X12804431Y9749774D01*
X12804429Y9749771D01*
X12779225Y9708883D01*
X12726453Y9661390D01*
X12671966Y9649000D01*
X12088370Y9649000D01*
X12020249Y9669002D01*
X11981226Y9708697D01*
X11955170Y9750803D01*
X11951316Y9757031D01*
X11911020Y9797257D01*
X11833384Y9874758D01*
X11833379Y9874762D01*
X11828203Y9879929D01*
X11680120Y9971209D01*
X11515009Y10025974D01*
X11508173Y10026674D01*
X11508170Y10026675D01*
X11456674Y10031951D01*
X11412272Y10036500D01*
X11094639Y10036500D01*
X11026518Y10056502D01*
X11005544Y10073405D01*
X10237544Y10841405D01*
X10203518Y10903717D01*
X10208583Y10974532D01*
X10251130Y11031368D01*
X10317650Y11056179D01*
X10326639Y11056500D01*
X10938534Y11056500D01*
X11000716Y11063255D01*
X11137105Y11114385D01*
X11144292Y11119771D01*
X11152160Y11124079D01*
X11153291Y11122013D01*
X11207818Y11142382D01*
X11255808Y11136541D01*
X11389169Y11093210D01*
X11403267Y11092807D01*
X11406400Y11099179D01*
X11406400Y12193000D01*
X11426402Y12261121D01*
X11480058Y12307614D01*
X11532400Y12319000D01*
X11788400Y12319000D01*
X11856521Y12298998D01*
X11903014Y12245342D01*
X11914400Y12193000D01*
X11914400Y11107436D01*
X11918373Y11093905D01*
X11926588Y11092724D01*
X12020737Y11119011D01*
X12032187Y11123452D01*
X12197626Y11207021D01*
X12207988Y11213597D01*
X12216474Y11220227D01*
X12282468Y11246405D01*
X12355517Y11230926D01*
X12524694Y11136376D01*
X12712792Y11075260D01*
X12909177Y11051842D01*
X12915312Y11052314D01*
X12915314Y11052314D01*
X13100230Y11066543D01*
X13100234Y11066544D01*
X13106372Y11067016D01*
X13296863Y11120202D01*
X13302367Y11122982D01*
X13302369Y11122983D01*
X13467895Y11206596D01*
X13467897Y11206597D01*
X13473396Y11209375D01*
X13629247Y11331139D01*
X13758478Y11480855D01*
X13856169Y11652821D01*
X13918597Y11840487D01*
X13943385Y12036705D01*
X13943780Y12065000D01*
X13924480Y12261833D01*
X13913741Y12297404D01*
X13880658Y12406977D01*
X13867316Y12451169D01*
X13774466Y12625796D01*
X13719888Y12692715D01*
X14227600Y12692715D01*
X14232075Y12677476D01*
X14233465Y12676271D01*
X14241148Y12674600D01*
X15000985Y12674600D01*
X15016224Y12679075D01*
X15017429Y12680465D01*
X15019100Y12688148D01*
X15019100Y13385485D01*
X15015957Y13396189D01*
X15013732Y13458469D01*
X15019100Y13483147D01*
X15019100Y14180485D01*
X15014625Y14195724D01*
X15013235Y14196929D01*
X15005552Y14198600D01*
X14245715Y14198600D01*
X14230476Y14194125D01*
X14229271Y14192735D01*
X14227600Y14185052D01*
X14227600Y14168834D01*
X14227937Y14162318D01*
X14237675Y14068468D01*
X14240568Y14055072D01*
X14291088Y13903647D01*
X14297253Y13890485D01*
X14381026Y13755108D01*
X14390060Y13743710D01*
X14502729Y13631237D01*
X14514140Y13622225D01*
X14641156Y13543932D01*
X14688649Y13491160D01*
X14700073Y13421089D01*
X14671799Y13355965D01*
X14641343Y13329527D01*
X14513104Y13250171D01*
X14501710Y13241140D01*
X14389237Y13128471D01*
X14380225Y13117060D01*
X14296688Y12981537D01*
X14290544Y12968359D01*
X14240285Y12816834D01*
X14237419Y12803468D01*
X14227928Y12710830D01*
X14227600Y12704415D01*
X14227600Y12692715D01*
X13719888Y12692715D01*
X13679812Y12741853D01*
X13653360Y12774287D01*
X13653357Y12774290D01*
X13649465Y12779062D01*
X13644716Y12782991D01*
X13501825Y12901201D01*
X13501821Y12901203D01*
X13497075Y12905130D01*
X13399970Y12957635D01*
X13349562Y13007629D01*
X13333900Y13068470D01*
X13333900Y14148361D01*
X13353902Y14216482D01*
X13370805Y14237456D01*
X14017527Y14884178D01*
X14079839Y14918204D01*
X14150654Y14913139D01*
G37*
%TD.AperFunction*%
%TA.AperFunction,Conductor*%
G36*
X12221021Y21188998D02*
G01*
X12267514Y21135342D01*
X12278900Y21083000D01*
X12278900Y20039061D01*
X12258898Y19970940D01*
X12242784Y19956977D01*
X12244504Y19955486D01*
X12219071Y19926135D01*
X12217400Y19918452D01*
X12217400Y19456000D01*
X12197398Y19387879D01*
X12143742Y19341386D01*
X12091400Y19330000D01*
X11148516Y19330000D01*
X11133277Y19325525D01*
X11132072Y19324135D01*
X11130401Y19316452D01*
X11130401Y19114331D01*
X11130771Y19107510D01*
X11136295Y19056648D01*
X11139921Y19041396D01*
X11185076Y18920946D01*
X11193614Y18905351D01*
X11208880Y18884982D01*
X11233728Y18818475D01*
X11218675Y18749093D01*
X11208880Y18733852D01*
X11187785Y18705705D01*
X11136655Y18569316D01*
X11129900Y18507134D01*
X11129900Y17560866D01*
X11136655Y17498684D01*
X11187785Y17362295D01*
X11275139Y17245739D01*
X11391695Y17158385D01*
X11528084Y17107255D01*
X11590266Y17100500D01*
X12336534Y17100500D01*
X12398716Y17107255D01*
X12535105Y17158385D01*
X12651661Y17245739D01*
X12687576Y17293660D01*
X12744433Y17336173D01*
X12815251Y17341199D01*
X12877545Y17307139D01*
X12889217Y17293670D01*
X12925139Y17245739D01*
X13041695Y17158385D01*
X13050104Y17155233D01*
X13050105Y17155232D01*
X13132094Y17124496D01*
X13188859Y17081855D01*
X13213559Y17015293D01*
X13206415Y16971446D01*
X13208340Y16970930D01*
X13206202Y16962951D01*
X13203042Y16955322D01*
X13187380Y16836357D01*
X13187380Y16836351D01*
X13182130Y16796471D01*
X13183208Y16788283D01*
X13186302Y16764781D01*
X13187380Y16748335D01*
X13187380Y16335319D01*
X13167378Y16267198D01*
X13150475Y16246224D01*
X10014656Y13110405D01*
X9952344Y13076379D01*
X9925561Y13073500D01*
X9842266Y13073500D01*
X9814367Y13070469D01*
X9744487Y13082996D01*
X9692470Y13131316D01*
X9674835Y13200088D01*
X9682972Y13240476D01*
X9685787Y13247885D01*
X9721450Y13341768D01*
X9726355Y13354680D01*
X9726356Y13354682D01*
X9728855Y13361262D01*
X9732259Y13385485D01*
X9753548Y13536961D01*
X9753548Y13536964D01*
X9754099Y13540883D01*
X9754416Y13563600D01*
X9745415Y13643847D01*
X9757699Y13713772D01*
X9781535Y13746986D01*
X9946634Y13912085D01*
X9959025Y13922952D01*
X9977837Y13937387D01*
X9984387Y13942413D01*
X10008874Y13974325D01*
X10008878Y13974329D01*
X10081924Y14069524D01*
X10143238Y14217549D01*
X10164151Y14376400D01*
X10159978Y14408099D01*
X10158900Y14424544D01*
X10158900Y20498752D01*
X10179952Y20568479D01*
X10248222Y20671234D01*
X11044900Y20671234D01*
X11045237Y20664718D01*
X11054975Y20570868D01*
X11057868Y20557472D01*
X11108385Y20406055D01*
X11114556Y20392883D01*
X11159963Y20319505D01*
X11178800Y20251053D01*
X11170800Y20208972D01*
X11139922Y20126605D01*
X11136295Y20111351D01*
X11130769Y20060486D01*
X11130400Y20053672D01*
X11130400Y19856115D01*
X11134875Y19840876D01*
X11136265Y19839671D01*
X11143948Y19838000D01*
X11691285Y19838000D01*
X11706524Y19842475D01*
X11707729Y19843865D01*
X11709400Y19851548D01*
X11709400Y20431000D01*
X11729402Y20499121D01*
X11783058Y20545614D01*
X11801564Y20549640D01*
X11800902Y20551896D01*
X11833524Y20561475D01*
X11834729Y20562865D01*
X11836400Y20570548D01*
X11836400Y20682885D01*
X11831925Y20698124D01*
X11830535Y20699329D01*
X11822852Y20701000D01*
X11063015Y20701000D01*
X11047776Y20696525D01*
X11046571Y20695135D01*
X11044900Y20687452D01*
X11044900Y20671234D01*
X10248222Y20671234D01*
X10259256Y20687842D01*
X10274043Y20710098D01*
X10338455Y20879662D01*
X10342261Y20906739D01*
X10353820Y20988991D01*
X10383108Y21053665D01*
X10389499Y21060550D01*
X10400544Y21071595D01*
X10462856Y21105621D01*
X10489639Y21108500D01*
X11661264Y21108500D01*
X11677707Y21107422D01*
X11709400Y21103250D01*
X11717589Y21104328D01*
X11749274Y21108499D01*
X11749284Y21108500D01*
X11749285Y21108500D01*
X11848857Y21121609D01*
X11860064Y21123084D01*
X11860066Y21123085D01*
X11868251Y21124162D01*
X11961819Y21162919D01*
X12008650Y21182317D01*
X12008651Y21182318D01*
X12016276Y21185476D01*
X12022825Y21190502D01*
X12025625Y21192118D01*
X12088626Y21209000D01*
X12152900Y21209000D01*
X12221021Y21188998D01*
G37*
%TD.AperFunction*%
%TA.AperFunction,Conductor*%
G36*
X5479521Y16296498D02*
G01*
X5526014Y16242842D01*
X5537400Y16190500D01*
X5537400Y15559500D01*
X5517398Y15491379D01*
X5463742Y15444886D01*
X5411400Y15433500D01*
X5263400Y15433500D01*
X5195279Y15453502D01*
X5148786Y15507158D01*
X5137400Y15559500D01*
X5137400Y16190500D01*
X5157402Y16258621D01*
X5211058Y16305114D01*
X5263400Y16316500D01*
X5411400Y16316500D01*
X5479521Y16296498D01*
G37*
%TD.AperFunction*%
%TA.AperFunction,Conductor*%
G36*
X16388638Y20219903D02*
G01*
X16392923Y20220463D01*
X16399960Y20220671D01*
X16715300Y20220671D01*
X16783421Y20200669D01*
X16829914Y20147013D01*
X16841300Y20094671D01*
X16841300Y19760639D01*
X16821298Y19692518D01*
X16804395Y19671544D01*
X16189966Y19057115D01*
X16177575Y19046248D01*
X16152213Y19026787D01*
X16127726Y18994875D01*
X16127723Y18994872D01*
X16127717Y18994864D01*
X16062303Y18909615D01*
X16054676Y18899676D01*
X15993362Y18751651D01*
X15993362Y18751650D01*
X15977700Y18632685D01*
X15977700Y18632680D01*
X15972450Y18592800D01*
X15975697Y18568139D01*
X15976622Y18561110D01*
X15977700Y18544664D01*
X15977700Y17824569D01*
X15957698Y17756448D01*
X15940795Y17735474D01*
X15825798Y17620477D01*
X15763486Y17586451D01*
X15723860Y17584228D01*
X15625830Y17594272D01*
X15619415Y17594600D01*
X15545215Y17594600D01*
X15529976Y17590125D01*
X15528771Y17588735D01*
X15527100Y17581052D01*
X15527100Y17261089D01*
X15517509Y17212872D01*
X15515511Y17208049D01*
X15515510Y17208043D01*
X15510762Y17196581D01*
X15510762Y17196580D01*
X15509014Y17183306D01*
X15509014Y17183305D01*
X15505318Y17155232D01*
X15495100Y17077615D01*
X15495100Y17077610D01*
X15489850Y17037730D01*
X15490928Y17029542D01*
X15494022Y17006040D01*
X15495100Y16989594D01*
X15495100Y16483600D01*
X15475098Y16415479D01*
X15421442Y16368986D01*
X15369100Y16357600D01*
X15145100Y16357600D01*
X15076979Y16377602D01*
X15030486Y16431258D01*
X15019100Y16483600D01*
X15019100Y16649965D01*
X15039102Y16718086D01*
X15045138Y16726669D01*
X15057264Y16742471D01*
X15092417Y16788283D01*
X15102416Y16801314D01*
X15102417Y16801316D01*
X15107444Y16807867D01*
X15148208Y16906280D01*
X15165599Y16948265D01*
X15165599Y16948266D01*
X15168758Y16955892D01*
X15171503Y16976745D01*
X15184420Y17074858D01*
X15184420Y17074863D01*
X15189670Y17114743D01*
X15185498Y17146436D01*
X15184420Y17162879D01*
X15184420Y19372511D01*
X15204422Y19440632D01*
X15221325Y19461606D01*
X15353154Y19593435D01*
X15365545Y19604302D01*
X15384357Y19618737D01*
X15390907Y19623763D01*
X15415394Y19655675D01*
X15415397Y19655678D01*
X15488443Y19750874D01*
X15488444Y19750875D01*
X15516327Y19818189D01*
X15546598Y19891271D01*
X15549758Y19898900D01*
X15565420Y20017865D01*
X15565420Y20017872D01*
X15570670Y20057750D01*
X15567974Y20078226D01*
X15578913Y20148372D01*
X15626040Y20201471D01*
X15692896Y20220671D01*
X15789247Y20220671D01*
X15789247Y20220673D01*
X15792215Y20221082D01*
X15888638Y20219903D01*
X15892923Y20220463D01*
X15899960Y20220671D01*
X16289247Y20220671D01*
X16289247Y20220673D01*
X16292215Y20221082D01*
X16388638Y20219903D01*
G37*
%TD.AperFunction*%
%TA.AperFunction,Conductor*%
G36*
X6326545Y18568139D02*
G01*
X6338217Y18554670D01*
X6374139Y18506739D01*
X6490695Y18419385D01*
X6627084Y18368255D01*
X6688958Y18361534D01*
X6688959Y18361533D01*
X6689266Y18361500D01*
X6689258Y18361428D01*
X6755338Y18338069D01*
X6798857Y18281975D01*
X6805140Y18211257D01*
X6770672Y18146821D01*
X6741166Y18117315D01*
X6728775Y18106448D01*
X6703413Y18086987D01*
X6678926Y18055075D01*
X6678923Y18055072D01*
X6678917Y18055064D01*
X6615580Y17972522D01*
X6605876Y17959876D01*
X6581753Y17901638D01*
X6557152Y17842246D01*
X6512604Y17786965D01*
X6501252Y17779944D01*
X6499100Y17778766D01*
X6490695Y17775615D01*
X6483512Y17770231D01*
X6483511Y17770231D01*
X6437135Y17735474D01*
X6374139Y17688261D01*
X6338224Y17640340D01*
X6281367Y17597827D01*
X6210549Y17592801D01*
X6148255Y17626861D01*
X6136583Y17640330D01*
X6100661Y17688261D01*
X6037665Y17735474D01*
X5991289Y17770231D01*
X5991288Y17770231D01*
X5984105Y17775615D01*
X5975697Y17778767D01*
X5969810Y17781990D01*
X5919663Y17832248D01*
X5904648Y17901638D01*
X5913908Y17940727D01*
X5930238Y17980150D01*
X5933860Y18007658D01*
X5945900Y18099115D01*
X5945900Y18099122D01*
X5950072Y18130812D01*
X5951150Y18139000D01*
X5946978Y18170693D01*
X5945900Y18187136D01*
X5945900Y18327725D01*
X5965902Y18395846D01*
X5996335Y18428551D01*
X6093481Y18501358D01*
X6100661Y18506739D01*
X6136576Y18554660D01*
X6193433Y18597173D01*
X6264251Y18602199D01*
X6326545Y18568139D01*
G37*
%TD.AperFunction*%
%TA.AperFunction,Conductor*%
G36*
X5479521Y20741498D02*
G01*
X5526014Y20687842D01*
X5537400Y20635500D01*
X5537400Y20004500D01*
X5517398Y19936379D01*
X5463742Y19889886D01*
X5411400Y19878500D01*
X5263400Y19878500D01*
X5195279Y19898502D01*
X5148786Y19952158D01*
X5137400Y20004500D01*
X5137400Y20557261D01*
X5157402Y20625382D01*
X5174305Y20646356D01*
X5252544Y20724595D01*
X5314856Y20758621D01*
X5341639Y20761500D01*
X5411400Y20761500D01*
X5479521Y20741498D01*
G37*
%TD.AperFunction*%
%TA.AperFunction,Conductor*%
G36*
X11382463Y25112682D02*
G01*
X11426352Y25056877D01*
X11434643Y25023650D01*
X11435295Y25017647D01*
X11438921Y25002396D01*
X11484076Y24881946D01*
X11492614Y24866351D01*
X11569115Y24764276D01*
X11581676Y24751715D01*
X11683751Y24675214D01*
X11699346Y24666676D01*
X11819794Y24621522D01*
X11835049Y24617895D01*
X11885914Y24612369D01*
X11892728Y24612000D01*
X12079420Y24612000D01*
X12147541Y24591998D01*
X12194034Y24538342D01*
X12205420Y24486000D01*
X12205420Y24289499D01*
X12185418Y24221378D01*
X12131762Y24174885D01*
X12079422Y24163499D01*
X11966340Y24163499D01*
X11962582Y24163044D01*
X11962578Y24163044D01*
X11941096Y24160444D01*
X11902532Y24155778D01*
X11872262Y24155779D01*
X11855052Y24157862D01*
X11812225Y24163045D01*
X11812217Y24163046D01*
X11808461Y24163500D01*
X11687496Y24163500D01*
X11566340Y24163499D01*
X11562582Y24163044D01*
X11562578Y24163044D01*
X11541096Y24160444D01*
X11502532Y24155778D01*
X11472262Y24155779D01*
X11455052Y24157862D01*
X11412225Y24163045D01*
X11412217Y24163046D01*
X11408461Y24163500D01*
X11287496Y24163500D01*
X11166340Y24163499D01*
X11162584Y24163044D01*
X11162576Y24163044D01*
X11127231Y24158767D01*
X11116483Y24157466D01*
X11046453Y24169140D01*
X10993851Y24216822D01*
X10975379Y24285374D01*
X10976259Y24297680D01*
X10980900Y24336029D01*
X10980899Y24603970D01*
X10980444Y24607729D01*
X10980443Y24607748D01*
X10974741Y24654865D01*
X10974741Y24685141D01*
X10976724Y24701520D01*
X10980900Y24736029D01*
X10980899Y24934161D01*
X11000901Y25002281D01*
X11054556Y25048774D01*
X11090452Y25059082D01*
X11106251Y25061162D01*
X11254276Y25122476D01*
X11254803Y25121205D01*
X11315370Y25135901D01*
X11382463Y25112682D01*
G37*
%TD.AperFunction*%
%TA.AperFunction,Conductor*%
G36*
X5479521Y25186498D02*
G01*
X5526014Y25132842D01*
X5537400Y25080500D01*
X5537400Y24449500D01*
X5517398Y24381379D01*
X5463742Y24334886D01*
X5411400Y24323500D01*
X5263400Y24323500D01*
X5195279Y24343502D01*
X5148786Y24397158D01*
X5137400Y24449500D01*
X5137400Y25080500D01*
X5157402Y25148621D01*
X5211058Y25195114D01*
X5263400Y25206500D01*
X5411400Y25206500D01*
X5479521Y25186498D01*
G37*
%TD.AperFunction*%
%TA.AperFunction,Conductor*%
G36*
X5479521Y29631498D02*
G01*
X5526014Y29577842D01*
X5537400Y29525500D01*
X5537400Y28894500D01*
X5517398Y28826379D01*
X5463742Y28779886D01*
X5411400Y28768500D01*
X5173160Y28768500D01*
X5105039Y28788502D01*
X5058546Y28842158D01*
X5048442Y28912432D01*
X5077936Y28977012D01*
X5132382Y29012003D01*
X5135729Y29015865D01*
X5137400Y29023548D01*
X5137400Y29391885D01*
X5132925Y29407124D01*
X5107230Y29429389D01*
X5107934Y29430201D01*
X5096574Y29436404D01*
X5062549Y29498716D01*
X5067613Y29569532D01*
X5110159Y29626368D01*
X5176679Y29651179D01*
X5185669Y29651500D01*
X5411400Y29651500D01*
X5479521Y29631498D01*
G37*
%TD.AperFunction*%
%TA.AperFunction,Conductor*%
G36*
X9619521Y37317998D02*
G01*
X9666014Y37264342D01*
X9677400Y37212000D01*
X9677400Y36269116D01*
X9681875Y36253877D01*
X9683265Y36252672D01*
X9690948Y36251001D01*
X10077780Y36251001D01*
X10145901Y36230999D01*
X10192394Y36177343D01*
X10203780Y36125001D01*
X10203780Y30251623D01*
X10202702Y30235176D01*
X10198745Y30205120D01*
X10203780Y30166876D01*
X10218799Y30052796D01*
X10221960Y30045165D01*
X10224097Y30037189D01*
X10220664Y30036269D01*
X10226344Y29981709D01*
X10194350Y29918330D01*
X10133170Y29882309D01*
X10102422Y29878500D01*
X10100538Y29878500D01*
X10084094Y29879578D01*
X10060589Y29882672D01*
X10052400Y29883750D01*
X10028947Y29880662D01*
X9958799Y29891601D01*
X9905700Y29938728D01*
X9886500Y30005584D01*
X9886500Y30041074D01*
X9887578Y30057520D01*
X9890672Y30081022D01*
X9891750Y30089210D01*
X9886500Y30129090D01*
X9886500Y30129095D01*
X9870838Y30248060D01*
X9865638Y30260615D01*
X9847276Y30304945D01*
X9812684Y30388458D01*
X9812683Y30388460D01*
X9809524Y30396086D01*
X9736477Y30491281D01*
X9736476Y30491283D01*
X9717017Y30516643D01*
X9717013Y30516647D01*
X9711987Y30523197D01*
X9686624Y30542659D01*
X9674233Y30553525D01*
X9397364Y30830395D01*
X9363339Y30892707D01*
X9360460Y30919490D01*
X9360460Y34786304D01*
X9361538Y34802750D01*
X9364632Y34826252D01*
X9365710Y34834440D01*
X9363172Y34853723D01*
X9360460Y34874320D01*
X9360460Y34874325D01*
X9347195Y34975083D01*
X9345876Y34985103D01*
X9345876Y34985104D01*
X9344798Y34993291D01*
X9319839Y35053547D01*
X9286644Y35133688D01*
X9286643Y35133690D01*
X9283484Y35141316D01*
X9213994Y35231876D01*
X9185947Y35268427D01*
X9160577Y35287894D01*
X9148192Y35298756D01*
X8494004Y35952945D01*
X8459979Y36015257D01*
X8457100Y36042040D01*
X8457100Y36125000D01*
X8477102Y36193121D01*
X8530758Y36239614D01*
X8583100Y36251000D01*
X9151285Y36251000D01*
X9166524Y36255475D01*
X9167729Y36256865D01*
X9169400Y36264548D01*
X9169400Y37212000D01*
X9189402Y37280121D01*
X9243058Y37326614D01*
X9295400Y37338000D01*
X9551400Y37338000D01*
X9619521Y37317998D01*
G37*
%TD.AperFunction*%
%TA.AperFunction,Conductor*%
G36*
X18652510Y33480398D02*
G01*
X18699003Y33426742D01*
X18710389Y33374400D01*
X18710389Y33118400D01*
X18690387Y33050279D01*
X18636731Y33003786D01*
X18584389Y32992400D01*
X18369899Y32992400D01*
X18360773Y32992998D01*
X18360755Y32992742D01*
X18360741Y32992743D01*
X18353577Y32993470D01*
X18353447Y32993479D01*
X18353285Y32993500D01*
X18353282Y32993500D01*
X18353273Y32993501D01*
X18321589Y32997672D01*
X18313400Y32998750D01*
X18281707Y32994578D01*
X18265264Y32993500D01*
X16060380Y32993500D01*
X15992259Y33013502D01*
X15945766Y33067158D01*
X15934380Y33119500D01*
X15934380Y33165384D01*
X15935458Y33181830D01*
X15938552Y33205332D01*
X15939630Y33213520D01*
X15934380Y33253400D01*
X15934380Y33253405D01*
X15920616Y33357954D01*
X15931555Y33428103D01*
X15978684Y33481201D01*
X16045538Y33500400D01*
X18584389Y33500400D01*
X18652510Y33480398D01*
G37*
%TD.AperFunction*%
%TA.AperFunction,Conductor*%
G36*
X5479521Y34076498D02*
G01*
X5526014Y34022842D01*
X5537400Y33970500D01*
X5537400Y33339500D01*
X5517398Y33271379D01*
X5463742Y33224886D01*
X5411400Y33213500D01*
X5331900Y33213500D01*
X5263779Y33233502D01*
X5217286Y33287158D01*
X5205900Y33339500D01*
X5205900Y33970500D01*
X5225902Y34038621D01*
X5279558Y34085114D01*
X5331900Y34096500D01*
X5411400Y34096500D01*
X5479521Y34076498D01*
G37*
%TD.AperFunction*%
%TA.AperFunction,Conductor*%
G36*
X6326545Y36348139D02*
G01*
X6338217Y36334670D01*
X6374139Y36286739D01*
X6437018Y36239614D01*
X6478465Y36208551D01*
X6520980Y36151692D01*
X6528900Y36107725D01*
X6528900Y35989136D01*
X6527822Y35972693D01*
X6523650Y35941000D01*
X6524728Y35932811D01*
X6528900Y35901120D01*
X6528900Y35901115D01*
X6540181Y35815433D01*
X6540181Y35815430D01*
X6542723Y35796122D01*
X6544562Y35782149D01*
X6547721Y35774522D01*
X6547722Y35774519D01*
X6568655Y35723981D01*
X6576244Y35653391D01*
X6544464Y35589905D01*
X6506280Y35564346D01*
X6506975Y35563077D01*
X6499103Y35558767D01*
X6490695Y35555615D01*
X6374139Y35468261D01*
X6338224Y35420340D01*
X6281367Y35377827D01*
X6210549Y35372801D01*
X6148255Y35406861D01*
X6136583Y35420330D01*
X6100661Y35468261D01*
X5996335Y35546449D01*
X5953820Y35603308D01*
X5945900Y35647275D01*
X5945900Y35787864D01*
X5946978Y35804310D01*
X5950072Y35827812D01*
X5951150Y35836000D01*
X5945900Y35875878D01*
X5945900Y35875885D01*
X5930238Y35994850D01*
X5913909Y36034272D01*
X5906320Y36104860D01*
X5938099Y36168347D01*
X5969809Y36193009D01*
X5975699Y36196234D01*
X5984105Y36199385D01*
X6100661Y36286739D01*
X6136576Y36334660D01*
X6193433Y36377173D01*
X6264251Y36382199D01*
X6326545Y36348139D01*
G37*
%TD.AperFunction*%
%TA.AperFunction,Conductor*%
G36*
X5479521Y38521498D02*
G01*
X5526014Y38467842D01*
X5537400Y38415500D01*
X5537400Y37784500D01*
X5517398Y37716379D01*
X5463742Y37669886D01*
X5411400Y37658500D01*
X5331900Y37658500D01*
X5263779Y37678502D01*
X5217286Y37732158D01*
X5205900Y37784500D01*
X5205900Y38415500D01*
X5225902Y38483621D01*
X5279558Y38530114D01*
X5331900Y38541500D01*
X5411400Y38541500D01*
X5479521Y38521498D01*
G37*
%TD.AperFunction*%
%TD*%
M02*
