%FSLAX45Y45*%
G04 Gerber Fmt 4.5, Leading zero omitted, Abs format (unit mm)*
G04 Created by KiCad (PCBNEW (6.0.0)) date 2023-01-28 16:32:57*
%MOMM*%
%LPD*%
G01*
G04 APERTURE LIST*
%TA.AperFunction,Profile*%
%ADD10C,0.100000*%
%TD*%
%ADD11C,0.200000*%
%ADD12C,0.030000*%
%ADD13C,0.065000*%
%ADD14C,0.100000*%
%ADD15C,0.110000*%
G04 APERTURE END LIST*
D10*
X2540Y5334000D02*
X2288540Y5334000D01*
X2288540Y5334000D02*
X2288540Y0D01*
X2288540Y0D02*
X2540Y0D01*
X2540Y0D02*
X2540Y5334000D01*
D11*
D12*
X584440Y4371100D02*
X614440Y4341100D01*
X614440Y4371100D02*
X584440Y4341100D01*
X609840Y3596400D02*
X639840Y3566400D01*
X639840Y3596400D02*
X609840Y3566400D01*
X609840Y954800D02*
X639840Y924800D01*
X639840Y954800D02*
X609840Y924800D01*
X698740Y611900D02*
X728740Y581900D01*
X728740Y611900D02*
X698740Y581900D01*
X736840Y4142500D02*
X766840Y4112500D01*
X766840Y4142500D02*
X736840Y4112500D01*
X762240Y4396500D02*
X792240Y4366500D01*
X792240Y4396500D02*
X762240Y4366500D01*
X879080Y1371360D02*
X909080Y1341360D01*
X909080Y1371360D02*
X879080Y1341360D01*
X927340Y3596400D02*
X957340Y3566400D01*
X957340Y3596400D02*
X927340Y3566400D01*
X940040Y2123200D02*
X970040Y2093200D01*
X970040Y2123200D02*
X940040Y2093200D01*
X1075789Y2454090D02*
X1105789Y2424090D01*
X1105789Y2454090D02*
X1075789Y2424090D01*
X1077200Y3738640D02*
X1107200Y3708640D01*
X1107200Y3738640D02*
X1077200Y3708640D01*
X1102600Y4084080D02*
X1132600Y4054080D01*
X1132600Y4084080D02*
X1102600Y4054080D01*
X1155940Y3738640D02*
X1185940Y3708640D01*
X1185940Y3738640D02*
X1155940Y3708640D01*
X1158480Y3977400D02*
X1188480Y3947400D01*
X1188480Y3977400D02*
X1158480Y3947400D01*
X1257540Y3355100D02*
X1287540Y3325100D01*
X1287540Y3355100D02*
X1257540Y3325100D01*
X1290560Y1632980D02*
X1320560Y1602980D01*
X1320560Y1632980D02*
X1290560Y1602980D01*
X1314042Y2453399D02*
X1344042Y2423399D01*
X1344042Y2453399D02*
X1314042Y2423399D01*
X1315960Y3723400D02*
X1345960Y3693400D01*
X1345960Y3723400D02*
X1315960Y3693400D01*
X1346440Y1020840D02*
X1376440Y990840D01*
X1376440Y1020840D02*
X1346440Y990840D01*
X1348980Y1460260D02*
X1378980Y1430260D01*
X1378980Y1460260D02*
X1348980Y1430260D01*
X1379460Y3850400D02*
X1409460Y3820400D01*
X1409460Y3850400D02*
X1379460Y3820400D01*
X1498840Y3850400D02*
X1528840Y3820400D01*
X1528840Y3850400D02*
X1498840Y3820400D01*
X1498840Y3723400D02*
X1528840Y3693400D01*
X1528840Y3723400D02*
X1498840Y3693400D01*
X1516620Y4162820D02*
X1546620Y4132820D01*
X1546620Y4162820D02*
X1516620Y4132820D01*
X1557961Y2528908D02*
X1587961Y2498908D01*
X1587961Y2528908D02*
X1557961Y2498908D01*
X1714740Y939560D02*
X1744740Y909560D01*
X1744740Y939560D02*
X1714740Y909560D01*
X1729980Y2242580D02*
X1759980Y2212580D01*
X1759980Y2242580D02*
X1729980Y2212580D01*
X1785860Y1460260D02*
X1815860Y1430260D01*
X1815860Y1460260D02*
X1785860Y1430260D01*
X1790940Y2669300D02*
X1820940Y2639300D01*
X1820940Y2669300D02*
X1790940Y2639300D01*
X1806180Y2422920D02*
X1836180Y2392920D01*
X1836180Y2422920D02*
X1806180Y2392920D01*
X1856980Y2775980D02*
X1886980Y2745980D01*
X1886980Y2775980D02*
X1856980Y2745980D01*
X1867140Y2575320D02*
X1897140Y2545320D01*
X1897140Y2575320D02*
X1867140Y2545320D01*
D13*
X1071540Y1206500D02*
G75*
G03*
X1071540Y1206500I-32500J0D01*
G01*
X1198540Y1206500D02*
G75*
G03*
X1198540Y1206500I-32500J0D01*
G01*
X1241540Y4445000D02*
G75*
G03*
X1241540Y4445000I-32500J0D01*
G01*
X1325540Y1206500D02*
G75*
G03*
X1325540Y1206500I-32500J0D01*
G01*
X1368540Y4445000D02*
G75*
G03*
X1368540Y4445000I-32500J0D01*
G01*
X1495540Y4445000D02*
G75*
G03*
X1495540Y4445000I-32500J0D01*
G01*
X1622540Y4445000D02*
G75*
G03*
X1622540Y4445000I-32500J0D01*
G01*
D14*
X256540Y5130000D02*
X256540Y5030000D01*
X206540Y5080000D02*
X306540Y5080000D01*
X256540Y4876000D02*
X256540Y4776000D01*
X206540Y4826000D02*
X306540Y4826000D01*
X256540Y4622000D02*
X256540Y4522000D01*
X206540Y4572000D02*
X306540Y4572000D01*
X256540Y4368000D02*
X256540Y4268000D01*
X206540Y4318000D02*
X306540Y4318000D01*
X256540Y4114000D02*
X256540Y4014000D01*
X206540Y4064000D02*
X306540Y4064000D01*
X256540Y3860000D02*
X256540Y3760000D01*
X206540Y3810000D02*
X306540Y3810000D01*
X256540Y3606000D02*
X256540Y3506000D01*
X206540Y3556000D02*
X306540Y3556000D01*
X256540Y3352000D02*
X256540Y3252000D01*
X206540Y3302000D02*
X306540Y3302000D01*
X256540Y3098000D02*
X256540Y2998000D01*
X206540Y3048000D02*
X306540Y3048000D01*
X256540Y2844000D02*
X256540Y2744000D01*
X206540Y2794000D02*
X306540Y2794000D01*
X256540Y2590000D02*
X256540Y2490000D01*
X206540Y2540000D02*
X306540Y2540000D01*
X256540Y2336000D02*
X256540Y2236000D01*
X206540Y2286000D02*
X306540Y2286000D01*
X256540Y2082000D02*
X256540Y1982000D01*
X206540Y2032000D02*
X306540Y2032000D01*
X256540Y1828000D02*
X256540Y1728000D01*
X206540Y1778000D02*
X306540Y1778000D01*
X256540Y1574000D02*
X256540Y1474000D01*
X206540Y1524000D02*
X306540Y1524000D01*
X256540Y1320000D02*
X256540Y1220000D01*
X206540Y1270000D02*
X306540Y1270000D01*
X256540Y1066000D02*
X256540Y966000D01*
X206540Y1016000D02*
X306540Y1016000D01*
X256540Y812000D02*
X256540Y712000D01*
X206540Y762000D02*
X306540Y762000D01*
X256540Y558000D02*
X256540Y458000D01*
X206540Y508000D02*
X306540Y508000D01*
X256540Y304000D02*
X256540Y204000D01*
X206540Y254000D02*
X306540Y254000D01*
X830580Y1241260D02*
X830580Y1141260D01*
X780580Y1191260D02*
X880580Y1191260D01*
X830580Y987260D02*
X830580Y887260D01*
X780580Y937260D02*
X880580Y937260D01*
X830580Y733260D02*
X830580Y633260D01*
X780580Y683260D02*
X880580Y683260D01*
X830580Y479260D02*
X830580Y379260D01*
X780580Y429260D02*
X880580Y429260D01*
X830580Y225260D02*
X830580Y125260D01*
X780580Y175260D02*
X880580Y175260D01*
X2034540Y5130000D02*
X2034540Y5030000D01*
X1984540Y5080000D02*
X2084540Y5080000D01*
X2034540Y4876000D02*
X2034540Y4776000D01*
X1984540Y4826000D02*
X2084540Y4826000D01*
X2034540Y4622000D02*
X2034540Y4522000D01*
X1984540Y4572000D02*
X2084540Y4572000D01*
X2034540Y4368000D02*
X2034540Y4268000D01*
X1984540Y4318000D02*
X2084540Y4318000D01*
X2034540Y4114000D02*
X2034540Y4014000D01*
X1984540Y4064000D02*
X2084540Y4064000D01*
X2034540Y3860000D02*
X2034540Y3760000D01*
X1984540Y3810000D02*
X2084540Y3810000D01*
X2034540Y3606000D02*
X2034540Y3506000D01*
X1984540Y3556000D02*
X2084540Y3556000D01*
X2034540Y3352000D02*
X2034540Y3252000D01*
X1984540Y3302000D02*
X2084540Y3302000D01*
X2034540Y3098000D02*
X2034540Y2998000D01*
X1984540Y3048000D02*
X2084540Y3048000D01*
X2034540Y2844000D02*
X2034540Y2744000D01*
X1984540Y2794000D02*
X2084540Y2794000D01*
X2034540Y2590000D02*
X2034540Y2490000D01*
X1984540Y2540000D02*
X2084540Y2540000D01*
X2034540Y2336000D02*
X2034540Y2236000D01*
X1984540Y2286000D02*
X2084540Y2286000D01*
X2034540Y2082000D02*
X2034540Y1982000D01*
X1984540Y2032000D02*
X2084540Y2032000D01*
X2034540Y1828000D02*
X2034540Y1728000D01*
X1984540Y1778000D02*
X2084540Y1778000D01*
X2034540Y1574000D02*
X2034540Y1474000D01*
X1984540Y1524000D02*
X2084540Y1524000D01*
X2034540Y1320000D02*
X2034540Y1220000D01*
X1984540Y1270000D02*
X2084540Y1270000D01*
X2034540Y1066000D02*
X2034540Y966000D01*
X1984540Y1016000D02*
X2084540Y1016000D01*
X2034540Y812000D02*
X2034540Y712000D01*
X1984540Y762000D02*
X2084540Y762000D01*
X2034540Y558000D02*
X2034540Y458000D01*
X1984540Y508000D02*
X2084540Y508000D01*
X2034540Y304000D02*
X2034540Y204000D01*
X1984540Y254000D02*
X2084540Y254000D01*
D15*
X1057431Y4914109D02*
X1057431Y4991891D01*
X979649Y4991891D01*
X979649Y4914109D01*
X1057431Y4914109D01*
X1311431Y4914109D02*
X1311431Y4991891D01*
X1233649Y4991891D01*
X1233649Y4914109D01*
X1311431Y4914109D01*
D11*
X255159Y-315476D02*
X255159Y-115476D01*
X302778Y-115476D01*
X331350Y-125000D01*
X350397Y-144048D01*
X359921Y-163095D01*
X369445Y-201190D01*
X369445Y-229762D01*
X359921Y-267857D01*
X350397Y-286905D01*
X331350Y-305952D01*
X302778Y-315476D01*
X255159Y-315476D01*
X455159Y-315476D02*
X455159Y-182143D01*
X455159Y-220238D02*
X464683Y-201190D01*
X474207Y-191667D01*
X493254Y-182143D01*
X512302Y-182143D01*
X578969Y-315476D02*
X578969Y-182143D01*
X578969Y-115476D02*
X569445Y-125000D01*
X578969Y-134524D01*
X588492Y-125000D01*
X578969Y-115476D01*
X578969Y-134524D01*
X702778Y-315476D02*
X683730Y-305952D01*
X674207Y-286905D01*
X674207Y-115476D01*
X807540Y-315476D02*
X788492Y-305952D01*
X778968Y-286905D01*
X778968Y-115476D01*
X1036111Y-315476D02*
X1036111Y-115476D01*
X1102778Y-258333D01*
X1169445Y-115476D01*
X1169445Y-315476D01*
X1350397Y-315476D02*
X1350397Y-210714D01*
X1340873Y-191667D01*
X1321826Y-182143D01*
X1283730Y-182143D01*
X1264683Y-191667D01*
X1350397Y-305952D02*
X1331350Y-315476D01*
X1283730Y-315476D01*
X1264683Y-305952D01*
X1255159Y-286905D01*
X1255159Y-267857D01*
X1264683Y-248809D01*
X1283730Y-239286D01*
X1331350Y-239286D01*
X1350397Y-229762D01*
X1445635Y-182143D02*
X1445635Y-382143D01*
X1445635Y-191667D02*
X1464683Y-182143D01*
X1502778Y-182143D01*
X1521826Y-191667D01*
X1531349Y-201190D01*
X1540873Y-220238D01*
X1540873Y-277381D01*
X1531349Y-296429D01*
X1521826Y-305952D01*
X1502778Y-315476D01*
X1464683Y-315476D01*
X1445635Y-305952D01*
X1626588Y-296429D02*
X1636111Y-305952D01*
X1626588Y-315476D01*
X1617064Y-305952D01*
X1626588Y-296429D01*
X1626588Y-315476D01*
X1626588Y-191667D02*
X1636111Y-201190D01*
X1626588Y-210714D01*
X1617064Y-201190D01*
X1626588Y-191667D01*
X1626588Y-210714D01*
D12*
X-32460Y-630000D02*
X-2460Y-660000D01*
X-2460Y-630000D02*
X-32460Y-660000D01*
D11*
X293254Y-535476D02*
X312302Y-535476D01*
X331350Y-545000D01*
X340873Y-554524D01*
X350397Y-573571D01*
X359921Y-611667D01*
X359921Y-659286D01*
X350397Y-697381D01*
X340873Y-716428D01*
X331350Y-725952D01*
X312302Y-735476D01*
X293254Y-735476D01*
X274207Y-725952D01*
X264683Y-716428D01*
X255159Y-697381D01*
X245635Y-659286D01*
X245635Y-611667D01*
X255159Y-573571D01*
X264683Y-554524D01*
X274207Y-545000D01*
X293254Y-535476D01*
X445635Y-716428D02*
X455159Y-725952D01*
X445635Y-735476D01*
X436111Y-725952D01*
X445635Y-716428D01*
X445635Y-735476D01*
X521826Y-535476D02*
X645635Y-535476D01*
X578969Y-611667D01*
X607540Y-611667D01*
X626588Y-621190D01*
X636111Y-630714D01*
X645635Y-649762D01*
X645635Y-697381D01*
X636111Y-716428D01*
X626588Y-725952D01*
X607540Y-735476D01*
X550397Y-735476D01*
X531350Y-725952D01*
X521826Y-716428D01*
X769445Y-535476D02*
X788492Y-535476D01*
X807540Y-545000D01*
X817064Y-554524D01*
X826588Y-573571D01*
X836111Y-611667D01*
X836111Y-659286D01*
X826588Y-697381D01*
X817064Y-716428D01*
X807540Y-725952D01*
X788492Y-735476D01*
X769445Y-735476D01*
X750397Y-725952D01*
X740873Y-716428D01*
X731349Y-697381D01*
X721826Y-659286D01*
X721826Y-611667D01*
X731349Y-573571D01*
X740873Y-554524D01*
X750397Y-545000D01*
X769445Y-535476D01*
X959921Y-535476D02*
X978968Y-535476D01*
X998016Y-545000D01*
X1007540Y-554524D01*
X1017064Y-573571D01*
X1026588Y-611667D01*
X1026588Y-659286D01*
X1017064Y-697381D01*
X1007540Y-716428D01*
X998016Y-725952D01*
X978968Y-735476D01*
X959921Y-735476D01*
X940873Y-725952D01*
X931349Y-716428D01*
X921826Y-697381D01*
X912302Y-659286D01*
X912302Y-611667D01*
X921826Y-573571D01*
X931349Y-554524D01*
X940873Y-545000D01*
X959921Y-535476D01*
X1112302Y-735476D02*
X1112302Y-602143D01*
X1112302Y-621190D02*
X1121826Y-611667D01*
X1140873Y-602143D01*
X1169445Y-602143D01*
X1188492Y-611667D01*
X1198016Y-630714D01*
X1198016Y-735476D01*
X1198016Y-630714D02*
X1207540Y-611667D01*
X1226588Y-602143D01*
X1255159Y-602143D01*
X1274207Y-611667D01*
X1283730Y-630714D01*
X1283730Y-735476D01*
X1378969Y-735476D02*
X1378969Y-602143D01*
X1378969Y-621190D02*
X1388492Y-611667D01*
X1407540Y-602143D01*
X1436111Y-602143D01*
X1455159Y-611667D01*
X1464683Y-630714D01*
X1464683Y-735476D01*
X1464683Y-630714D02*
X1474207Y-611667D01*
X1493254Y-602143D01*
X1521826Y-602143D01*
X1540873Y-611667D01*
X1550397Y-630714D01*
X1550397Y-735476D01*
X1940873Y-525952D02*
X1769445Y-783095D01*
X2198016Y-535476D02*
X2217064Y-535476D01*
X2236111Y-545000D01*
X2245635Y-554524D01*
X2255159Y-573571D01*
X2264683Y-611667D01*
X2264683Y-659286D01*
X2255159Y-697381D01*
X2245635Y-716428D01*
X2236111Y-725952D01*
X2217064Y-735476D01*
X2198016Y-735476D01*
X2178969Y-725952D01*
X2169445Y-716428D01*
X2159921Y-697381D01*
X2150397Y-659286D01*
X2150397Y-611667D01*
X2159921Y-573571D01*
X2169445Y-554524D01*
X2178969Y-545000D01*
X2198016Y-535476D01*
X2350397Y-716428D02*
X2359921Y-725952D01*
X2350397Y-735476D01*
X2340873Y-725952D01*
X2350397Y-716428D01*
X2350397Y-735476D01*
X2483730Y-535476D02*
X2502778Y-535476D01*
X2521826Y-545000D01*
X2531350Y-554524D01*
X2540873Y-573571D01*
X2550397Y-611667D01*
X2550397Y-659286D01*
X2540873Y-697381D01*
X2531350Y-716428D01*
X2521826Y-725952D01*
X2502778Y-735476D01*
X2483730Y-735476D01*
X2464683Y-725952D01*
X2455159Y-716428D01*
X2445635Y-697381D01*
X2436111Y-659286D01*
X2436111Y-611667D01*
X2445635Y-573571D01*
X2455159Y-554524D01*
X2464683Y-545000D01*
X2483730Y-535476D01*
X2740873Y-735476D02*
X2626588Y-735476D01*
X2683730Y-735476D02*
X2683730Y-535476D01*
X2664683Y-564048D01*
X2645635Y-583095D01*
X2626588Y-592619D01*
X2931349Y-735476D02*
X2817064Y-735476D01*
X2874207Y-735476D02*
X2874207Y-535476D01*
X2855159Y-564048D01*
X2836111Y-583095D01*
X2817064Y-592619D01*
X3045635Y-621190D02*
X3026588Y-611667D01*
X3017064Y-602143D01*
X3007540Y-583095D01*
X3007540Y-573571D01*
X3017064Y-554524D01*
X3026588Y-545000D01*
X3045635Y-535476D01*
X3083730Y-535476D01*
X3102778Y-545000D01*
X3112302Y-554524D01*
X3121826Y-573571D01*
X3121826Y-583095D01*
X3112302Y-602143D01*
X3102778Y-611667D01*
X3083730Y-621190D01*
X3045635Y-621190D01*
X3026588Y-630714D01*
X3017064Y-640238D01*
X3007540Y-659286D01*
X3007540Y-697381D01*
X3017064Y-716428D01*
X3026588Y-725952D01*
X3045635Y-735476D01*
X3083730Y-735476D01*
X3102778Y-725952D01*
X3112302Y-716428D01*
X3121826Y-697381D01*
X3121826Y-659286D01*
X3112302Y-640238D01*
X3102778Y-630714D01*
X3083730Y-621190D01*
X3198016Y-535476D02*
X3198016Y-573571D01*
X3274207Y-535476D02*
X3274207Y-573571D01*
X3569445Y-811667D02*
X3559921Y-802143D01*
X3540873Y-773571D01*
X3531349Y-754524D01*
X3521826Y-725952D01*
X3512302Y-678333D01*
X3512302Y-640238D01*
X3521826Y-592619D01*
X3531349Y-564048D01*
X3540873Y-545000D01*
X3559921Y-516428D01*
X3569445Y-506905D01*
X3626588Y-535476D02*
X3750397Y-535476D01*
X3683730Y-611667D01*
X3712302Y-611667D01*
X3731349Y-621190D01*
X3740873Y-630714D01*
X3750397Y-649762D01*
X3750397Y-697381D01*
X3740873Y-716428D01*
X3731349Y-725952D01*
X3712302Y-735476D01*
X3655159Y-735476D01*
X3636111Y-725952D01*
X3626588Y-716428D01*
X3826588Y-554524D02*
X3836111Y-545000D01*
X3855159Y-535476D01*
X3902778Y-535476D01*
X3921826Y-545000D01*
X3931349Y-554524D01*
X3940873Y-573571D01*
X3940873Y-592619D01*
X3931349Y-621190D01*
X3817064Y-735476D01*
X3940873Y-735476D01*
X4178968Y-735476D02*
X4178968Y-535476D01*
X4264683Y-735476D02*
X4264683Y-630714D01*
X4255159Y-611667D01*
X4236111Y-602143D01*
X4207540Y-602143D01*
X4188492Y-611667D01*
X4178968Y-621190D01*
X4388492Y-735476D02*
X4369445Y-725952D01*
X4359921Y-716428D01*
X4350397Y-697381D01*
X4350397Y-640238D01*
X4359921Y-621190D01*
X4369445Y-611667D01*
X4388492Y-602143D01*
X4417064Y-602143D01*
X4436111Y-611667D01*
X4445635Y-621190D01*
X4455159Y-640238D01*
X4455159Y-697381D01*
X4445635Y-716428D01*
X4436111Y-725952D01*
X4417064Y-735476D01*
X4388492Y-735476D01*
X4569445Y-735476D02*
X4550397Y-725952D01*
X4540873Y-706905D01*
X4540873Y-535476D01*
X4721826Y-725952D02*
X4702778Y-735476D01*
X4664683Y-735476D01*
X4645635Y-725952D01*
X4636111Y-706905D01*
X4636111Y-630714D01*
X4645635Y-611667D01*
X4664683Y-602143D01*
X4702778Y-602143D01*
X4721826Y-611667D01*
X4731350Y-630714D01*
X4731350Y-649762D01*
X4636111Y-668810D01*
X4807540Y-725952D02*
X4826588Y-735476D01*
X4864683Y-735476D01*
X4883730Y-725952D01*
X4893254Y-706905D01*
X4893254Y-697381D01*
X4883730Y-678333D01*
X4864683Y-668810D01*
X4836111Y-668810D01*
X4817064Y-659286D01*
X4807540Y-640238D01*
X4807540Y-630714D01*
X4817064Y-611667D01*
X4836111Y-602143D01*
X4864683Y-602143D01*
X4883730Y-611667D01*
X4959921Y-811667D02*
X4969445Y-802143D01*
X4988492Y-773571D01*
X4998016Y-754524D01*
X5007540Y-725952D01*
X5017064Y-678333D01*
X5017064Y-640238D01*
X5007540Y-592619D01*
X4998016Y-564048D01*
X4988492Y-545000D01*
X4969445Y-516428D01*
X4959921Y-506905D01*
D13*
X-2460Y-909000D02*
G75*
G03*
X-2460Y-909000I-32500J0D01*
G01*
D11*
X293254Y-799476D02*
X312302Y-799476D01*
X331350Y-809000D01*
X340873Y-818524D01*
X350397Y-837571D01*
X359921Y-875667D01*
X359921Y-923286D01*
X350397Y-961381D01*
X340873Y-980428D01*
X331350Y-989952D01*
X312302Y-999476D01*
X293254Y-999476D01*
X274207Y-989952D01*
X264683Y-980428D01*
X255159Y-961381D01*
X245635Y-923286D01*
X245635Y-875667D01*
X255159Y-837571D01*
X264683Y-818524D01*
X274207Y-809000D01*
X293254Y-799476D01*
X445635Y-980428D02*
X455159Y-989952D01*
X445635Y-999476D01*
X436111Y-989952D01*
X445635Y-980428D01*
X445635Y-999476D01*
X626588Y-799476D02*
X588492Y-799476D01*
X569445Y-809000D01*
X559921Y-818524D01*
X540873Y-847095D01*
X531350Y-885190D01*
X531350Y-961381D01*
X540873Y-980428D01*
X550397Y-989952D01*
X569445Y-999476D01*
X607540Y-999476D01*
X626588Y-989952D01*
X636111Y-980428D01*
X645635Y-961381D01*
X645635Y-913762D01*
X636111Y-894714D01*
X626588Y-885190D01*
X607540Y-875667D01*
X569445Y-875667D01*
X550397Y-885190D01*
X540873Y-894714D01*
X531350Y-913762D01*
X826588Y-799476D02*
X731349Y-799476D01*
X721826Y-894714D01*
X731349Y-885190D01*
X750397Y-875667D01*
X798016Y-875667D01*
X817064Y-885190D01*
X826588Y-894714D01*
X836111Y-913762D01*
X836111Y-961381D01*
X826588Y-980428D01*
X817064Y-989952D01*
X798016Y-999476D01*
X750397Y-999476D01*
X731349Y-989952D01*
X721826Y-980428D01*
X959921Y-799476D02*
X978968Y-799476D01*
X998016Y-809000D01*
X1007540Y-818524D01*
X1017064Y-837571D01*
X1026588Y-875667D01*
X1026588Y-923286D01*
X1017064Y-961381D01*
X1007540Y-980428D01*
X998016Y-989952D01*
X978968Y-999476D01*
X959921Y-999476D01*
X940873Y-989952D01*
X931349Y-980428D01*
X921826Y-961381D01*
X912302Y-923286D01*
X912302Y-875667D01*
X921826Y-837571D01*
X931349Y-818524D01*
X940873Y-809000D01*
X959921Y-799476D01*
X1112302Y-999476D02*
X1112302Y-866143D01*
X1112302Y-885190D02*
X1121826Y-875667D01*
X1140873Y-866143D01*
X1169445Y-866143D01*
X1188492Y-875667D01*
X1198016Y-894714D01*
X1198016Y-999476D01*
X1198016Y-894714D02*
X1207540Y-875667D01*
X1226588Y-866143D01*
X1255159Y-866143D01*
X1274207Y-875667D01*
X1283730Y-894714D01*
X1283730Y-999476D01*
X1378969Y-999476D02*
X1378969Y-866143D01*
X1378969Y-885190D02*
X1388492Y-875667D01*
X1407540Y-866143D01*
X1436111Y-866143D01*
X1455159Y-875667D01*
X1464683Y-894714D01*
X1464683Y-999476D01*
X1464683Y-894714D02*
X1474207Y-875667D01*
X1493254Y-866143D01*
X1521826Y-866143D01*
X1540873Y-875667D01*
X1550397Y-894714D01*
X1550397Y-999476D01*
X1940873Y-789952D02*
X1769445Y-1047095D01*
X2198016Y-799476D02*
X2217064Y-799476D01*
X2236111Y-809000D01*
X2245635Y-818524D01*
X2255159Y-837571D01*
X2264683Y-875667D01*
X2264683Y-923286D01*
X2255159Y-961381D01*
X2245635Y-980428D01*
X2236111Y-989952D01*
X2217064Y-999476D01*
X2198016Y-999476D01*
X2178969Y-989952D01*
X2169445Y-980428D01*
X2159921Y-961381D01*
X2150397Y-923286D01*
X2150397Y-875667D01*
X2159921Y-837571D01*
X2169445Y-818524D01*
X2178969Y-809000D01*
X2198016Y-799476D01*
X2350397Y-980428D02*
X2359921Y-989952D01*
X2350397Y-999476D01*
X2340873Y-989952D01*
X2350397Y-980428D01*
X2350397Y-999476D01*
X2483730Y-799476D02*
X2502778Y-799476D01*
X2521826Y-809000D01*
X2531350Y-818524D01*
X2540873Y-837571D01*
X2550397Y-875667D01*
X2550397Y-923286D01*
X2540873Y-961381D01*
X2531350Y-980428D01*
X2521826Y-989952D01*
X2502778Y-999476D01*
X2483730Y-999476D01*
X2464683Y-989952D01*
X2455159Y-980428D01*
X2445635Y-961381D01*
X2436111Y-923286D01*
X2436111Y-875667D01*
X2445635Y-837571D01*
X2455159Y-818524D01*
X2464683Y-809000D01*
X2483730Y-799476D01*
X2626588Y-818524D02*
X2636111Y-809000D01*
X2655159Y-799476D01*
X2702778Y-799476D01*
X2721826Y-809000D01*
X2731350Y-818524D01*
X2740873Y-837571D01*
X2740873Y-856619D01*
X2731350Y-885190D01*
X2617064Y-999476D01*
X2740873Y-999476D01*
X2921826Y-799476D02*
X2826588Y-799476D01*
X2817064Y-894714D01*
X2826588Y-885190D01*
X2845635Y-875667D01*
X2893254Y-875667D01*
X2912302Y-885190D01*
X2921826Y-894714D01*
X2931349Y-913762D01*
X2931349Y-961381D01*
X2921826Y-980428D01*
X2912302Y-989952D01*
X2893254Y-999476D01*
X2845635Y-999476D01*
X2826588Y-989952D01*
X2817064Y-980428D01*
X3102778Y-799476D02*
X3064683Y-799476D01*
X3045635Y-809000D01*
X3036111Y-818524D01*
X3017064Y-847095D01*
X3007540Y-885190D01*
X3007540Y-961381D01*
X3017064Y-980428D01*
X3026588Y-989952D01*
X3045635Y-999476D01*
X3083730Y-999476D01*
X3102778Y-989952D01*
X3112302Y-980428D01*
X3121826Y-961381D01*
X3121826Y-913762D01*
X3112302Y-894714D01*
X3102778Y-885190D01*
X3083730Y-875667D01*
X3045635Y-875667D01*
X3026588Y-885190D01*
X3017064Y-894714D01*
X3007540Y-913762D01*
X3198016Y-799476D02*
X3198016Y-837571D01*
X3274207Y-799476D02*
X3274207Y-837571D01*
X3569445Y-1075667D02*
X3559921Y-1066143D01*
X3540873Y-1037571D01*
X3531349Y-1018524D01*
X3521826Y-989952D01*
X3512302Y-942333D01*
X3512302Y-904238D01*
X3521826Y-856619D01*
X3531349Y-828048D01*
X3540873Y-809000D01*
X3559921Y-780428D01*
X3569445Y-770905D01*
X3626588Y-799476D02*
X3759921Y-799476D01*
X3674207Y-999476D01*
X3988492Y-999476D02*
X3988492Y-799476D01*
X4074207Y-999476D02*
X4074207Y-894714D01*
X4064683Y-875667D01*
X4045635Y-866143D01*
X4017064Y-866143D01*
X3998016Y-875667D01*
X3988492Y-885190D01*
X4198016Y-999476D02*
X4178968Y-989952D01*
X4169445Y-980428D01*
X4159921Y-961381D01*
X4159921Y-904238D01*
X4169445Y-885190D01*
X4178968Y-875667D01*
X4198016Y-866143D01*
X4226588Y-866143D01*
X4245635Y-875667D01*
X4255159Y-885190D01*
X4264683Y-904238D01*
X4264683Y-961381D01*
X4255159Y-980428D01*
X4245635Y-989952D01*
X4226588Y-999476D01*
X4198016Y-999476D01*
X4378969Y-999476D02*
X4359921Y-989952D01*
X4350397Y-970905D01*
X4350397Y-799476D01*
X4531350Y-989952D02*
X4512302Y-999476D01*
X4474207Y-999476D01*
X4455159Y-989952D01*
X4445635Y-970905D01*
X4445635Y-894714D01*
X4455159Y-875667D01*
X4474207Y-866143D01*
X4512302Y-866143D01*
X4531350Y-875667D01*
X4540873Y-894714D01*
X4540873Y-913762D01*
X4445635Y-932809D01*
X4617064Y-989952D02*
X4636111Y-999476D01*
X4674207Y-999476D01*
X4693254Y-989952D01*
X4702778Y-970905D01*
X4702778Y-961381D01*
X4693254Y-942333D01*
X4674207Y-932809D01*
X4645635Y-932809D01*
X4626588Y-923286D01*
X4617064Y-904238D01*
X4617064Y-894714D01*
X4626588Y-875667D01*
X4645635Y-866143D01*
X4674207Y-866143D01*
X4693254Y-875667D01*
X4769445Y-1075667D02*
X4778969Y-1066143D01*
X4798016Y-1037571D01*
X4807540Y-1018524D01*
X4817064Y-989952D01*
X4826588Y-942333D01*
X4826588Y-904238D01*
X4817064Y-856619D01*
X4807540Y-828048D01*
X4798016Y-809000D01*
X4778969Y-780428D01*
X4769445Y-770905D01*
D14*
X-52460Y-1123000D02*
X-52460Y-1223000D01*
X-102460Y-1173000D02*
X-2460Y-1173000D01*
D11*
X359921Y-1263476D02*
X245635Y-1263476D01*
X302778Y-1263476D02*
X302778Y-1063476D01*
X283730Y-1092048D01*
X264683Y-1111095D01*
X245635Y-1120619D01*
X445635Y-1244429D02*
X455159Y-1253952D01*
X445635Y-1263476D01*
X436111Y-1253952D01*
X445635Y-1244429D01*
X445635Y-1263476D01*
X578969Y-1063476D02*
X598016Y-1063476D01*
X617064Y-1073000D01*
X626588Y-1082524D01*
X636111Y-1101571D01*
X645635Y-1139667D01*
X645635Y-1187286D01*
X636111Y-1225381D01*
X626588Y-1244429D01*
X617064Y-1253952D01*
X598016Y-1263476D01*
X578969Y-1263476D01*
X559921Y-1253952D01*
X550397Y-1244429D01*
X540873Y-1225381D01*
X531350Y-1187286D01*
X531350Y-1139667D01*
X540873Y-1101571D01*
X550397Y-1082524D01*
X559921Y-1073000D01*
X578969Y-1063476D01*
X769445Y-1063476D02*
X788492Y-1063476D01*
X807540Y-1073000D01*
X817064Y-1082524D01*
X826588Y-1101571D01*
X836111Y-1139667D01*
X836111Y-1187286D01*
X826588Y-1225381D01*
X817064Y-1244429D01*
X807540Y-1253952D01*
X788492Y-1263476D01*
X769445Y-1263476D01*
X750397Y-1253952D01*
X740873Y-1244429D01*
X731349Y-1225381D01*
X721826Y-1187286D01*
X721826Y-1139667D01*
X731349Y-1101571D01*
X740873Y-1082524D01*
X750397Y-1073000D01*
X769445Y-1063476D01*
X959921Y-1063476D02*
X978968Y-1063476D01*
X998016Y-1073000D01*
X1007540Y-1082524D01*
X1017064Y-1101571D01*
X1026588Y-1139667D01*
X1026588Y-1187286D01*
X1017064Y-1225381D01*
X1007540Y-1244429D01*
X998016Y-1253952D01*
X978968Y-1263476D01*
X959921Y-1263476D01*
X940873Y-1253952D01*
X931349Y-1244429D01*
X921826Y-1225381D01*
X912302Y-1187286D01*
X912302Y-1139667D01*
X921826Y-1101571D01*
X931349Y-1082524D01*
X940873Y-1073000D01*
X959921Y-1063476D01*
X1112302Y-1263476D02*
X1112302Y-1130143D01*
X1112302Y-1149190D02*
X1121826Y-1139667D01*
X1140873Y-1130143D01*
X1169445Y-1130143D01*
X1188492Y-1139667D01*
X1198016Y-1158714D01*
X1198016Y-1263476D01*
X1198016Y-1158714D02*
X1207540Y-1139667D01*
X1226588Y-1130143D01*
X1255159Y-1130143D01*
X1274207Y-1139667D01*
X1283730Y-1158714D01*
X1283730Y-1263476D01*
X1378969Y-1263476D02*
X1378969Y-1130143D01*
X1378969Y-1149190D02*
X1388492Y-1139667D01*
X1407540Y-1130143D01*
X1436111Y-1130143D01*
X1455159Y-1139667D01*
X1464683Y-1158714D01*
X1464683Y-1263476D01*
X1464683Y-1158714D02*
X1474207Y-1139667D01*
X1493254Y-1130143D01*
X1521826Y-1130143D01*
X1540873Y-1139667D01*
X1550397Y-1158714D01*
X1550397Y-1263476D01*
X1940873Y-1053952D02*
X1769445Y-1311095D01*
X2198016Y-1063476D02*
X2217064Y-1063476D01*
X2236111Y-1073000D01*
X2245635Y-1082524D01*
X2255159Y-1101571D01*
X2264683Y-1139667D01*
X2264683Y-1187286D01*
X2255159Y-1225381D01*
X2245635Y-1244429D01*
X2236111Y-1253952D01*
X2217064Y-1263476D01*
X2198016Y-1263476D01*
X2178969Y-1253952D01*
X2169445Y-1244429D01*
X2159921Y-1225381D01*
X2150397Y-1187286D01*
X2150397Y-1139667D01*
X2159921Y-1101571D01*
X2169445Y-1082524D01*
X2178969Y-1073000D01*
X2198016Y-1063476D01*
X2350397Y-1244429D02*
X2359921Y-1253952D01*
X2350397Y-1263476D01*
X2340873Y-1253952D01*
X2350397Y-1244429D01*
X2350397Y-1263476D01*
X2483730Y-1063476D02*
X2502778Y-1063476D01*
X2521826Y-1073000D01*
X2531350Y-1082524D01*
X2540873Y-1101571D01*
X2550397Y-1139667D01*
X2550397Y-1187286D01*
X2540873Y-1225381D01*
X2531350Y-1244429D01*
X2521826Y-1253952D01*
X2502778Y-1263476D01*
X2483730Y-1263476D01*
X2464683Y-1253952D01*
X2455159Y-1244429D01*
X2445635Y-1225381D01*
X2436111Y-1187286D01*
X2436111Y-1139667D01*
X2445635Y-1101571D01*
X2455159Y-1082524D01*
X2464683Y-1073000D01*
X2483730Y-1063476D01*
X2617064Y-1063476D02*
X2740873Y-1063476D01*
X2674207Y-1139667D01*
X2702778Y-1139667D01*
X2721826Y-1149190D01*
X2731350Y-1158714D01*
X2740873Y-1177762D01*
X2740873Y-1225381D01*
X2731350Y-1244429D01*
X2721826Y-1253952D01*
X2702778Y-1263476D01*
X2645635Y-1263476D01*
X2626588Y-1253952D01*
X2617064Y-1244429D01*
X2836111Y-1263476D02*
X2874207Y-1263476D01*
X2893254Y-1253952D01*
X2902778Y-1244429D01*
X2921826Y-1215857D01*
X2931349Y-1177762D01*
X2931349Y-1101571D01*
X2921826Y-1082524D01*
X2912302Y-1073000D01*
X2893254Y-1063476D01*
X2855159Y-1063476D01*
X2836111Y-1073000D01*
X2826588Y-1082524D01*
X2817064Y-1101571D01*
X2817064Y-1149190D01*
X2826588Y-1168238D01*
X2836111Y-1177762D01*
X2855159Y-1187286D01*
X2893254Y-1187286D01*
X2912302Y-1177762D01*
X2921826Y-1168238D01*
X2931349Y-1149190D01*
X3102778Y-1130143D02*
X3102778Y-1263476D01*
X3055159Y-1053952D02*
X3007540Y-1196810D01*
X3131349Y-1196810D01*
X3198016Y-1063476D02*
X3198016Y-1101571D01*
X3274207Y-1063476D02*
X3274207Y-1101571D01*
X3569445Y-1339667D02*
X3559921Y-1330143D01*
X3540873Y-1301571D01*
X3531349Y-1282524D01*
X3521826Y-1253952D01*
X3512302Y-1206333D01*
X3512302Y-1168238D01*
X3521826Y-1120619D01*
X3531349Y-1092048D01*
X3540873Y-1073000D01*
X3559921Y-1044428D01*
X3569445Y-1034905D01*
X3731349Y-1130143D02*
X3731349Y-1263476D01*
X3683730Y-1053952D02*
X3636111Y-1196810D01*
X3759921Y-1196810D01*
X3931349Y-1063476D02*
X3836111Y-1063476D01*
X3826588Y-1158714D01*
X3836111Y-1149190D01*
X3855159Y-1139667D01*
X3902778Y-1139667D01*
X3921826Y-1149190D01*
X3931349Y-1158714D01*
X3940873Y-1177762D01*
X3940873Y-1225381D01*
X3931349Y-1244429D01*
X3921826Y-1253952D01*
X3902778Y-1263476D01*
X3855159Y-1263476D01*
X3836111Y-1253952D01*
X3826588Y-1244429D01*
X4178968Y-1263476D02*
X4178968Y-1063476D01*
X4264683Y-1263476D02*
X4264683Y-1158714D01*
X4255159Y-1139667D01*
X4236111Y-1130143D01*
X4207540Y-1130143D01*
X4188492Y-1139667D01*
X4178968Y-1149190D01*
X4388492Y-1263476D02*
X4369445Y-1253952D01*
X4359921Y-1244429D01*
X4350397Y-1225381D01*
X4350397Y-1168238D01*
X4359921Y-1149190D01*
X4369445Y-1139667D01*
X4388492Y-1130143D01*
X4417064Y-1130143D01*
X4436111Y-1139667D01*
X4445635Y-1149190D01*
X4455159Y-1168238D01*
X4455159Y-1225381D01*
X4445635Y-1244429D01*
X4436111Y-1253952D01*
X4417064Y-1263476D01*
X4388492Y-1263476D01*
X4569445Y-1263476D02*
X4550397Y-1253952D01*
X4540873Y-1234905D01*
X4540873Y-1063476D01*
X4721826Y-1253952D02*
X4702778Y-1263476D01*
X4664683Y-1263476D01*
X4645635Y-1253952D01*
X4636111Y-1234905D01*
X4636111Y-1158714D01*
X4645635Y-1139667D01*
X4664683Y-1130143D01*
X4702778Y-1130143D01*
X4721826Y-1139667D01*
X4731350Y-1158714D01*
X4731350Y-1177762D01*
X4636111Y-1196810D01*
X4807540Y-1253952D02*
X4826588Y-1263476D01*
X4864683Y-1263476D01*
X4883730Y-1253952D01*
X4893254Y-1234905D01*
X4893254Y-1225381D01*
X4883730Y-1206333D01*
X4864683Y-1196810D01*
X4836111Y-1196810D01*
X4817064Y-1187286D01*
X4807540Y-1168238D01*
X4807540Y-1158714D01*
X4817064Y-1139667D01*
X4836111Y-1130143D01*
X4864683Y-1130143D01*
X4883730Y-1139667D01*
X4959921Y-1339667D02*
X4969445Y-1330143D01*
X4988492Y-1301571D01*
X4998016Y-1282524D01*
X5007540Y-1253952D01*
X5017064Y-1206333D01*
X5017064Y-1168238D01*
X5007540Y-1120619D01*
X4998016Y-1092048D01*
X4988492Y-1073000D01*
X4969445Y-1044428D01*
X4959921Y-1034905D01*
D15*
X-18569Y-1475891D02*
X-18569Y-1398109D01*
X-96351Y-1398109D01*
X-96351Y-1475891D01*
X-18569Y-1475891D01*
D11*
X359921Y-1527476D02*
X245635Y-1527476D01*
X302778Y-1527476D02*
X302778Y-1327476D01*
X283730Y-1356048D01*
X264683Y-1375095D01*
X245635Y-1384619D01*
X445635Y-1508428D02*
X455159Y-1517952D01*
X445635Y-1527476D01*
X436111Y-1517952D01*
X445635Y-1508428D01*
X445635Y-1527476D01*
X645635Y-1527476D02*
X531350Y-1527476D01*
X588492Y-1527476D02*
X588492Y-1327476D01*
X569445Y-1356048D01*
X550397Y-1375095D01*
X531350Y-1384619D01*
X769445Y-1327476D02*
X788492Y-1327476D01*
X807540Y-1337000D01*
X817064Y-1346524D01*
X826588Y-1365571D01*
X836111Y-1403667D01*
X836111Y-1451286D01*
X826588Y-1489381D01*
X817064Y-1508428D01*
X807540Y-1517952D01*
X788492Y-1527476D01*
X769445Y-1527476D01*
X750397Y-1517952D01*
X740873Y-1508428D01*
X731349Y-1489381D01*
X721826Y-1451286D01*
X721826Y-1403667D01*
X731349Y-1365571D01*
X740873Y-1346524D01*
X750397Y-1337000D01*
X769445Y-1327476D01*
X959921Y-1327476D02*
X978968Y-1327476D01*
X998016Y-1337000D01*
X1007540Y-1346524D01*
X1017064Y-1365571D01*
X1026588Y-1403667D01*
X1026588Y-1451286D01*
X1017064Y-1489381D01*
X1007540Y-1508428D01*
X998016Y-1517952D01*
X978968Y-1527476D01*
X959921Y-1527476D01*
X940873Y-1517952D01*
X931349Y-1508428D01*
X921826Y-1489381D01*
X912302Y-1451286D01*
X912302Y-1403667D01*
X921826Y-1365571D01*
X931349Y-1346524D01*
X940873Y-1337000D01*
X959921Y-1327476D01*
X1112302Y-1527476D02*
X1112302Y-1394143D01*
X1112302Y-1413190D02*
X1121826Y-1403667D01*
X1140873Y-1394143D01*
X1169445Y-1394143D01*
X1188492Y-1403667D01*
X1198016Y-1422714D01*
X1198016Y-1527476D01*
X1198016Y-1422714D02*
X1207540Y-1403667D01*
X1226588Y-1394143D01*
X1255159Y-1394143D01*
X1274207Y-1403667D01*
X1283730Y-1422714D01*
X1283730Y-1527476D01*
X1378969Y-1527476D02*
X1378969Y-1394143D01*
X1378969Y-1413190D02*
X1388492Y-1403667D01*
X1407540Y-1394143D01*
X1436111Y-1394143D01*
X1455159Y-1403667D01*
X1464683Y-1422714D01*
X1464683Y-1527476D01*
X1464683Y-1422714D02*
X1474207Y-1403667D01*
X1493254Y-1394143D01*
X1521826Y-1394143D01*
X1540873Y-1403667D01*
X1550397Y-1422714D01*
X1550397Y-1527476D01*
X1940873Y-1317952D02*
X1769445Y-1575095D01*
X2198016Y-1327476D02*
X2217064Y-1327476D01*
X2236111Y-1337000D01*
X2245635Y-1346524D01*
X2255159Y-1365571D01*
X2264683Y-1403667D01*
X2264683Y-1451286D01*
X2255159Y-1489381D01*
X2245635Y-1508428D01*
X2236111Y-1517952D01*
X2217064Y-1527476D01*
X2198016Y-1527476D01*
X2178969Y-1517952D01*
X2169445Y-1508428D01*
X2159921Y-1489381D01*
X2150397Y-1451286D01*
X2150397Y-1403667D01*
X2159921Y-1365571D01*
X2169445Y-1346524D01*
X2178969Y-1337000D01*
X2198016Y-1327476D01*
X2350397Y-1508428D02*
X2359921Y-1517952D01*
X2350397Y-1527476D01*
X2340873Y-1517952D01*
X2350397Y-1508428D01*
X2350397Y-1527476D01*
X2483730Y-1327476D02*
X2502778Y-1327476D01*
X2521826Y-1337000D01*
X2531350Y-1346524D01*
X2540873Y-1365571D01*
X2550397Y-1403667D01*
X2550397Y-1451286D01*
X2540873Y-1489381D01*
X2531350Y-1508428D01*
X2521826Y-1517952D01*
X2502778Y-1527476D01*
X2483730Y-1527476D01*
X2464683Y-1517952D01*
X2455159Y-1508428D01*
X2445635Y-1489381D01*
X2436111Y-1451286D01*
X2436111Y-1403667D01*
X2445635Y-1365571D01*
X2455159Y-1346524D01*
X2464683Y-1337000D01*
X2483730Y-1327476D01*
X2721826Y-1394143D02*
X2721826Y-1527476D01*
X2674207Y-1317952D02*
X2626588Y-1460809D01*
X2750397Y-1460809D01*
X2807540Y-1327476D02*
X2931349Y-1327476D01*
X2864683Y-1403667D01*
X2893254Y-1403667D01*
X2912302Y-1413190D01*
X2921826Y-1422714D01*
X2931349Y-1441762D01*
X2931349Y-1489381D01*
X2921826Y-1508428D01*
X2912302Y-1517952D01*
X2893254Y-1527476D01*
X2836111Y-1527476D01*
X2817064Y-1517952D01*
X2807540Y-1508428D01*
X2998016Y-1327476D02*
X3121826Y-1327476D01*
X3055159Y-1403667D01*
X3083730Y-1403667D01*
X3102778Y-1413190D01*
X3112302Y-1422714D01*
X3121826Y-1441762D01*
X3121826Y-1489381D01*
X3112302Y-1508428D01*
X3102778Y-1517952D01*
X3083730Y-1527476D01*
X3026588Y-1527476D01*
X3007540Y-1517952D01*
X2998016Y-1508428D01*
X3198016Y-1327476D02*
X3198016Y-1365571D01*
X3274207Y-1327476D02*
X3274207Y-1365571D01*
X3569445Y-1603667D02*
X3559921Y-1594143D01*
X3540873Y-1565571D01*
X3531349Y-1546524D01*
X3521826Y-1517952D01*
X3512302Y-1470333D01*
X3512302Y-1432238D01*
X3521826Y-1384619D01*
X3531349Y-1356048D01*
X3540873Y-1337000D01*
X3559921Y-1308429D01*
X3569445Y-1298905D01*
X3636111Y-1346524D02*
X3645635Y-1337000D01*
X3664683Y-1327476D01*
X3712302Y-1327476D01*
X3731349Y-1337000D01*
X3740873Y-1346524D01*
X3750397Y-1365571D01*
X3750397Y-1384619D01*
X3740873Y-1413190D01*
X3626588Y-1527476D01*
X3750397Y-1527476D01*
X3988492Y-1527476D02*
X3988492Y-1327476D01*
X4074207Y-1527476D02*
X4074207Y-1422714D01*
X4064683Y-1403667D01*
X4045635Y-1394143D01*
X4017064Y-1394143D01*
X3998016Y-1403667D01*
X3988492Y-1413190D01*
X4198016Y-1527476D02*
X4178968Y-1517952D01*
X4169445Y-1508428D01*
X4159921Y-1489381D01*
X4159921Y-1432238D01*
X4169445Y-1413190D01*
X4178968Y-1403667D01*
X4198016Y-1394143D01*
X4226588Y-1394143D01*
X4245635Y-1403667D01*
X4255159Y-1413190D01*
X4264683Y-1432238D01*
X4264683Y-1489381D01*
X4255159Y-1508428D01*
X4245635Y-1517952D01*
X4226588Y-1527476D01*
X4198016Y-1527476D01*
X4378969Y-1527476D02*
X4359921Y-1517952D01*
X4350397Y-1498905D01*
X4350397Y-1327476D01*
X4531350Y-1517952D02*
X4512302Y-1527476D01*
X4474207Y-1527476D01*
X4455159Y-1517952D01*
X4445635Y-1498905D01*
X4445635Y-1422714D01*
X4455159Y-1403667D01*
X4474207Y-1394143D01*
X4512302Y-1394143D01*
X4531350Y-1403667D01*
X4540873Y-1422714D01*
X4540873Y-1441762D01*
X4445635Y-1460809D01*
X4617064Y-1517952D02*
X4636111Y-1527476D01*
X4674207Y-1527476D01*
X4693254Y-1517952D01*
X4702778Y-1498905D01*
X4702778Y-1489381D01*
X4693254Y-1470333D01*
X4674207Y-1460809D01*
X4645635Y-1460809D01*
X4626588Y-1451286D01*
X4617064Y-1432238D01*
X4617064Y-1422714D01*
X4626588Y-1403667D01*
X4645635Y-1394143D01*
X4674207Y-1394143D01*
X4693254Y-1403667D01*
X4769445Y-1603667D02*
X4778969Y-1594143D01*
X4798016Y-1565571D01*
X4807540Y-1546524D01*
X4817064Y-1517952D01*
X4826588Y-1470333D01*
X4826588Y-1432238D01*
X4817064Y-1384619D01*
X4807540Y-1356048D01*
X4798016Y-1337000D01*
X4778969Y-1308429D01*
X4769445Y-1298905D01*
M02*
