%TF.GenerationSoftware,KiCad,Pcbnew,(6.0.0)*%
%TF.CreationDate,2023-01-28T16:33:02+01:00*%
%TF.ProjectId,MH106Enhanced,4d483130-3645-46e6-9861-6e6365642e6b,1*%
%TF.SameCoordinates,PX5255c88PY54c81a0*%
%TF.FileFunction,Copper,L2,Bot*%
%TF.FilePolarity,Positive*%
%FSLAX46Y46*%
G04 Gerber Fmt 4.6, Leading zero omitted, Abs format (unit mm)*
G04 Created by KiCad (PCBNEW (6.0.0)) date 2023-01-28 16:33:02*
%MOMM*%
%LPD*%
G01*
G04 APERTURE LIST*
G04 Aperture macros list*
%AMRoundRect*
0 Rectangle with rounded corners*
0 $1 Rounding radius*
0 $2 $3 $4 $5 $6 $7 $8 $9 X,Y pos of 4 corners*
0 Add a 4 corners polygon primitive as box body*
4,1,4,$2,$3,$4,$5,$6,$7,$8,$9,$2,$3,0*
0 Add four circle primitives for the rounded corners*
1,1,$1+$1,$2,$3*
1,1,$1+$1,$4,$5*
1,1,$1+$1,$6,$7*
1,1,$1+$1,$8,$9*
0 Add four rect primitives between the rounded corners*
20,1,$1+$1,$2,$3,$4,$5,0*
20,1,$1+$1,$4,$5,$6,$7,0*
20,1,$1+$1,$6,$7,$8,$9,0*
20,1,$1+$1,$8,$9,$2,$3,0*%
G04 Aperture macros list end*
%TA.AperFunction,ComponentPad*%
%ADD10R,1.700000X1.700000*%
%TD*%
%TA.AperFunction,ComponentPad*%
%ADD11O,1.700000X1.700000*%
%TD*%
%TA.AperFunction,ComponentPad*%
%ADD12C,2.200000*%
%TD*%
%TA.AperFunction,ComponentPad*%
%ADD13R,2.200000X2.200000*%
%TD*%
%TA.AperFunction,ComponentPad*%
%ADD14R,1.000000X1.000000*%
%TD*%
%TA.AperFunction,ComponentPad*%
%ADD15O,1.000000X1.000000*%
%TD*%
%TA.AperFunction,SMDPad,CuDef*%
%ADD16RoundRect,0.237500X0.300000X0.237500X-0.300000X0.237500X-0.300000X-0.237500X0.300000X-0.237500X0*%
%TD*%
%TA.AperFunction,SMDPad,CuDef*%
%ADD17RoundRect,0.237500X0.237500X-0.300000X0.237500X0.300000X-0.237500X0.300000X-0.237500X-0.300000X0*%
%TD*%
%TA.AperFunction,SMDPad,CuDef*%
%ADD18RoundRect,0.042000X0.943000X0.258000X-0.943000X0.258000X-0.943000X-0.258000X0.943000X-0.258000X0*%
%TD*%
%TA.AperFunction,SMDPad,CuDef*%
%ADD19R,0.650000X2.000000*%
%TD*%
%TA.AperFunction,SMDPad,CuDef*%
%ADD20R,1.500000X2.000000*%
%TD*%
%TA.AperFunction,SMDPad,CuDef*%
%ADD21R,3.800000X2.000000*%
%TD*%
%TA.AperFunction,ViaPad*%
%ADD22C,0.600000*%
%TD*%
%TA.AperFunction,Conductor*%
%ADD23C,0.200000*%
%TD*%
%TA.AperFunction,Conductor*%
%ADD24C,0.150000*%
%TD*%
%TA.AperFunction,Conductor*%
%ADD25C,0.600000*%
%TD*%
%TA.AperFunction,Conductor*%
%ADD26C,0.400000*%
%TD*%
G04 APERTURE END LIST*
D10*
%TO.P,J6,1,Pin_1*%
%TO.N,+3V3*%
X8305800Y11912600D03*
D11*
%TO.P,J6,2,Pin_2*%
%TO.N,SDA*%
X8305800Y9372600D03*
%TO.P,J6,3,Pin_3*%
%TO.N,SCL*%
X8305800Y6832600D03*
%TO.P,J6,4,Pin_4*%
%TO.N,GND*%
X8305800Y4292600D03*
%TO.P,J6,5,Pin_5*%
X8305800Y1752600D03*
%TD*%
D12*
%TO.P,J3,1,Pin_1*%
%TO.N,5V*%
X12725400Y49530000D03*
D13*
%TO.P,J3,2,Pin_2*%
%TO.N,GND*%
X10185400Y49530000D03*
%TD*%
D14*
%TO.P,J5,1,Pin_1*%
%TO.N,Net-(J5-Pad1)*%
X10390400Y12065000D03*
D15*
%TO.P,J5,2,Pin_2*%
%TO.N,GND*%
X11660400Y12065000D03*
%TO.P,J5,3,Pin_3*%
%TO.N,Net-(J5-Pad3)*%
X12930400Y12065000D03*
%TD*%
D14*
%TO.P,J4,1,Pin_1*%
%TO.N,GND*%
X12090400Y44450000D03*
D15*
%TO.P,J4,2,Pin_2*%
%TO.N,Net-(J4-Pad2)*%
X13360400Y44450000D03*
%TO.P,J4,3,Pin_3*%
%TO.N,Net-(J4-Pad3)*%
X14630400Y44450000D03*
%TO.P,J4,4,Pin_4*%
%TO.N,5V*%
X15900400Y44450000D03*
%TD*%
D16*
%TO.P,C9,1*%
%TO.N,+3V3*%
X16254900Y12065000D03*
%TO.P,C9,2*%
%TO.N,GND*%
X14529900Y12065000D03*
%TD*%
D17*
%TO.P,C6,1*%
%TO.N,+3V3*%
X5867400Y47778500D03*
%TO.P,C6,2*%
%TO.N,GND*%
X5867400Y49503500D03*
%TD*%
D18*
%TO.P,U4,1,VCC*%
%TO.N,+3V3*%
X15784400Y34671000D03*
%TO.P,U4,2,SER_IN*%
%TO.N,Net-(U3-Pad9)*%
X15784400Y33401000D03*
%TO.P,U4,3,DRAIN0*%
%TO.N,~{DMX 8}*%
X15784400Y32131000D03*
%TO.P,U4,4,DRAIN1*%
%TO.N,~{DMX 6}*%
X15784400Y30861000D03*
%TO.P,U4,5,DRAIN2*%
%TO.N,~{DMX 4}*%
X15784400Y29591000D03*
%TO.P,U4,6,DRAIN3*%
%TO.N,~{DMX 2}*%
X15784400Y28321000D03*
%TO.P,U4,7,~{CLR}*%
%TO.N,+3V3*%
X15784400Y27051000D03*
%TO.P,U4,8,~{G}*%
%TO.N,GND*%
X15784400Y25781000D03*
%TO.P,U4,9,SER_OUT*%
%TO.N,unconnected-(U4-Pad9)*%
X10834400Y25781000D03*
%TO.P,U4,10,RCK*%
%TO.N,Shift_RCK*%
X10834400Y27051000D03*
%TO.P,U4,11,DRAIN4*%
%TO.N,~{DMX 1}*%
X10834400Y28321000D03*
%TO.P,U4,12,DRAIN5*%
%TO.N,~{DMX 3}*%
X10834400Y29591000D03*
%TO.P,U4,13,DRAIN6*%
%TO.N,~{DMX 5}*%
X10834400Y30861000D03*
%TO.P,U4,14,DRAIN7*%
%TO.N,~{DMX 7}*%
X10834400Y32131000D03*
%TO.P,U4,15,SRCK*%
%TO.N,Shift_SRCK*%
X10834400Y33401000D03*
%TO.P,U4,16,GND*%
%TO.N,GND*%
X10834400Y34671000D03*
%TD*%
D16*
%TO.P,C10,1*%
%TO.N,+3V3*%
X16331100Y24130000D03*
%TO.P,C10,2*%
%TO.N,GND*%
X14606100Y24130000D03*
%TD*%
D10*
%TO.P,J2,1,Pin_1*%
%TO.N,BCD A{slash}AS 0*%
X20345400Y2540000D03*
D11*
%TO.P,J2,2,Pin_2*%
%TO.N,BCD B{slash}AS 1*%
X20345400Y5080000D03*
%TO.P,J2,3,Pin_3*%
%TO.N,BCD C{slash}AS 2*%
X20345400Y7620000D03*
%TO.P,J2,4,Pin_4*%
%TO.N,BCD D{slash}AS 3*%
X20345400Y10160000D03*
%TO.P,J2,5,Pin_5*%
%TO.N,SEG G{slash}NE{slash}AS 4*%
X20345400Y12700000D03*
%TO.P,J2,6,Pin_6*%
%TO.N,SEG A{slash}SO{slash}AS 5*%
X20345400Y15240000D03*
%TO.P,J2,7,Pin_7*%
%TO.N,SEG F{slash}PA{slash}AS 6*%
X20345400Y17780000D03*
%TO.P,J2,8,Pin_8*%
%TO.N,SEG E{slash}CT{slash}AS 7*%
X20345400Y20320000D03*
%TO.P,J2,9,Pin_9*%
%TO.N,SEG B{slash}ST{slash}AS 8*%
X20345400Y22860000D03*
%TO.P,J2,10,Pin_10*%
%TO.N,SEG C{slash}UT{slash}AS 9*%
X20345400Y25400000D03*
%TO.P,J2,11,Pin_11*%
%TO.N,SEG D{slash}PO{slash}AS 10*%
X20345400Y27940000D03*
%TO.P,J2,12,Pin_12*%
%TO.N,~{DMX 1}*%
X20345400Y30480000D03*
%TO.P,J2,13,Pin_13*%
%TO.N,~{DMX 2}*%
X20345400Y33020000D03*
%TO.P,J2,14,Pin_14*%
%TO.N,~{DMX 3}*%
X20345400Y35560000D03*
%TO.P,J2,15,Pin_15*%
%TO.N,~{DMX 4}*%
X20345400Y38100000D03*
%TO.P,J2,16,Pin_16*%
%TO.N,~{DMX 5}*%
X20345400Y40640000D03*
%TO.P,J2,17,Pin_17*%
%TO.N,~{DMX 6}*%
X20345400Y43180000D03*
%TO.P,J2,18,Pin_18*%
%TO.N,~{DMX 7}*%
X20345400Y45720000D03*
%TO.P,J2,19,Pin_19*%
%TO.N,~{DMX 8}*%
X20345400Y48260000D03*
%TO.P,J2,20,Pin_20*%
%TO.N,ICC 2*%
X20345400Y50800000D03*
%TD*%
D10*
%TO.P,J1,1,Pin_1*%
%TO.N,ICC1*%
X2565400Y50800000D03*
D11*
%TO.P,J1,2,Pin_2*%
%TO.N,Net-(J1-Pad2)*%
X2565400Y48260000D03*
%TO.P,J1,3,Pin_3*%
%TO.N,Net-(J1-Pad3)*%
X2565400Y45720000D03*
%TO.P,J1,4,Pin_4*%
%TO.N,Net-(J1-Pad4)*%
X2565400Y43180000D03*
%TO.P,J1,5,Pin_5*%
%TO.N,Net-(J1-Pad5)*%
X2565400Y40640000D03*
%TO.P,J1,6,Pin_6*%
%TO.N,Net-(J1-Pad6)*%
X2565400Y38100000D03*
%TO.P,J1,7,Pin_7*%
%TO.N,~{LSL}*%
X2565400Y35560000D03*
%TO.P,J1,8,Pin_8*%
%TO.N,~{LSS}*%
X2565400Y33020000D03*
%TO.P,J1,9,Pin_9*%
%TO.N,~{LML}*%
X2565400Y30480000D03*
%TO.P,J1,10,Pin_10*%
%TO.N,~{LMS}*%
X2565400Y27940000D03*
%TO.P,J1,11,Pin_11*%
%TO.N,~{ALARM}*%
X2565400Y25400000D03*
%TO.P,J1,12,Pin_12*%
%TO.N,~{CAL}*%
X2565400Y22860000D03*
%TO.P,J1,13,Pin_13*%
%TO.N,Net-(J1-Pad13)*%
X2565400Y20320000D03*
%TO.P,J1,14,Pin_14*%
%TO.N,Net-(J1-Pad14)*%
X2565400Y17780000D03*
%TO.P,J1,15,Pin_15*%
%TO.N,Net-(J1-Pad15)*%
X2565400Y15240000D03*
%TO.P,J1,16,Pin_16*%
%TO.N,Net-(J1-Pad16)*%
X2565400Y12700000D03*
%TO.P,J1,17,Pin_17*%
%TO.N,Net-(J1-Pad17)*%
X2565400Y10160000D03*
%TO.P,J1,18,Pin_18*%
%TO.N,Net-(J1-Pad18)*%
X2565400Y7620000D03*
%TO.P,J1,19,Pin_19*%
%TO.N,STROBE*%
X2565400Y5080000D03*
%TO.P,J1,20,Pin_20*%
%TO.N,GND*%
X2565400Y2540000D03*
%TD*%
D16*
%TO.P,C11,1*%
%TO.N,+3V3*%
X16254900Y36068000D03*
%TO.P,C11,2*%
%TO.N,GND*%
X14529900Y36068000D03*
%TD*%
D17*
%TO.P,C5,1*%
%TO.N,5V*%
X7645400Y47778500D03*
%TO.P,C5,2*%
%TO.N,GND*%
X7645400Y49503500D03*
%TD*%
D19*
%TO.P,Q2,1,G*%
%TO.N,STROBE out*%
X6563400Y4640000D03*
%TO.P,Q2,2,S*%
%TO.N,GND*%
X4663400Y4640000D03*
%TO.P,Q2,3,D*%
%TO.N,STROBE*%
X5613400Y8060000D03*
%TD*%
%TO.P,Q1,1,G*%
%TO.N,~{CAL} out*%
X6563400Y10863000D03*
%TO.P,Q1,2,S*%
%TO.N,GND*%
X4663400Y10863000D03*
%TO.P,Q1,3,D*%
%TO.N,~{CAL}*%
X5613400Y14283000D03*
%TD*%
D18*
%TO.P,U3,1,VCC*%
%TO.N,+3V3*%
X15784400Y22606000D03*
%TO.P,U3,2,SER_IN*%
%TO.N,Net-(U2-Pad9)*%
X15784400Y21336000D03*
%TO.P,U3,3,DRAIN0*%
%TO.N,SEG D{slash}PO{slash}AS 10*%
X15784400Y20066000D03*
%TO.P,U3,4,DRAIN1*%
%TO.N,SEG C{slash}UT{slash}AS 9*%
X15784400Y18796000D03*
%TO.P,U3,5,DRAIN2*%
%TO.N,SEG B{slash}ST{slash}AS 8*%
X15784400Y17526000D03*
%TO.P,U3,6,DRAIN3*%
%TO.N,SEG E{slash}CT{slash}AS 7*%
X15784400Y16256000D03*
%TO.P,U3,7,~{CLR}*%
%TO.N,+3V3*%
X15784400Y14986000D03*
%TO.P,U3,8,~{G}*%
%TO.N,GND*%
X15784400Y13716000D03*
%TO.P,U3,9,SER_OUT*%
%TO.N,Net-(U3-Pad9)*%
X10834400Y13716000D03*
%TO.P,U3,10,RCK*%
%TO.N,Shift_RCK*%
X10834400Y14986000D03*
%TO.P,U3,11,DRAIN4*%
%TO.N,~{LMS}*%
X10834400Y16256000D03*
%TO.P,U3,12,DRAIN5*%
%TO.N,~{LML}*%
X10834400Y17526000D03*
%TO.P,U3,13,DRAIN6*%
%TO.N,~{LSS}*%
X10834400Y18796000D03*
%TO.P,U3,14,DRAIN7*%
%TO.N,~{LSL}*%
X10834400Y20066000D03*
%TO.P,U3,15,SRCK*%
%TO.N,Shift_SRCK*%
X10834400Y21336000D03*
%TO.P,U3,16,GND*%
%TO.N,GND*%
X10834400Y22606000D03*
%TD*%
%TO.P,U2,1,VCC*%
%TO.N,+3V3*%
X15784400Y10541000D03*
%TO.P,U2,2,SER_IN*%
%TO.N,Shift_Data*%
X15784400Y9271000D03*
%TO.P,U2,3,DRAIN0*%
%TO.N,SEG F{slash}PA{slash}AS 6*%
X15784400Y8001000D03*
%TO.P,U2,4,DRAIN1*%
%TO.N,SEG A{slash}SO{slash}AS 5*%
X15784400Y6731000D03*
%TO.P,U2,5,DRAIN2*%
%TO.N,BCD D{slash}AS 3*%
X15784400Y5461000D03*
%TO.P,U2,6,DRAIN3*%
%TO.N,BCD B{slash}AS 1*%
X15784400Y4191000D03*
%TO.P,U2,7,~{CLR}*%
%TO.N,+3V3*%
X15784400Y2921000D03*
%TO.P,U2,8,~{G}*%
%TO.N,GND*%
X15784400Y1651000D03*
%TO.P,U2,9,SER_OUT*%
%TO.N,Net-(U2-Pad9)*%
X10834400Y1651000D03*
%TO.P,U2,10,RCK*%
%TO.N,Shift_RCK*%
X10834400Y2921000D03*
%TO.P,U2,11,DRAIN4*%
%TO.N,BCD A{slash}AS 0*%
X10834400Y4191000D03*
%TO.P,U2,12,DRAIN5*%
%TO.N,BCD C{slash}AS 2*%
X10834400Y5461000D03*
%TO.P,U2,13,DRAIN6*%
%TO.N,SEG G{slash}NE{slash}AS 4*%
X10834400Y6731000D03*
%TO.P,U2,14,DRAIN7*%
%TO.N,~{ALARM}*%
X10834400Y8001000D03*
%TO.P,U2,15,SRCK*%
%TO.N,Shift_SRCK*%
X10834400Y9271000D03*
%TO.P,U2,16,GND*%
%TO.N,GND*%
X10834400Y10541000D03*
%TD*%
D20*
%TO.P,U5,1,GND*%
%TO.N,GND*%
X5472400Y45568000D03*
%TO.P,U5,2,VO*%
%TO.N,+3V3*%
X7772400Y45568000D03*
D21*
X7772400Y39268000D03*
D20*
%TO.P,U5,3,VI*%
%TO.N,5V*%
X10072400Y45568000D03*
%TD*%
D22*
%TO.N,Shift_RCK*%
X17449800Y22275800D03*
%TO.N,+3V3*%
X18008600Y14452600D03*
%TO.N,GND*%
X13055600Y16179800D03*
X13639800Y14452600D03*
X10907889Y24390900D03*
%TO.N,Shift_SRCK*%
X8940800Y13563600D03*
%TO.N,GND*%
X15729612Y25139081D03*
%TO.N,Shift_RCK*%
X13614400Y10058400D03*
%TO.N,Shift_Data*%
X17297400Y9245600D03*
%TO.N,GND*%
X9423400Y35814000D03*
X6248400Y35814000D03*
X6248400Y9398000D03*
X5994400Y43561000D03*
%TO.N,+1V1*%
X18821400Y25603200D03*
X18211800Y24079200D03*
%TO.N,Shift_SRCK*%
X9550400Y21082000D03*
%TO.N,+3V3*%
X7518400Y41275000D03*
X12725400Y33401000D03*
X15316200Y41478200D03*
X18059400Y26543000D03*
X7772400Y43815000D03*
X18719800Y27609800D03*
%TO.N,QSPI_CSN*%
X11176000Y40690800D03*
X10922000Y37236400D03*
%TO.N,QSPI_SCLK*%
X13944600Y38354000D03*
X15138400Y38354000D03*
%TO.N,QSPI_SD0*%
X13309600Y37084000D03*
X15138400Y37084000D03*
%TO.N,QSPI_SD1*%
X11734800Y39624000D03*
X11709400Y37236400D03*
%TO.N,~{CAL} out*%
X13290420Y24383989D03*
%TO.N,STROBE out*%
X7137400Y5969000D03*
%TD*%
D23*
%TO.N,Shift_RCK*%
X12090400Y14986000D02*
X10834400Y14986000D01*
X13665400Y10109400D02*
X13665400Y13411000D01*
X13665400Y13411000D02*
X12090400Y14986000D01*
X13614400Y10058400D02*
X13665400Y10109400D01*
%TO.N,SEG D{slash}PO{slash}AS 10*%
X18364200Y23182200D02*
X17685289Y23861111D01*
X17685289Y23861111D02*
X17685289Y25279889D01*
X17685289Y25279889D02*
X20345400Y27940000D01*
X18364200Y21802340D02*
X18364200Y23182200D01*
X17859880Y21298020D02*
X18364200Y21802340D01*
X17859880Y20501480D02*
X17859880Y21298020D01*
X17424400Y20066000D02*
X17859880Y20501480D01*
X16038400Y20066000D02*
X17424400Y20066000D01*
D24*
%TO.N,+3V3*%
X17094200Y21717000D02*
X16510000Y22301200D01*
X17729200Y21717000D02*
X17094200Y21717000D01*
X17983200Y21971000D02*
X17729200Y21717000D01*
X17983200Y22758400D02*
X17983200Y21971000D01*
X17371640Y25855240D02*
X17371640Y23369960D01*
X17371640Y23369960D02*
X17983200Y22758400D01*
D23*
%TO.N,SEG C{slash}UT{slash}AS 9*%
X18770600Y23825200D02*
X20345400Y25400000D01*
X18770600Y21746970D02*
X18770600Y23825200D01*
X18186400Y20116800D02*
X18186400Y21162770D01*
X16865600Y18796000D02*
X18186400Y20116800D01*
X16038400Y18796000D02*
X16865600Y18796000D01*
X18186400Y21162770D02*
X18770600Y21746970D01*
D24*
%TO.N,+3V3*%
X18059400Y26543000D02*
X17371640Y25855240D01*
%TO.N,Shift_RCK*%
X16846680Y26282520D02*
X11602880Y26282520D01*
X11602880Y26282520D02*
X10834400Y27051000D01*
X17070120Y22655480D02*
X17070120Y26059080D01*
X17449800Y22275800D02*
X17070120Y22655480D01*
X17070120Y26059080D02*
X16846680Y26282520D01*
D23*
%TO.N,Net-(U3-Pad9)*%
X9499600Y13716000D02*
X10834400Y13716000D01*
X9448800Y13766800D02*
X9499600Y13716000D01*
X9448800Y15392400D02*
X9448800Y13766800D01*
X9652000Y15595600D02*
X9448800Y15392400D01*
X11754744Y15595600D02*
X9652000Y15595600D01*
X12045920Y15886776D02*
X11754744Y15595600D01*
X12045920Y16059120D02*
X12045920Y15886776D01*
X13817600Y17830800D02*
X12045920Y16059120D01*
X13817600Y24601409D02*
X13817600Y17830800D01*
X13501609Y24917400D02*
X13817600Y24601409D01*
X10117256Y24917400D02*
X13501609Y24917400D01*
X9495920Y25538736D02*
X10117256Y24917400D01*
X9495920Y32406720D02*
X9495920Y25538736D01*
X15257880Y32874480D02*
X9963680Y32874480D01*
X9963680Y32874480D02*
X9495920Y32406720D01*
X15784400Y33401000D02*
X15257880Y32874480D01*
D24*
%TO.N,GND*%
X10834400Y24317411D02*
X10834400Y22606000D01*
X10907889Y24390900D02*
X10834400Y24317411D01*
D23*
%TO.N,+3V3*%
X18008600Y14452600D02*
X17322800Y14452600D01*
X17322800Y14452600D02*
X17297400Y14478000D01*
%TO.N,SEG F{slash}PA{slash}AS 6*%
X19024600Y13614400D02*
X19024600Y16459200D01*
X17932400Y12522200D02*
X19024600Y13614400D01*
X17551400Y8001000D02*
X17932400Y8382000D01*
X19024600Y16459200D02*
X20345400Y17780000D01*
X16038400Y8001000D02*
X17551400Y8001000D01*
X17932400Y8382000D02*
X17932400Y12522200D01*
%TO.N,SEG A{slash}SO{slash}AS 5*%
X20345400Y14325600D02*
X20345400Y15240000D01*
X18313400Y7112000D02*
X18313400Y12293600D01*
X17932400Y6731000D02*
X18313400Y7112000D01*
X16038400Y6731000D02*
X17932400Y6731000D01*
X18313400Y12293600D02*
X20345400Y14325600D01*
D24*
%TO.N,GND*%
X14757400Y13716000D02*
X15784400Y13716000D01*
X13639800Y14452600D02*
X14020800Y14452600D01*
X14020800Y14452600D02*
X14757400Y13716000D01*
D23*
%TO.N,Net-(U2-Pad9)*%
X12217400Y1651000D02*
X10834400Y1651000D01*
X12852400Y2286000D02*
X12217400Y1651000D01*
X17145000Y2286000D02*
X12852400Y2286000D01*
X18770600Y660400D02*
X17145000Y2286000D01*
X21742400Y660400D02*
X18770600Y660400D01*
X22275800Y1193800D02*
X21742400Y660400D01*
X22275800Y20497800D02*
X22275800Y1193800D01*
X21209000Y21564600D02*
X22275800Y20497800D01*
X19710400Y21564600D02*
X21209000Y21564600D01*
X18999200Y20853400D02*
X19710400Y21564600D01*
X18999200Y19634200D02*
X18999200Y20853400D01*
X17932400Y18567400D02*
X18999200Y19634200D01*
X17932400Y17983200D02*
X17932400Y18567400D01*
X16814800Y16865600D02*
X17932400Y17983200D01*
X14499720Y17094200D02*
X14728320Y16865600D01*
X14499720Y20900520D02*
X14499720Y17094200D01*
X14935200Y21336000D02*
X14499720Y20900520D01*
X15784400Y21336000D02*
X14935200Y21336000D01*
X14728320Y16865600D02*
X16814800Y16865600D01*
%TO.N,+3V3*%
X16916400Y14986000D02*
X16789400Y14986000D01*
X18948400Y17018000D02*
X16916400Y14986000D01*
X18948400Y17653000D02*
X18948400Y17018000D01*
X19274920Y17979520D02*
X18948400Y17653000D01*
X19274920Y18787750D02*
X19274920Y17979520D01*
X21869400Y18415000D02*
X21234400Y19050000D01*
X21869400Y1524000D02*
X21869400Y18415000D01*
X19537170Y19050000D02*
X19274920Y18787750D01*
X21488400Y1143000D02*
X21869400Y1524000D01*
X21234400Y19050000D02*
X19537170Y19050000D01*
X17221200Y2921000D02*
X18999200Y1143000D01*
X15784400Y2921000D02*
X17221200Y2921000D01*
X18999200Y1143000D02*
X21488400Y1143000D01*
%TO.N,SEG B{slash}ST{slash}AS 8*%
X18512920Y19884520D02*
X18512920Y21027520D01*
X16038400Y17526000D02*
X16154400Y17526000D01*
X16154400Y17526000D02*
X18512920Y19884520D01*
X18512920Y21027520D02*
X20345400Y22860000D01*
%TO.N,+3V3*%
X15657400Y14859000D02*
X15784400Y14986000D01*
X14757400Y14859000D02*
X15657400Y14859000D01*
X14173200Y15443200D02*
X14757400Y14859000D01*
X14173200Y21894800D02*
X14173200Y15443200D01*
X14884400Y22606000D02*
X14173200Y21894800D01*
X15784400Y22606000D02*
X14884400Y22606000D01*
D24*
%TO.N,GND*%
X13055600Y15036800D02*
X13055600Y16179800D01*
X13639800Y14452600D02*
X13055600Y15036800D01*
D23*
%TO.N,Shift_SRCK*%
X9382311Y13096689D02*
X8940800Y13538200D01*
X8940800Y13538200D02*
X8940800Y13563600D01*
X9382311Y10412345D02*
X9382311Y13096689D01*
X10834400Y9271000D02*
X10523656Y9271000D01*
X10523656Y9271000D02*
X9382311Y10412345D01*
%TO.N,GND*%
X15784400Y25193869D02*
X15784400Y25781000D01*
X15729612Y25139081D02*
X15538981Y25139081D01*
X15538981Y25139081D02*
X14529900Y24130000D01*
X15729612Y25139081D02*
X15784400Y25193869D01*
%TO.N,Shift_RCK*%
X10523656Y2921000D02*
X10834400Y2921000D01*
X9622880Y3821776D02*
X10523656Y2921000D01*
X9622880Y7100224D02*
X9622880Y3821776D01*
X12830200Y7257520D02*
X9780176Y7257520D01*
X13614400Y10058400D02*
X13614400Y8041720D01*
X13614400Y8041720D02*
X12830200Y7257520D01*
X9780176Y7257520D02*
X9622880Y7100224D01*
%TO.N,Shift_Data*%
X15809800Y9245600D02*
X15784400Y9271000D01*
X17297400Y9245600D02*
X15809800Y9245600D01*
%TO.N,~{ALARM}*%
X8102600Y8001000D02*
X10834400Y8001000D01*
X7137400Y8966200D02*
X8102600Y8001000D01*
X7137400Y13589000D02*
X7137400Y8966200D01*
X8098920Y15929480D02*
X8788400Y15240000D01*
X8788400Y15240000D02*
X7137400Y13589000D01*
X3762880Y24202520D02*
X3762880Y17309980D01*
X3762880Y17309980D02*
X5143380Y15929480D01*
X5143380Y15929480D02*
X8098920Y15929480D01*
X2565400Y25400000D02*
X3762880Y24202520D01*
%TO.N,GND*%
X8407400Y1066800D02*
X8102600Y762000D01*
X8407400Y4262200D02*
X8407400Y1066800D01*
X8382000Y4287600D02*
X8407400Y4262200D01*
%TO.N,~{LSL}*%
X5232400Y34417000D02*
X4089400Y35560000D01*
X5232400Y17780000D02*
X5232400Y34417000D01*
X5742143Y17270257D02*
X5232400Y17780000D01*
X10834400Y20066000D02*
X9931400Y20066000D01*
X8536143Y17270257D02*
X5742143Y17270257D01*
X9423400Y18157514D02*
X8536143Y17270257D01*
X4089400Y35560000D02*
X2565400Y35560000D01*
X9423400Y19558000D02*
X9423400Y18157514D01*
X9931400Y20066000D02*
X9423400Y19558000D01*
%TO.N,~{LSS}*%
X10523656Y18796000D02*
X8636696Y16909040D01*
X4851400Y30734000D02*
X2565400Y33020000D01*
X10834400Y18796000D02*
X10523656Y18796000D01*
X4851400Y17653000D02*
X4851400Y30734000D01*
X5595360Y16909040D02*
X4851400Y17653000D01*
X8636696Y16909040D02*
X5595360Y16909040D01*
%TO.N,~{LML}*%
X4470400Y17526000D02*
X4470400Y29464000D01*
X9931400Y17526000D02*
X8987920Y16582520D01*
X8987920Y16582520D02*
X5413880Y16582520D01*
X4470400Y29464000D02*
X3454400Y30480000D01*
X10834400Y17526000D02*
X9931400Y17526000D01*
X5413880Y16582520D02*
X4470400Y17526000D01*
X3454400Y30480000D02*
X2565400Y30480000D01*
%TO.N,~{LMS}*%
X5278630Y16256000D02*
X4089400Y17445230D01*
X4089400Y26416000D02*
X2565400Y27940000D01*
X10834400Y16256000D02*
X5278630Y16256000D01*
X4089400Y17445230D02*
X4089400Y26416000D01*
%TO.N,~{CAL}*%
X2565400Y22860000D02*
X1295400Y21590000D01*
X5427400Y13970000D02*
X5613400Y14156000D01*
X1295400Y14605000D02*
X1930400Y13970000D01*
X1930400Y13970000D02*
X5427400Y13970000D01*
X1295400Y21590000D02*
X1295400Y14605000D01*
%TO.N,STROBE*%
X2565400Y5080000D02*
X5545400Y8060000D01*
X5545400Y8060000D02*
X5613400Y8060000D01*
D25*
%TO.N,GND*%
X5078900Y49503500D02*
X4724400Y49149000D01*
D23*
X14529900Y36068000D02*
X14867000Y36068000D01*
D25*
X6121400Y49503500D02*
X5078900Y49503500D01*
X5994400Y43561000D02*
X6756400Y42799000D01*
D23*
X4663400Y4640000D02*
X4663400Y3114000D01*
X9691400Y35814000D02*
X10834400Y34671000D01*
X13055600Y42799000D02*
X10439400Y42799000D01*
X14376400Y762000D02*
X8102600Y762000D01*
X8102600Y762000D02*
X4343400Y762000D01*
X10834400Y10541000D02*
X11455400Y11162000D01*
X15265400Y1651000D02*
X14376400Y762000D01*
D25*
X6756400Y42799000D02*
X10439400Y42799000D01*
D23*
X15773400Y36974400D02*
X15773400Y40081200D01*
X9423400Y35814000D02*
X6248400Y35814000D01*
D25*
X10185400Y49530000D02*
X6147900Y49530000D01*
D23*
X14867000Y36068000D02*
X15773400Y36974400D01*
X11455400Y11162000D02*
X11455400Y12065000D01*
X5359400Y9398000D02*
X6248400Y9398000D01*
X14529900Y12065000D02*
X15784400Y13319500D01*
X4663400Y3114000D02*
X4089400Y2540000D01*
D25*
X5472400Y44083000D02*
X5994400Y43561000D01*
X10439400Y42799000D02*
X12090400Y44450000D01*
X4724400Y46316000D02*
X5472400Y45568000D01*
X6147900Y49530000D02*
X6121400Y49503500D01*
D23*
X4663400Y10863000D02*
X4663400Y10094000D01*
X4089400Y2540000D02*
X2565400Y2540000D01*
X15784400Y13319500D02*
X15784400Y13716000D01*
X4663400Y10094000D02*
X5359400Y9398000D01*
X15773400Y40081200D02*
X13055600Y42799000D01*
D25*
X5472400Y45568000D02*
X5472400Y44083000D01*
D23*
X4343400Y762000D02*
X2565400Y2540000D01*
X9423400Y35814000D02*
X9691400Y35814000D01*
X15784400Y1651000D02*
X15265400Y1651000D01*
D25*
X4724400Y49149000D02*
X4724400Y46316000D01*
D23*
%TO.N,BCD A{slash}AS 0*%
X20345400Y2540000D02*
X18567400Y2540000D01*
X18567400Y2540000D02*
X17551400Y3556000D01*
X11469400Y3556000D02*
X10834400Y4191000D01*
X17551400Y3556000D02*
X11469400Y3556000D01*
%TO.N,BCD B{slash}AS 1*%
X16038400Y4191000D02*
X19456400Y4191000D01*
X19456400Y4191000D02*
X20345400Y5080000D01*
%TO.N,BCD D{slash}AS 3*%
X18186400Y5461000D02*
X19075400Y6350000D01*
X16038400Y5461000D02*
X18186400Y5461000D01*
X19075400Y6350000D02*
X19075400Y8890000D01*
X19075400Y8890000D02*
X20345400Y10160000D01*
%TO.N,SEG G{slash}NE{slash}AS 4*%
X18694400Y6604000D02*
X18237200Y6146800D01*
X20345400Y12700000D02*
X18694400Y11049000D01*
X11418600Y6146800D02*
X10834400Y6731000D01*
X18237200Y6146800D02*
X11418600Y6146800D01*
X18694400Y11049000D02*
X18694400Y6604000D01*
%TO.N,SEG E{slash}CT{slash}AS 7*%
X18948400Y18211800D02*
X18948400Y18923000D01*
X18948400Y18923000D02*
X20345400Y20320000D01*
X16992600Y16256000D02*
X18948400Y18211800D01*
X16038400Y16256000D02*
X16992600Y16256000D01*
%TO.N,~{DMX 1}*%
X20345400Y30480000D02*
X20345400Y30124400D01*
X11469400Y27686000D02*
X10834400Y28321000D01*
X17907000Y27686000D02*
X11469400Y27686000D01*
X20345400Y30124400D02*
X17907000Y27686000D01*
%TO.N,~{DMX 2}*%
X16038400Y28321000D02*
X17932400Y28321000D01*
X19075400Y29464000D02*
X19075400Y32512000D01*
X19583400Y33020000D02*
X20345400Y33020000D01*
X17932400Y28321000D02*
X19075400Y29464000D01*
X19075400Y32512000D02*
X19583400Y33020000D01*
%TO.N,~{DMX 3}*%
X18748880Y30026480D02*
X17678400Y28956000D01*
X11469400Y28956000D02*
X10834400Y29591000D01*
X17678400Y28956000D02*
X11469400Y28956000D01*
X20345400Y35560000D02*
X18748880Y33963480D01*
X18748880Y33963480D02*
X18748880Y30026480D01*
%TO.N,~{DMX 4}*%
X16038400Y29591000D02*
X17551400Y29591000D01*
X17551400Y29591000D02*
X18422360Y30461960D01*
X18422360Y36176960D02*
X20345400Y38100000D01*
X18422360Y30461960D02*
X18422360Y36176960D01*
%TO.N,~{DMX 5}*%
X18095840Y31024440D02*
X17297400Y30226000D01*
X18095840Y38390440D02*
X18095840Y31024440D01*
X17297400Y30226000D02*
X11469400Y30226000D01*
X11469400Y30226000D02*
X10834400Y30861000D01*
X20345400Y40640000D02*
X18095840Y38390440D01*
%TO.N,~{DMX 6}*%
X17769320Y40603920D02*
X20345400Y43180000D01*
X17297400Y30861000D02*
X17769320Y31332920D01*
X16038400Y30861000D02*
X17297400Y30861000D01*
X17769320Y31332920D02*
X17769320Y40603920D01*
%TO.N,~{DMX 7}*%
X17442800Y31895400D02*
X17442800Y42817400D01*
X17043400Y31496000D02*
X17442800Y31895400D01*
X10834400Y32131000D02*
X11469400Y31496000D01*
X11469400Y31496000D02*
X17043400Y31496000D01*
X17442800Y42817400D02*
X20345400Y45720000D01*
%TO.N,~{DMX 8}*%
X15784400Y32131000D02*
X16662400Y32131000D01*
X17043400Y44958000D02*
X20345400Y48260000D01*
X16662400Y32131000D02*
X17043400Y32512000D01*
X17043400Y32512000D02*
X17043400Y44958000D01*
D24*
%TO.N,+1V1*%
X18821400Y24688800D02*
X18211800Y24079200D01*
X18821400Y25603200D02*
X18821400Y24688800D01*
D23*
%TO.N,Shift_SRCK*%
X9804400Y21336000D02*
X9550400Y21082000D01*
X9169400Y21463000D02*
X9550400Y21082000D01*
X9169400Y32766000D02*
X9169400Y21463000D01*
X10834400Y33401000D02*
X9804400Y33401000D01*
X9804400Y33401000D02*
X9169400Y32766000D01*
X10834400Y21336000D02*
X9804400Y21336000D01*
%TO.N,BCD C{slash}AS 2*%
X20345400Y7620000D02*
X20345400Y6731000D01*
X11469400Y4826000D02*
X10834400Y5461000D01*
X18440400Y4826000D02*
X11469400Y4826000D01*
X20345400Y6731000D02*
X18440400Y4826000D01*
D25*
%TO.N,5V*%
X12725400Y47244000D02*
X13813506Y47244000D01*
D26*
X7645400Y47778500D02*
X9523900Y47778500D01*
D25*
X11049400Y45568000D02*
X10072400Y45568000D01*
D26*
X10072400Y47230000D02*
X10072400Y45568000D01*
X9523900Y47778500D02*
X10072400Y47230000D01*
D25*
X13813506Y47244000D02*
X15900400Y45157106D01*
X12725400Y49530000D02*
X12725400Y47244000D01*
X15900400Y45157106D02*
X15900400Y44450000D01*
X12725400Y47244000D02*
X11049400Y45568000D01*
D26*
%TO.N,+3V3*%
X7772400Y45873500D02*
X5867400Y47778500D01*
D23*
X15784400Y14986000D02*
X16789400Y14986000D01*
X17932400Y26416000D02*
X18059400Y26543000D01*
X16254900Y11011500D02*
X15784400Y10541000D01*
X12725400Y33401000D02*
X13284200Y33401000D01*
X17297400Y12446000D02*
X16916400Y12065000D01*
X16662400Y27051000D02*
X17297400Y26416000D01*
X15784400Y27051000D02*
X16662400Y27051000D01*
X16254900Y12065000D02*
X16254900Y11011500D01*
X16254900Y35141500D02*
X15784400Y34671000D01*
D26*
X7518400Y41275000D02*
X7518400Y39522000D01*
D23*
X16254900Y36068000D02*
X16254900Y35141500D01*
X16789400Y14986000D02*
X17297400Y14478000D01*
X16254900Y40539500D02*
X15316200Y41478200D01*
X16254900Y36068000D02*
X16254900Y40539500D01*
D26*
X7518400Y39522000D02*
X7772400Y39268000D01*
D23*
X17297400Y26416000D02*
X17932400Y26416000D01*
D26*
X7772400Y45568000D02*
X7772400Y45873500D01*
D23*
X16254900Y23076500D02*
X15784400Y22606000D01*
X14554200Y34671000D02*
X15784400Y34671000D01*
X18059400Y26543000D02*
X18059400Y26949400D01*
X13284200Y33401000D02*
X14554200Y34671000D01*
X17297400Y14478000D02*
X17297400Y12446000D01*
D26*
X7772400Y45568000D02*
X7772400Y43815000D01*
D23*
X16916400Y12065000D02*
X16254900Y12065000D01*
X18059400Y26949400D02*
X18719800Y27609800D01*
X16254900Y24130000D02*
X16254900Y23076500D01*
D24*
%TO.N,QSPI_CSN*%
X10922000Y37236400D02*
X10922000Y40436800D01*
X10922000Y40436800D02*
X11176000Y40690800D01*
%TO.N,QSPI_SCLK*%
X15138400Y38354000D02*
X13970000Y38354000D01*
%TO.N,QSPI_SD0*%
X15138400Y37084000D02*
X13309600Y37084000D01*
%TO.N,QSPI_SD1*%
X11709400Y37236400D02*
X11709400Y39598600D01*
X11709400Y39598600D02*
X11734800Y39624000D01*
D23*
%TO.N,~{CAL} out*%
X8737600Y32537400D02*
X8737600Y23368000D01*
X1295400Y36830000D02*
X4445000Y36830000D01*
D24*
X9315311Y20580489D02*
X8737600Y21158200D01*
D23*
X914400Y36449000D02*
X1295400Y36830000D01*
X3011307Y11623489D02*
X2119493Y11623489D01*
D24*
X8737600Y21158200D02*
X8737600Y23368000D01*
D23*
X4445000Y36830000D02*
X8737600Y32537400D01*
D24*
X13290420Y24383989D02*
X13290420Y22246631D01*
D23*
X6563400Y10863000D02*
X5172307Y12254093D01*
D24*
X11624278Y20580489D02*
X9315311Y20580489D01*
D23*
X2119493Y11623489D02*
X914400Y12828582D01*
X914400Y12828582D02*
X914400Y36449000D01*
X3641911Y12254093D02*
X3011307Y11623489D01*
D24*
X13290420Y22246631D02*
X11624278Y20580489D01*
D23*
X5172307Y12254093D02*
X3641911Y12254093D01*
%TO.N,STROBE out*%
X6563400Y4640000D02*
X6563400Y5395000D01*
X6563400Y5395000D02*
X7137400Y5969000D01*
%TD*%
%TA.AperFunction,Conductor*%
%TO.N,GND*%
G36*
X741912Y12140067D02*
G01*
X748495Y12133938D01*
X1594135Y11288298D01*
X1628161Y11225986D01*
X1623096Y11155171D01*
X1596134Y11112152D01*
X1562699Y11077164D01*
X1506029Y11017862D01*
X1380143Y10833320D01*
X1335489Y10737121D01*
X1303869Y10669000D01*
X1286088Y10630695D01*
X1226389Y10415430D01*
X1202651Y10193305D01*
X1202948Y10188152D01*
X1202948Y10188149D01*
X1210527Y10056713D01*
X1215510Y9970285D01*
X1216647Y9965239D01*
X1216648Y9965233D01*
X1235281Y9882556D01*
X1264622Y9752361D01*
X1316220Y9625290D01*
X1342023Y9561745D01*
X1348666Y9545384D01*
X1372019Y9507275D01*
X1461721Y9360895D01*
X1465387Y9354912D01*
X1611650Y9186062D01*
X1783526Y9043368D01*
X1842727Y9008774D01*
X1856845Y9000524D01*
X1905569Y8948886D01*
X1918640Y8879103D01*
X1891909Y8813331D01*
X1851455Y8779973D01*
X1839007Y8773493D01*
X1834874Y8770390D01*
X1834871Y8770388D01*
X1664500Y8642470D01*
X1660365Y8639365D01*
X1656793Y8635627D01*
X1549927Y8523798D01*
X1506029Y8477862D01*
X1503115Y8473590D01*
X1503114Y8473589D01*
X1447149Y8391547D01*
X1380143Y8293320D01*
X1286088Y8090695D01*
X1226389Y7875430D01*
X1202651Y7653305D01*
X1202948Y7648152D01*
X1202948Y7648149D01*
X1212747Y7478202D01*
X1215510Y7430285D01*
X1216647Y7425239D01*
X1216648Y7425233D01*
X1237675Y7331931D01*
X1264622Y7212361D01*
X1304763Y7113506D01*
X1339490Y7027983D01*
X1348666Y7005384D01*
X1351365Y7000980D01*
X1456780Y6828958D01*
X1465387Y6814912D01*
X1611650Y6646062D01*
X1783526Y6503368D01*
X1817990Y6483229D01*
X1856845Y6460524D01*
X1905569Y6408886D01*
X1918640Y6339103D01*
X1891909Y6273331D01*
X1851455Y6239973D01*
X1839007Y6233493D01*
X1834874Y6230390D01*
X1834871Y6230388D01*
X1664500Y6102470D01*
X1660365Y6099365D01*
X1506029Y5937862D01*
X1503115Y5933590D01*
X1503114Y5933589D01*
X1465231Y5878054D01*
X1380143Y5753320D01*
X1337616Y5661704D01*
X1291998Y5563426D01*
X1286088Y5550695D01*
X1226389Y5335430D01*
X1202651Y5113305D01*
X1215510Y4890285D01*
X1216647Y4885239D01*
X1216648Y4885233D01*
X1237675Y4791931D01*
X1264622Y4672361D01*
X1348666Y4465384D01*
X1465387Y4274912D01*
X1611650Y4106062D01*
X1783526Y3963368D01*
X1857355Y3920226D01*
X1906079Y3868588D01*
X1919150Y3798805D01*
X1892419Y3733033D01*
X1851962Y3699673D01*
X1843857Y3695454D01*
X1835138Y3689964D01*
X1664833Y3562095D01*
X1657126Y3555252D01*
X1509990Y3401283D01*
X1503504Y3393273D01*
X1383498Y3217351D01*
X1378400Y3208377D01*
X1288738Y3015217D01*
X1285175Y3005530D01*
X1229789Y2805817D01*
X1231312Y2797393D01*
X1243692Y2794000D01*
X3883744Y2794000D01*
X3897275Y2797973D01*
X3898580Y2807053D01*
X3856614Y2974125D01*
X3853294Y2983876D01*
X3794920Y3118130D01*
X3786101Y3188577D01*
X3816767Y3252609D01*
X3877184Y3289896D01*
X3948169Y3288600D01*
X3986035Y3269198D01*
X4084752Y3195214D01*
X4100346Y3186676D01*
X4220794Y3141522D01*
X4236049Y3137895D01*
X4286914Y3132369D01*
X4293728Y3132000D01*
X4391285Y3132000D01*
X4406524Y3136475D01*
X4407729Y3137865D01*
X4409400Y3145548D01*
X4409400Y4768000D01*
X4429402Y4836121D01*
X4483058Y4882614D01*
X4535400Y4894000D01*
X4791400Y4894000D01*
X4859521Y4873998D01*
X4906014Y4820342D01*
X4917400Y4768000D01*
X4917400Y3150116D01*
X4921875Y3134877D01*
X4923265Y3133672D01*
X4930948Y3132001D01*
X5033069Y3132001D01*
X5039890Y3132371D01*
X5090752Y3137895D01*
X5106004Y3141521D01*
X5226454Y3186676D01*
X5242049Y3195214D01*
X5344124Y3271715D01*
X5356685Y3284276D01*
X5433186Y3386351D01*
X5441724Y3401946D01*
X5486880Y3522398D01*
X5490559Y3537871D01*
X5525778Y3599516D01*
X5588733Y3632335D01*
X5659438Y3625908D01*
X5715444Y3582275D01*
X5735724Y3537866D01*
X5735802Y3537539D01*
X5736655Y3529684D01*
X5787785Y3393295D01*
X5875139Y3276739D01*
X5991695Y3189385D01*
X6128084Y3138255D01*
X6190266Y3131500D01*
X6936534Y3131500D01*
X6998716Y3138255D01*
X7135105Y3189385D01*
X7251661Y3276739D01*
X7253938Y3273701D01*
X7300577Y3299168D01*
X7371392Y3294103D01*
X7407845Y3272991D01*
X7520234Y3179684D01*
X7528681Y3173769D01*
X7598279Y3133099D01*
X7647003Y3081460D01*
X7660074Y3011677D01*
X7633343Y2945906D01*
X7592887Y2912547D01*
X7584262Y2908058D01*
X7575538Y2902564D01*
X7405233Y2774695D01*
X7397526Y2767852D01*
X7250390Y2613883D01*
X7243904Y2605873D01*
X7123898Y2429951D01*
X7118800Y2420977D01*
X7029138Y2227817D01*
X7025575Y2218130D01*
X6970189Y2018417D01*
X6971712Y2009993D01*
X6984092Y2006600D01*
X8033685Y2006600D01*
X8048924Y2011075D01*
X8050129Y2012465D01*
X8051800Y2020148D01*
X8051800Y4420600D01*
X8071802Y4488721D01*
X8125458Y4535214D01*
X8177800Y4546600D01*
X8433800Y4546600D01*
X8501921Y4526598D01*
X8548414Y4472942D01*
X8559800Y4420600D01*
X8559800Y1624600D01*
X8539798Y1556479D01*
X8486142Y1509986D01*
X8433800Y1498600D01*
X6989025Y1498600D01*
X6975494Y1494627D01*
X6974057Y1484634D01*
X7004365Y1350154D01*
X7007445Y1340325D01*
X7087570Y1142997D01*
X7092213Y1133806D01*
X7203494Y952212D01*
X7209577Y943901D01*
X7349013Y782933D01*
X7356380Y775717D01*
X7410310Y730944D01*
X7449945Y672041D01*
X7451443Y601061D01*
X7414328Y540538D01*
X7350384Y509689D01*
X7329825Y508000D01*
X659400Y508000D01*
X591279Y528002D01*
X544786Y581658D01*
X533400Y634000D01*
X533400Y2272034D01*
X1233657Y2272034D01*
X1263965Y2137554D01*
X1267045Y2127725D01*
X1347170Y1930397D01*
X1351813Y1921206D01*
X1463094Y1739612D01*
X1469177Y1731301D01*
X1608613Y1570333D01*
X1615980Y1563117D01*
X1779834Y1427084D01*
X1788281Y1421169D01*
X1972156Y1313721D01*
X1981442Y1309271D01*
X2180401Y1233297D01*
X2190299Y1230421D01*
X2293650Y1209394D01*
X2307699Y1210590D01*
X2311400Y1220935D01*
X2311400Y1221483D01*
X2819400Y1221483D01*
X2823464Y1207641D01*
X2836878Y1205607D01*
X2843584Y1206466D01*
X2853662Y1208608D01*
X3057655Y1269809D01*
X3067242Y1273567D01*
X3258495Y1367261D01*
X3267345Y1372536D01*
X3440728Y1496208D01*
X3448600Y1502861D01*
X3599452Y1653188D01*
X3606130Y1661035D01*
X3730403Y1833980D01*
X3735713Y1842817D01*
X3830070Y2033733D01*
X3833869Y2043328D01*
X3895777Y2247090D01*
X3897955Y2257163D01*
X3899386Y2268038D01*
X3897175Y2282222D01*
X3884017Y2286000D01*
X2837515Y2286000D01*
X2822276Y2281525D01*
X2821071Y2280135D01*
X2819400Y2272452D01*
X2819400Y1221483D01*
X2311400Y1221483D01*
X2311400Y2267885D01*
X2306925Y2283124D01*
X2305535Y2284329D01*
X2297852Y2286000D01*
X1248625Y2286000D01*
X1235094Y2282027D01*
X1233657Y2272034D01*
X533400Y2272034D01*
X533400Y12044843D01*
X553402Y12112964D01*
X607058Y12159457D01*
X677332Y12169561D01*
X741912Y12140067D01*
G37*
%TD.AperFunction*%
%TA.AperFunction,Conductor*%
G36*
X14233521Y1657498D02*
G01*
X14280014Y1603842D01*
X14291400Y1551500D01*
X14291400Y1354057D01*
X14291856Y1346502D01*
X14301281Y1268612D01*
X14305234Y1253047D01*
X14354565Y1128451D01*
X14362922Y1113620D01*
X14443643Y1007275D01*
X14455675Y995243D01*
X14562020Y914522D01*
X14576851Y906165D01*
X14701447Y856834D01*
X14717012Y852881D01*
X14794902Y843456D01*
X14802457Y843000D01*
X15512285Y843000D01*
X15527524Y847475D01*
X15528729Y848865D01*
X15530400Y856548D01*
X15530400Y1551500D01*
X15550402Y1619621D01*
X15604058Y1666114D01*
X15656400Y1677500D01*
X15912400Y1677500D01*
X15980521Y1657498D01*
X16027014Y1603842D01*
X16038400Y1551500D01*
X16038400Y861115D01*
X16042875Y845876D01*
X16044265Y844671D01*
X16051948Y843000D01*
X16766343Y843000D01*
X16773898Y843456D01*
X16851788Y852881D01*
X16867353Y856834D01*
X16991949Y906165D01*
X17006780Y914522D01*
X17113125Y995243D01*
X17125157Y1007275D01*
X17205878Y1113619D01*
X17214833Y1129512D01*
X17265701Y1179040D01*
X17335270Y1193204D01*
X17401453Y1167508D01*
X17413700Y1156751D01*
X17847356Y723095D01*
X17881382Y660783D01*
X17876317Y589968D01*
X17833770Y533132D01*
X17767250Y508321D01*
X17758261Y508000D01*
X9285756Y508000D01*
X9217635Y528002D01*
X9171142Y581658D01*
X9161038Y651932D01*
X9190532Y716512D01*
X9196816Y723250D01*
X9339851Y865787D01*
X9346528Y873632D01*
X9383471Y925045D01*
X9439466Y968693D01*
X9510169Y975139D01*
X9561974Y951881D01*
X9611772Y914082D01*
X9611775Y914080D01*
X9618617Y908887D01*
X9682232Y883700D01*
X9751323Y856345D01*
X9751325Y856344D01*
X9758853Y853364D01*
X9848628Y842500D01*
X11820172Y842500D01*
X11909947Y853364D01*
X11917475Y856344D01*
X11917477Y856345D01*
X11986568Y883700D01*
X12050183Y908887D01*
X12128974Y968693D01*
X12163481Y994885D01*
X12163483Y994887D01*
X12170322Y1000078D01*
X12174534Y1005627D01*
X12236158Y1039279D01*
X12246490Y1041080D01*
X12257280Y1042500D01*
X12257285Y1042500D01*
X12257313Y1042504D01*
X12257316Y1042504D01*
X12356857Y1055609D01*
X12368064Y1057084D01*
X12368066Y1057085D01*
X12376251Y1058162D01*
X12524276Y1119476D01*
X12535973Y1128451D01*
X12619472Y1192523D01*
X12619475Y1192526D01*
X12640433Y1208608D01*
X12651387Y1217013D01*
X12656417Y1223568D01*
X12670852Y1242379D01*
X12681719Y1254770D01*
X13067544Y1640595D01*
X13129856Y1674621D01*
X13156639Y1677500D01*
X14165400Y1677500D01*
X14233521Y1657498D01*
G37*
%TD.AperFunction*%
%TA.AperFunction,Conductor*%
G36*
X4859521Y11096998D02*
G01*
X4906014Y11043342D01*
X4917400Y10991000D01*
X4917400Y9454910D01*
X4897398Y9386789D01*
X4892229Y9379350D01*
X4837785Y9306705D01*
X4786655Y9170316D01*
X4779900Y9108134D01*
X4779900Y8207239D01*
X4759898Y8139118D01*
X4742995Y8118144D01*
X4143386Y7518535D01*
X4081074Y7484509D01*
X4010259Y7489574D01*
X3953423Y7532121D01*
X3928612Y7598641D01*
X3928329Y7610707D01*
X3928474Y7616634D01*
X3928474Y7616639D01*
X3928556Y7620000D01*
X3910252Y7842639D01*
X3855831Y8059298D01*
X3766754Y8264160D01*
X3645414Y8451723D01*
X3495070Y8616949D01*
X3491019Y8620148D01*
X3491015Y8620152D01*
X3323814Y8752200D01*
X3323810Y8752202D01*
X3319759Y8755402D01*
X3278453Y8778204D01*
X3228484Y8828636D01*
X3213712Y8898079D01*
X3238828Y8964484D01*
X3266180Y8991091D01*
X3314361Y9025458D01*
X3445260Y9118827D01*
X3603496Y9276511D01*
X3625193Y9306705D01*
X3730835Y9453723D01*
X3733853Y9457923D01*
X3751606Y9493845D01*
X3799719Y9546051D01*
X3868420Y9563958D01*
X3935897Y9541880D01*
X3965390Y9513581D01*
X3970116Y9507275D01*
X3982676Y9494715D01*
X4084751Y9418214D01*
X4100346Y9409676D01*
X4220794Y9364522D01*
X4236049Y9360895D01*
X4286914Y9355369D01*
X4293728Y9355000D01*
X4391285Y9355000D01*
X4406524Y9359475D01*
X4407729Y9360865D01*
X4409400Y9368548D01*
X4409400Y10991000D01*
X4429402Y11059121D01*
X4483058Y11105614D01*
X4535400Y11117000D01*
X4791400Y11117000D01*
X4859521Y11096998D01*
G37*
%TD.AperFunction*%
%TA.AperFunction,Conductor*%
G36*
X12442273Y11180293D02*
G01*
X12462080Y11171369D01*
X12519311Y11139384D01*
X12519315Y11139382D01*
X12524694Y11136376D01*
X12712792Y11075260D01*
X12909177Y11051842D01*
X12915313Y11052314D01*
X12915320Y11052314D01*
X12921230Y11052769D01*
X12990685Y11038054D01*
X13041158Y10988125D01*
X13056900Y10927141D01*
X13056900Y10697088D01*
X13036898Y10628967D01*
X13019058Y10607065D01*
X12983893Y10572629D01*
X12885635Y10420162D01*
X12883226Y10413542D01*
X12883224Y10413539D01*
X12836121Y10284124D01*
X12823597Y10249715D01*
X12800863Y10069760D01*
X12818563Y9889240D01*
X12875818Y9717127D01*
X12879465Y9711105D01*
X12879466Y9711103D01*
X12966130Y9568002D01*
X12966133Y9567999D01*
X12969780Y9561976D01*
X12974675Y9556908D01*
X12978971Y9551329D01*
X12976643Y9549536D01*
X13003471Y9498285D01*
X13005900Y9473666D01*
X13005900Y8345959D01*
X12985898Y8277838D01*
X12968995Y8256864D01*
X12615056Y7902925D01*
X12552744Y7868899D01*
X12525961Y7866020D01*
X12453900Y7866020D01*
X12385779Y7886022D01*
X12339286Y7939678D01*
X12327900Y7992020D01*
X12327900Y8301772D01*
X12317036Y8391547D01*
X12261513Y8531783D01*
X12240231Y8559821D01*
X12214978Y8626174D01*
X12229606Y8695647D01*
X12240231Y8712179D01*
X12256321Y8733377D01*
X12261513Y8740217D01*
X12317036Y8880453D01*
X12327900Y8970228D01*
X12327900Y9571772D01*
X12317036Y9661547D01*
X12261513Y9801783D01*
X12256323Y9808621D01*
X12256321Y9808624D01*
X12239917Y9830235D01*
X12214664Y9896589D01*
X12229293Y9966062D01*
X12239918Y9982595D01*
X12255880Y10003624D01*
X12264235Y10018451D01*
X12313566Y10143047D01*
X12317519Y10158612D01*
X12326944Y10236502D01*
X12327400Y10244057D01*
X12327400Y10268885D01*
X12322925Y10284124D01*
X12321535Y10285329D01*
X12313852Y10287000D01*
X10706400Y10287000D01*
X10638279Y10307002D01*
X10591786Y10360658D01*
X10580400Y10413000D01*
X10580400Y10669000D01*
X10600402Y10737121D01*
X10654058Y10783614D01*
X10706400Y10795000D01*
X12309285Y10795000D01*
X12324524Y10799475D01*
X12325729Y10800865D01*
X12327400Y10808548D01*
X12327400Y10837943D01*
X12326944Y10845498D01*
X12317519Y10923388D01*
X12313566Y10938953D01*
X12283458Y11014997D01*
X12276979Y11085697D01*
X12309751Y11148677D01*
X12371370Y11183941D01*
X12442273Y11180293D01*
G37*
%TD.AperFunction*%
%TA.AperFunction,Conductor*%
G36*
X13482732Y16531217D02*
G01*
X13539568Y16488670D01*
X13564379Y16422150D01*
X13564700Y16413161D01*
X13564700Y15491336D01*
X13563622Y15474893D01*
X13559450Y15443200D01*
X13564700Y15403320D01*
X13564700Y15403315D01*
X13566017Y15393316D01*
X13571028Y15355255D01*
X13571028Y15355252D01*
X13577039Y15309594D01*
X13580362Y15284349D01*
X13641676Y15136324D01*
X13646703Y15129773D01*
X13646704Y15129771D01*
X13714720Y15041131D01*
X13714726Y15041125D01*
X13739213Y15009213D01*
X13745768Y15004183D01*
X13764579Y14989748D01*
X13776970Y14978881D01*
X14293085Y14462766D01*
X14303952Y14450375D01*
X14323413Y14425013D01*
X14331770Y14418600D01*
X14332908Y14417042D01*
X14335804Y14414146D01*
X14335353Y14413695D01*
X14373637Y14361265D01*
X14377861Y14290395D01*
X14364839Y14256782D01*
X14354565Y14238549D01*
X14305234Y14113953D01*
X14301281Y14098388D01*
X14291856Y14020498D01*
X14291400Y14012943D01*
X14291400Y13953153D01*
X14271398Y13885032D01*
X14217742Y13838539D01*
X14147468Y13828435D01*
X14088694Y13853192D01*
X14074019Y13864453D01*
X14061630Y13875319D01*
X12559889Y15377060D01*
X12525863Y15439372D01*
X12530928Y15510187D01*
X12549021Y15542858D01*
X12572416Y15573347D01*
X12572417Y15573349D01*
X12577444Y15579900D01*
X12638758Y15727925D01*
X12641674Y15750076D01*
X12642800Y15758627D01*
X12671521Y15823555D01*
X12678627Y15831278D01*
X13349605Y16502256D01*
X13411917Y16536282D01*
X13482732Y16531217D01*
G37*
%TD.AperFunction*%
%TA.AperFunction,Conductor*%
G36*
X9942762Y24329733D02*
G01*
X9942796Y24329860D01*
X9950777Y24327722D01*
X9958405Y24324562D01*
X9966592Y24323484D01*
X9966593Y24323484D01*
X9977798Y24322009D01*
X10008994Y24317902D01*
X10077371Y24308900D01*
X10077374Y24308900D01*
X10077382Y24308899D01*
X10109067Y24304728D01*
X10117256Y24303650D01*
X10148949Y24307822D01*
X10165392Y24308900D01*
X12373358Y24308900D01*
X12441479Y24288898D01*
X12487972Y24235242D01*
X12494528Y24215385D01*
X12494583Y24214829D01*
X12496808Y24208141D01*
X12496808Y24208140D01*
X12520115Y24138079D01*
X12551838Y24042716D01*
X12555485Y24036694D01*
X12555486Y24036692D01*
X12642150Y23893591D01*
X12642153Y23893588D01*
X12645800Y23887565D01*
X12671558Y23860892D01*
X12704489Y23797998D01*
X12706920Y23773367D01*
X12706920Y22540515D01*
X12686918Y22472394D01*
X12670015Y22451420D01*
X12528650Y22310055D01*
X12466338Y22276029D01*
X12395523Y22281094D01*
X12338687Y22323641D01*
X12328234Y22344524D01*
X12321535Y22350329D01*
X12313852Y22352000D01*
X10706400Y22352000D01*
X10638279Y22372002D01*
X10591786Y22425658D01*
X10580400Y22478000D01*
X10580400Y22878115D01*
X11088400Y22878115D01*
X11092875Y22862876D01*
X11094265Y22861671D01*
X11101948Y22860000D01*
X12309285Y22860000D01*
X12324524Y22864475D01*
X12325729Y22865865D01*
X12327400Y22873548D01*
X12327400Y22902943D01*
X12326944Y22910498D01*
X12317519Y22988388D01*
X12313566Y23003953D01*
X12264235Y23128549D01*
X12255878Y23143380D01*
X12175157Y23249725D01*
X12163125Y23261757D01*
X12056780Y23342478D01*
X12041949Y23350835D01*
X11917353Y23400166D01*
X11901788Y23404119D01*
X11823898Y23413544D01*
X11816343Y23414000D01*
X11106515Y23414000D01*
X11091276Y23409525D01*
X11090071Y23408135D01*
X11088400Y23400452D01*
X11088400Y22878115D01*
X10580400Y22878115D01*
X10580400Y23395885D01*
X10575925Y23411124D01*
X10574535Y23412329D01*
X10566852Y23414000D01*
X9903900Y23414000D01*
X9835779Y23434002D01*
X9789286Y23487658D01*
X9777900Y23540000D01*
X9777900Y24210757D01*
X9797902Y24278878D01*
X9851558Y24325371D01*
X9921832Y24335475D01*
X9942762Y24329733D01*
G37*
%TD.AperFunction*%
%TA.AperFunction,Conductor*%
G36*
X9250792Y52811998D02*
G01*
X9297285Y52758342D01*
X9307389Y52688068D01*
X9293507Y52646072D01*
X9207816Y52487590D01*
X9207814Y52487585D01*
X9204886Y52482170D01*
X9143502Y52283871D01*
X9142858Y52277746D01*
X9142858Y52277745D01*
X9124573Y52103767D01*
X9121804Y52077425D01*
X9140618Y51870697D01*
X9142356Y51864791D01*
X9142357Y51864787D01*
X9156826Y51815627D01*
X9199227Y51671560D01*
X9295399Y51487600D01*
X9410603Y51344316D01*
X9411700Y51342951D01*
X9438796Y51277329D01*
X9426113Y51207474D01*
X9377677Y51155566D01*
X9313503Y51137999D01*
X9040731Y51137999D01*
X9033910Y51137629D01*
X8983048Y51132105D01*
X8967796Y51128479D01*
X8847346Y51083324D01*
X8831751Y51074786D01*
X8729676Y50998285D01*
X8717115Y50985724D01*
X8640614Y50883649D01*
X8632076Y50868054D01*
X8586922Y50747606D01*
X8583295Y50732351D01*
X8577769Y50681486D01*
X8577400Y50674672D01*
X8577400Y50467441D01*
X8557398Y50399320D01*
X8503742Y50352827D01*
X8433468Y50342723D01*
X8368888Y50372217D01*
X8362383Y50378268D01*
X8353276Y50387359D01*
X8341860Y50396375D01*
X8206337Y50479912D01*
X8193159Y50486056D01*
X8041634Y50536315D01*
X8028268Y50539181D01*
X7935630Y50548672D01*
X7929215Y50549000D01*
X7917515Y50549000D01*
X7902276Y50544525D01*
X7901071Y50543135D01*
X7899400Y50535452D01*
X7899400Y49775615D01*
X7903875Y49760376D01*
X7905265Y49759171D01*
X7912948Y49757500D01*
X8519285Y49757500D01*
X8561774Y49769976D01*
X8575658Y49778898D01*
X8611152Y49784000D01*
X10313400Y49784000D01*
X10381521Y49763998D01*
X10428014Y49710342D01*
X10439400Y49658000D01*
X10439400Y49402000D01*
X10419398Y49333879D01*
X10365742Y49287386D01*
X10313400Y49276000D01*
X8686515Y49276000D01*
X8644026Y49263524D01*
X8630142Y49254602D01*
X8594648Y49249500D01*
X4902515Y49249500D01*
X4887276Y49245025D01*
X4886071Y49243635D01*
X4884400Y49235952D01*
X4884400Y49157234D01*
X4884737Y49150718D01*
X4894475Y49056868D01*
X4897368Y49043472D01*
X4947888Y48892047D01*
X4954053Y48878885D01*
X5037826Y48743508D01*
X5046864Y48732106D01*
X5048539Y48730433D01*
X5049319Y48729007D01*
X5051407Y48726373D01*
X5050956Y48726016D01*
X5082619Y48668151D01*
X5077616Y48597331D01*
X5048699Y48552246D01*
X5045876Y48549417D01*
X5040471Y48544003D01*
X5036631Y48537773D01*
X5036630Y48537772D01*
X5002646Y48482639D01*
X4949191Y48395920D01*
X4894426Y48230809D01*
X4883900Y48128072D01*
X4883900Y47428928D01*
X4884237Y47425682D01*
X4884237Y47425678D01*
X4893798Y47333537D01*
X4894693Y47324907D01*
X4896876Y47318365D01*
X4896876Y47318363D01*
X4922394Y47241876D01*
X4924979Y47170926D01*
X4888796Y47109842D01*
X4825332Y47078017D01*
X4802871Y47075999D01*
X4677731Y47075999D01*
X4670910Y47075629D01*
X4620048Y47070105D01*
X4604796Y47066479D01*
X4484346Y47021324D01*
X4468751Y47012786D01*
X4366676Y46936285D01*
X4354115Y46923724D01*
X4277614Y46821649D01*
X4269076Y46806054D01*
X4223922Y46685606D01*
X4220295Y46670351D01*
X4214769Y46619486D01*
X4214400Y46612672D01*
X4214400Y45840115D01*
X4218875Y45824876D01*
X4220265Y45823671D01*
X4227948Y45822000D01*
X5600400Y45822000D01*
X5668521Y45801998D01*
X5715014Y45748342D01*
X5726400Y45696000D01*
X5726400Y44078116D01*
X5730875Y44062877D01*
X5732265Y44061672D01*
X5739948Y44060001D01*
X6267069Y44060001D01*
X6273890Y44060371D01*
X6324752Y44065895D01*
X6340004Y44069521D01*
X6460454Y44114676D01*
X6476048Y44123214D01*
X6546418Y44175953D01*
X6612924Y44200801D01*
X6682307Y44185748D01*
X6697548Y44175953D01*
X6775695Y44117385D01*
X6784104Y44114233D01*
X6784105Y44114232D01*
X6892424Y44073625D01*
X6949189Y44030984D01*
X6973889Y43964422D01*
X6973201Y43939856D01*
X6958863Y43826360D01*
X6976563Y43645840D01*
X7033818Y43473727D01*
X7037465Y43467705D01*
X7037466Y43467703D01*
X7086338Y43387006D01*
X7127780Y43318576D01*
X7253782Y43188098D01*
X7405559Y43088778D01*
X7412163Y43086322D01*
X7412165Y43086321D01*
X7568958Y43028010D01*
X7568960Y43028010D01*
X7575568Y43025552D01*
X7659395Y43014367D01*
X7748380Y43002493D01*
X7748384Y43002493D01*
X7755361Y43001562D01*
X7762372Y43002200D01*
X7762376Y43002200D01*
X7904859Y43015168D01*
X7936000Y43018002D01*
X7942702Y43020180D01*
X7942704Y43020180D01*
X8101809Y43071876D01*
X8101812Y43071877D01*
X8108508Y43074053D01*
X8264312Y43166931D01*
X8395666Y43292018D01*
X8496043Y43443098D01*
X8551878Y43590083D01*
X8557955Y43606080D01*
X8557956Y43606082D01*
X8560455Y43612662D01*
X8563052Y43631140D01*
X8585148Y43788361D01*
X8585148Y43788364D01*
X8585699Y43792283D01*
X8586016Y43815000D01*
X8571798Y43941752D01*
X8584082Y44011676D01*
X8632221Y44063861D01*
X8652784Y44073778D01*
X8760695Y44114232D01*
X8760696Y44114233D01*
X8769105Y44117385D01*
X8776883Y44123214D01*
X8846835Y44175640D01*
X8913342Y44200488D01*
X8982724Y44185435D01*
X8997965Y44175640D01*
X9067917Y44123214D01*
X9075695Y44117385D01*
X9212084Y44066255D01*
X9274266Y44059500D01*
X10870534Y44059500D01*
X10932716Y44066255D01*
X10932778Y44065683D01*
X10998155Y44062269D01*
X11055798Y44020823D01*
X11081884Y43954792D01*
X11082401Y43943388D01*
X11082401Y43905331D01*
X11082771Y43898510D01*
X11088295Y43847648D01*
X11091921Y43832396D01*
X11137076Y43711946D01*
X11145614Y43696351D01*
X11222115Y43594276D01*
X11234676Y43581715D01*
X11336751Y43505214D01*
X11352346Y43496676D01*
X11472794Y43451522D01*
X11488049Y43447895D01*
X11538914Y43442369D01*
X11545728Y43442000D01*
X11818285Y43442000D01*
X11833524Y43446475D01*
X11834729Y43447865D01*
X11836400Y43455548D01*
X11836400Y44578000D01*
X11856402Y44646121D01*
X11910058Y44692614D01*
X11962400Y44704000D01*
X12218400Y44704000D01*
X12286521Y44683998D01*
X12333014Y44630342D01*
X12344400Y44578000D01*
X12344400Y43460116D01*
X12348875Y43444877D01*
X12350265Y43443672D01*
X12357948Y43442001D01*
X12635069Y43442001D01*
X12641890Y43442371D01*
X12692752Y43447895D01*
X12708004Y43451521D01*
X12828454Y43496676D01*
X12851917Y43509522D01*
X12853192Y43507194D01*
X12906721Y43527203D01*
X12954733Y43521363D01*
X13142792Y43460260D01*
X13339177Y43436842D01*
X13345312Y43437314D01*
X13345314Y43437314D01*
X13530230Y43451543D01*
X13530234Y43451544D01*
X13536372Y43452016D01*
X13726863Y43505202D01*
X13732367Y43507982D01*
X13732369Y43507983D01*
X13897893Y43591595D01*
X13897895Y43591596D01*
X13903396Y43594375D01*
X13908250Y43598167D01*
X13908259Y43598173D01*
X13916948Y43604962D01*
X13982942Y43631140D01*
X14055992Y43615661D01*
X14224694Y43521376D01*
X14412792Y43460260D01*
X14609177Y43436842D01*
X14615312Y43437314D01*
X14615314Y43437314D01*
X14800230Y43451543D01*
X14800234Y43451544D01*
X14806372Y43452016D01*
X14996863Y43505202D01*
X15002367Y43507982D01*
X15002369Y43507983D01*
X15167893Y43591595D01*
X15167895Y43591596D01*
X15173396Y43594375D01*
X15178250Y43598167D01*
X15178259Y43598173D01*
X15186948Y43604962D01*
X15252942Y43631140D01*
X15325992Y43615661D01*
X15494694Y43521376D01*
X15682792Y43460260D01*
X15879177Y43436842D01*
X15885312Y43437314D01*
X15885314Y43437314D01*
X16070230Y43451543D01*
X16070234Y43451544D01*
X16076372Y43452016D01*
X16266863Y43505202D01*
X16266979Y43504788D01*
X16334084Y43510464D01*
X16396832Y43477250D01*
X16431663Y43415384D01*
X16434900Y43387006D01*
X16434900Y41524239D01*
X16414898Y41456118D01*
X16361242Y41409625D01*
X16290968Y41399521D01*
X16226388Y41429015D01*
X16219805Y41435144D01*
X16155088Y41499861D01*
X16121062Y41562173D01*
X16118968Y41574911D01*
X16110382Y41651456D01*
X16109597Y41658455D01*
X16107280Y41665109D01*
X16052264Y41823094D01*
X16052262Y41823097D01*
X16049945Y41829752D01*
X15953826Y41983576D01*
X15931287Y42006273D01*
X15830978Y42107285D01*
X15830974Y42107288D01*
X15826015Y42112282D01*
X15814897Y42119338D01*
X15766738Y42149900D01*
X15672866Y42209473D01*
X15643663Y42219872D01*
X15508625Y42267957D01*
X15508620Y42267958D01*
X15501990Y42270319D01*
X15495002Y42271152D01*
X15494999Y42271153D01*
X15371898Y42285832D01*
X15321880Y42291796D01*
X15314877Y42291060D01*
X15314876Y42291060D01*
X15148488Y42273572D01*
X15148486Y42273571D01*
X15141488Y42272836D01*
X14969779Y42214382D01*
X14955657Y42205694D01*
X14821295Y42123034D01*
X14821292Y42123032D01*
X14815288Y42119338D01*
X14810253Y42114407D01*
X14810250Y42114405D01*
X14699830Y42006273D01*
X14685693Y41992429D01*
X14587435Y41839962D01*
X14585026Y41833342D01*
X14585024Y41833339D01*
X14553399Y41746449D01*
X14525397Y41669515D01*
X14502663Y41489560D01*
X14520363Y41309040D01*
X14577618Y41136927D01*
X14581265Y41130905D01*
X14581266Y41130903D01*
X14612316Y41079634D01*
X14671580Y40981776D01*
X14797582Y40851298D01*
X14873471Y40801638D01*
X14920905Y40770598D01*
X14949359Y40751978D01*
X14955963Y40749522D01*
X14955965Y40749521D01*
X15112758Y40691210D01*
X15112760Y40691210D01*
X15119368Y40688752D01*
X15126353Y40687820D01*
X15126357Y40687819D01*
X15188747Y40679494D01*
X15222186Y40675033D01*
X15287062Y40646197D01*
X15294616Y40639235D01*
X15609495Y40324356D01*
X15643521Y40262044D01*
X15646400Y40235261D01*
X15646400Y39210002D01*
X15626398Y39141881D01*
X15572742Y39095388D01*
X15502468Y39085284D01*
X15478134Y39091303D01*
X15330828Y39143756D01*
X15330822Y39143757D01*
X15324190Y39146119D01*
X15317202Y39146952D01*
X15317199Y39146953D01*
X15194098Y39161632D01*
X15144080Y39167596D01*
X15137077Y39166860D01*
X15137076Y39166860D01*
X14970688Y39149372D01*
X14970686Y39149371D01*
X14963688Y39148636D01*
X14791979Y39090182D01*
X14784000Y39085273D01*
X14643496Y38998834D01*
X14637488Y38995138D01*
X14632458Y38990212D01*
X14632450Y38990206D01*
X14630351Y38988150D01*
X14628679Y38987260D01*
X14626899Y38985869D01*
X14626655Y38986182D01*
X14567686Y38954780D01*
X14496927Y38960586D01*
X14463243Y38979976D01*
X14459382Y38983081D01*
X14454415Y38988082D01*
X14443297Y38995138D01*
X14374242Y39038961D01*
X14301266Y39085273D01*
X14216022Y39115627D01*
X14137025Y39143757D01*
X14137020Y39143758D01*
X14130390Y39146119D01*
X14123402Y39146952D01*
X14123399Y39146953D01*
X14000298Y39161632D01*
X13950280Y39167596D01*
X13943277Y39166860D01*
X13943276Y39166860D01*
X13776888Y39149372D01*
X13776886Y39149371D01*
X13769888Y39148636D01*
X13598179Y39090182D01*
X13590200Y39085273D01*
X13449695Y38998834D01*
X13449692Y38998832D01*
X13443688Y38995138D01*
X13438653Y38990207D01*
X13438650Y38990205D01*
X13374499Y38927383D01*
X13314093Y38868229D01*
X13215835Y38715762D01*
X13213426Y38709142D01*
X13213424Y38709139D01*
X13161218Y38565703D01*
X13153797Y38545315D01*
X13131063Y38365360D01*
X13148763Y38184840D01*
X13199356Y38032753D01*
X13201879Y37961804D01*
X13165643Y37900751D01*
X13120403Y37873705D01*
X12963179Y37820182D01*
X12941715Y37806977D01*
X12814695Y37728834D01*
X12814692Y37728832D01*
X12808688Y37725138D01*
X12803653Y37720207D01*
X12803650Y37720205D01*
X12695902Y37614690D01*
X12679093Y37598229D01*
X12675280Y37592312D01*
X12675279Y37592311D01*
X12662563Y37572579D01*
X12608848Y37526155D01*
X12538561Y37516141D01*
X12474018Y37545716D01*
X12444249Y37584781D01*
X12443145Y37587952D01*
X12426438Y37614690D01*
X12350759Y37735802D01*
X12347026Y37741776D01*
X12342065Y37746772D01*
X12342060Y37746778D01*
X12329494Y37759432D01*
X12295687Y37821862D01*
X12292900Y37848215D01*
X12292900Y38984958D01*
X12312902Y39053079D01*
X12332004Y39076199D01*
X12358066Y39101018D01*
X12458443Y39252098D01*
X12506299Y39378079D01*
X12520355Y39415080D01*
X12520356Y39415082D01*
X12522855Y39421662D01*
X12523870Y39428886D01*
X12547548Y39597361D01*
X12547548Y39597364D01*
X12548099Y39601283D01*
X12548416Y39624000D01*
X12528197Y39804255D01*
X12515989Y39839311D01*
X12470864Y39968894D01*
X12470862Y39968897D01*
X12468545Y39975552D01*
X12372426Y40129376D01*
X12367464Y40134373D01*
X12249578Y40253085D01*
X12249574Y40253088D01*
X12244615Y40258082D01*
X12091466Y40355273D01*
X12069652Y40363040D01*
X12049111Y40370355D01*
X11991647Y40412048D01*
X11965846Y40478191D01*
X11966603Y40506590D01*
X11988748Y40664160D01*
X11988748Y40664165D01*
X11989299Y40668083D01*
X11989616Y40690800D01*
X11969397Y40871055D01*
X11967080Y40877709D01*
X11912064Y41035694D01*
X11912062Y41035697D01*
X11909745Y41042352D01*
X11813626Y41196176D01*
X11761804Y41248361D01*
X11690778Y41319885D01*
X11690774Y41319888D01*
X11685815Y41324882D01*
X11674697Y41331938D01*
X11568202Y41399521D01*
X11532666Y41422073D01*
X11495958Y41435144D01*
X11368425Y41480557D01*
X11368420Y41480558D01*
X11361790Y41482919D01*
X11354802Y41483752D01*
X11354799Y41483753D01*
X11219711Y41499861D01*
X11181680Y41504396D01*
X11174677Y41503660D01*
X11174676Y41503660D01*
X11008288Y41486172D01*
X11008286Y41486171D01*
X11001288Y41485436D01*
X10829579Y41426982D01*
X10823575Y41423288D01*
X10681095Y41335634D01*
X10681092Y41335632D01*
X10675088Y41331938D01*
X10670053Y41327007D01*
X10670050Y41327005D01*
X10612899Y41271038D01*
X10545493Y41205029D01*
X10447235Y41052562D01*
X10444826Y41045942D01*
X10444824Y41045939D01*
X10387606Y40888734D01*
X10385197Y40882115D01*
X10362463Y40702160D01*
X10364789Y40678438D01*
X10366636Y40659599D01*
X10358497Y40604816D01*
X10358817Y40604730D01*
X10358071Y40601945D01*
X10357646Y40599088D01*
X10353519Y40589124D01*
X10352441Y40580938D01*
X10352441Y40580937D01*
X10350973Y40569785D01*
X10322250Y40504858D01*
X10262984Y40465767D01*
X10191992Y40464923D01*
X10131814Y40502594D01*
X10123194Y40514839D01*
X10123015Y40514705D01*
X10041042Y40624081D01*
X10035661Y40631261D01*
X9919105Y40718615D01*
X9782716Y40769745D01*
X9720534Y40776500D01*
X8376601Y40776500D01*
X8308480Y40796502D01*
X8261987Y40850158D01*
X8251883Y40920432D01*
X8258813Y40947244D01*
X8303955Y41066080D01*
X8303956Y41066082D01*
X8306455Y41072662D01*
X8325058Y41205029D01*
X8331148Y41248361D01*
X8331148Y41248364D01*
X8331699Y41252283D01*
X8332016Y41275000D01*
X8311797Y41455255D01*
X8309480Y41461909D01*
X8254464Y41619894D01*
X8254462Y41619897D01*
X8252145Y41626552D01*
X8156026Y41780376D01*
X8138323Y41798203D01*
X8033178Y41904085D01*
X8033174Y41904088D01*
X8028215Y41909082D01*
X8017097Y41916138D01*
X7945548Y41961544D01*
X7875066Y42006273D01*
X7845863Y42016672D01*
X7710825Y42064757D01*
X7710820Y42064758D01*
X7704190Y42067119D01*
X7697202Y42067952D01*
X7697199Y42067953D01*
X7574098Y42082632D01*
X7524080Y42088596D01*
X7517077Y42087860D01*
X7517076Y42087860D01*
X7350688Y42070372D01*
X7350686Y42070371D01*
X7343688Y42069636D01*
X7171979Y42011182D01*
X7165975Y42007488D01*
X7023495Y41919834D01*
X7023492Y41919832D01*
X7017488Y41916138D01*
X7012453Y41911207D01*
X7012450Y41911205D01*
X6898864Y41799973D01*
X6887893Y41789229D01*
X6789635Y41636762D01*
X6787226Y41630142D01*
X6787224Y41630139D01*
X6733944Y41483753D01*
X6727597Y41466315D01*
X6704863Y41286360D01*
X6722563Y41105840D01*
X6733062Y41074280D01*
X6776975Y40942272D01*
X6779498Y40871320D01*
X6743261Y40810268D01*
X6679769Y40778498D01*
X6657417Y40776500D01*
X5824266Y40776500D01*
X5762084Y40769745D01*
X5625695Y40718615D01*
X5509139Y40631261D01*
X5421785Y40514705D01*
X5370655Y40378316D01*
X5363900Y40316134D01*
X5363900Y38219866D01*
X5370655Y38157684D01*
X5421785Y38021295D01*
X5509139Y37904739D01*
X5625695Y37817385D01*
X5762084Y37766255D01*
X5824266Y37759500D01*
X9720534Y37759500D01*
X9782716Y37766255D01*
X9919105Y37817385D01*
X10035661Y37904739D01*
X10111674Y38006163D01*
X10168533Y38048678D01*
X10239352Y38053704D01*
X10301645Y38019644D01*
X10335635Y37957313D01*
X10338500Y37930598D01*
X10338500Y37849627D01*
X10318498Y37781506D01*
X10300657Y37759604D01*
X10291493Y37750629D01*
X10193235Y37598162D01*
X10190826Y37591542D01*
X10190824Y37591539D01*
X10137033Y37443750D01*
X10131197Y37427715D01*
X10108463Y37247760D01*
X10126163Y37067240D01*
X10183418Y36895127D01*
X10187065Y36889105D01*
X10187066Y36889103D01*
X10243639Y36795690D01*
X10277380Y36739976D01*
X10403382Y36609498D01*
X10441242Y36584723D01*
X10526676Y36528817D01*
X10555159Y36510178D01*
X10561763Y36507722D01*
X10561765Y36507721D01*
X10718558Y36449410D01*
X10718560Y36449410D01*
X10725168Y36446952D01*
X10807765Y36435931D01*
X10897980Y36423893D01*
X10897984Y36423893D01*
X10904961Y36422962D01*
X10911972Y36423600D01*
X10911976Y36423600D01*
X11054459Y36436568D01*
X11085600Y36439402D01*
X11092302Y36441580D01*
X11092304Y36441580D01*
X11251405Y36493275D01*
X11251406Y36493275D01*
X11258108Y36495453D01*
X11264160Y36499061D01*
X11265653Y36499738D01*
X11335953Y36509662D01*
X11361616Y36503091D01*
X11512568Y36446952D01*
X11595165Y36435931D01*
X11685380Y36423893D01*
X11685384Y36423893D01*
X11692361Y36422962D01*
X11699372Y36423600D01*
X11699376Y36423600D01*
X11841859Y36436568D01*
X11873000Y36439402D01*
X11879702Y36441580D01*
X11879704Y36441580D01*
X12038809Y36493276D01*
X12038812Y36493277D01*
X12045508Y36495453D01*
X12201312Y36588331D01*
X12332666Y36713418D01*
X12356985Y36750020D01*
X12411342Y36795690D01*
X12481762Y36804722D01*
X12545886Y36774248D01*
X12569773Y36741973D01*
X12571018Y36742727D01*
X12651704Y36609498D01*
X12664980Y36587576D01*
X12790982Y36457098D01*
X12819001Y36438763D01*
X12890886Y36391723D01*
X12942759Y36357778D01*
X12949363Y36355322D01*
X12949365Y36355321D01*
X13106158Y36297010D01*
X13106160Y36297010D01*
X13112768Y36294552D01*
X13196595Y36283367D01*
X13285580Y36271493D01*
X13285584Y36271493D01*
X13292561Y36270562D01*
X13299572Y36271200D01*
X13299576Y36271200D01*
X13442059Y36284168D01*
X13473200Y36287002D01*
X13479902Y36289180D01*
X13479904Y36289180D01*
X13561933Y36315833D01*
X13600869Y36322000D01*
X14657900Y36322000D01*
X14726021Y36301998D01*
X14772514Y36248342D01*
X14783900Y36196000D01*
X14783900Y35940000D01*
X14763898Y35871879D01*
X14710242Y35825386D01*
X14657900Y35814000D01*
X13502515Y35814000D01*
X13487276Y35809525D01*
X13486071Y35808135D01*
X13484400Y35800452D01*
X13484400Y35784234D01*
X13484737Y35777718D01*
X13494475Y35683868D01*
X13497368Y35670472D01*
X13547888Y35519047D01*
X13554053Y35505885D01*
X13637826Y35370508D01*
X13646860Y35359110D01*
X13759529Y35246637D01*
X13770940Y35237625D01*
X13906463Y35154088D01*
X13926275Y35144850D01*
X13925064Y35142253D01*
X13972649Y35109263D01*
X13999864Y35043690D01*
X13987307Y34973813D01*
X13963690Y34941039D01*
X13192117Y34169466D01*
X13129805Y34135440D01*
X13060756Y34139862D01*
X12917828Y34190756D01*
X12917822Y34190757D01*
X12911190Y34193119D01*
X12904202Y34193952D01*
X12904199Y34193953D01*
X12773816Y34209500D01*
X12731080Y34214596D01*
X12724077Y34213860D01*
X12724076Y34213860D01*
X12557688Y34196372D01*
X12557686Y34196371D01*
X12550688Y34195636D01*
X12510900Y34182091D01*
X12485542Y34173459D01*
X12414609Y34170441D01*
X12353306Y34206252D01*
X12321094Y34269521D01*
X12319849Y34307873D01*
X12326945Y34366516D01*
X12327400Y34374057D01*
X12327400Y34398885D01*
X12322925Y34414124D01*
X12321535Y34415329D01*
X12313852Y34417000D01*
X9359515Y34417000D01*
X9344276Y34412525D01*
X9343071Y34411135D01*
X9341400Y34403452D01*
X9341400Y34374057D01*
X9341856Y34366502D01*
X9351281Y34288612D01*
X9355234Y34273047D01*
X9404565Y34148451D01*
X9412920Y34133624D01*
X9428882Y34112595D01*
X9454136Y34046242D01*
X9439508Y33976768D01*
X9428883Y33960235D01*
X9412479Y33938624D01*
X9412477Y33938621D01*
X9407287Y33931783D01*
X9404125Y33923798D01*
X9404125Y33923797D01*
X9373895Y33847445D01*
X9356706Y33817124D01*
X9350948Y33809620D01*
X9340080Y33797229D01*
X8928295Y33385444D01*
X8865983Y33351418D01*
X8795168Y33356483D01*
X8750105Y33385444D01*
X7192434Y34943115D01*
X9341400Y34943115D01*
X9345875Y34927876D01*
X9347265Y34926671D01*
X9354948Y34925000D01*
X10562285Y34925000D01*
X10577524Y34929475D01*
X10578729Y34930865D01*
X10580400Y34938548D01*
X10580400Y34943115D01*
X11088400Y34943115D01*
X11092875Y34927876D01*
X11094265Y34926671D01*
X11101948Y34925000D01*
X12309285Y34925000D01*
X12324524Y34929475D01*
X12325729Y34930865D01*
X12327400Y34938548D01*
X12327400Y34967943D01*
X12326944Y34975498D01*
X12317519Y35053388D01*
X12313566Y35068953D01*
X12264235Y35193549D01*
X12255878Y35208380D01*
X12175157Y35314725D01*
X12163125Y35326757D01*
X12056780Y35407478D01*
X12041949Y35415835D01*
X11917353Y35465166D01*
X11901788Y35469119D01*
X11823898Y35478544D01*
X11816343Y35479000D01*
X11106515Y35479000D01*
X11091276Y35474525D01*
X11090071Y35473135D01*
X11088400Y35465452D01*
X11088400Y34943115D01*
X10580400Y34943115D01*
X10580400Y35460885D01*
X10575925Y35476124D01*
X10574535Y35477329D01*
X10566852Y35479000D01*
X9852457Y35479000D01*
X9844902Y35478544D01*
X9767012Y35469119D01*
X9751447Y35465166D01*
X9626851Y35415835D01*
X9612020Y35407478D01*
X9505675Y35326757D01*
X9493643Y35314725D01*
X9412922Y35208380D01*
X9404565Y35193549D01*
X9355234Y35068953D01*
X9351281Y35053388D01*
X9341856Y34975498D01*
X9341400Y34967943D01*
X9341400Y34943115D01*
X7192434Y34943115D01*
X4909315Y37226234D01*
X4898448Y37238625D01*
X4884013Y37257437D01*
X4878987Y37263987D01*
X4847075Y37288474D01*
X4847072Y37288477D01*
X4806657Y37319489D01*
X4758429Y37356496D01*
X4758427Y37356497D01*
X4751876Y37361524D01*
X4603851Y37422838D01*
X4595664Y37423916D01*
X4595663Y37423916D01*
X4566805Y37427715D01*
X4484893Y37438499D01*
X4484891Y37438499D01*
X4484885Y37438500D01*
X4484883Y37438500D01*
X4484874Y37438501D01*
X4453189Y37442672D01*
X4445000Y37443750D01*
X4413307Y37439578D01*
X4396864Y37438500D01*
X3954281Y37438500D01*
X3886160Y37458502D01*
X3839667Y37512158D01*
X3829563Y37582432D01*
X3833723Y37601129D01*
X3896265Y37806977D01*
X3896265Y37806979D01*
X3897770Y37811931D01*
X3926929Y38033410D01*
X3928556Y38100000D01*
X3910252Y38322639D01*
X3855831Y38539298D01*
X3766754Y38744160D01*
X3645414Y38931723D01*
X3495070Y39096949D01*
X3491019Y39100148D01*
X3491015Y39100152D01*
X3323814Y39232200D01*
X3323810Y39232202D01*
X3319759Y39235402D01*
X3278453Y39258204D01*
X3228484Y39308636D01*
X3213712Y39378079D01*
X3238828Y39444484D01*
X3266180Y39471091D01*
X3310003Y39502350D01*
X3445260Y39598827D01*
X3451699Y39605243D01*
X3599835Y39752863D01*
X3603496Y39756511D01*
X3662994Y39839311D01*
X3730835Y39933723D01*
X3733853Y39937923D01*
X3752451Y39975552D01*
X3830536Y40133547D01*
X3830537Y40133549D01*
X3832830Y40138189D01*
X3897770Y40351931D01*
X3926929Y40573410D01*
X3927499Y40596752D01*
X3928474Y40636635D01*
X3928474Y40636642D01*
X3928556Y40640000D01*
X3910252Y40862639D01*
X3855831Y41079298D01*
X3766754Y41284160D01*
X3669078Y41435144D01*
X3648222Y41467383D01*
X3648220Y41467386D01*
X3645414Y41471723D01*
X3495070Y41636949D01*
X3491019Y41640148D01*
X3491015Y41640152D01*
X3323814Y41772200D01*
X3323810Y41772202D01*
X3319759Y41775402D01*
X3278453Y41798204D01*
X3228484Y41848636D01*
X3213712Y41918079D01*
X3238828Y41984484D01*
X3266180Y42011091D01*
X3321624Y42050639D01*
X3445260Y42138827D01*
X3521080Y42214382D01*
X3580477Y42273572D01*
X3603496Y42296511D01*
X3662994Y42379311D01*
X3730835Y42473723D01*
X3733853Y42477923D01*
X3777063Y42565351D01*
X3830536Y42673547D01*
X3830537Y42673549D01*
X3832830Y42678189D01*
X3897770Y42891931D01*
X3926929Y43113410D01*
X3928237Y43166931D01*
X3928474Y43176635D01*
X3928474Y43176639D01*
X3928556Y43180000D01*
X3910252Y43402639D01*
X3855831Y43619298D01*
X3766754Y43824160D01*
X3718655Y43898510D01*
X3648222Y44007383D01*
X3648220Y44007386D01*
X3645414Y44011723D01*
X3495070Y44176949D01*
X3491019Y44180148D01*
X3491015Y44180152D01*
X3323814Y44312200D01*
X3323810Y44312202D01*
X3319759Y44315402D01*
X3278453Y44338204D01*
X3228484Y44388636D01*
X3213712Y44458079D01*
X3238392Y44523331D01*
X4214401Y44523331D01*
X4214771Y44516510D01*
X4220295Y44465648D01*
X4223921Y44450396D01*
X4269076Y44329946D01*
X4277614Y44314351D01*
X4354115Y44212276D01*
X4366676Y44199715D01*
X4468751Y44123214D01*
X4484346Y44114676D01*
X4604794Y44069522D01*
X4620049Y44065895D01*
X4670914Y44060369D01*
X4677728Y44060000D01*
X5200285Y44060000D01*
X5215524Y44064475D01*
X5216729Y44065865D01*
X5218400Y44073548D01*
X5218400Y45295885D01*
X5213925Y45311124D01*
X5212535Y45312329D01*
X5204852Y45314000D01*
X4232516Y45314000D01*
X4217277Y45309525D01*
X4216072Y45308135D01*
X4214401Y45300452D01*
X4214401Y44523331D01*
X3238392Y44523331D01*
X3238828Y44524484D01*
X3266180Y44551091D01*
X3310003Y44582350D01*
X3445260Y44678827D01*
X3603496Y44836511D01*
X3630103Y44873538D01*
X3730835Y45013723D01*
X3733853Y45017923D01*
X3811007Y45174032D01*
X3830536Y45213547D01*
X3830537Y45213549D01*
X3832830Y45218189D01*
X3885176Y45390478D01*
X3896265Y45426977D01*
X3896265Y45426979D01*
X3897770Y45431931D01*
X3926929Y45653410D01*
X3927410Y45673095D01*
X3928474Y45716635D01*
X3928474Y45716639D01*
X3928556Y45720000D01*
X3910252Y45942639D01*
X3855831Y46159298D01*
X3766754Y46364160D01*
X3645414Y46551723D01*
X3495070Y46716949D01*
X3491019Y46720148D01*
X3491015Y46720152D01*
X3323814Y46852200D01*
X3323810Y46852202D01*
X3319759Y46855402D01*
X3278453Y46878204D01*
X3228484Y46928636D01*
X3213712Y46998079D01*
X3238828Y47064484D01*
X3266180Y47091091D01*
X3310003Y47122350D01*
X3445260Y47218827D01*
X3603496Y47376511D01*
X3615131Y47392702D01*
X3730835Y47553723D01*
X3733853Y47557923D01*
X3739469Y47569285D01*
X3830536Y47753547D01*
X3830537Y47753549D01*
X3832830Y47758189D01*
X3882600Y47922001D01*
X3896265Y47966977D01*
X3896265Y47966979D01*
X3897770Y47971931D01*
X3926929Y48193410D01*
X3928556Y48260000D01*
X3910252Y48482639D01*
X3855831Y48699298D01*
X3766754Y48904160D01*
X3645414Y49091723D01*
X3641932Y49095550D01*
X3498198Y49253512D01*
X3467146Y49317358D01*
X3475541Y49387857D01*
X3520717Y49442625D01*
X3547161Y49456294D01*
X3653697Y49496233D01*
X3662105Y49499385D01*
X3778661Y49586739D01*
X3866015Y49703295D01*
X3893127Y49775615D01*
X4884400Y49775615D01*
X4888875Y49760376D01*
X4890265Y49759171D01*
X4897948Y49757500D01*
X5595285Y49757500D01*
X5610524Y49761975D01*
X5611729Y49763365D01*
X5613400Y49771048D01*
X5613400Y49775615D01*
X6121400Y49775615D01*
X6125875Y49760376D01*
X6127265Y49759171D01*
X6134948Y49757500D01*
X7373285Y49757500D01*
X7388524Y49761975D01*
X7389729Y49763365D01*
X7391400Y49771048D01*
X7391400Y50530885D01*
X7386925Y50546124D01*
X7385535Y50547329D01*
X7377852Y50549000D01*
X7361634Y50549000D01*
X7355118Y50548663D01*
X7261268Y50538925D01*
X7247872Y50536032D01*
X7096447Y50485512D01*
X7083285Y50479347D01*
X6947908Y50395574D01*
X6936510Y50386540D01*
X6845634Y50295506D01*
X6783351Y50261427D01*
X6712531Y50266430D01*
X6667443Y50295351D01*
X6575271Y50387363D01*
X6563860Y50396375D01*
X6428337Y50479912D01*
X6415159Y50486056D01*
X6263634Y50536315D01*
X6250268Y50539181D01*
X6157630Y50548672D01*
X6151215Y50549000D01*
X6139515Y50549000D01*
X6124276Y50544525D01*
X6123071Y50543135D01*
X6121400Y50535452D01*
X6121400Y49775615D01*
X5613400Y49775615D01*
X5613400Y50530885D01*
X5608925Y50546124D01*
X5607535Y50547329D01*
X5599852Y50549000D01*
X5583634Y50549000D01*
X5577118Y50548663D01*
X5483268Y50538925D01*
X5469872Y50536032D01*
X5318447Y50485512D01*
X5305285Y50479347D01*
X5169908Y50395574D01*
X5158510Y50386540D01*
X5046037Y50273871D01*
X5037025Y50262460D01*
X4953488Y50126937D01*
X4947344Y50113759D01*
X4897085Y49962234D01*
X4894219Y49948868D01*
X4884728Y49856230D01*
X4884400Y49849815D01*
X4884400Y49775615D01*
X3893127Y49775615D01*
X3917145Y49839684D01*
X3923900Y49901866D01*
X3923900Y51698134D01*
X3917145Y51760316D01*
X3866015Y51896705D01*
X3778661Y52013261D01*
X3662105Y52100615D01*
X3525716Y52151745D01*
X3463534Y52158500D01*
X1667266Y52158500D01*
X1605084Y52151745D01*
X1468695Y52100615D01*
X1352139Y52013261D01*
X1264785Y51896705D01*
X1213655Y51760316D01*
X1206900Y51698134D01*
X1206900Y49901866D01*
X1213655Y49839684D01*
X1264785Y49703295D01*
X1352139Y49586739D01*
X1468695Y49499385D01*
X1477104Y49496233D01*
X1477105Y49496232D01*
X1585851Y49455465D01*
X1642616Y49412824D01*
X1667316Y49346262D01*
X1652109Y49276913D01*
X1632716Y49250432D01*
X1506029Y49117862D01*
X1380143Y48933320D01*
X1364403Y48899410D01*
X1292036Y48743508D01*
X1286088Y48730695D01*
X1226389Y48515430D01*
X1202651Y48293305D01*
X1202948Y48288152D01*
X1202948Y48288149D01*
X1211703Y48136311D01*
X1215510Y48070285D01*
X1216647Y48065239D01*
X1216648Y48065233D01*
X1228419Y48013005D01*
X1264622Y47852361D01*
X1348666Y47645384D01*
X1351365Y47640980D01*
X1412028Y47541987D01*
X1465387Y47454912D01*
X1611650Y47286062D01*
X1750332Y47170926D01*
X1763622Y47159893D01*
X1783526Y47143368D01*
X1840899Y47109842D01*
X1856845Y47100524D01*
X1905569Y47048886D01*
X1918640Y46979103D01*
X1891909Y46913331D01*
X1851455Y46879973D01*
X1839007Y46873493D01*
X1834874Y46870390D01*
X1834871Y46870388D01*
X1738181Y46797791D01*
X1660365Y46739365D01*
X1506029Y46577862D01*
X1380143Y46393320D01*
X1286088Y46190695D01*
X1226389Y45975430D01*
X1202651Y45753305D01*
X1202948Y45748152D01*
X1202948Y45748149D01*
X1211379Y45601932D01*
X1215510Y45530285D01*
X1216647Y45525239D01*
X1216648Y45525233D01*
X1234507Y45445989D01*
X1264622Y45312361D01*
X1348666Y45105384D01*
X1399419Y45022562D01*
X1438105Y44959433D01*
X1465387Y44914912D01*
X1611650Y44746062D01*
X1783526Y44603368D01*
X1853995Y44562189D01*
X1856845Y44560524D01*
X1905569Y44508886D01*
X1918640Y44439103D01*
X1891909Y44373331D01*
X1851455Y44339973D01*
X1839007Y44333493D01*
X1834874Y44330390D01*
X1834871Y44330388D01*
X1664500Y44202470D01*
X1660365Y44199365D01*
X1656793Y44195627D01*
X1527185Y44060000D01*
X1506029Y44037862D01*
X1380143Y43853320D01*
X1286088Y43650695D01*
X1226389Y43435430D01*
X1202651Y43213305D01*
X1202948Y43208152D01*
X1202948Y43208149D01*
X1213530Y43024620D01*
X1215510Y42990285D01*
X1216647Y42985239D01*
X1216648Y42985233D01*
X1236519Y42897061D01*
X1264622Y42772361D01*
X1302861Y42678189D01*
X1342211Y42581282D01*
X1348666Y42565384D01*
X1465387Y42374912D01*
X1611650Y42206062D01*
X1783526Y42063368D01*
X1820692Y42041650D01*
X1856845Y42020524D01*
X1905569Y41968886D01*
X1918640Y41899103D01*
X1891909Y41833331D01*
X1851455Y41799973D01*
X1839007Y41793493D01*
X1834874Y41790390D01*
X1834871Y41790388D01*
X1664500Y41662470D01*
X1660365Y41659365D01*
X1506029Y41497862D01*
X1503115Y41493590D01*
X1503114Y41493589D01*
X1455158Y41423288D01*
X1380143Y41313320D01*
X1353649Y41256243D01*
X1301367Y41143610D01*
X1286088Y41110695D01*
X1226389Y40895430D01*
X1202651Y40673305D01*
X1202948Y40668152D01*
X1202948Y40668149D01*
X1212280Y40506297D01*
X1215510Y40450285D01*
X1216647Y40445239D01*
X1216648Y40445233D01*
X1236389Y40357639D01*
X1264622Y40232361D01*
X1348666Y40025384D01*
X1465387Y39834912D01*
X1611650Y39666062D01*
X1684907Y39605243D01*
X1771962Y39532969D01*
X1783526Y39523368D01*
X1853995Y39482189D01*
X1856845Y39480524D01*
X1905569Y39428886D01*
X1918640Y39359103D01*
X1891909Y39293331D01*
X1851455Y39259973D01*
X1839007Y39253493D01*
X1834874Y39250390D01*
X1834871Y39250388D01*
X1664500Y39122470D01*
X1660365Y39119365D01*
X1656793Y39115627D01*
X1531923Y38984958D01*
X1506029Y38957862D01*
X1503115Y38953590D01*
X1503114Y38953589D01*
X1440846Y38862307D01*
X1380143Y38773320D01*
X1286088Y38570695D01*
X1226389Y38355430D01*
X1202651Y38133305D01*
X1202948Y38128152D01*
X1202948Y38128149D01*
X1209524Y38014109D01*
X1215510Y37910285D01*
X1216647Y37905239D01*
X1216648Y37905233D01*
X1237675Y37811931D01*
X1264622Y37692361D01*
X1291524Y37626109D01*
X1300677Y37603567D01*
X1307773Y37532926D01*
X1275551Y37469662D01*
X1214241Y37433862D01*
X1200386Y37431242D01*
X1136550Y37422838D01*
X988525Y37361524D01*
X988523Y37361523D01*
X988524Y37361523D01*
X893328Y37288477D01*
X893325Y37288474D01*
X861413Y37263987D01*
X856383Y37257432D01*
X841948Y37238621D01*
X831081Y37226230D01*
X748495Y37143644D01*
X686183Y37109618D01*
X615368Y37114683D01*
X558532Y37157230D01*
X533721Y37223750D01*
X533400Y37232739D01*
X533400Y52706000D01*
X553402Y52774121D01*
X607058Y52820614D01*
X659400Y52832000D01*
X9182671Y52832000D01*
X9250792Y52811998D01*
G37*
%TD.AperFunction*%
%TD*%
M02*
