%TF.GenerationSoftware,KiCad,Pcbnew,(6.0.0)*%
%TF.CreationDate,2023-01-28T16:33:02+01:00*%
%TF.ProjectId,MH106Enhanced,4d483130-3645-46e6-9861-6e6365642e6b,1*%
%TF.SameCoordinates,PX5255c88PY54c81a0*%
%TF.FileFunction,Paste,Top*%
%TF.FilePolarity,Positive*%
%FSLAX46Y46*%
G04 Gerber Fmt 4.6, Leading zero omitted, Abs format (unit mm)*
G04 Created by KiCad (PCBNEW (6.0.0)) date 2023-01-28 16:33:02*
%MOMM*%
%LPD*%
G01*
G04 APERTURE LIST*
G04 Aperture macros list*
%AMRoundRect*
0 Rectangle with rounded corners*
0 $1 Rounding radius*
0 $2 $3 $4 $5 $6 $7 $8 $9 X,Y pos of 4 corners*
0 Add a 4 corners polygon primitive as box body*
4,1,4,$2,$3,$4,$5,$6,$7,$8,$9,$2,$3,0*
0 Add four circle primitives for the rounded corners*
1,1,$1+$1,$2,$3*
1,1,$1+$1,$4,$5*
1,1,$1+$1,$6,$7*
1,1,$1+$1,$8,$9*
0 Add four rect primitives between the rounded corners*
20,1,$1+$1,$2,$3,$4,$5,0*
20,1,$1+$1,$4,$5,$6,$7,0*
20,1,$1+$1,$6,$7,$8,$9,0*
20,1,$1+$1,$8,$9,$2,$3,0*%
G04 Aperture macros list end*
%ADD10C,0.010000*%
%ADD11RoundRect,0.237500X0.300000X0.237500X-0.300000X0.237500X-0.300000X-0.237500X0.300000X-0.237500X0*%
%ADD12RoundRect,0.237500X0.237500X-0.250000X0.237500X0.250000X-0.237500X0.250000X-0.237500X-0.250000X0*%
%ADD13R,0.800000X0.500000*%
%ADD14R,0.800000X0.400000*%
%ADD15RoundRect,0.237500X-0.300000X-0.237500X0.300000X-0.237500X0.300000X0.237500X-0.300000X0.237500X0*%
%ADD16R,1.700000X0.650000*%
%ADD17RoundRect,0.237500X0.237500X-0.300000X0.237500X0.300000X-0.237500X0.300000X-0.237500X-0.300000X0*%
%ADD18RoundRect,0.006000X-0.414000X-0.094000X0.414000X-0.094000X0.414000X0.094000X-0.414000X0.094000X0*%
%ADD19RoundRect,0.020000X-0.080000X-0.400000X0.080000X-0.400000X0.080000X0.400000X-0.080000X0.400000X0*%
%ADD20RoundRect,0.237500X0.250000X0.237500X-0.250000X0.237500X-0.250000X-0.237500X0.250000X-0.237500X0*%
%ADD21R,0.650000X0.850000*%
%ADD22RoundRect,0.237500X-0.250000X-0.237500X0.250000X-0.237500X0.250000X0.237500X-0.250000X0.237500X0*%
G04 APERTURE END LIST*
D10*
%TO.C,U1*%
X12507400Y27650000D02*
X14467400Y27650000D01*
X14467400Y27650000D02*
X14467400Y25690000D01*
X14467400Y25690000D02*
X12507400Y25690000D01*
X12507400Y25690000D02*
X12507400Y27650000D01*
G36*
X14467400Y25690000D02*
G01*
X12507400Y25690000D01*
X12507400Y27650000D01*
X14467400Y27650000D01*
X14467400Y25690000D01*
G37*
X14467400Y25690000D02*
X12507400Y25690000D01*
X12507400Y27650000D01*
X14467400Y27650000D01*
X14467400Y25690000D01*
%TD*%
D11*
%TO.C,C13*%
X16998100Y12420600D03*
X15273100Y12420600D03*
%TD*%
%TO.C,C14*%
X16998100Y14452600D03*
X15273100Y14452600D03*
%TD*%
%TO.C,C8*%
X13815400Y20955000D03*
X12090400Y20955000D03*
%TD*%
D12*
%TO.C,R6*%
X13635200Y7215500D03*
X13635200Y9040500D03*
%TD*%
D13*
%TO.C,RN1*%
X7137400Y39300000D03*
D14*
X7137400Y38500000D03*
X7137400Y37700000D03*
D13*
X7137400Y36900000D03*
X5337400Y36900000D03*
D14*
X5337400Y37700000D03*
X5337400Y38500000D03*
D13*
X5337400Y39300000D03*
%TD*%
D12*
%TO.C,R2*%
X13360400Y32512000D03*
X13360400Y34337000D03*
%TD*%
D13*
%TO.C,RN3*%
X5337400Y30410000D03*
D14*
X5337400Y29610000D03*
X5337400Y28810000D03*
D13*
X5337400Y28010000D03*
X7137400Y28010000D03*
D14*
X7137400Y28810000D03*
X7137400Y29610000D03*
D13*
X7137400Y30410000D03*
%TD*%
D12*
%TO.C,R5*%
X11125200Y7215500D03*
X11125200Y9040500D03*
%TD*%
D15*
%TO.C,C1*%
X11000400Y42672000D03*
X12725400Y42672000D03*
%TD*%
D13*
%TO.C,RN2*%
X5337400Y34855000D03*
D14*
X5337400Y34055000D03*
X5337400Y33255000D03*
D13*
X5337400Y32455000D03*
X7137400Y32455000D03*
D14*
X7137400Y33255000D03*
X7137400Y34055000D03*
D13*
X7137400Y34855000D03*
%TD*%
D16*
%TO.C,U6*%
X9423400Y40894000D03*
X9423400Y39624000D03*
X9423400Y38354000D03*
X9423400Y37084000D03*
X16723400Y37084000D03*
X16723400Y38354000D03*
X16723400Y39624000D03*
X16723400Y40894000D03*
%TD*%
D11*
%TO.C,C4*%
X18440400Y34798000D03*
X16715400Y34798000D03*
%TD*%
D13*
%TO.C,RN4*%
X5337400Y25965000D03*
D14*
X5337400Y25165000D03*
X5337400Y24365000D03*
D13*
X5337400Y23565000D03*
X7137400Y23565000D03*
D14*
X7137400Y24365000D03*
X7137400Y25165000D03*
D13*
X7137400Y25965000D03*
%TD*%
D17*
%TO.C,C7*%
X18592800Y31521400D03*
X18592800Y33246400D03*
%TD*%
D11*
%TO.C,C15*%
X16998100Y16611600D03*
X15273100Y16611600D03*
%TD*%
D18*
%TO.C,U1*%
X10052400Y29270000D03*
X10052400Y28870000D03*
X10052400Y28470000D03*
X10052400Y28070000D03*
X10052400Y27670000D03*
X10052400Y27270000D03*
X10052400Y26870000D03*
X10052400Y26470000D03*
X10052400Y26070000D03*
X10052400Y25670000D03*
X10052400Y25270000D03*
X10052400Y24870000D03*
X10052400Y24470000D03*
X10052400Y24070000D03*
D19*
X10887400Y23235000D03*
X11287400Y23235000D03*
X11687400Y23235000D03*
X12087400Y23235000D03*
X12487400Y23235000D03*
X12887400Y23235000D03*
X13287400Y23235000D03*
X13687400Y23235000D03*
X14087400Y23235000D03*
X14487400Y23235000D03*
X14887400Y23235000D03*
X15287400Y23235000D03*
X15687400Y23235000D03*
X16087400Y23235000D03*
D18*
X16922400Y24070000D03*
X16922400Y24470000D03*
X16922400Y24870000D03*
X16922400Y25270000D03*
X16922400Y25670000D03*
X16922400Y26070000D03*
X16922400Y26470000D03*
X16922400Y26870000D03*
X16922400Y27270000D03*
X16922400Y27670000D03*
X16922400Y28070000D03*
X16922400Y28470000D03*
X16922400Y28870000D03*
X16922400Y29270000D03*
D19*
X16087400Y30105000D03*
X15687400Y30105000D03*
X15287400Y30105000D03*
X14887400Y30105000D03*
X14487400Y30105000D03*
X14087400Y30105000D03*
X13687400Y30105000D03*
X13287400Y30105000D03*
X12887400Y30105000D03*
X12487400Y30105000D03*
X12087400Y30105000D03*
X11687400Y30105000D03*
X11287400Y30105000D03*
X10887400Y30105000D03*
%TD*%
D12*
%TO.C,R1*%
X14630400Y32488500D03*
X14630400Y34313500D03*
%TD*%
D17*
%TO.C,C3*%
X16078200Y31521400D03*
X16078200Y33246400D03*
%TD*%
D20*
%TO.C,R3*%
X9296400Y45085000D03*
X7471400Y45085000D03*
%TD*%
D21*
%TO.C,U7*%
X13613400Y19584000D03*
X11963400Y19584000D03*
X11963400Y18034000D03*
X13613400Y18034000D03*
%TD*%
D13*
%TO.C,RN6*%
X5337400Y17075000D03*
D14*
X5337400Y16275000D03*
X5337400Y15475000D03*
D13*
X5337400Y14675000D03*
X7137400Y14675000D03*
D14*
X7137400Y15475000D03*
X7137400Y16275000D03*
D13*
X7137400Y17075000D03*
%TD*%
D11*
%TO.C,C12*%
X16966100Y10642600D03*
X15241100Y10642600D03*
%TD*%
D22*
%TO.C,R4*%
X7471400Y42672000D03*
X9296400Y42672000D03*
%TD*%
D13*
%TO.C,RN5*%
X5337400Y21520000D03*
D14*
X5337400Y20720000D03*
X5337400Y19920000D03*
D13*
X5337400Y19120000D03*
X7137400Y19120000D03*
D14*
X7137400Y19920000D03*
X7137400Y20720000D03*
D13*
X7137400Y21520000D03*
%TD*%
D17*
%TO.C,C2*%
X17373600Y31521400D03*
X17373600Y33246400D03*
%TD*%
M02*
