%FSLAX45Y45*%
G04 Gerber Fmt 4.5, Leading zero omitted, Abs format (unit mm)*
G04 Created by KiCad (PCBNEW (6.0.0)) date 2023-01-28 16:32:57*
%MOMM*%
%LPD*%
G01*
G04 APERTURE LIST*
%TA.AperFunction,Profile*%
%ADD10C,0.100000*%
%TD*%
%ADD11C,0.200000*%
%ADD12C,0.110000*%
G04 APERTURE END LIST*
D10*
X2540Y5334000D02*
X2288540Y5334000D01*
X2288540Y5334000D02*
X2288540Y0D01*
X2288540Y0D02*
X2540Y0D01*
X2540Y0D02*
X2540Y5334000D01*
D11*
D12*
X963540Y5262000D02*
X1073540Y5152000D01*
X1073540Y5262000D02*
X963540Y5152000D01*
X1217540Y5262000D02*
X1327540Y5152000D01*
X1327540Y5262000D02*
X1217540Y5152000D01*
D11*
X255159Y-315476D02*
X255159Y-115476D01*
X302778Y-115476D01*
X331350Y-125000D01*
X350397Y-144048D01*
X359921Y-163095D01*
X369445Y-201190D01*
X369445Y-229762D01*
X359921Y-267857D01*
X350397Y-286905D01*
X331350Y-305952D01*
X302778Y-315476D01*
X255159Y-315476D01*
X455159Y-315476D02*
X455159Y-182143D01*
X455159Y-220238D02*
X464683Y-201190D01*
X474207Y-191667D01*
X493254Y-182143D01*
X512302Y-182143D01*
X578969Y-315476D02*
X578969Y-182143D01*
X578969Y-115476D02*
X569445Y-125000D01*
X578969Y-134524D01*
X588492Y-125000D01*
X578969Y-115476D01*
X578969Y-134524D01*
X702778Y-315476D02*
X683730Y-305952D01*
X674207Y-286905D01*
X674207Y-115476D01*
X807540Y-315476D02*
X788492Y-305952D01*
X778968Y-286905D01*
X778968Y-115476D01*
X1036111Y-315476D02*
X1036111Y-115476D01*
X1102778Y-258333D01*
X1169445Y-115476D01*
X1169445Y-315476D01*
X1350397Y-315476D02*
X1350397Y-210714D01*
X1340873Y-191667D01*
X1321826Y-182143D01*
X1283730Y-182143D01*
X1264683Y-191667D01*
X1350397Y-305952D02*
X1331350Y-315476D01*
X1283730Y-315476D01*
X1264683Y-305952D01*
X1255159Y-286905D01*
X1255159Y-267857D01*
X1264683Y-248809D01*
X1283730Y-239286D01*
X1331350Y-239286D01*
X1350397Y-229762D01*
X1445635Y-182143D02*
X1445635Y-382143D01*
X1445635Y-191667D02*
X1464683Y-182143D01*
X1502778Y-182143D01*
X1521826Y-191667D01*
X1531349Y-201190D01*
X1540873Y-220238D01*
X1540873Y-277381D01*
X1531349Y-296429D01*
X1521826Y-305952D01*
X1502778Y-315476D01*
X1464683Y-315476D01*
X1445635Y-305952D01*
X1626588Y-296429D02*
X1636111Y-305952D01*
X1626588Y-315476D01*
X1617064Y-305952D01*
X1626588Y-296429D01*
X1626588Y-315476D01*
X1626588Y-191667D02*
X1636111Y-201190D01*
X1626588Y-210714D01*
X1617064Y-201190D01*
X1626588Y-191667D01*
X1626588Y-210714D01*
D12*
X-112460Y-590000D02*
X-2460Y-700000D01*
X-2460Y-590000D02*
X-112460Y-700000D01*
D11*
X359921Y-735476D02*
X245635Y-735476D01*
X302778Y-735476D02*
X302778Y-535476D01*
X283730Y-564048D01*
X264683Y-583095D01*
X245635Y-592619D01*
X445635Y-716428D02*
X455159Y-725952D01*
X445635Y-735476D01*
X436111Y-725952D01*
X445635Y-716428D01*
X445635Y-735476D01*
X645635Y-735476D02*
X531350Y-735476D01*
X588492Y-735476D02*
X588492Y-535476D01*
X569445Y-564048D01*
X550397Y-583095D01*
X531350Y-592619D01*
X769445Y-535476D02*
X788492Y-535476D01*
X807540Y-545000D01*
X817064Y-554524D01*
X826588Y-573571D01*
X836111Y-611667D01*
X836111Y-659286D01*
X826588Y-697381D01*
X817064Y-716428D01*
X807540Y-725952D01*
X788492Y-735476D01*
X769445Y-735476D01*
X750397Y-725952D01*
X740873Y-716428D01*
X731349Y-697381D01*
X721826Y-659286D01*
X721826Y-611667D01*
X731349Y-573571D01*
X740873Y-554524D01*
X750397Y-545000D01*
X769445Y-535476D01*
X959921Y-535476D02*
X978968Y-535476D01*
X998016Y-545000D01*
X1007540Y-554524D01*
X1017064Y-573571D01*
X1026588Y-611667D01*
X1026588Y-659286D01*
X1017064Y-697381D01*
X1007540Y-716428D01*
X998016Y-725952D01*
X978968Y-735476D01*
X959921Y-735476D01*
X940873Y-725952D01*
X931349Y-716428D01*
X921826Y-697381D01*
X912302Y-659286D01*
X912302Y-611667D01*
X921826Y-573571D01*
X931349Y-554524D01*
X940873Y-545000D01*
X959921Y-535476D01*
X1112302Y-735476D02*
X1112302Y-602143D01*
X1112302Y-621190D02*
X1121826Y-611667D01*
X1140873Y-602143D01*
X1169445Y-602143D01*
X1188492Y-611667D01*
X1198016Y-630714D01*
X1198016Y-735476D01*
X1198016Y-630714D02*
X1207540Y-611667D01*
X1226588Y-602143D01*
X1255159Y-602143D01*
X1274207Y-611667D01*
X1283730Y-630714D01*
X1283730Y-735476D01*
X1378969Y-735476D02*
X1378969Y-602143D01*
X1378969Y-621190D02*
X1388492Y-611667D01*
X1407540Y-602143D01*
X1436111Y-602143D01*
X1455159Y-611667D01*
X1464683Y-630714D01*
X1464683Y-735476D01*
X1464683Y-630714D02*
X1474207Y-611667D01*
X1493254Y-602143D01*
X1521826Y-602143D01*
X1540873Y-611667D01*
X1550397Y-630714D01*
X1550397Y-735476D01*
X1940873Y-525952D02*
X1769445Y-783095D01*
X2198016Y-535476D02*
X2217064Y-535476D01*
X2236111Y-545000D01*
X2245635Y-554524D01*
X2255159Y-573571D01*
X2264683Y-611667D01*
X2264683Y-659286D01*
X2255159Y-697381D01*
X2245635Y-716428D01*
X2236111Y-725952D01*
X2217064Y-735476D01*
X2198016Y-735476D01*
X2178969Y-725952D01*
X2169445Y-716428D01*
X2159921Y-697381D01*
X2150397Y-659286D01*
X2150397Y-611667D01*
X2159921Y-573571D01*
X2169445Y-554524D01*
X2178969Y-545000D01*
X2198016Y-535476D01*
X2350397Y-716428D02*
X2359921Y-725952D01*
X2350397Y-735476D01*
X2340873Y-725952D01*
X2350397Y-716428D01*
X2350397Y-735476D01*
X2483730Y-535476D02*
X2502778Y-535476D01*
X2521826Y-545000D01*
X2531350Y-554524D01*
X2540873Y-573571D01*
X2550397Y-611667D01*
X2550397Y-659286D01*
X2540873Y-697381D01*
X2531350Y-716428D01*
X2521826Y-725952D01*
X2502778Y-735476D01*
X2483730Y-735476D01*
X2464683Y-725952D01*
X2455159Y-716428D01*
X2445635Y-697381D01*
X2436111Y-659286D01*
X2436111Y-611667D01*
X2445635Y-573571D01*
X2455159Y-554524D01*
X2464683Y-545000D01*
X2483730Y-535476D01*
X2721826Y-602143D02*
X2721826Y-735476D01*
X2674207Y-525952D02*
X2626588Y-668810D01*
X2750397Y-668810D01*
X2807540Y-535476D02*
X2931349Y-535476D01*
X2864683Y-611667D01*
X2893254Y-611667D01*
X2912302Y-621190D01*
X2921826Y-630714D01*
X2931349Y-649762D01*
X2931349Y-697381D01*
X2921826Y-716428D01*
X2912302Y-725952D01*
X2893254Y-735476D01*
X2836111Y-735476D01*
X2817064Y-725952D01*
X2807540Y-716428D01*
X2998016Y-535476D02*
X3121826Y-535476D01*
X3055159Y-611667D01*
X3083730Y-611667D01*
X3102778Y-621190D01*
X3112302Y-630714D01*
X3121826Y-649762D01*
X3121826Y-697381D01*
X3112302Y-716428D01*
X3102778Y-725952D01*
X3083730Y-735476D01*
X3026588Y-735476D01*
X3007540Y-725952D01*
X2998016Y-716428D01*
X3198016Y-535476D02*
X3198016Y-573571D01*
X3274207Y-535476D02*
X3274207Y-573571D01*
X3569445Y-811667D02*
X3559921Y-802143D01*
X3540873Y-773571D01*
X3531349Y-754524D01*
X3521826Y-725952D01*
X3512302Y-678333D01*
X3512302Y-640238D01*
X3521826Y-592619D01*
X3531349Y-564048D01*
X3540873Y-545000D01*
X3559921Y-516428D01*
X3569445Y-506905D01*
X3636111Y-554524D02*
X3645635Y-545000D01*
X3664683Y-535476D01*
X3712302Y-535476D01*
X3731349Y-545000D01*
X3740873Y-554524D01*
X3750397Y-573571D01*
X3750397Y-592619D01*
X3740873Y-621190D01*
X3626588Y-735476D01*
X3750397Y-735476D01*
X3988492Y-735476D02*
X3988492Y-535476D01*
X4074207Y-735476D02*
X4074207Y-630714D01*
X4064683Y-611667D01*
X4045635Y-602143D01*
X4017064Y-602143D01*
X3998016Y-611667D01*
X3988492Y-621190D01*
X4198016Y-735476D02*
X4178968Y-725952D01*
X4169445Y-716428D01*
X4159921Y-697381D01*
X4159921Y-640238D01*
X4169445Y-621190D01*
X4178968Y-611667D01*
X4198016Y-602143D01*
X4226588Y-602143D01*
X4245635Y-611667D01*
X4255159Y-621190D01*
X4264683Y-640238D01*
X4264683Y-697381D01*
X4255159Y-716428D01*
X4245635Y-725952D01*
X4226588Y-735476D01*
X4198016Y-735476D01*
X4378969Y-735476D02*
X4359921Y-725952D01*
X4350397Y-706905D01*
X4350397Y-535476D01*
X4531350Y-725952D02*
X4512302Y-735476D01*
X4474207Y-735476D01*
X4455159Y-725952D01*
X4445635Y-706905D01*
X4445635Y-630714D01*
X4455159Y-611667D01*
X4474207Y-602143D01*
X4512302Y-602143D01*
X4531350Y-611667D01*
X4540873Y-630714D01*
X4540873Y-649762D01*
X4445635Y-668810D01*
X4617064Y-725952D02*
X4636111Y-735476D01*
X4674207Y-735476D01*
X4693254Y-725952D01*
X4702778Y-706905D01*
X4702778Y-697381D01*
X4693254Y-678333D01*
X4674207Y-668810D01*
X4645635Y-668810D01*
X4626588Y-659286D01*
X4617064Y-640238D01*
X4617064Y-630714D01*
X4626588Y-611667D01*
X4645635Y-602143D01*
X4674207Y-602143D01*
X4693254Y-611667D01*
X4769445Y-811667D02*
X4778969Y-802143D01*
X4798016Y-773571D01*
X4807540Y-754524D01*
X4817064Y-725952D01*
X4826588Y-678333D01*
X4826588Y-640238D01*
X4817064Y-592619D01*
X4807540Y-564048D01*
X4798016Y-545000D01*
X4778969Y-516428D01*
X4769445Y-506905D01*
X5131350Y-811667D02*
X5121826Y-802143D01*
X5102778Y-773571D01*
X5093254Y-754524D01*
X5083730Y-725952D01*
X5074207Y-678333D01*
X5074207Y-640238D01*
X5083730Y-592619D01*
X5093254Y-564048D01*
X5102778Y-545000D01*
X5121826Y-516428D01*
X5131350Y-506905D01*
X5207540Y-602143D02*
X5207540Y-735476D01*
X5207540Y-621190D02*
X5217064Y-611667D01*
X5236111Y-602143D01*
X5264683Y-602143D01*
X5283730Y-611667D01*
X5293254Y-630714D01*
X5293254Y-735476D01*
X5417064Y-735476D02*
X5398016Y-725952D01*
X5388492Y-716428D01*
X5378969Y-697381D01*
X5378969Y-640238D01*
X5388492Y-621190D01*
X5398016Y-611667D01*
X5417064Y-602143D01*
X5445635Y-602143D01*
X5464683Y-611667D01*
X5474207Y-621190D01*
X5483730Y-640238D01*
X5483730Y-697381D01*
X5474207Y-716428D01*
X5464683Y-725952D01*
X5445635Y-735476D01*
X5417064Y-735476D01*
X5540873Y-602143D02*
X5617064Y-602143D01*
X5569445Y-535476D02*
X5569445Y-706905D01*
X5578969Y-725952D01*
X5598016Y-735476D01*
X5617064Y-735476D01*
X5836111Y-602143D02*
X5836111Y-802143D01*
X5836111Y-611667D02*
X5855159Y-602143D01*
X5893254Y-602143D01*
X5912302Y-611667D01*
X5921826Y-621190D01*
X5931349Y-640238D01*
X5931349Y-697381D01*
X5921826Y-716428D01*
X5912302Y-725952D01*
X5893254Y-735476D01*
X5855159Y-735476D01*
X5836111Y-725952D01*
X6045635Y-735476D02*
X6026588Y-725952D01*
X6017064Y-706905D01*
X6017064Y-535476D01*
X6207540Y-735476D02*
X6207540Y-630714D01*
X6198016Y-611667D01*
X6178968Y-602143D01*
X6140873Y-602143D01*
X6121826Y-611667D01*
X6207540Y-725952D02*
X6188492Y-735476D01*
X6140873Y-735476D01*
X6121826Y-725952D01*
X6112302Y-706905D01*
X6112302Y-687857D01*
X6121826Y-668810D01*
X6140873Y-659286D01*
X6188492Y-659286D01*
X6207540Y-649762D01*
X6274207Y-602143D02*
X6350397Y-602143D01*
X6302778Y-535476D02*
X6302778Y-706905D01*
X6312302Y-725952D01*
X6331349Y-735476D01*
X6350397Y-735476D01*
X6493254Y-725952D02*
X6474207Y-735476D01*
X6436111Y-735476D01*
X6417064Y-725952D01*
X6407540Y-706905D01*
X6407540Y-630714D01*
X6417064Y-611667D01*
X6436111Y-602143D01*
X6474207Y-602143D01*
X6493254Y-611667D01*
X6502778Y-630714D01*
X6502778Y-649762D01*
X6407540Y-668810D01*
X6674207Y-735476D02*
X6674207Y-535476D01*
X6674207Y-725952D02*
X6655159Y-735476D01*
X6617064Y-735476D01*
X6598016Y-725952D01*
X6588492Y-716428D01*
X6578968Y-697381D01*
X6578968Y-640238D01*
X6588492Y-621190D01*
X6598016Y-611667D01*
X6617064Y-602143D01*
X6655159Y-602143D01*
X6674207Y-611667D01*
X6750397Y-811667D02*
X6759921Y-802143D01*
X6778968Y-773571D01*
X6788492Y-754524D01*
X6798016Y-725952D01*
X6807540Y-678333D01*
X6807540Y-640238D01*
X6798016Y-592619D01*
X6788492Y-564048D01*
X6778968Y-545000D01*
X6759921Y-516428D01*
X6750397Y-506905D01*
M02*
