%TF.GenerationSoftware,KiCad,Pcbnew,(6.0.0)*%
%TF.CreationDate,2023-01-28T16:33:02+01:00*%
%TF.ProjectId,MH106Enhanced,4d483130-3645-46e6-9861-6e6365642e6b,1*%
%TF.SameCoordinates,PX5255c88PY54c81a0*%
%TF.FileFunction,Paste,Bot*%
%TF.FilePolarity,Positive*%
%FSLAX46Y46*%
G04 Gerber Fmt 4.6, Leading zero omitted, Abs format (unit mm)*
G04 Created by KiCad (PCBNEW (6.0.0)) date 2023-01-28 16:33:02*
%MOMM*%
%LPD*%
G01*
G04 APERTURE LIST*
G04 Aperture macros list*
%AMRoundRect*
0 Rectangle with rounded corners*
0 $1 Rounding radius*
0 $2 $3 $4 $5 $6 $7 $8 $9 X,Y pos of 4 corners*
0 Add a 4 corners polygon primitive as box body*
4,1,4,$2,$3,$4,$5,$6,$7,$8,$9,$2,$3,0*
0 Add four circle primitives for the rounded corners*
1,1,$1+$1,$2,$3*
1,1,$1+$1,$4,$5*
1,1,$1+$1,$6,$7*
1,1,$1+$1,$8,$9*
0 Add four rect primitives between the rounded corners*
20,1,$1+$1,$2,$3,$4,$5,0*
20,1,$1+$1,$4,$5,$6,$7,0*
20,1,$1+$1,$6,$7,$8,$9,0*
20,1,$1+$1,$8,$9,$2,$3,0*%
G04 Aperture macros list end*
%ADD10RoundRect,0.237500X0.300000X0.237500X-0.300000X0.237500X-0.300000X-0.237500X0.300000X-0.237500X0*%
%ADD11RoundRect,0.237500X0.237500X-0.300000X0.237500X0.300000X-0.237500X0.300000X-0.237500X-0.300000X0*%
%ADD12RoundRect,0.042000X0.943000X0.258000X-0.943000X0.258000X-0.943000X-0.258000X0.943000X-0.258000X0*%
%ADD13R,0.650000X2.000000*%
%ADD14R,1.500000X2.000000*%
%ADD15R,3.800000X2.000000*%
G04 APERTURE END LIST*
D10*
%TO.C,C9*%
X16254900Y12065000D03*
X14529900Y12065000D03*
%TD*%
D11*
%TO.C,C6*%
X5867400Y47778500D03*
X5867400Y49503500D03*
%TD*%
D12*
%TO.C,U4*%
X15784400Y34671000D03*
X15784400Y33401000D03*
X15784400Y32131000D03*
X15784400Y30861000D03*
X15784400Y29591000D03*
X15784400Y28321000D03*
X15784400Y27051000D03*
X15784400Y25781000D03*
X10834400Y25781000D03*
X10834400Y27051000D03*
X10834400Y28321000D03*
X10834400Y29591000D03*
X10834400Y30861000D03*
X10834400Y32131000D03*
X10834400Y33401000D03*
X10834400Y34671000D03*
%TD*%
D10*
%TO.C,C10*%
X16331100Y24130000D03*
X14606100Y24130000D03*
%TD*%
%TO.C,C11*%
X16254900Y36068000D03*
X14529900Y36068000D03*
%TD*%
D11*
%TO.C,C5*%
X7645400Y47778500D03*
X7645400Y49503500D03*
%TD*%
D13*
%TO.C,Q2*%
X6563400Y4640000D03*
X4663400Y4640000D03*
X5613400Y8060000D03*
%TD*%
%TO.C,Q1*%
X6563400Y10863000D03*
X4663400Y10863000D03*
X5613400Y14283000D03*
%TD*%
D12*
%TO.C,U3*%
X15784400Y22606000D03*
X15784400Y21336000D03*
X15784400Y20066000D03*
X15784400Y18796000D03*
X15784400Y17526000D03*
X15784400Y16256000D03*
X15784400Y14986000D03*
X15784400Y13716000D03*
X10834400Y13716000D03*
X10834400Y14986000D03*
X10834400Y16256000D03*
X10834400Y17526000D03*
X10834400Y18796000D03*
X10834400Y20066000D03*
X10834400Y21336000D03*
X10834400Y22606000D03*
%TD*%
%TO.C,U2*%
X15784400Y10541000D03*
X15784400Y9271000D03*
X15784400Y8001000D03*
X15784400Y6731000D03*
X15784400Y5461000D03*
X15784400Y4191000D03*
X15784400Y2921000D03*
X15784400Y1651000D03*
X10834400Y1651000D03*
X10834400Y2921000D03*
X10834400Y4191000D03*
X10834400Y5461000D03*
X10834400Y6731000D03*
X10834400Y8001000D03*
X10834400Y9271000D03*
X10834400Y10541000D03*
%TD*%
D14*
%TO.C,U5*%
X5472400Y45568000D03*
X7772400Y45568000D03*
D15*
X7772400Y39268000D03*
D14*
X10072400Y45568000D03*
%TD*%
M02*
