%TF.GenerationSoftware,KiCad,Pcbnew,(6.0.0)*%
%TF.CreationDate,2023-01-28T16:33:02+01:00*%
%TF.ProjectId,MH106Enhanced,4d483130-3645-46e6-9861-6e6365642e6b,1*%
%TF.SameCoordinates,PX5255c88PY54c81a0*%
%TF.FileFunction,Soldermask,Top*%
%TF.FilePolarity,Negative*%
%FSLAX46Y46*%
G04 Gerber Fmt 4.6, Leading zero omitted, Abs format (unit mm)*
G04 Created by KiCad (PCBNEW (6.0.0)) date 2023-01-28 16:33:02*
%MOMM*%
%LPD*%
G01*
G04 APERTURE LIST*
G04 Aperture macros list*
%AMRoundRect*
0 Rectangle with rounded corners*
0 $1 Rounding radius*
0 $2 $3 $4 $5 $6 $7 $8 $9 X,Y pos of 4 corners*
0 Add a 4 corners polygon primitive as box body*
4,1,4,$2,$3,$4,$5,$6,$7,$8,$9,$2,$3,0*
0 Add four circle primitives for the rounded corners*
1,1,$1+$1,$2,$3*
1,1,$1+$1,$4,$5*
1,1,$1+$1,$6,$7*
1,1,$1+$1,$8,$9*
0 Add four rect primitives between the rounded corners*
20,1,$1+$1,$2,$3,$4,$5,0*
20,1,$1+$1,$4,$5,$6,$7,0*
20,1,$1+$1,$6,$7,$8,$9,0*
20,1,$1+$1,$8,$9,$2,$3,0*%
%AMFreePoly0*
4,1,22,0.500000,-0.750000,0.000000,-0.750000,0.000000,-0.745033,-0.079941,-0.743568,-0.215256,-0.701293,-0.333266,-0.622738,-0.424486,-0.514219,-0.481581,-0.384460,-0.499164,-0.250000,-0.500000,-0.250000,-0.500000,0.250000,-0.499164,0.250000,-0.499963,0.256109,-0.478152,0.396186,-0.417904,0.524511,-0.324060,0.630769,-0.204165,0.706417,-0.067858,0.745374,0.000000,0.744959,0.000000,0.750000,
0.500000,0.750000,0.500000,-0.750000,0.500000,-0.750000,$1*%
%AMFreePoly1*
4,1,20,0.000000,0.744959,0.073905,0.744508,0.209726,0.703889,0.328688,0.626782,0.421226,0.519385,0.479903,0.390333,0.500000,0.250000,0.500000,-0.250000,0.499851,-0.262216,0.476331,-0.402017,0.414519,-0.529596,0.319384,-0.634700,0.198574,-0.708877,0.061801,-0.746166,0.000000,-0.745033,0.000000,-0.750000,-0.500000,-0.750000,-0.500000,0.750000,0.000000,0.750000,0.000000,0.744959,
0.000000,0.744959,$1*%
G04 Aperture macros list end*
%ADD10R,1.700000X1.700000*%
%ADD11O,1.700000X1.700000*%
%ADD12RoundRect,0.237500X0.300000X0.237500X-0.300000X0.237500X-0.300000X-0.237500X0.300000X-0.237500X0*%
%ADD13RoundRect,0.237500X0.237500X-0.250000X0.237500X0.250000X-0.237500X0.250000X-0.237500X-0.250000X0*%
%ADD14FreePoly0,270.000000*%
%ADD15FreePoly1,270.000000*%
%ADD16R,0.800000X0.500000*%
%ADD17R,0.800000X0.400000*%
%ADD18C,1.100000*%
%ADD19C,2.200000*%
%ADD20R,2.200000X2.200000*%
%ADD21RoundRect,0.237500X-0.300000X-0.237500X0.300000X-0.237500X0.300000X0.237500X-0.300000X0.237500X0*%
%ADD22R,1.000000X1.000000*%
%ADD23O,1.000000X1.000000*%
%ADD24R,1.700000X0.650000*%
%ADD25RoundRect,0.237500X0.237500X-0.300000X0.237500X0.300000X-0.237500X0.300000X-0.237500X-0.300000X0*%
%ADD26RoundRect,0.006000X-0.414000X-0.094000X0.414000X-0.094000X0.414000X0.094000X-0.414000X0.094000X0*%
%ADD27RoundRect,0.020000X-0.080000X-0.400000X0.080000X-0.400000X0.080000X0.400000X-0.080000X0.400000X0*%
%ADD28R,3.100000X3.100000*%
%ADD29FreePoly1,90.000000*%
%ADD30FreePoly0,90.000000*%
%ADD31RoundRect,0.237500X0.250000X0.237500X-0.250000X0.237500X-0.250000X-0.237500X0.250000X-0.237500X0*%
%ADD32R,0.650000X0.850000*%
%ADD33RoundRect,0.237500X-0.250000X-0.237500X0.250000X-0.237500X0.250000X0.237500X-0.250000X0.237500X0*%
G04 APERTURE END LIST*
D10*
%TO.C,J6*%
X8305800Y11912600D03*
D11*
X8305800Y9372600D03*
X8305800Y6832600D03*
X8305800Y4292600D03*
X8305800Y1752600D03*
%TD*%
D12*
%TO.C,C13*%
X16998100Y12420600D03*
X15273100Y12420600D03*
%TD*%
%TO.C,C14*%
X16998100Y14452600D03*
X15273100Y14452600D03*
%TD*%
%TO.C,C8*%
X13815400Y20955000D03*
X12090400Y20955000D03*
%TD*%
D13*
%TO.C,R6*%
X13635200Y7215500D03*
X13635200Y9040500D03*
%TD*%
D14*
%TO.C,JP2*%
X7465400Y48163000D03*
D15*
X7465400Y46863000D03*
%TD*%
D16*
%TO.C,RN1*%
X7137400Y39300000D03*
D17*
X7137400Y38500000D03*
X7137400Y37700000D03*
D16*
X7137400Y36900000D03*
X5337400Y36900000D03*
D17*
X5337400Y37700000D03*
X5337400Y38500000D03*
D16*
X5337400Y39300000D03*
%TD*%
D13*
%TO.C,R2*%
X13360400Y32512000D03*
X13360400Y34337000D03*
%TD*%
D16*
%TO.C,RN3*%
X5337400Y30410000D03*
D17*
X5337400Y29610000D03*
X5337400Y28810000D03*
D16*
X5337400Y28010000D03*
X7137400Y28010000D03*
D17*
X7137400Y28810000D03*
X7137400Y29610000D03*
D16*
X7137400Y30410000D03*
%TD*%
D18*
%TO.C,J3*%
X12725400Y52070000D03*
X10185400Y52070000D03*
D19*
X12725400Y49530000D03*
D20*
X10185400Y49530000D03*
%TD*%
D13*
%TO.C,R5*%
X11125200Y7215500D03*
X11125200Y9040500D03*
%TD*%
D21*
%TO.C,C1*%
X11000400Y42672000D03*
X12725400Y42672000D03*
%TD*%
D16*
%TO.C,RN2*%
X5337400Y34855000D03*
D17*
X5337400Y34055000D03*
X5337400Y33255000D03*
D16*
X5337400Y32455000D03*
X7137400Y32455000D03*
D17*
X7137400Y33255000D03*
X7137400Y34055000D03*
D16*
X7137400Y34855000D03*
%TD*%
D22*
%TO.C,J5*%
X10390400Y12065000D03*
D23*
X11660400Y12065000D03*
X12930400Y12065000D03*
%TD*%
D24*
%TO.C,U6*%
X9423400Y40894000D03*
X9423400Y39624000D03*
X9423400Y38354000D03*
X9423400Y37084000D03*
X16723400Y37084000D03*
X16723400Y38354000D03*
X16723400Y39624000D03*
X16723400Y40894000D03*
%TD*%
D12*
%TO.C,C4*%
X18440400Y34798000D03*
X16715400Y34798000D03*
%TD*%
D16*
%TO.C,RN4*%
X5337400Y25965000D03*
D17*
X5337400Y25165000D03*
X5337400Y24365000D03*
D16*
X5337400Y23565000D03*
X7137400Y23565000D03*
D17*
X7137400Y24365000D03*
X7137400Y25165000D03*
D16*
X7137400Y25965000D03*
%TD*%
D25*
%TO.C,C7*%
X18592800Y31521400D03*
X18592800Y33246400D03*
%TD*%
D12*
%TO.C,C15*%
X16998100Y16611600D03*
X15273100Y16611600D03*
%TD*%
D26*
%TO.C,U1*%
X10052400Y29270000D03*
X10052400Y28870000D03*
X10052400Y28470000D03*
X10052400Y28070000D03*
X10052400Y27670000D03*
X10052400Y27270000D03*
X10052400Y26870000D03*
X10052400Y26470000D03*
X10052400Y26070000D03*
X10052400Y25670000D03*
X10052400Y25270000D03*
X10052400Y24870000D03*
X10052400Y24470000D03*
X10052400Y24070000D03*
D27*
X10887400Y23235000D03*
X11287400Y23235000D03*
X11687400Y23235000D03*
X12087400Y23235000D03*
X12487400Y23235000D03*
X12887400Y23235000D03*
X13287400Y23235000D03*
X13687400Y23235000D03*
X14087400Y23235000D03*
X14487400Y23235000D03*
X14887400Y23235000D03*
X15287400Y23235000D03*
X15687400Y23235000D03*
X16087400Y23235000D03*
D26*
X16922400Y24070000D03*
X16922400Y24470000D03*
X16922400Y24870000D03*
X16922400Y25270000D03*
X16922400Y25670000D03*
X16922400Y26070000D03*
X16922400Y26470000D03*
X16922400Y26870000D03*
X16922400Y27270000D03*
X16922400Y27670000D03*
X16922400Y28070000D03*
X16922400Y28470000D03*
X16922400Y28870000D03*
X16922400Y29270000D03*
D27*
X16087400Y30105000D03*
X15687400Y30105000D03*
X15287400Y30105000D03*
X14887400Y30105000D03*
X14487400Y30105000D03*
X14087400Y30105000D03*
X13687400Y30105000D03*
X13287400Y30105000D03*
X12887400Y30105000D03*
X12487400Y30105000D03*
X12087400Y30105000D03*
X11687400Y30105000D03*
X11287400Y30105000D03*
X10887400Y30105000D03*
D28*
X13487400Y26670000D03*
%TD*%
D13*
%TO.C,R1*%
X14630400Y32488500D03*
X14630400Y34313500D03*
%TD*%
D25*
%TO.C,C3*%
X16078200Y31521400D03*
X16078200Y33246400D03*
%TD*%
D29*
%TO.C,JP1*%
X16078200Y21234400D03*
D30*
X16078200Y19934400D03*
%TD*%
D31*
%TO.C,R3*%
X9296400Y45085000D03*
X7471400Y45085000D03*
%TD*%
D32*
%TO.C,U7*%
X13613400Y19584000D03*
X11963400Y19584000D03*
X11963400Y18034000D03*
X13613400Y18034000D03*
%TD*%
D16*
%TO.C,RN6*%
X5337400Y17075000D03*
D17*
X5337400Y16275000D03*
X5337400Y15475000D03*
D16*
X5337400Y14675000D03*
X7137400Y14675000D03*
D17*
X7137400Y15475000D03*
X7137400Y16275000D03*
D16*
X7137400Y17075000D03*
%TD*%
D12*
%TO.C,C12*%
X16966100Y10642600D03*
X15241100Y10642600D03*
%TD*%
D33*
%TO.C,R4*%
X7471400Y42672000D03*
X9296400Y42672000D03*
%TD*%
D22*
%TO.C,J4*%
X12090400Y44450000D03*
D23*
X13360400Y44450000D03*
X14630400Y44450000D03*
X15900400Y44450000D03*
%TD*%
D16*
%TO.C,RN5*%
X5337400Y21520000D03*
D17*
X5337400Y20720000D03*
X5337400Y19920000D03*
D16*
X5337400Y19120000D03*
X7137400Y19120000D03*
D17*
X7137400Y19920000D03*
X7137400Y20720000D03*
D16*
X7137400Y21520000D03*
%TD*%
D25*
%TO.C,C2*%
X17373600Y31521400D03*
X17373600Y33246400D03*
%TD*%
D10*
%TO.C,J2*%
X20345400Y2540000D03*
D11*
X20345400Y5080000D03*
X20345400Y7620000D03*
X20345400Y10160000D03*
X20345400Y12700000D03*
X20345400Y15240000D03*
X20345400Y17780000D03*
X20345400Y20320000D03*
X20345400Y22860000D03*
X20345400Y25400000D03*
X20345400Y27940000D03*
X20345400Y30480000D03*
X20345400Y33020000D03*
X20345400Y35560000D03*
X20345400Y38100000D03*
X20345400Y40640000D03*
X20345400Y43180000D03*
X20345400Y45720000D03*
X20345400Y48260000D03*
X20345400Y50800000D03*
%TD*%
D10*
%TO.C,J1*%
X2565400Y50800000D03*
D11*
X2565400Y48260000D03*
X2565400Y45720000D03*
X2565400Y43180000D03*
X2565400Y40640000D03*
X2565400Y38100000D03*
X2565400Y35560000D03*
X2565400Y33020000D03*
X2565400Y30480000D03*
X2565400Y27940000D03*
X2565400Y25400000D03*
X2565400Y22860000D03*
X2565400Y20320000D03*
X2565400Y17780000D03*
X2565400Y15240000D03*
X2565400Y12700000D03*
X2565400Y10160000D03*
X2565400Y7620000D03*
X2565400Y5080000D03*
X2565400Y2540000D03*
%TD*%
M02*
